<svg width="180" height="137" viewBox="0 0 180 137" fill="none" xmlns="http://www.w3.org/2000/svg">
<path d="M47.1683 93.1372C47.1683 93.1372 36.6154 78.0337 38.4077 63.7795C39.1968 57.8056 38.0111 51.739 35.0286 46.4905C33.5933 44.0093 31.9318 41.6638 30.0649 39.4834" stroke="#535461" stroke-width="2" stroke-miterlimit="10"/>
<path d="M31.1406 30.4946C31.8255 32.5442 30.0652 39.7212 30.0652 39.7212C30.0652 39.7212 24.3367 35.0037 23.6517 32.9519C23.3232 31.9668 23.4026 30.8927 23.8726 29.9657C24.3425 29.0388 25.1644 28.3349 26.1575 28.0091C27.1506 27.6832 28.2335 27.7621 29.168 28.2282C30.1025 28.6943 30.8121 29.5096 31.1406 30.4946Z" fill="#6C63FF"/>
<path d="M41.1179 39.8231C40.5699 41.9135 35.161 46.9888 35.161 46.9888C35.161 46.9888 32.9372 39.9409 33.4874 37.8505C33.6119 37.3471 33.836 36.8731 34.1468 36.4563C34.4575 36.0395 34.8487 35.6882 35.2976 35.4226C35.7465 35.1571 36.2441 34.9828 36.7615 34.9097C37.2789 34.8367 37.8058 34.8664 38.3115 34.9972C38.8172 35.1279 39.2917 35.3571 39.7074 35.6713C40.123 35.9856 40.4715 36.3786 40.7327 36.8277C40.9938 37.2768 41.1623 37.7728 41.2284 38.2871C41.2946 38.8013 41.257 39.3234 41.1179 39.8231Z" fill="#6C63FF"/>
<path d="M47.3259 59.3248C45.787 60.8557 38.5356 62.5271 38.5356 62.5271C38.5356 62.5271 40.2047 55.3298 41.7321 53.8011C42.4706 53.0665 43.473 52.653 44.5188 52.6515C45.5646 52.65 46.5682 53.0607 47.3088 53.7932C48.0494 54.5257 48.4662 55.52 48.4677 56.5573C48.4692 57.5947 48.0552 58.5902 47.3168 59.3248H47.3259Z" fill="#6C63FF"/>
<path d="M48.6708 75.1394C47.415 76.9037 40.5518 79.7686 40.5518 79.7686C40.5518 79.7686 40.9696 72.3946 42.2253 70.6304C42.8281 69.7825 43.7458 69.207 44.7764 69.0303C45.8071 68.8536 46.8662 69.0903 47.721 69.6882C48.5757 70.2862 49.1559 71.1964 49.334 72.2187C49.5122 73.241 49.2736 74.2916 48.6708 75.1394Z" fill="#6C63FF"/>
<path d="M27.4371 49.9669C29.3961 50.909 36.7982 50.1209 36.7982 50.1209C36.7982 50.1209 32.8345 43.8702 30.8619 42.9258C29.9265 42.5171 28.8675 42.4846 27.9084 42.8352C26.9493 43.1859 26.165 43.8923 25.7208 44.8055C25.2767 45.7187 25.2074 46.7673 25.5275 47.7302C25.8477 48.6931 26.5324 49.495 27.4371 49.9669Z" fill="#6C63FF"/>
<path d="M29.2433 68.4313C31.3987 68.7484 38.2254 65.7997 38.2254 65.7997C38.2254 65.7997 32.5562 61.0097 30.4055 60.6927C29.8932 60.6171 29.371 60.6424 28.8686 60.7671C28.3661 60.8917 27.8934 61.1133 27.4773 61.4192C26.637 62.037 26.0785 62.9605 25.9247 63.9867C25.7709 65.0129 26.0344 66.0577 26.6572 66.8912C27.28 67.7247 28.2111 68.2787 29.2456 68.4313H29.2433Z" fill="#6C63FF"/>
<path d="M33.4848 86.137C35.5557 86.8164 42.7865 85.0499 42.7865 85.0499C42.7865 85.0499 38.0147 79.3881 35.937 78.7086C35.445 78.5483 34.9259 78.4857 34.4095 78.5244C33.8931 78.5631 33.3894 78.7023 32.9272 78.934C32.465 79.1658 32.0534 79.4855 31.7158 79.8751C31.3782 80.2646 31.1212 80.7163 30.9596 81.2044C30.798 81.6924 30.7349 82.2073 30.7739 82.7195C30.8129 83.2318 30.9532 83.7314 31.1868 84.1898C31.4205 84.6483 31.7428 85.0566 32.1356 85.3915C32.5283 85.7263 32.9837 85.9812 33.4757 86.1415L33.4848 86.137Z" fill="#6C63FF"/>
<path opacity="0.25" d="M31.1406 30.4946C31.8255 32.5442 30.0652 39.7212 30.0652 39.7212C30.0652 39.7212 24.3367 35.0037 23.6517 32.9519C23.3232 31.9668 23.4026 30.8927 23.8726 29.9657C24.3425 29.0388 25.1644 28.3349 26.1575 28.0091C27.1506 27.6832 28.2335 27.7621 29.168 28.2282C30.1025 28.6943 30.8121 29.5096 31.1406 30.4946Z" fill="black"/>
<path opacity="0.25" d="M41.1179 39.8231C40.5699 41.9135 35.161 46.9888 35.161 46.9888C35.161 46.9888 32.9372 39.9409 33.4874 37.8505C33.6119 37.3471 33.836 36.8731 34.1468 36.4563C34.4575 36.0395 34.8487 35.6882 35.2976 35.4226C35.7465 35.1571 36.2441 34.9828 36.7615 34.9097C37.2789 34.8367 37.8058 34.8664 38.3115 34.9972C38.8172 35.1279 39.2917 35.3571 39.7074 35.6713C40.123 35.9856 40.4715 36.3786 40.7327 36.8277C40.9938 37.2768 41.1623 37.7728 41.2284 38.2871C41.2946 38.8013 41.257 39.3234 41.1179 39.8231Z" fill="black"/>
<path opacity="0.25" d="M47.3259 59.3248C45.787 60.8557 38.5356 62.5271 38.5356 62.5271C38.5356 62.5271 40.2047 55.3298 41.7321 53.8011C42.4706 53.0665 43.473 52.653 44.5188 52.6515C45.5646 52.65 46.5682 53.0607 47.3088 53.7932C48.0494 54.5257 48.4662 55.52 48.4677 56.5573C48.4692 57.5947 48.0552 58.5902 47.3168 59.3248H47.3259Z" fill="black"/>
<path opacity="0.25" d="M48.6708 75.1394C47.415 76.9037 40.5518 79.7686 40.5518 79.7686C40.5518 79.7686 40.9696 72.3946 42.2253 70.6304C42.8281 69.7825 43.7458 69.207 44.7764 69.0303C45.8071 68.8536 46.8662 69.0903 47.721 69.6882C48.5757 70.2862 49.1559 71.1964 49.334 72.2187C49.5122 73.241 49.2736 74.2916 48.6708 75.1394Z" fill="black"/>
<path opacity="0.25" d="M27.4371 49.9669C29.3961 50.909 36.7982 50.1209 36.7982 50.1209C36.7982 50.1209 32.8345 43.8702 30.8619 42.9258C29.9265 42.5171 28.8675 42.4846 27.9084 42.8352C26.9493 43.1859 26.165 43.8923 25.7208 44.8055C25.2767 45.7187 25.2074 46.7673 25.5275 47.7302C25.8477 48.6931 26.5324 49.495 27.4371 49.9669Z" fill="black"/>
<path opacity="0.25" d="M29.2433 68.4313C31.3987 68.7484 38.2254 65.7997 38.2254 65.7997C38.2254 65.7997 32.5562 61.0097 30.4055 60.6927C29.8932 60.6171 29.371 60.6424 28.8686 60.7671C28.3661 60.8917 27.8934 61.1133 27.4773 61.4192C26.637 62.037 26.0785 62.9605 25.9247 63.9867C25.7709 65.0129 26.0344 66.0577 26.6572 66.8912C27.28 67.7247 28.2111 68.2787 29.2456 68.4313H29.2433Z" fill="black"/>
<path opacity="0.25" d="M33.4848 86.137C35.5557 86.8164 42.7865 85.0499 42.7865 85.0499C42.7865 85.0499 38.0147 79.3881 35.937 78.7086C35.445 78.5483 34.9259 78.4857 34.4095 78.5244C33.8931 78.5631 33.3894 78.7023 32.9272 78.934C32.465 79.1658 32.0534 79.4855 31.7158 79.8751C31.3782 80.2646 31.1212 80.7163 30.9596 81.2044C30.798 81.6924 30.7349 82.2073 30.7739 82.7195C30.8129 83.2318 30.9532 83.7314 31.1868 84.1898C31.4205 84.6483 31.7428 85.0566 32.1356 85.3915C32.5283 85.7263 32.9837 85.9812 33.4757 86.1415L33.4848 86.137Z" fill="black"/>
<path d="M47.1089 92.5304C47.1089 92.5304 31.2909 82.9641 27.1036 69.2036C25.3838 63.4259 21.8221 58.357 16.9525 54.7569C14.6269 53.0659 12.15 51.5899 9.55273 50.3474" stroke="#535461" stroke-width="2" stroke-miterlimit="10"/>
<path d="M6.86331 41.7051C8.32683 43.304 9.6488 50.5716 9.6488 50.5716C9.6488 50.5716 2.48644 48.5605 1.02292 46.9616C0.320192 46.1934 -0.046091 45.1797 0.00464842 44.1436C0.0553878 43.1075 0.518995 42.1338 1.29348 41.4368C2.06796 40.7397 3.08988 40.3764 4.13443 40.4267C5.17898 40.4771 6.16058 40.9369 6.86331 41.7051Z" fill="#6C63FF"/>
<path d="M19.7971 46.2209C20.1487 48.3543 17.2856 55.1689 17.2856 55.1689C17.2856 55.1689 12.3676 49.618 12.0137 47.4847C11.8448 46.4609 12.0928 45.4124 12.7031 44.57C13.3135 43.7276 14.2363 43.1601 15.2684 42.9925C16.3005 42.825 17.3575 43.071 18.2068 43.6764C19.0561 44.2818 19.6282 45.1971 19.7971 46.2209Z" fill="#6C63FF"/>
<path d="M33.4395 61.551C32.6564 63.5689 26.711 68.0123 26.711 68.0123C26.711 68.0123 25.2954 60.7651 26.0763 58.745C26.4514 57.7764 27.1991 56.9954 28.1548 56.5736C29.1105 56.1519 30.1959 56.124 31.1723 56.4961C32.1488 56.8682 32.9362 57.6098 33.3614 58.5578C33.7866 59.5057 33.8147 60.5824 33.4395 61.551Z" fill="#6C63FF"/>
<path d="M41.1358 75.4633C40.7089 77.5831 35.6037 82.9596 35.6037 82.9596C35.6037 82.9596 32.9734 76.0499 33.4004 73.9324C33.5017 73.4286 33.7021 72.9495 33.9901 72.5225C34.2781 72.0955 34.6481 71.729 35.0789 71.4438C35.5097 71.1586 35.9929 70.9604 36.501 70.8605C37.009 70.7606 37.5319 70.7609 38.0398 70.8614C38.5477 70.9619 39.0307 71.1607 39.4612 71.4464C39.8917 71.732 40.2612 72.099 40.5487 72.5263C40.8362 72.9537 41.036 73.433 41.1367 73.9369C41.2375 74.4408 41.2372 74.9595 41.1358 75.4633Z" fill="#6C63FF"/>
<path d="M11.4275 60.9961C13.6057 61.0709 20.0511 57.3725 20.0511 57.3725C20.0511 57.3725 13.8751 53.2507 11.6969 53.1715C11.1794 53.1539 10.6635 53.2377 10.1786 53.4179C9.69372 53.5981 9.24936 53.8713 8.87092 54.2219C8.49248 54.5725 8.18735 54.9935 7.97296 55.4611C7.75858 55.9286 7.63913 56.4335 7.62144 56.9468C7.60375 57.4601 7.68816 57.9719 7.86986 58.4528C8.05156 58.9338 8.32699 59.3746 8.68042 59.7499C9.03384 60.1253 9.45835 60.428 9.92969 60.6406C10.401 60.8533 10.91 60.9718 11.4275 60.9893V60.9961Z" fill="#6C63FF"/>
<path d="M20.6264 77.1482C22.7269 76.573 27.7636 71.1331 27.7636 71.1331C27.7636 71.1331 20.6241 69.0246 18.5327 69.6089C18.0285 69.7412 17.5558 69.9713 17.1419 70.286C16.728 70.6007 16.3812 70.9937 16.1215 71.4423C15.8617 71.8908 15.6943 72.386 15.6288 72.8992C15.5634 73.4124 15.6012 73.9334 15.7401 74.432C15.879 74.9306 16.1163 75.3969 16.4381 75.804C16.76 76.211 17.16 76.5506 17.6151 76.8032C18.0702 77.0559 18.5712 77.2164 19.0893 77.2757C19.6074 77.3349 20.1322 77.2916 20.6332 77.1482H20.6264Z" fill="#6C63FF"/>
<path d="M31.7383 91.6312C33.9073 91.4048 39.798 86.8979 39.798 86.8979C39.798 86.8979 33.1196 83.6322 30.9529 83.8473C30.4376 83.8985 29.9376 84.0498 29.4813 84.2927C29.025 84.5355 28.6214 84.8651 28.2935 85.2627C27.6313 86.0656 27.3178 87.0966 27.422 88.1288C27.4735 88.6399 27.6261 89.1359 27.8709 89.5885C28.1157 90.0412 28.448 90.4415 28.8489 90.7668C29.6583 91.4236 30.6977 91.7345 31.7383 91.6312Z" fill="#6C63FF"/>
<path opacity="0.1" d="M111.62 136.536C134.191 136.536 152.489 135.46 152.489 134.131C152.489 132.803 134.191 131.726 111.62 131.726C89.0487 131.726 70.751 132.803 70.751 134.131C70.751 135.46 89.0487 136.536 111.62 136.536Z" fill="#6C63FF"/>
<path d="M130.409 129.903V131.355H87.1152V130.172C89.7559 129.202 92.0469 127.476 93.6983 125.213C95.3497 122.951 96.2871 120.253 96.392 117.461C96.4969 114.67 95.7644 111.91 94.2874 109.532C92.8104 107.154 90.6553 105.264 88.0947 104.101H130.124C127.622 105.239 125.507 107.072 124.034 109.378C122.561 111.684 121.793 114.364 121.823 117.094C121.854 119.823 122.681 122.486 124.204 124.759C125.728 127.033 127.883 128.819 130.409 129.903Z" fill="#C8CAD7"/>
<path opacity="0.1" d="M130.124 104.103C128.191 104.983 126.482 106.28 125.121 107.899C123.759 109.519 122.781 111.42 122.256 113.463H95.9626C95.4378 111.42 94.4589 109.519 93.0975 107.899C91.7362 106.28 90.0268 104.983 88.0947 104.103H130.124Z" fill="black"/>
<path d="M37.5312 96.7042V104.857C37.5312 109.36 40.8533 113.01 44.9516 113.01H172.353C176.452 113.01 179.774 109.36 179.774 104.857V96.7042H37.5312Z" fill="#C8CAD7"/>
<path opacity="0.1" d="M130.409 129.903V131.355H87.1152V130.173C88.3021 129.735 89.4247 129.143 90.4533 128.411H127.761C128.587 129 129.475 129.501 130.409 129.903Z" fill="black"/>
<path d="M142.557 128.864H74.9752C73.7773 128.864 72.8062 129.827 72.8062 131.015C72.8062 132.203 73.7773 133.167 74.9752 133.167H142.557C143.755 133.167 144.727 132.203 144.727 131.015C144.727 129.827 143.755 128.864 142.557 128.864Z" fill="#C8CAD7"/>
<path d="M179.774 7.36039C179.774 5.4083 178.992 3.53615 177.6 2.15581C176.209 0.775468 174.321 0 172.353 0H44.9516C42.9836 0 41.0962 0.775468 39.7046 2.15581C38.313 3.53615 37.5312 5.4083 37.5312 7.36039V98.2896H179.774V7.36039Z" fill="#474157"/>
<path d="M172.239 7.02075H45.0652C43.0477 7.02075 41.4121 8.64308 41.4121 10.6443V88.7777C41.4121 90.779 43.0477 92.4013 45.0652 92.4013H172.239C174.256 92.4013 175.892 90.779 175.892 88.7777V10.6443C175.892 8.64308 174.256 7.02075 172.239 7.02075Z" fill="#EDEDF4"/>
<path d="M108.652 5.20887C109.598 5.20887 110.364 4.4484 110.364 3.51032C110.364 2.57223 109.598 1.81177 108.652 1.81177C107.706 1.81177 106.939 2.57223 106.939 3.51032C106.939 4.4484 107.706 5.20887 108.652 5.20887Z" fill="white"/>
<path d="M108.653 109.387C110.985 109.387 112.876 107.511 112.876 105.197C112.876 102.883 110.985 101.007 108.653 101.007C106.32 101.007 104.429 102.883 104.429 105.197C104.429 107.511 106.32 109.387 108.653 109.387Z" fill="white"/>
<path d="M175.892 10.6443H41.4121C41.4121 9.6833 41.797 8.76163 42.4821 8.08207C43.1672 7.40252 44.0963 7.02075 45.0652 7.02075H172.239C173.208 7.02075 174.137 7.40252 174.822 8.08207C175.507 8.76163 175.892 9.6833 175.892 10.6443Z" fill="#C8CAD7"/>
<path d="M45.0656 9.73829C45.57 9.73829 45.9789 9.33271 45.9789 8.8324C45.9789 8.33209 45.57 7.92651 45.0656 7.92651C44.5612 7.92651 44.1523 8.33209 44.1523 8.8324C44.1523 9.33271 44.5612 9.73829 45.0656 9.73829Z" fill="#EDEDF4"/>
<path d="M47.8054 9.73829C48.3097 9.73829 48.7186 9.33271 48.7186 8.8324C48.7186 8.33209 48.3097 7.92651 47.8054 7.92651C47.301 7.92651 46.8921 8.33209 46.8921 8.8324C46.8921 9.33271 47.301 9.73829 47.8054 9.73829Z" fill="#EDEDF4"/>
<path d="M50.5451 9.73829C51.0495 9.73829 51.4584 9.33271 51.4584 8.8324C51.4584 8.33209 51.0495 7.92651 50.5451 7.92651C50.0407 7.92651 49.6318 8.33209 49.6318 8.8324C49.6318 9.33271 50.0407 9.73829 50.5451 9.73829Z" fill="#EDEDF4"/>
<path d="M80.9117 13.7017H46.4355V15.7399H80.9117V13.7017Z" fill="#6C63FF"/>
<path d="M80.9117 73.2642H46.4355V75.3024H80.9117V73.2642Z" fill="#6C63FF"/>
<path opacity="0.2" d="M110.365 77.7937H46.4355V79.832H110.365V77.7937Z" fill="#6C63FF"/>
<path opacity="0.2" d="M110.365 80.7401H46.4355V82.7784H110.365V80.7401Z" fill="#6C63FF"/>
<path opacity="0.2" d="M110.365 83.6843H46.4355V85.7226H110.365V83.6843Z" fill="#6C63FF"/>
<path opacity="0.2" d="M109.908 19.137H46.4355V53.3345H109.908V19.137Z" fill="#6C63FF"/>
<path opacity="0.2" d="M61.9608 56.5051H47.1201V70.0935H61.9608V56.5051Z" fill="#6C63FF"/>
<path opacity="0.2" d="M109.908 56.5051H95.0674V70.0935H109.908V56.5051Z" fill="#6C63FF"/>
<path opacity="0.2" d="M85.5917 56.5051H70.751V70.0935H85.5917V56.5051Z" fill="#6C63FF"/>
<path opacity="0.2" d="M167.14 29.0837H123.456V60.978H167.14V29.0837Z" fill="#6C63FF"/>
<path d="M162.536 35.5564H128.06V37.5947H162.536V35.5564Z" fill="#EDEDF4"/>
<path d="M162.536 39.7847H128.06V41.8229H162.536V39.7847Z" fill="#EDEDF4"/>
<path d="M162.536 44.0129H128.06V46.0512H162.536V44.0129Z" fill="#EDEDF4"/>
<path d="M162.536 48.2389H128.06V50.2772H162.536V48.2389Z" fill="#EDEDF4"/>
<path d="M162.536 52.4672H128.06V54.5054H162.536V52.4672Z" fill="#EDEDF4"/>
<path d="M161.814 64.6016H128.783V70.3381H161.814V64.6016Z" fill="#6C63FF"/>
<path d="M149.168 83.7159H127.019V87.5637H149.168V83.7159Z" fill="#6C63FF"/>
</svg>