<svg width="180" height="129" viewBox="0 0 180 129" fill="none" xmlns="http://www.w3.org/2000/svg">
<path d="M153.927 2.99867C154.438 2.99867 154.853 2.57672 154.853 2.05622C154.853 1.53572 154.438 1.11377 153.927 1.11377C153.415 1.11377 153 1.53572 153 2.05622C153 2.57672 153.415 2.99867 153.927 2.99867Z" fill="#6C63FF"/>
<path d="M156.474 2.99867C156.986 2.99867 157.401 2.57672 157.401 2.05622C157.401 1.53572 156.986 1.11377 156.474 1.11377C155.963 1.11377 155.548 1.53572 155.548 2.05622C155.548 2.57672 155.963 2.99867 156.474 2.99867Z" fill="#6C63FF"/>
<path d="M159.022 2.99867C159.534 2.99867 159.949 2.57672 159.949 2.05622C159.949 1.53572 159.534 1.11377 159.022 1.11377C158.511 1.11377 158.096 1.53572 158.096 2.05622C158.096 2.57672 158.511 2.99867 159.022 2.99867Z" fill="#6C63FF"/>
<path opacity="0.4" d="M161.272 88.8915C171.091 88.8915 179.051 80.7951 179.051 70.8077C179.051 60.8204 171.091 52.724 161.272 52.724C151.454 52.724 143.494 60.8204 143.494 70.8077C143.494 80.7951 151.454 88.8915 161.272 88.8915Z" fill="#6C63FF"/>
<path d="M161.678 95.8298H62.54V123.161H161.678V95.8298Z" fill="#3F3D56"/>
<path d="M155.329 28.1159L151.37 30.0216L154.874 27.3569C154.304 26.4528 153.665 25.5966 152.961 24.7964L135.793 29.1369L151.3 23.1197C150.592 22.4837 149.839 21.9003 149.049 21.3738L122.889 25.6598C120.111 29.1928 118.597 33.5813 118.595 38.1049H157.973C157.971 34.5966 157.059 31.1509 155.329 28.1159Z" fill="#F2F2F2"/>
<path d="M178 127.167H0V128.167H178V127.167Z" fill="#2F2E41"/>
<path d="M138.021 38.1048L124.618 17.8538C124.618 17.8538 144.916 25.0618 142.612 38.1048H138.021Z" fill="#3F3D56"/>
<path d="M138.547 38.1048L151.95 17.8538C151.95 17.8538 131.652 25.0618 133.956 38.1048H138.547Z" fill="#6C63FF"/>
<path d="M162 128H62V0H162V128ZM62.4662 127.6H161.534V0.4H62.4662V127.6Z" fill="#2F2E41"/>
<path d="M161.678 3.74817H62.772V4.21939H161.678V3.74817Z" fill="#2F2E41"/>
<path d="M70.4159 7.00403H66.2466V9.36015H70.4159V7.00403Z" fill="#6C63FF"/>
<path d="M86.6301 25.6174H66.2466V27.9736H86.6301V25.6174Z" fill="#6C63FF"/>
<path d="M138.747 9.36011L159.13 9.36011V7.00399L138.747 7.00399V9.36011Z" fill="#F2F2F2"/>
<path d="M100.528 29.6228H66.2466V31.0365H100.528V29.6228Z" fill="#F2F2F2"/>
<path d="M98.6749 32.6858H66.2466V34.0995H98.6749V32.6858Z" fill="#F2F2F2"/>
<path d="M89.8729 35.7488H66.2466V37.1625H89.8729V35.7488Z" fill="#F2F2F2"/>
<path d="M87.5567 77.6877H74.1221V79.1014H87.5567V77.6877Z" fill="#F2F2F2"/>
<path d="M86.8305 80.7507H74.1221V82.1645H86.8305V80.7507Z" fill="#F2F2F2"/>
<path d="M83.3811 83.8136H74.1221V85.2273H83.3811V83.8136Z" fill="#F2F2F2"/>
<path d="M118.827 77.6877H105.392V79.1014H118.827V77.6877Z" fill="#F2F2F2"/>
<path d="M118.101 80.7507H105.392V82.1645H118.101V80.7507Z" fill="#F2F2F2"/>
<path d="M114.651 83.8136H105.392V85.2273H114.651V83.8136Z" fill="#F2F2F2"/>
<path d="M151.255 77.6877H137.821V79.1014H151.255V77.6877Z" fill="#F2F2F2"/>
<path d="M150.529 80.7507H137.821V82.1645H150.529V80.7507Z" fill="#F2F2F2"/>
<path d="M147.08 83.8136H137.821V85.2273H147.08V83.8136Z" fill="#F2F2F2"/>
<path opacity="0.3" d="M152.992 51.0635H72.3848V51.5347H152.992V51.0635Z" fill="#6C63FF"/>
<path opacity="0.3" d="M89.4098 59.3099H72.269V74.8604H89.4098V59.3099Z" fill="#6C63FF"/>
<path d="M120.68 59.3099H103.539V74.8604H120.68V59.3099Z" fill="#3F3D56"/>
<path d="M153.108 59.3099H135.968V74.8604H153.108V59.3099Z" fill="#3F3D56"/>
<path d="M109.876 74.7951L109.65 74.7906C109.655 74.5358 109.796 68.5324 112.12 66.873L112.249 67.0613C110.02 68.6537 109.877 74.7338 109.876 74.7951Z" fill="#6C63FF"/>
<path d="M113.315 66.7971C113.94 66.7971 114.446 66.2821 114.446 65.6469C114.446 65.0117 113.94 64.4968 113.315 64.4968C112.691 64.4968 112.185 65.0117 112.185 65.6469C112.185 66.2821 112.691 66.7971 113.315 66.7971Z" fill="#6C63FF"/>
<path d="M113.087 69.7078C112.499 69.8957 111.872 69.9233 111.271 69.7876C111.653 69.2927 112.167 68.9208 112.753 68.7166C113.338 68.5124 113.969 68.4847 114.569 68.6368C114.176 69.1197 113.665 69.489 113.087 69.7078Z" fill="#6C63FF"/>
<path d="M142.304 74.7951L142.078 74.7906C142.083 74.5358 142.224 68.5324 144.548 66.873L144.678 67.0613C142.448 68.6537 142.305 74.7338 142.304 74.7951Z" fill="#6C63FF"/>
<path d="M145.744 66.7971C146.368 66.7971 146.875 66.2821 146.875 65.6469C146.875 65.0117 146.368 64.4968 145.744 64.4968C145.12 64.4968 144.613 65.0117 144.613 65.6469C144.613 66.2821 145.12 66.7971 145.744 66.7971Z" fill="#6C63FF"/>
<path d="M145.515 69.7078C144.927 69.8957 144.301 69.9233 143.699 69.7876C144.081 69.2927 144.596 68.9208 145.181 68.7166C145.766 68.5124 146.397 68.4847 146.997 68.6368C146.604 69.1197 146.093 69.489 145.515 69.7078Z" fill="#6C63FF"/>
<path d="M86.6301 104.547H66.2466V106.904H86.6301V104.547Z" fill="#6C63FF"/>
<path d="M100.528 108.553H66.2466V109.967H100.528V108.553Z" fill="#F2F2F2"/>
<path d="M98.6749 111.616H66.2466V113.03H98.6749V111.616Z" fill="#F2F2F2"/>
<path d="M89.8729 114.679H66.2466V116.092H89.8729V114.679Z" fill="#F2F2F2"/>
<path opacity="0.4" d="M141.701 115.161C145.698 115.161 148.939 111.865 148.939 107.799C148.939 103.733 145.698 100.437 141.701 100.437C137.703 100.437 134.463 103.733 134.463 107.799C134.463 111.865 137.703 115.161 141.701 115.161Z" fill="#6C63FF"/>
<path opacity="0.4" d="M128.305 116.48C131.109 116.48 133.382 114.168 133.382 111.315C133.382 108.463 131.109 106.151 128.305 106.151C125.501 106.151 123.228 108.463 123.228 111.315C123.228 114.168 125.501 116.48 128.305 116.48Z" fill="#6C63FF"/>
<path d="M38.7984 120.001C48.9046 120.001 57.0972 111.667 57.0972 101.388C57.0972 91.1077 48.9046 82.7742 38.7984 82.7742C28.6922 82.7742 20.4995 91.1077 20.4995 101.388C20.4995 111.667 28.6922 120.001 38.7984 120.001Z" fill="#2F2E41"/>
<path d="M36.0181 115.996H30.459V126.127H36.0181V115.996Z" fill="#2F2E41"/>
<path d="M47.1368 115.996H41.5776V126.127H47.1368V115.996Z" fill="#2F2E41"/>
<path d="M35.0916 128.012C37.6501 128.012 39.7242 127.221 39.7242 126.245C39.7242 125.269 37.6501 124.478 35.0916 124.478C32.5331 124.478 30.459 125.269 30.459 126.245C30.459 127.221 32.5331 128.012 35.0916 128.012Z" fill="#2F2E41"/>
<path d="M46.2103 127.776C48.7688 127.776 50.8429 126.985 50.8429 126.009C50.8429 125.033 48.7688 124.242 46.2103 124.242C43.6517 124.242 41.5776 125.033 41.5776 126.009C41.5776 126.985 43.6517 127.776 46.2103 127.776Z" fill="#2F2E41"/>
<path d="M39.2614 103.037C42.7154 103.037 45.5154 100.189 45.5154 96.6754C45.5154 93.162 42.7154 90.3138 39.2614 90.3138C35.8074 90.3138 33.0073 93.162 33.0073 96.6754C33.0073 100.189 35.8074 103.037 39.2614 103.037Z" fill="white"/>
<path d="M39.2614 95.9686C40.4128 95.9686 41.3461 95.0192 41.3461 93.8481C41.3461 92.6769 40.4128 91.7275 39.2614 91.7275C38.1101 91.7275 37.1768 92.6769 37.1768 93.8481C37.1768 95.0192 38.1101 95.9686 39.2614 95.9686Z" fill="#3F3D56"/>
<path d="M21.0479 84.0778C19.5703 77.3469 24.2935 70.5456 31.5973 68.8867C38.9011 67.2278 46.0198 71.3394 47.4974 78.0703C48.9749 84.8012 44.1344 87.2836 36.8306 88.9426C29.5268 90.6015 22.5254 90.8086 21.0479 84.0778Z" fill="#6C63FF"/>
<path d="M55.2488 82.0226C57.3782 77.3614 57.9382 73.0314 56.4996 72.3515C55.061 71.6715 52.1686 74.899 50.0392 79.5603C47.9098 84.2215 47.3498 88.5515 48.7884 89.2314C50.227 89.9114 53.1194 86.6839 55.2488 82.0226Z" fill="#2F2E41"/>
<path d="M23.338 94.6715C24.7401 93.9167 23.9603 89.6221 21.5963 85.0793C19.2323 80.5365 16.1794 77.4658 14.7774 78.2207C13.3753 78.9756 14.1551 83.2702 16.5191 87.8129C18.8831 92.3557 21.936 95.4264 23.338 94.6715Z" fill="#2F2E41"/>
<path d="M44.104 64.9121C54.2102 64.9121 62.4029 56.5786 62.4029 46.2987C62.4029 36.0188 54.2102 27.6853 44.104 27.6853C33.9979 27.6853 25.8052 36.0188 25.8052 46.2987C25.8052 56.5786 33.9979 64.9121 44.104 64.9121Z" fill="#2F2E41"/>
<path d="M38.8101 60.1694L33.3398 59.1621L31.5656 69.1314L37.0358 70.1387L38.8101 60.1694Z" fill="#2F2E41"/>
<path d="M49.7505 62.1839L44.2803 61.1766L42.506 71.146L47.9763 72.1532L49.7505 62.1839Z" fill="#2F2E41"/>
<path d="M49.7307 75.9481C50.3507 75.2034 49.2707 73.2362 47.3182 71.5542C45.3658 69.8723 43.2804 69.1126 42.6603 69.8573C42.0403 70.6021 43.1204 72.5693 45.0728 74.2512C47.0252 75.9331 49.1106 76.6928 49.7307 75.9481Z" fill="#2F2E41"/>
<path d="M39.0183 73.9756C39.6384 73.2308 38.5583 71.2636 36.6058 69.5817C34.6534 67.8998 32.568 67.14 31.9479 67.8848C31.3279 68.6295 32.408 70.5967 34.3604 72.2787C36.3128 73.9606 38.3982 74.7203 39.0183 73.9756Z" fill="#2F2E41"/>
<path d="M45.3849 48.1073C48.8389 48.1073 51.6389 45.2592 51.6389 41.7458C51.6389 38.2324 48.8389 35.3843 45.3849 35.3843C41.9309 35.3843 39.1309 38.2324 39.1309 41.7458C39.1309 45.2592 41.9309 48.1073 45.3849 48.1073Z" fill="white"/>
<path d="M47.9553 45.241C49.1066 45.241 50.04 44.2916 50.04 43.1205C50.04 41.9494 49.1066 41 47.9553 41C46.8039 41 45.8706 41.9494 45.8706 43.1205C45.8706 44.2916 46.8039 45.241 47.9553 45.241Z" fill="#3F3D56"/>
<path d="M29.6685 26.0494C29.3933 19.1584 35.232 13.3217 42.7095 13.0128C50.187 12.7038 56.4718 18.0396 56.747 24.9305C57.0222 31.8215 51.8244 33.3871 44.3469 33.6961C36.8693 34.0051 29.9437 32.9403 29.6685 26.0494Z" fill="#6C63FF"/>
<path d="M59.1884 45.1965C63.1768 48.3062 67.2213 49.8025 68.2221 48.5384C69.2228 47.2744 66.8009 43.7287 62.8125 40.619C58.8241 37.5092 54.7796 36.013 53.7788 37.277C52.7781 38.5411 55.2 42.0867 59.1884 45.1965Z" fill="#2F2E41"/>
<path d="M25.7221 51.8316C30.6475 50.6832 34.353 48.4773 33.9985 46.9045C33.6441 45.3317 29.364 44.9876 24.4387 46.136C19.5133 47.2844 15.8078 49.4903 16.1622 51.0631C16.5167 52.6359 20.7968 52.98 25.7221 51.8316Z" fill="#2F2E41"/>
<path d="M39.0774 53.634C38.8805 54.7408 39.1238 55.8818 39.7539 56.8061C40.384 57.7304 41.3493 58.3623 42.4374 58.5626C43.5255 58.763 44.6473 58.5155 45.556 57.8745C46.4647 57.2336 47.0858 56.2517 47.2828 55.1449C47.693 52.8401 45.9411 52.0246 43.6753 51.6073C41.4094 51.1901 39.4876 51.3292 39.0774 53.634Z" fill="white"/>
<path d="M87.1902 54.0123L70.7715 49.0054L66.3813 63.9008L82.8 68.9077L87.1902 54.0123Z" fill="#3F3D56"/>
<path d="M72.4702 65.6893L72.2549 65.6189C72.3315 65.3763 74.1617 59.6671 76.8558 58.7563L76.9271 58.9746C74.3417 59.8486 72.4886 65.631 72.4702 65.6893Z" fill="#6C63FF"/>
<path d="M78.3475 59.0812C78.9719 59.0812 79.4781 58.5663 79.4781 57.9311C79.4781 57.2959 78.9719 56.781 78.3475 56.781C77.723 56.781 77.2168 57.2959 77.2168 57.9311C77.2168 58.5663 77.723 59.0812 78.3475 59.0812Z" fill="#6C63FF"/>
<path d="M76.9816 61.7543C76.3652 61.7625 75.7575 61.6059 75.2192 61.3001C75.725 60.9377 76.323 60.7317 76.9412 60.7071C77.5594 60.6825 78.1715 60.8402 78.7036 61.1613C78.1905 61.5089 77.5967 61.7134 76.9816 61.7543Z" fill="#6C63FF"/>
</svg>