<svg width="151" height="118" viewBox="0 0 151 118" fill="none" xmlns="http://www.w3.org/2000/svg">
<g clip-path="url(#clip0)">
<path d="M127.157 0.274237L0.899414 34.9003L17.9104 97.494L144.168 62.868L127.157 0.274237Z" fill="#F5F5F5"/>
<path d="M127.85 -4.6152e-05L0.0012207 35.0624L17.4286 99.1882L145.277 64.1258L127.85 -4.6152e-05Z" fill="url(#paint0_linear)"/>
<path d="M128.873 6.59003L2.61548 41.2161L17.8988 97.4524L144.156 62.8264L128.873 6.59003Z" fill="white"/>
<path d="M4.82546 38.557C5.69999 38.319 6.21693 37.414 5.98008 36.5355C5.74323 35.657 4.84228 35.1377 3.96775 35.3756C3.09322 35.6135 2.57628 36.5186 2.81314 37.3971C3.04999 38.2756 3.95094 38.7949 4.82546 38.557Z" fill="#FF5252"/>
<path d="M9.94027 37.4078C10.8191 37.1667 11.337 36.2557 11.0971 35.3729C10.8572 34.4901 9.95025 33.9698 9.07144 34.2108C8.19264 34.4518 7.67472 35.3629 7.91464 36.2457C8.15456 37.1285 9.06146 37.6488 9.94027 37.4078Z" fill="#FFFF00"/>
<path d="M14.7154 36.0977C15.5942 35.8567 16.1121 34.9456 15.8722 34.0628C15.6323 33.18 14.7254 32.6598 13.8466 32.9008C12.9678 33.1418 12.4499 34.0528 12.6898 34.9356C12.9297 35.8184 13.8366 36.3387 14.7154 36.0977Z" fill="#69F0AE"/>
<path d="M35.8386 32.024L2.59473 41.1411L17.8983 97.4521L51.1422 88.335L35.8386 32.024Z" fill="#6C63FF"/>
<path d="M32.8452 51.7422C31.5791 47.0824 26.5931 44.3907 21.7115 45.7262C16.8298 47.0618 13.9022 51.933 15.1616 56.5945C16.1557 60.2522 19.4392 62.6964 23.1676 62.9318L22.5772 60.7575C22.1495 59.1865 23.1487 57.5312 24.8016 57.0792C26.4476 56.6271 28.145 57.5433 28.5659 59.116L29.1562 61.2903C32.2464 59.1813 33.8394 55.3913 32.8452 51.7422Z" fill="url(#paint1_linear)"/>
<path d="M24.4977 55.7524L24.3788 55.785C24.1181 55.8565 23.9644 56.1267 24.0356 56.3887L24.7503 59.0185C24.8215 59.2804 25.0906 59.4348 25.3513 59.3632L25.4701 59.3307C25.7309 59.2592 25.8845 58.9889 25.8133 58.727L25.0986 56.0971C25.0275 55.8352 24.7584 55.6809 24.4977 55.7524Z" fill="url(#paint2_linear)"/>
<path d="M24.5737 56.2482C26.4507 55.7334 27.5777 53.864 27.0909 52.0728C26.6041 50.2815 24.6878 49.2467 22.8108 49.7615C20.9337 50.2763 19.8067 52.1457 20.2936 53.937C20.7804 55.7282 22.6966 56.763 24.5737 56.2482Z" fill="url(#paint3_linear)"/>
<path d="M24.7949 57.0775C23.1489 57.5295 22.1513 59.1848 22.5705 60.7558L23.1608 62.9301C25.2825 63.0601 27.3876 62.4831 29.1495 61.2886L28.5592 59.1143C28.1383 57.5433 26.4409 56.6272 24.7949 57.0775Z" fill="url(#paint4_linear)"/>
<path d="M20.2177 53.7653C19.8108 53.3413 19.5314 52.8104 19.4118 52.2338C19.3556 51.9434 19.3576 51.6447 19.4178 51.3552C19.4781 51.0656 19.5953 50.7911 19.7626 50.5476C20.1476 50.0096 20.7892 49.6882 21.4155 49.4562C22.0417 49.2241 22.7159 49.078 23.3216 48.7841C24.319 48.2997 25.0871 47.4411 25.4604 46.3932C25.6529 46.8499 25.7785 47.3321 25.8334 47.825C25.8583 48.076 25.8308 48.3294 25.7527 48.5691C25.6746 48.8088 25.5477 49.0296 25.38 49.2172C25.8334 48.8477 25.9241 49.3891 25.8933 49.7484C26.2355 49.9735 26.8635 49.8515 26.9986 50.2245C27.1517 50.5913 27.2106 50.9908 27.1697 51.3864C27.1098 51.78 27.4452 52.3558 27.0534 52.4916" fill="url(#paint5_linear)"/>
<path d="M32.0583 50.6215C31.6379 49.0769 30.8035 47.6777 29.646 46.5767C28.4885 45.4756 27.0524 44.7149 25.494 44.3774C23.9357 44.0399 22.3151 44.1386 20.8088 44.6628C19.3025 45.1869 17.9683 46.1164 16.9518 47.3499C15.9352 48.5834 15.2752 50.0736 15.0437 51.6579C14.8122 53.2423 15.0182 54.8602 15.6391 56.3351C16.26 57.81 17.272 59.0854 18.5649 60.0222C19.8577 60.959 21.3818 61.5214 22.9709 61.6479L22.3806 59.4736C22.177 58.716 22.2801 57.9083 22.6674 57.2268C23.0546 56.5453 23.6946 56.0455 24.4476 55.8365C25.2017 55.632 26.0058 55.7355 26.6841 56.1246C27.3625 56.5136 27.8601 57.1565 28.0681 57.9129L28.6584 60.0872C30.1261 59.0528 31.2402 57.5886 31.8487 55.8945C32.4572 54.2004 32.5304 52.359 32.0583 50.6215Z" fill="#6C63FF"/>
<path d="M24.1275 54.5194L24.0614 54.5375C23.8007 54.609 23.6471 54.8793 23.7182 55.1412L24.4329 57.7711C24.5041 58.033 24.7732 58.1873 25.0339 58.1158L25.0999 58.0977C25.3607 58.0262 25.5143 57.7559 25.4431 57.494L24.7284 54.8642C24.6572 54.6023 24.3882 54.4479 24.1275 54.5194Z" fill="white" stroke="white" stroke-miterlimit="10"/>
<path d="M24.2298 55.008C26.013 54.519 27.0638 52.6704 26.577 50.8792C26.0902 49.0879 24.2501 48.0323 22.4669 48.5213C20.6838 49.0103 19.6329 50.8588 20.1197 52.6501C20.6065 54.4413 22.4467 55.497 24.2298 55.008Z" fill="white" stroke="white" stroke-miterlimit="10"/>
<path d="M24.4492 55.8365C23.6963 56.0455 23.0563 56.5453 22.669 57.2268C22.2817 57.9083 22.1786 58.716 22.3822 59.4736L22.9708 61.6479C24.9894 61.8051 26.9997 61.2535 28.6584 60.0872L28.0681 57.9129C27.86 57.1569 27.3627 56.5143 26.6847 56.1253C26.0067 55.7363 25.2031 55.6325 24.4492 55.8365Z" fill="white" stroke="white" stroke-miterlimit="10"/>
<path d="M20.0431 52.4692C19.6481 52.0373 19.3762 51.5065 19.256 50.9326C19.1388 50.3543 19.2511 49.7529 19.5691 49.2567C19.9302 48.7256 20.529 48.4076 21.1313 48.1893C21.7336 47.971 22.3667 47.8301 22.9399 47.543C23.4134 47.3035 23.8348 46.9718 24.1797 46.5673C24.5245 46.1627 24.7859 45.6934 24.9487 45.1865C25.1383 45.6443 25.2644 46.126 25.3234 46.6183C25.3504 46.8639 25.3275 47.1124 25.256 47.3487C25.1845 47.5851 25.066 47.8044 24.9076 47.9934C25.3354 47.6307 25.4209 48.179 25.4089 48.5297C25.7323 48.7583 26.3363 48.6448 26.4698 49.0178C26.6222 49.3843 26.6849 49.7822 26.6529 50.178C26.5998 50.5699 26.9283 51.1475 26.5553 51.2781" fill="white"/>
<path d="M20.0431 52.4692C19.6481 52.0373 19.3762 51.5065 19.256 50.9326C19.1388 50.3543 19.2511 49.7529 19.5691 49.2567C19.9302 48.7256 20.529 48.4076 21.1313 48.1893C21.7336 47.971 22.3667 47.8301 22.9399 47.543C23.4134 47.3035 23.8348 46.9718 24.1797 46.5673C24.5245 46.1627 24.7859 45.6934 24.9487 45.1865C25.1383 45.6443 25.2644 46.126 25.3234 46.6183C25.3504 46.8639 25.3275 47.1124 25.256 47.3487C25.1845 47.5851 25.066 47.8044 24.9076 47.9934C25.3354 47.6307 25.4209 48.179 25.4089 48.5297C25.7323 48.7583 26.3363 48.6448 26.4698 49.0178C26.6222 49.3843 26.6849 49.7822 26.6529 50.178C26.5998 50.5699 26.9283 51.1475 26.5553 51.2781" stroke="white" stroke-miterlimit="10"/>
<path d="M25.0652 47.8817C25.0652 47.8817 27.3717 47.4606 26.6804 51.2592L25.0652 47.8817Z" fill="white"/>
<path opacity="0.1" d="M43.4031 60.2026L10.1592 69.3197L17.7866 97.3856L51.0305 88.2685L43.4031 60.2026Z" fill="black"/>
<path d="M34.435 69.154L18.1663 73.6157L18.6007 75.2142L34.8694 70.7525L34.435 69.154Z" fill="white"/>
<path d="M39.3392 71.8173L19.1799 77.3459L19.6143 78.9444L39.7736 73.4158L39.3392 71.8173Z" fill="white"/>
<path d="M66.4903 27.3255L42.4421 33.9207L45.6768 45.8229L69.725 39.2277L66.4903 27.3255Z" fill="#F5F5F5"/>
<path d="M69.6287 38.8706L45.5806 45.4658L48.8152 57.3681L72.8634 50.7729L69.6287 38.8706Z" fill="#E0E0E0"/>
<path d="M123.608 11.662L99.5593 18.2572L102.794 30.1594L126.842 23.5642L123.608 11.662Z" fill="#F5F5F5"/>
<path d="M126.744 23.2073L102.696 29.8025L105.931 41.7047L129.979 35.1095L126.744 23.2073Z" fill="#E0E0E0"/>
<path d="M94.9605 19.5171L70.9124 26.1123L74.147 38.0145L98.1952 31.4193L94.9605 19.5171Z" fill="#F5F5F5"/>
<path d="M98.0977 31.0644L74.0496 37.6595L77.2842 49.5618L101.332 42.9666L98.0977 31.0644Z" fill="#E0E0E0"/>
<path d="M73.0906 54.3181L49.1594 60.829L52.3527 72.6733L76.2838 66.1624L73.0906 54.3181Z" fill="#E0E0E0"/>
<path d="M76.9654 65.872L52.9172 72.4672L56.1519 84.3694L80.2001 77.7742L76.9654 65.872Z" fill="#BDBDBD"/>
<path d="M130.944 38.6618L106.896 45.257L110.13 57.1592L134.178 50.564L130.944 38.6618Z" fill="#F5F5F5"/>
<path d="M134.083 50.2086L110.034 56.8038L113.269 68.7061L137.317 62.1109L134.083 50.2086Z" fill="#BDBDBD"/>
<path d="M102.297 46.5184L78.249 53.1136L81.4837 65.0159L105.532 58.4207L102.297 46.5184Z" fill="#F5F5F5"/>
<path d="M105.436 58.0636L81.3877 64.6588L84.6224 76.561L108.671 69.9659L105.436 58.0636Z" fill="#BDBDBD"/>
<path d="M49.8402 47.1615C51.3052 46.7598 52.1901 45.3205 51.8168 43.9468C51.4435 42.5732 49.9533 41.7853 48.4883 42.1871C47.0233 42.5889 46.1383 44.0281 46.5116 45.4018C46.885 46.7754 48.3752 47.5633 49.8402 47.1615Z" fill="url(#paint6_linear)"/>
<path d="M49.167 46.7588C50.4307 46.415 51.1777 45.1072 50.8354 43.8377C50.4932 42.5682 49.1913 41.8178 47.9276 42.1617C46.6638 42.5055 45.9169 43.8133 46.2591 45.0827C46.6014 46.3522 47.9033 47.1026 49.167 46.7588Z" fill="#6C63FF"/>
<path d="M77.9569 39.4504C79.4219 39.0486 80.3068 37.6093 79.9335 36.2357C79.5602 34.862 78.07 34.0741 76.605 34.4759C75.14 34.8777 74.255 36.3169 74.6283 37.6906C75.0017 39.0643 76.4919 39.8521 77.9569 39.4504Z" fill="url(#paint7_linear)"/>
<path d="M77.8607 39.0959C79.1306 38.7476 79.879 37.4311 79.5323 36.1554C79.1856 34.8798 77.8751 34.1279 76.6053 34.4762C75.3354 34.8245 74.587 36.141 74.9336 37.4166C75.2803 38.6923 76.5908 39.4441 77.8607 39.0959Z" fill="#6C63FF"/>
<path d="M106.958 31.4965C108.423 31.0947 109.308 29.6555 108.934 28.2818C108.561 26.9081 107.071 26.1203 105.606 26.522C104.141 26.9238 103.256 28.3631 103.629 29.7367C104.002 31.1104 105.493 31.8983 106.958 31.4965Z" fill="url(#paint8_linear)"/>
<path d="M106.861 31.142C108.131 30.7937 108.879 29.4772 108.533 28.2016C108.186 26.9259 106.876 26.1741 105.606 26.5224C104.336 26.8706 103.587 28.1871 103.934 29.4628C104.281 30.7384 105.591 31.4902 106.861 31.142Z" fill="#6C63FF"/>
<path d="M57.2269 74.3394C58.6919 73.9376 59.5768 72.4984 59.2035 71.1247C58.8302 69.751 57.34 68.9632 55.875 69.3649C54.41 69.7667 53.525 71.206 53.8984 72.5797C54.2717 73.9533 55.7619 74.7412 57.2269 74.3394Z" fill="url(#paint9_linear)"/>
<path d="M57.1305 73.9855C58.4004 73.6372 59.1488 72.3208 58.8021 71.0451C58.4554 69.7694 57.1449 69.0176 55.875 69.3659C54.6051 69.7141 53.8567 71.0306 54.2034 72.3063C54.5501 73.582 55.8606 74.3338 57.1305 73.9855Z" fill="#2196F3"/>
<path d="M85.3434 66.6282C86.8083 66.2264 87.6933 64.7872 87.32 63.4135C86.9467 62.0399 85.4564 61.252 83.9915 61.6538C82.5265 62.0555 81.6415 63.4948 82.0148 64.8685C82.3881 66.2421 83.8784 67.03 85.3434 66.6282Z" fill="url(#paint10_linear)"/>
<path d="M85.2455 66.2743C86.5154 65.926 87.2638 64.6096 86.9171 63.3339C86.5704 62.0582 85.2599 61.3064 83.99 61.6547C82.7201 62.003 81.9717 63.3194 82.3184 64.5951C82.6651 65.8708 83.9756 66.6226 85.2455 66.2743Z" fill="#2196F3"/>
<path d="M114.343 58.6748C115.808 58.2731 116.693 56.8338 116.319 55.4602C115.946 54.0865 114.456 53.2986 112.991 53.7004C111.526 54.1022 110.641 55.5414 111.014 56.9151C111.387 58.2887 112.878 59.0766 114.343 58.6748Z" fill="url(#paint11_linear)"/>
<path d="M114.246 58.3204C115.516 57.9722 116.265 56.6557 115.918 55.38C115.571 54.1044 114.261 53.3526 112.991 53.7008C111.721 54.0491 110.972 55.3656 111.319 56.6412C111.666 57.9169 112.976 58.6687 114.246 58.3204Z" fill="#2196F3"/>
<path d="M150.261 51.6082H19.3828V116.493H150.261V51.6082Z" fill="#F5F5F5"/>
<path d="M151 51.5273H18.4724V118H151V51.5273Z" fill="url(#paint12_linear)"/>
<path d="M150.261 58.1569H19.3828V116.451H150.261V58.1569Z" fill="white"/>
<path d="M22.4986 56.4209C23.4095 56.4209 24.148 55.679 24.148 54.7639C24.148 53.8488 23.4095 53.1069 22.4986 53.1069C21.5876 53.1069 20.8491 53.8488 20.8491 54.7639C20.8491 55.679 21.5876 56.4209 22.4986 56.4209Z" fill="#FF5252"/>
<path d="M27.4468 56.4209C28.3578 56.4209 29.0963 55.679 29.0963 54.7639C29.0963 53.8488 28.3578 53.1069 27.4468 53.1069C26.5358 53.1069 25.7974 53.8488 25.7974 54.7639C25.7974 55.679 26.5358 56.4209 27.4468 56.4209Z" fill="#FFFF00"/>
<path d="M32.397 56.4209C33.308 56.4209 34.0465 55.679 34.0465 54.7639C34.0465 53.8488 33.308 53.1069 32.397 53.1069C31.486 53.1069 30.7476 53.8488 30.7476 54.7639C30.7476 55.679 31.486 56.4209 32.397 56.4209Z" fill="#69F0AE"/>
<path d="M53.8433 58.0796H19.3828V116.451H53.8433V58.0796Z" fill="#6C63FF"/>
<path d="M45.7841 76.3096C45.7841 71.4796 41.6775 67.5624 36.6197 67.5624C31.5618 67.5624 27.4536 71.4779 27.4536 76.3096C27.4536 80.1013 29.9808 83.3276 33.5159 84.5411V82.2877C33.5159 80.6582 34.9121 79.3261 36.6197 79.3261C38.3307 79.3261 39.7235 80.6582 39.7235 82.2877V84.5411C43.2568 83.3276 45.7841 80.0996 45.7841 76.3096Z" fill="url(#paint13_linear)"/>
<path d="M36.6797 77.97H36.5565C36.2862 77.97 36.0671 78.1901 36.0671 78.4616V81.1876C36.0671 81.4591 36.2862 81.6792 36.5565 81.6792H36.6797C36.95 81.6792 37.1691 81.4591 37.1691 81.1876V78.4616C37.1691 78.1901 36.95 77.97 36.6797 77.97Z" fill="url(#paint14_linear)"/>
<path d="M36.6251 78.4685C38.5708 78.4685 40.1481 76.9632 40.1481 75.1064C40.1481 73.2496 38.5708 71.7444 36.6251 71.7444C34.6794 71.7444 33.1021 73.2496 33.1021 75.1064C33.1021 76.9632 34.6794 78.4685 36.6251 78.4685Z" fill="url(#paint15_linear)"/>
<path d="M36.6199 79.3262C34.9089 79.3262 33.5161 80.6583 33.5161 82.2877V84.5411C35.5284 85.2272 37.7098 85.2272 39.7221 84.5411V82.2877C39.7221 80.6583 38.3259 79.3262 36.6199 79.3262Z" fill="url(#paint16_linear)"/>
<path d="M33.0661 74.9191C32.7844 74.4022 32.6539 73.8159 32.6896 73.2277C32.7115 72.9329 32.7918 72.6453 32.9258 72.3821C33.0598 72.1188 33.2448 71.885 33.4699 71.6945C33.9832 71.2768 34.6796 71.129 35.352 71.0775C36.0245 71.0259 36.7055 71.0568 37.3676 70.9331C38.4568 70.7294 39.4228 70.1041 40.0574 69.1919C40.1234 69.6834 40.1182 70.1818 40.042 70.6718C40 70.9203 39.907 71.1573 39.7689 71.3677C39.6307 71.5782 39.4504 71.7573 39.2395 71.8939C39.7751 71.6584 39.7169 72.2119 39.6006 72.5436C39.8658 72.8496 40.5108 72.8994 40.5433 73.2948C40.5967 73.6896 40.5502 74.0916 40.4082 74.4636C40.2456 74.828 40.4202 75.4708 40.0061 75.4949" fill="url(#paint17_linear)"/>
<path d="M45.3186 75.0205C45.3184 73.419 44.8806 71.8482 44.0528 70.4795C43.2249 69.1108 42.0389 67.9967 40.6241 67.2586C39.2092 66.5205 37.6198 66.1868 36.0291 66.2939C34.4383 66.4009 32.9074 66.9446 31.6032 67.8657C30.299 68.7868 29.2715 70.0499 28.6328 71.5173C27.9942 72.9847 27.7688 74.6 27.9813 76.1873C28.1937 77.7745 28.8359 79.2727 29.8378 80.5185C30.8397 81.7642 32.1628 82.7098 33.663 83.252V81.0021C33.6652 80.2173 33.9765 79.4653 34.5289 78.9104C35.0813 78.3555 35.8299 78.0428 36.6111 78.0405C37.3938 78.0405 38.1445 78.3522 38.6988 78.9074C39.253 79.4625 39.5655 80.2158 39.5678 81.0021V83.2555C41.2533 82.6439 42.71 81.525 43.7392 80.0513C44.7683 78.5775 45.3199 76.8207 45.3186 75.0205Z" fill="#6C63FF"/>
<path d="M36.6472 76.6808H36.5787C36.3084 76.6808 36.0894 76.9009 36.0894 77.1724V79.8985C36.0894 80.17 36.3084 80.3901 36.5787 80.3901H36.6472C36.9174 80.3901 37.1365 80.17 37.1365 79.8985V77.1724C37.1365 76.9009 36.9174 76.6808 36.6472 76.6808Z" fill="white" stroke="white" stroke-miterlimit="10"/>
<path d="M36.6181 77.1793C38.4664 77.1793 39.9649 75.6741 39.9649 73.8173C39.9649 71.9604 38.4664 70.4552 36.6181 70.4552C34.7697 70.4552 33.2712 71.9604 33.2712 73.8173C33.2712 75.6741 34.7697 77.1793 36.6181 77.1793Z" fill="white" stroke="white" stroke-miterlimit="10"/>
<path d="M36.6129 78.037C35.8311 78.0393 35.0821 78.3525 34.5296 78.9081C33.9771 79.4638 33.6661 80.2166 33.6648 81.002V83.2554C35.5709 83.9415 37.655 83.9415 39.5611 83.2554V81.002C39.5597 80.2166 39.2488 79.4638 38.6963 78.9081C38.1438 78.3525 37.3947 78.0393 36.6129 78.037Z" fill="white" stroke="white" stroke-miterlimit="10"/>
<path d="M33.2372 73.6316C32.9689 73.1103 32.8454 72.5261 32.8796 71.9402C32.9186 71.3514 33.1851 70.8012 33.6222 70.407C34.1099 69.9894 34.7703 69.8416 35.4085 69.79C36.0468 69.7384 36.6935 69.7694 37.3232 69.6456C37.8429 69.5399 38.3365 69.3316 38.7753 69.0327C39.2141 68.7338 39.5895 68.3503 39.8795 67.9044C39.9425 68.396 39.9379 68.894 39.8658 69.3843C39.828 69.6295 39.7409 69.8643 39.6097 70.0744C39.4784 70.2845 39.3059 70.4656 39.1027 70.6064C39.616 70.371 39.5561 70.9244 39.4449 71.2561C39.6964 71.5621 40.3004 71.6119 40.3398 72.0073C40.3906 72.4016 40.3466 72.8024 40.2114 73.1761C40.0575 73.5405 40.2217 74.1833 39.8299 74.2074" fill="white"/>
<path d="M33.2372 73.6316C32.9689 73.1103 32.8454 72.5261 32.8796 71.9402C32.9186 71.3514 33.1851 70.8012 33.6222 70.407C34.1099 69.9894 34.7703 69.8416 35.4085 69.79C36.0468 69.7384 36.6935 69.7694 37.3232 69.6456C37.8429 69.5399 38.3365 69.3316 38.7753 69.0327C39.2141 68.7338 39.5895 68.3503 39.8795 67.9044C39.9425 68.396 39.9379 68.894 39.8658 69.3843C39.828 69.6295 39.7409 69.8643 39.6097 70.0744C39.4784 70.2845 39.3059 70.4656 39.1027 70.6064C39.616 70.371 39.5561 70.9244 39.4449 71.2561C39.6964 71.5621 40.3004 71.6119 40.3398 72.0073C40.3906 72.4016 40.3466 72.8024 40.2114 73.1761C40.0575 73.5405 40.2217 74.1833 39.8299 74.2074" stroke="white" stroke-miterlimit="10"/>
<path d="M39.2925 70.5171C39.2925 70.5171 41.6281 70.7216 39.9649 74.204L39.2925 70.5171Z" fill="white"/>
<path opacity="0.1" d="M53.7508 87.2655H19.2903V116.359H53.7508V87.2655Z" fill="black"/>
<path d="M42.754 93.5254H25.8899V95.1824H42.754V93.5254Z" fill="white"/>
<path d="M83.6292 67.9302H66.7651V69.5872H83.6292V67.9302Z" fill="#BDBDBD"/>
<path d="M127.071 77.8737H66.7651V79.5306H127.071V77.8737Z" fill="#E0E0E0"/>
<path d="M127.071 87.8171H66.7651V89.4741H127.071V87.8171Z" fill="#E0E0E0"/>
<path d="M83.6292 97.7606H66.7651V99.4176H83.6292V97.7606Z" fill="#64FFDA"/>
<path d="M105.259 97.7606H88.3945V99.4176H105.259V97.7606Z" fill="#F5F5F5"/>
<path d="M127.073 97.7606H110.208V99.4176H127.073V97.7606Z" fill="#64FFDA"/>
<path d="M46.7869 97.3928H25.8899V99.0498H46.7869V97.3928Z" fill="white"/>
</g>
<defs>
<linearGradient id="paint0_linear" x1="81.3514" y1="81.6575" x2="63.776" y2="17.5722" gradientUnits="userSpaceOnUse">
<stop stop-color="#808080" stop-opacity="0.25"/>
<stop offset="0.54" stop-color="#808080" stop-opacity="0.12"/>
<stop offset="1" stop-color="#808080" stop-opacity="0.1"/>
</linearGradient>
<linearGradient id="paint1_linear" x1="26.161" y1="62.1086" x2="21.6723" y2="45.7413" gradientUnits="userSpaceOnUse">
<stop stop-opacity="0.12"/>
<stop offset="0.55" stop-opacity="0.09"/>
<stop offset="1" stop-opacity="0.02"/>
</linearGradient>
<linearGradient id="paint2_linear" x1="-32.2633" y1="1078.86" x2="-53.4272" y2="1001.69" gradientUnits="userSpaceOnUse">
<stop stop-opacity="0.12"/>
<stop offset="0.55" stop-opacity="0.09"/>
<stop offset="1" stop-opacity="0.02"/>
</linearGradient>
<linearGradient id="paint3_linear" x1="-2177.68" y1="2320.77" x2="-2247.23" y2="2067.17" gradientUnits="userSpaceOnUse">
<stop stop-opacity="0.12"/>
<stop offset="0.55" stop-opacity="0.09"/>
<stop offset="1" stop-opacity="0.02"/>
</linearGradient>
<linearGradient id="paint4_linear" x1="-2662.74" y1="1687.61" x2="-2662.74" y2="1488.06" gradientUnits="userSpaceOnUse">
<stop stop-opacity="0.12"/>
<stop offset="0.55" stop-opacity="0.09"/>
<stop offset="1" stop-opacity="0.02"/>
</linearGradient>
<linearGradient id="paint5_linear" x1="-3148.64" y1="1645.03" x2="-3148.64" y2="1374.48" gradientUnits="userSpaceOnUse">
<stop stop-opacity="0.12"/>
<stop offset="0.55" stop-opacity="0.09"/>
<stop offset="1" stop-opacity="0.02"/>
</linearGradient>
<linearGradient id="paint6_linear" x1="46.5116" y1="45.4018" x2="51.8201" y2="43.9591" gradientUnits="userSpaceOnUse">
<stop stop-opacity="0.09"/>
<stop offset="0.55" stop-opacity="0.07"/>
<stop offset="1" stop-opacity="0.02"/>
</linearGradient>
<linearGradient id="paint7_linear" x1="-13.9127" y1="1186.22" x2="156.702" y2="1139.85" gradientUnits="userSpaceOnUse">
<stop stop-opacity="0.09"/>
<stop offset="0.55" stop-opacity="0.07"/>
<stop offset="1" stop-opacity="0.02"/>
</linearGradient>
<linearGradient id="paint8_linear" x1="944.037" y1="915.253" x2="1114.65" y2="868.886" gradientUnits="userSpaceOnUse">
<stop stop-opacity="0.09"/>
<stop offset="0.55" stop-opacity="0.07"/>
<stop offset="1" stop-opacity="0.02"/>
</linearGradient>
<linearGradient id="paint9_linear" x1="-706.8" y1="2288.55" x2="-536.185" y2="2242.18" gradientUnits="userSpaceOnUse">
<stop stop-opacity="0.09"/>
<stop offset="0.55" stop-opacity="0.07"/>
<stop offset="1" stop-opacity="0.02"/>
</linearGradient>
<linearGradient id="paint10_linear" x1="221.928" y1="2025.84" x2="392.543" y2="1979.47" gradientUnits="userSpaceOnUse">
<stop stop-opacity="0.09"/>
<stop offset="0.55" stop-opacity="0.07"/>
<stop offset="1" stop-opacity="0.02"/>
</linearGradient>
<linearGradient id="paint11_linear" x1="1179.88" y1="1754.88" x2="1350.5" y2="1708.51" gradientUnits="userSpaceOnUse">
<stop stop-opacity="0.09"/>
<stop offset="0.55" stop-opacity="0.07"/>
<stop offset="1" stop-opacity="0.02"/>
</linearGradient>
<linearGradient id="paint12_linear" x1="65650.1" y1="45685.7" x2="65650.1" y2="19978.7" gradientUnits="userSpaceOnUse">
<stop stop-color="#808080" stop-opacity="0.25"/>
<stop offset="0.54" stop-color="#808080" stop-opacity="0.12"/>
<stop offset="1" stop-color="#808080" stop-opacity="0.1"/>
</linearGradient>
<linearGradient id="paint13_linear" x1="6860.5" y1="10230.9" x2="6860.5" y2="8553.69" gradientUnits="userSpaceOnUse">
<stop stop-opacity="0.12"/>
<stop offset="0.55" stop-opacity="0.09"/>
<stop offset="1" stop-opacity="0.02"/>
</linearGradient>
<linearGradient id="paint14_linear" x1="271.899" y1="1840.57" x2="271.899" y2="1760.56" gradientUnits="userSpaceOnUse">
<stop stop-opacity="0.12"/>
<stop offset="0.55" stop-opacity="0.09"/>
<stop offset="1" stop-opacity="0.02"/>
</linearGradient>
<linearGradient id="paint15_linear" x1="1541.32" y1="3141.36" x2="1541.32" y2="2878.38" gradientUnits="userSpaceOnUse">
<stop stop-opacity="0.12"/>
<stop offset="0.55" stop-opacity="0.09"/>
<stop offset="1" stop-opacity="0.02"/>
</linearGradient>
<linearGradient id="paint16_linear" x1="2346.91" y1="3526.07" x2="2346.91" y2="3335.11" gradientUnits="userSpaceOnUse">
<stop stop-opacity="0.12"/>
<stop offset="0.55" stop-opacity="0.09"/>
<stop offset="1" stop-opacity="0.02"/>
</linearGradient>
<linearGradient id="paint17_linear" x1="2970.8" y1="3510.56" x2="2970.8" y2="3279.24" gradientUnits="userSpaceOnUse">
<stop stop-opacity="0.12"/>
<stop offset="0.55" stop-opacity="0.09"/>
<stop offset="1" stop-opacity="0.02"/>
</linearGradient>
<clipPath id="clip0">
<rect width="151" height="118" fill="white"/>
</clipPath>
</defs>
</svg>