<svg width="182" height="109" viewBox="0 0 182 109" fill="none" xmlns="http://www.w3.org/2000/svg">
<path d="M169.954 0.0955811H0.0722656V108.077H169.954V0.0955811Z" fill="#E6E6E6"/>
<path d="M165.096 13.6392H4.93018V101.689H165.096V13.6392Z" fill="white"/>
<path d="M169.882 0H0V7.1629H169.882V0Z" fill="#6C63FF"/>
<path d="M5.36304 4.98965C6.10181 4.98965 6.70069 4.39527 6.70069 3.66206C6.70069 2.92885 6.10181 2.33447 5.36304 2.33447C4.62428 2.33447 4.02539 2.92885 4.02539 3.66206C4.02539 4.39527 4.62428 4.98965 5.36304 4.98965Z" fill="white"/>
<path d="M10.4407 4.98965C11.1794 4.98965 11.7783 4.39527 11.7783 3.66206C11.7783 2.92885 11.1794 2.33447 10.4407 2.33447C9.70191 2.33447 9.10303 2.92885 9.10303 3.66206C9.10303 4.39527 9.70191 4.98965 10.4407 4.98965Z" fill="white"/>
<path d="M15.5178 4.98965C16.2566 4.98965 16.8555 4.39527 16.8555 3.66206C16.8555 2.92885 16.2566 2.33447 15.5178 2.33447C14.7791 2.33447 14.1802 2.92885 14.1802 3.66206C14.1802 4.39527 14.7791 4.98965 15.5178 4.98965Z" fill="white"/>
<path d="M60.6385 22.7749H19.4834V92.5527H60.6385V22.7749Z" fill="#E6E6E6"/>
<path d="M102.039 22.7749H67.7432V41.982H102.039V22.7749Z" fill="#6C63FF"/>
<path d="M102.039 47.3309H67.7432V67.9968H102.039V47.3309Z" fill="#E6E6E6"/>
<path d="M102.039 73.3457H67.7432V92.5528H102.039V73.3457Z" fill="#E6E6E6"/>
<path d="M150.543 22.7749H109.388V53.1837H150.543V22.7749Z" fill="#E6E6E6"/>
<path d="M150.543 62.144H109.388V92.5528H150.543V62.144Z" fill="#6C63FF"/>
<path d="M143.363 31.796C139.374 28.455 134.492 26.3369 129.312 25.6994C124.131 25.0618 118.876 25.9323 114.186 28.205C109.495 30.4776 105.571 34.0544 102.891 38.5001C100.211 42.9458 98.8909 48.0687 99.0911 53.2455C99.2914 58.4222 101.003 63.4296 104.019 67.6583C107.034 71.887 111.223 75.1546 116.075 77.0637C120.928 78.9727 126.235 79.4408 131.351 78.411C136.466 77.3812 141.17 74.8978 144.889 71.2632L177.918 98.923C178.167 99.1316 178.455 99.2895 178.766 99.3876C179.076 99.4858 179.403 99.5223 179.728 99.495C180.053 99.4677 180.369 99.3772 180.658 99.2287C180.948 99.0801 181.205 98.8764 181.415 98.6292C181.625 98.3821 181.784 98.0962 181.883 97.788C181.982 97.4798 182.019 97.1553 181.991 96.8331C181.964 96.5108 181.872 96.1971 181.723 95.9098C181.573 95.6225 181.368 95.3673 181.119 95.1588L148.09 67.4989C151.927 62.0336 153.569 55.3431 152.694 48.7387C151.82 42.1343 148.492 36.092 143.363 31.796ZM141.234 64.8355C138.661 67.8619 135.241 70.0632 131.407 71.1609C127.574 72.2585 123.498 72.2033 119.696 71.0021C115.894 69.801 112.537 67.5078 110.048 64.4127C107.559 61.3176 106.051 57.5596 105.714 53.6138C105.377 49.6679 106.227 45.7116 108.155 42.2451C110.084 38.7785 113.005 35.9575 116.55 34.1386C120.094 32.3198 124.102 31.5849 128.067 32.0268C132.032 32.4687 135.776 34.0677 138.825 36.6214C142.914 40.0458 145.465 44.9422 145.917 50.2334C146.369 55.5245 144.684 60.7771 141.234 64.8355Z" fill="#3F3D56"/>
<path opacity="0.3" d="M112.806 67.2257C108.936 63.9844 106.435 59.4171 105.801 54.4308C105.167 49.4446 106.445 44.4039 109.382 40.3098C108.997 40.6953 108.624 41.0991 108.264 41.5211C106.555 43.5306 105.262 45.8544 104.458 48.3599C103.654 50.8654 103.356 53.5035 103.579 56.1236C103.803 58.7436 104.544 61.2943 105.761 63.63C106.978 65.9657 108.646 68.0406 110.671 69.7363C112.696 71.432 115.038 72.7152 117.562 73.5128C120.087 74.3103 122.745 74.6065 125.385 74.3844C128.025 74.1624 130.594 73.4264 132.948 72.2185C135.301 71.0107 137.392 69.3546 139.1 67.3449C139.459 66.9224 139.798 66.4896 140.115 66.0467C136.543 69.609 131.751 71.7077 126.692 71.9261C121.633 72.1445 116.676 70.4666 112.806 67.2257Z" fill="black"/>
</svg>