<svg width="125" height="115" viewBox="0 0 125 115" fill="none" xmlns="http://www.w3.org/2000/svg">
<path d="M114.146 52.143C114.146 58.9273 112.534 64.5118 109.739 69.2957C108.816 70.8714 107.768 72.3712 106.606 73.7806C96.3286 86.3134 77.2206 93.1729 59.9507 104.284C8.97281 137.081 3.45093 84.5271 5.75333 52.143C6.68203 39.0759 11.786 27.1064 19.8947 17.9417C21.5977 16.0142 23.4372 14.2111 25.3992 12.5463C34.6049 4.72992 46.4981 0 59.9507 0C83.0308 0 102.74 13.8792 110.555 33.4374C112.931 39.3892 114.15 45.7372 114.146 52.143Z" fill="#6C63FF"/>
<path d="M71.4973 11.7515L19.8945 17.9416C21.5975 16.0142 23.437 14.211 25.399 12.5462L71.4973 11.7515Z" fill="#D0CDE1"/>
<path d="M109.738 69.2957C108.816 70.8714 107.768 72.3712 106.606 73.7806L62.4038 68.4797L109.738 69.2957Z" fill="#D0CDE1"/>
<path d="M112.358 38.8154L37.4448 29.1279L110.555 33.4373C111.257 35.1947 111.859 36.9903 112.358 38.8154Z" fill="#D0CDE1"/>
<path d="M10.8348 13.8892C10.8348 14.0223 10.8309 14.1535 10.8193 14.2828C10.7607 15.0838 10.5237 15.8618 10.1254 16.56C9.72711 17.2581 9.17765 17.859 8.51703 18.3186C7.8564 18.7783 7.10126 19.0853 6.30659 19.2173C5.51193 19.3492 4.69775 19.3027 3.92337 19.0813C3.14898 18.8598 2.4339 18.469 1.83018 17.9371C1.22647 17.4053 0.749337 16.7459 0.433538 16.007C0.117739 15.2681 -0.028774 14.4683 0.00467018 13.6658C0.0381144 12.8633 0.250677 12.0783 0.626869 11.368C0.743344 11.1455 0.876581 10.932 1.02544 10.7295C1.67329 9.83366 2.58114 9.15743 3.62652 8.79205C4.67191 8.42667 5.80454 8.38972 6.87164 8.68619C7.93874 8.98265 8.88899 9.59827 9.5942 10.45C10.2994 11.3017 10.7257 12.3486 10.8155 13.4494C10.829 13.5941 10.8348 13.7407 10.8348 13.8892Z" fill="#6C63FF"/>
<path d="M10.8351 13.8892C10.8351 14.0224 10.8312 14.1535 10.8196 14.2828L2.70898 13.3105L10.8158 13.4494C10.8293 13.5941 10.8351 13.7407 10.8351 13.8892Z" fill="#D0CDE1"/>
<path d="M8.90003 16.6111L1.39692 17.5119C1.18393 17.2752 0.992295 17.0202 0.824219 16.75L8.90003 16.6111Z" fill="#D0CDE1"/>
<path d="M6.77184 10.6311L0.626953 11.368C0.743428 11.1454 0.876665 10.932 1.02552 10.7295L6.77184 10.6311Z" fill="#D0CDE1"/>
<path d="M85.079 111.135C85.0164 111.253 84.9513 111.367 84.8803 111.476C84.4519 112.156 83.8767 112.732 83.1966 113.163C82.5165 113.593 81.7487 113.867 80.949 113.965C80.1493 114.062 79.338 113.98 78.574 113.725C77.81 113.47 77.1127 113.049 76.5328 112.491C75.9528 111.934 75.505 111.254 75.2218 110.502C74.9385 109.751 74.8271 108.945 74.8956 108.145C74.9641 107.344 75.2107 106.569 75.6176 105.876C76.0244 105.183 76.5813 104.589 77.2475 104.137C77.455 103.995 77.6731 103.869 77.8998 103.76C78.8933 103.271 80.0131 103.098 81.1084 103.264C82.2036 103.43 83.2214 103.927 84.0246 104.687C84.8278 105.448 85.3777 106.436 85.6002 107.518C85.8227 108.6 85.707 109.724 85.2687 110.738C85.2126 110.872 85.1488 111.004 85.079 111.135Z" fill="#6C63FF"/>
<path d="M85.0792 111.135C85.0166 111.253 84.9515 111.367 84.8805 111.476L78.1733 106.826L85.2689 110.738C85.2128 110.872 85.149 111.004 85.0792 111.135Z" fill="#D0CDE1"/>
<path d="M82.0904 112.635L75.0392 109.924C74.9624 109.616 74.913 109.301 74.8916 108.984L82.0904 112.635Z" fill="#D0CDE1"/>
<path d="M83.0224 106.359L77.248 104.137C77.4556 103.995 77.6736 103.869 77.9003 103.76L83.0224 106.359Z" fill="#D0CDE1"/>
<path d="M123.448 18.027C123.542 18.1223 123.631 18.2189 123.713 18.3195C124.232 18.9338 124.607 19.6558 124.811 20.4328C125.015 21.2099 125.042 22.0225 124.891 22.8115C124.74 23.6004 124.414 24.3459 123.938 24.9935C123.461 25.6411 122.846 26.1747 122.136 26.5552C121.427 26.9357 120.641 27.1537 119.837 27.1932C119.032 27.2327 118.229 27.0928 117.485 26.7836C116.742 26.4745 116.077 26.0038 115.539 25.406C115.001 24.8082 114.603 24.0983 114.375 23.328C114.302 23.0875 114.248 22.842 114.213 22.5934C114.05 21.5011 114.226 20.385 114.719 19.3957C115.211 18.4064 115.996 17.5915 116.968 17.0609C117.939 16.5304 119.05 16.3096 120.152 16.4285C121.253 16.5473 122.291 17 123.127 17.7256C123.238 17.8198 123.344 17.9207 123.448 18.027Z" fill="#6C63FF"/>
<path d="M118.258 18.5229L114.375 23.328C114.303 23.0876 114.249 22.842 114.213 22.5935L118.258 18.5229Z" fill="#D0CDE1"/>
<path d="M16.5138 62.3419L16.424 62.3301L16.6432 63.1608C16.8504 64.3197 17.1512 65.4601 17.5429 66.5706L23.9715 90.9355C24.1766 91.7131 24.6051 92.4141 25.2041 92.9525C25.8032 93.4908 26.5469 93.843 27.3439 93.966L40.454 95.9881C41.3017 96.1188 42.1692 95.9839 42.9368 95.6021C43.7043 95.2202 44.334 94.6101 44.7388 93.8562L57.1977 70.6548C57.587 70.012 57.9427 69.3496 58.2635 68.6702L58.6865 67.8824L58.6205 67.8738C59.9412 64.7589 60.5225 61.3819 60.3192 58.0062C60.1158 54.6305 59.1333 51.3472 57.4482 48.4123C55.763 45.4774 53.4208 42.9701 50.6041 41.0859C47.7874 39.2018 44.5723 37.9916 41.2094 37.5498C37.8466 37.108 34.4268 37.4465 31.2167 38.5388C28.0066 39.6312 25.0929 41.448 22.7027 43.8475C20.3125 46.247 18.5104 49.1644 17.4369 52.3724C16.3634 55.5804 16.0475 58.9922 16.5138 62.3419H16.5138Z" fill="#3F3D56"/>
<path d="M41.2582 97.5799C41.0273 97.5799 40.7967 97.5622 40.5685 97.5269L26.8648 95.4131C25.9944 95.279 25.1823 94.8944 24.528 94.3066C23.8738 93.7187 23.406 92.9531 23.1821 92.1039L16.4625 66.636C16.0518 65.4701 15.7362 64.273 15.5187 63.0565L15.3488 61.9423C14.8916 58.3829 15.2704 54.7663 16.4555 51.3779C17.6406 47.9895 19.5994 44.9221 22.1774 42.4179C24.7553 39.9137 27.8818 38.0412 31.31 36.9482C34.7383 35.8552 38.3744 35.5717 41.9314 36.12L41.872 36.5013C38.3538 35.9607 34.7576 36.2474 31.3702 37.3385C27.9828 38.4296 24.8981 40.2948 22.362 42.7855C19.826 45.2761 17.9089 48.3231 16.7636 51.6836C15.6183 55.044 15.2766 58.6248 15.7657 62.1402L15.8963 62.9736C16.1122 64.1799 16.4251 65.3668 16.8322 66.523L23.5564 92.0057C23.7611 92.7823 24.1889 93.4824 24.7871 94.02C25.3854 94.5576 26.128 94.9093 26.924 95.0319L40.6277 97.1456C41.4741 97.2753 42.34 97.1403 43.1063 96.759C43.8725 96.3778 44.5014 95.7691 44.9063 95.0168L45.2475 95.1988C44.8603 95.9179 44.2849 96.5191 43.5825 96.9384C42.8801 97.3576 42.0768 97.5793 41.2582 97.5799Z" fill="#D0CDE1"/>
<path d="M44.7342 67.8799L36.396 90.5786L36.866 90.7502L45.2042 68.0515L44.7342 67.8799Z" fill="#D0CDE1"/>
<path d="M31.1201 65.7796L30.6201 65.8015L31.6844 89.9513L32.1844 89.9294L31.1201 65.7796Z" fill="#D0CDE1"/>
<path d="M40.0999 109.126L22.5403 106.418C22.4097 106.397 22.2927 106.325 22.2149 106.218C22.1371 106.112 22.1048 105.979 22.125 105.849C22.1452 105.718 22.2164 105.601 22.3228 105.523C22.4293 105.445 22.5625 105.412 22.6933 105.431L40.2529 108.14C40.3182 108.149 40.3809 108.172 40.4374 108.206C40.4939 108.24 40.5432 108.284 40.5823 108.337C40.6214 108.39 40.6497 108.45 40.6654 108.514C40.6811 108.578 40.684 108.645 40.6739 108.71C40.6639 108.775 40.641 108.837 40.6066 108.893C40.5723 108.949 40.5271 108.998 40.4738 109.037C40.4204 109.075 40.3599 109.103 40.2958 109.119C40.2316 109.134 40.1651 109.136 40.0999 109.126Z" fill="#3F3D56"/>
<path d="M40.55 105.408L22.9904 102.7C22.9251 102.69 22.8624 102.668 22.8059 102.634C22.7494 102.6 22.7001 102.555 22.661 102.502C22.6219 102.449 22.5936 102.389 22.5779 102.325C22.5622 102.261 22.5593 102.195 22.5694 102.13C22.5794 102.065 22.6023 102.003 22.6367 101.946C22.671 101.89 22.7162 101.841 22.7695 101.803C22.8229 101.764 22.8834 101.736 22.9475 101.721C23.0117 101.706 23.0783 101.703 23.1434 101.713L40.7031 104.422C40.7683 104.432 40.831 104.454 40.8875 104.488C40.9441 104.522 40.9933 104.567 41.0324 104.62C41.0716 104.673 41.0998 104.733 41.1155 104.797C41.1312 104.86 41.1342 104.927 41.1241 104.992C41.114 105.057 41.0911 105.119 41.0567 105.175C41.0224 105.231 40.9773 105.28 40.9239 105.319C40.8706 105.358 40.8101 105.386 40.7459 105.401C40.6817 105.416 40.6152 105.419 40.55 105.408Z" fill="#3F3D56"/>
<path d="M41.0003 101.69L23.4407 98.982C23.3101 98.9611 23.1931 98.8895 23.1153 98.7829C23.0375 98.6763 23.0052 98.5433 23.0254 98.413C23.0456 98.2827 23.1168 98.1657 23.2232 98.0875C23.3297 98.0093 23.4629 97.9763 23.5937 97.9957L41.1533 100.704C41.2839 100.725 41.4009 100.797 41.4787 100.903C41.5565 101.01 41.5888 101.143 41.5686 101.273C41.5484 101.403 41.4773 101.52 41.3708 101.599C41.2643 101.677 41.1311 101.71 41.0003 101.69H41.0003Z" fill="#3F3D56"/>
<path d="M30.7745 111.289C34.2576 111.827 37.3815 110.327 37.7519 107.939L25.1386 105.994C24.7682 108.381 27.2915 110.752 30.7745 111.289Z" fill="#3F3D56"/>
<path d="M37.0862 63.0977C36.337 62.9823 35.7171 62.3918 35.3773 61.9961C35.2658 61.8663 35.1574 61.7317 35.0486 61.5969C34.6528 61.1057 34.2792 60.6418 33.7588 60.4C32.6101 59.8656 31.2567 60.612 30.0849 61.4127L29.8018 61.0011C31.0901 60.1205 32.5924 59.307 33.9704 59.9476C34.5963 60.2387 35.0246 60.7703 35.4387 61.2842C35.5442 61.4151 35.6494 61.5457 35.7574 61.6715C36.1108 62.083 36.8155 62.7496 37.5706 62.5959C37.8889 62.5034 38.1848 62.3472 38.4404 62.1368C38.6351 61.9919 38.8409 61.8624 39.0559 61.7496C39.4919 61.5411 39.98 61.4659 40.4588 61.5334C40.9376 61.6008 41.3856 61.808 41.7466 62.1287C41.8753 62.2503 41.9972 62.3788 42.1117 62.5137C42.3369 62.7696 42.5494 63.0111 42.8262 63.0989C43.2352 63.2293 43.6676 62.9962 44.1257 62.7499C44.5982 62.4957 45.0866 62.2327 45.6407 62.2976C45.6586 62.2997 45.6768 62.3022 45.6947 62.3049C46.6806 62.457 47.1351 63.5441 47.3923 64.3553L46.9149 64.5056C46.5654 63.4028 46.1399 62.8544 45.582 62.7933C45.1852 62.7467 44.7861 62.9616 44.3635 63.1889C43.8338 63.4741 43.2855 63.7689 42.6742 63.5744C42.265 63.4446 41.9957 63.1387 41.7355 62.8429C41.6329 62.7218 41.5238 62.6063 41.4088 62.497C41.1213 62.246 40.7667 62.0839 40.3883 62.0306C40.0099 61.9772 39.6241 62.035 39.2781 62.1967C39.0865 62.2983 38.903 62.4145 38.7293 62.5442C38.4187 62.7967 38.0581 62.9809 37.6711 63.0848C37.4785 63.1239 37.2804 63.1283 37.0862 63.0977Z" fill="#D0CDE1"/>
</svg>