<svg width="95" height="97" viewBox="0 0 95 97" fill="none" xmlns="http://www.w3.org/2000/svg">
<path d="M55 12H14V25H55V12Z" fill="#6C63FF"/>
<path d="M74 1H1V44H74V1Z" stroke="#3F3D56" stroke-miterlimit="10"/>
<path d="M1 13H74" stroke="#3F3D56" stroke-miterlimit="10"/>
<path d="M58 9H17V22H58V9Z" stroke="#3F3D56" stroke-miterlimit="10"/>
<path d="M64 31H9V32H64V31Z" fill="#F2F2F2"/>
<path d="M64 34H9V36H64V34Z" fill="#F2F2F2"/>
<path d="M64 39H9V40H64V39Z" fill="#F2F2F2"/>
<path d="M65 30H9V31H65V30Z" stroke="#3F3D56" stroke-miterlimit="10"/>
<path d="M65 33H9V35H65V33Z" stroke="#3F3D56" stroke-miterlimit="10"/>
<path d="M65 38H9V40H65V38Z" stroke="#3F3D56" stroke-miterlimit="10"/>
<path d="M3.38416 55.1583C3.71336 55.1583 3.98023 54.8897 3.98023 54.5584C3.98023 54.2271 3.71336 53.9585 3.38416 53.9585C3.05496 53.9585 2.78809 54.2271 2.78809 54.5584C2.78809 54.8897 3.05496 55.1583 3.38416 55.1583Z" fill="#F86B75"/>
<path d="M5.17225 55.1583C5.50145 55.1583 5.76832 54.8897 5.76832 54.5584C5.76832 54.2271 5.50145 53.9585 5.17225 53.9585C4.84304 53.9585 4.57617 54.2271 4.57617 54.5584C4.57617 54.8897 4.84304 55.1583 5.17225 55.1583Z" fill="#FAD375"/>
<path d="M6.96076 55.1583C7.28996 55.1583 7.55683 54.8897 7.55683 54.5584C7.55683 54.2271 7.28996 53.9585 6.96076 53.9585C6.63156 53.9585 6.36469 54.2271 6.36469 54.5584C6.36469 54.8897 6.63156 55.1583 6.96076 55.1583Z" fill="#8BCC55"/>
<path d="M55.1438 63.8568H14.2134V76.6545H55.1438V63.8568Z" fill="#6C63FF"/>
<path d="M73.3236 61.3573V95.7511H1V52.5588H59.8126" stroke="#3F3D56" stroke-miterlimit="10"/>
<path d="M1 55.8298H59.9119" stroke="#3F3D56" stroke-miterlimit="10"/>
<path d="M3.58289 54.7584C3.91209 54.7584 4.17896 54.4898 4.17896 54.1585C4.17896 53.8272 3.91209 53.5586 3.58289 53.5586C3.25369 53.5586 2.98682 53.8272 2.98682 54.1585C2.98682 54.4898 3.25369 54.7584 3.58289 54.7584Z" stroke="#3F3D56" stroke-miterlimit="10"/>
<path d="M5.3714 54.7584C5.7006 54.7584 5.96747 54.4898 5.96747 54.1585C5.96747 53.8272 5.7006 53.5586 5.3714 53.5586C5.0422 53.5586 4.77533 53.8272 4.77533 54.1585C4.77533 54.4898 5.0422 54.7584 5.3714 54.7584Z" stroke="#3F3D56" stroke-miterlimit="10"/>
<path d="M7.15949 54.7584C7.48869 54.7584 7.75556 54.4898 7.75556 54.1585C7.75556 53.8272 7.48869 53.5586 7.15949 53.5586C6.83029 53.5586 6.56342 53.8272 6.56342 54.1585C6.56342 54.4898 6.83029 54.7584 7.15949 54.7584Z" stroke="#3F3D56" stroke-miterlimit="10"/>
<path d="M57.627 61.3572H16.6966V74.1549H57.627V61.3572Z" stroke="#3F3D56" stroke-miterlimit="10"/>
<path d="M16.1999 81.6536H3.68237V92.4516H16.1999V81.6536Z" fill="#F2F2F2"/>
<path d="M39.3473 81.7535H26.8298V92.5516H39.3473V81.7535Z" fill="#F2F2F2"/>
<path d="M62.4948 81.8535H49.9772V92.6516H62.4948V81.8535Z" fill="#F2F2F2"/>
<path d="M17.9884 79.6539H5.47089V90.452H17.9884V79.6539Z" stroke="#3F3D56" stroke-miterlimit="10"/>
<path d="M41.1359 79.7539H28.6183V90.552H41.1359V79.7539Z" stroke="#3F3D56" stroke-miterlimit="10"/>
<path d="M64.2833 79.8539H51.7658V90.652H64.2833V79.8539Z" stroke="#3F3D56" stroke-miterlimit="10"/>
<path d="M93.9998 19.7023H21.6763V62.8945H93.9998V19.7023Z" fill="white" stroke="#3F3D56" stroke-miterlimit="10"/>
<path d="M32.8025 44.2979C36.0946 44.2979 38.7633 41.6121 38.7633 38.299C38.7633 34.9859 36.0946 32.3 32.8025 32.3C29.5105 32.3 26.8418 34.9859 26.8418 38.299C26.8418 41.6121 29.5105 44.2979 32.8025 44.2979Z" fill="#6C63FF"/>
<path d="M56.8442 44.2979C60.1363 44.2979 62.805 41.6121 62.805 38.299C62.805 34.9859 60.1363 32.3 56.8442 32.3C53.5522 32.3 50.8835 34.9859 50.8835 38.299C50.8835 41.6121 53.5522 44.2979 56.8442 44.2979Z" fill="#6C63FF"/>
<path d="M80.886 44.2979C84.178 44.2979 86.8467 41.6121 86.8467 38.299C86.8467 34.9859 84.178 32.3 80.886 32.3C77.5939 32.3 74.9252 34.9859 74.9252 38.299C74.9252 41.6121 77.5939 44.2979 80.886 44.2979Z" fill="#6C63FF"/>
<path d="M24.0604 22.3018C24.3896 22.3018 24.6565 22.0333 24.6565 21.7019C24.6565 21.3706 24.3896 21.1021 24.0604 21.1021C23.7312 21.1021 23.4644 21.3706 23.4644 21.7019C23.4644 22.0333 23.7312 22.3018 24.0604 22.3018Z" fill="#F86B75"/>
<path d="M25.8485 22.3018C26.1777 22.3018 26.4446 22.0333 26.4446 21.7019C26.4446 21.3706 26.1777 21.1021 25.8485 21.1021C25.5193 21.1021 25.2524 21.3706 25.2524 21.7019C25.2524 22.0333 25.5193 22.3018 25.8485 22.3018Z" fill="#FAD375"/>
<path d="M27.6366 22.3018C27.9658 22.3018 28.2327 22.0333 28.2327 21.7019C28.2327 21.3706 27.9658 21.1021 27.6366 21.1021C27.3074 21.1021 27.0405 21.3706 27.0405 21.7019C27.0405 22.0333 27.3074 22.3018 27.6366 22.3018Z" fill="#8BCC55"/>
<path d="M21.6763 22.9734H93.9998" stroke="#3F3D56" stroke-miterlimit="10"/>
<path d="M24.2592 21.9019C24.5884 21.9019 24.8552 21.6333 24.8552 21.302C24.8552 20.9707 24.5884 20.7021 24.2592 20.7021C23.93 20.7021 23.6631 20.9707 23.6631 21.302C23.6631 21.6333 23.93 21.9019 24.2592 21.9019Z" stroke="#3F3D56" stroke-miterlimit="10"/>
<path d="M26.0472 21.9019C26.3765 21.9019 26.6433 21.6333 26.6433 21.302C26.6433 20.9707 26.3765 20.7021 26.0472 20.7021C25.718 20.7021 25.4512 20.9707 25.4512 21.302C25.4512 21.6333 25.718 21.9019 26.0472 21.9019Z" stroke="#3F3D56" stroke-miterlimit="10"/>
<path d="M27.8358 21.9019C28.165 21.9019 28.4318 21.6333 28.4318 21.302C28.4318 20.9707 28.165 20.7021 27.8358 20.7021C27.5066 20.7021 27.2397 20.9707 27.2397 21.302C27.2397 21.6333 27.5066 21.9019 27.8358 21.9019Z" stroke="#3F3D56" stroke-miterlimit="10"/>
<path d="M33.7961 43.2981C37.0881 43.2981 39.7569 40.6123 39.7569 37.2992C39.7569 33.9861 37.0881 31.3003 33.7961 31.3003C30.5041 31.3003 27.8354 33.9861 27.8354 37.2992C27.8354 40.6123 30.5041 43.2981 33.7961 43.2981Z" stroke="#3F3D56" stroke-miterlimit="10"/>
<path d="M57.8374 43.2981C61.1295 43.2981 63.7982 40.6123 63.7982 37.2992C63.7982 33.9861 61.1295 31.3003 57.8374 31.3003C54.5454 31.3003 51.8767 33.9861 51.8767 37.2992C51.8767 40.6123 54.5454 43.2981 57.8374 43.2981Z" stroke="#3F3D56" stroke-miterlimit="10"/>
<path d="M81.8796 43.2981C85.1716 43.2981 87.8403 40.6123 87.8403 37.2992C87.8403 33.9861 85.1716 31.3003 81.8796 31.3003C78.5876 31.3003 75.9189 33.9861 75.9189 37.2992C75.9189 40.6123 78.5876 43.2981 81.8796 43.2981Z" stroke="#3F3D56" stroke-miterlimit="10"/>
<path d="M41.0483 48.3971H24.7556V49.9968H41.0483V48.3971Z" fill="#F2F2F2"/>
<path d="M65.2887 48.3971H48.996V49.9968H65.2887V48.3971Z" fill="#F2F2F2"/>
<path d="M89.5292 48.3971H73.2365V49.9968H89.5292V48.3971Z" fill="#F2F2F2"/>
<path d="M41.8436 47.7972H25.551V49.3969H41.8436V47.7972Z" stroke="#3F3D56" stroke-miterlimit="10"/>
<path d="M66.0836 47.7972H49.791V49.3969H66.0836V47.7972Z" stroke="#3F3D56" stroke-miterlimit="10"/>
<path d="M90.3236 47.7972H74.0309V49.3969H90.3236V47.7972Z" stroke="#3F3D56" stroke-miterlimit="10"/>
<path d="M65.4446 18.332L59.8693 21.4409L65.815 19.3301L65.4446 18.332Z" fill="#79758C"/>
<path d="M67.9577 21.3908C68.7747 21.1237 69.0036 19.5642 68.469 17.9075C67.9343 16.2509 66.8385 15.1244 66.0215 15.3915C65.2044 15.6586 64.9755 17.2181 65.5102 18.8748C66.0448 20.5314 67.1406 21.6579 67.9577 21.3908Z" fill="#3F3D56"/>
<path d="M72.5222 18.1044C73.1386 17.9029 73.3323 16.7913 72.9548 15.6216C72.5772 14.4518 71.7715 13.6669 71.1551 13.8684C70.5386 14.0699 70.345 15.1815 70.7225 16.3513C71.1 17.521 71.9058 18.3059 72.5222 18.1044Z" fill="#3F3D56"/>
<path d="M67.348 16.5702L71.0461 15.2264L71.8321 17.4177L68.2529 19.8508L67.348 16.5702Z" fill="#3F3D56"/>
</svg>