<svg width="150" height="97" viewBox="0 0 150 97" fill="none" xmlns="http://www.w3.org/2000/svg">
<path d="M94.8506 85.9767C95.1084 87.8986 99.3334 93 99.3334 93C99.3334 93 102.06 86.964 101.802 85.0421C101.678 84.1197 101.193 83.2842 100.454 82.7196C99.7145 82.1549 98.7812 81.9073 97.8594 82.0313C96.9376 82.1552 96.1027 82.6405 95.5384 83.3804C94.9742 84.1203 94.7267 85.0542 94.8506 85.9767Z" fill="#6C63FF"/>
<path opacity="0.25" d="M94.8506 85.9767C95.1084 87.8986 99.3334 93 99.3334 93C99.3334 93 102.06 86.964 101.802 85.0421C101.678 84.1197 101.193 83.2842 100.454 82.7196C99.7145 82.1549 98.7812 81.9073 97.8594 82.0313C96.9376 82.1552 96.1027 82.6405 95.5384 83.3804C94.9742 84.1203 94.7267 85.0542 94.8506 85.9767Z" fill="black"/>
<path d="M97.6469 72.7076C98.8509 74.132 104.819 76 104.819 76C104.819 76 103.81 69.5982 102.608 68.1718C102.03 67.4859 101.214 67.0671 100.34 67.0074C99.4655 66.9477 98.604 67.2521 97.9451 67.8535C97.2862 68.455 96.8838 69.3043 96.8264 70.2146C96.7691 71.125 97.0615 72.0217 97.6393 72.7076H97.6469Z" fill="#6C63FF"/>
<path d="M90.3059 86.8358C91.2584 88.3298 96.819 91 96.819 91C96.819 91 96.8647 85.0073 95.9141 83.5132C95.4574 82.7958 94.7239 82.2828 93.8751 82.087C93.0263 81.8913 92.1316 82.0288 91.3879 82.4694C90.6442 82.91 90.1124 83.6176 89.9095 84.4364C89.7066 85.2553 89.8492 86.1183 90.3059 86.8358Z" fill="#6C63FF"/>
<path d="M8 0V3.76472V97H150V3.76472V0H8Z" fill="url(#paint0_linear)"/>
<path d="M89.506 24.0033H8.51367V28.3618H89.506V24.0033Z" fill="#F6F7F9"/>
<g opacity="0.2">
<path opacity="0.2" d="M89.506 24.0033H8.51367V28.3618H89.506V24.0033Z" fill="#6C63FF"/>
</g>
<path d="M148 5H9V96H148V5Z" fill="#F6F7F9"/>
<path d="M10.6442 26.9209C11.0534 26.9209 11.3851 26.5899 11.3851 26.1817C11.3851 25.7735 11.0534 25.4426 10.6442 25.4426C10.235 25.4426 9.90332 25.7735 9.90332 26.1817C9.90332 26.5899 10.235 26.9209 10.6442 26.9209Z" fill="#F6F7F9"/>
<path d="M12.652 26.9209C13.0612 26.9209 13.3929 26.5899 13.3929 26.1817C13.3929 25.7735 13.0612 25.4426 12.652 25.4426C12.2428 25.4426 11.9111 25.7735 11.9111 26.1817C11.9111 26.5899 12.2428 26.9209 12.652 26.9209Z" fill="#F6F7F9"/>
<path d="M14.6608 26.9209C15.07 26.9209 15.4017 26.5899 15.4017 26.1817C15.4017 25.7735 15.07 25.4426 14.6608 25.4426C14.2516 25.4426 13.9199 25.7735 13.9199 26.1817C13.9199 26.5899 14.2516 26.9209 14.6608 26.9209Z" fill="#F6F7F9"/>
<g opacity="0.2">
<path opacity="0.2" d="M87.7814 14.5148H25.8926V16.9321H87.7814V14.5148Z" fill="#6C63FF"/>
</g>
<path d="M87.8193 15H79.8193V17H87.8193V15Z" fill="#6C63FF"/>
<g opacity="0.2">
<path opacity="0.2" d="M55.9677 63.9143H17.0215V91.745H55.9677V63.9143Z" fill="#6C63FF"/>
</g>
<g opacity="0.2">
<path opacity="0.2" d="M55.9677 27.8127H17.0215V55.6434H55.9677V27.8127Z" fill="#6C63FF"/>
</g>
<g opacity="0.2">
<path opacity="0.2" d="M136.946 28H98V55.8307H136.946V28Z" fill="#6C63FF"/>
</g>
<g opacity="0.2">
<path opacity="0.2" d="M96.6523 63.9143H57.7061V91.745H96.6523V63.9143Z" fill="#6C63FF"/>
</g>
<g opacity="0.2">
<path opacity="0.2" d="M96.6523 27.8127H57.7061V55.6434H96.6523V27.8127Z" fill="#6C63FF"/>
</g>
<g opacity="0.2">
<path opacity="0.2" d="M136.946 64H98V91.8307H136.946V64Z" fill="#6C63FF"/>
</g>
<path d="M67.8389 32.9051C67.8389 32.9051 67.4815 32.0459 69.8911 32.2602C72.3007 32.4746 79.2191 33.2154 82.2106 32.5667C85.2021 31.918 86.9849 31.7112 86.8072 32.5667C86.6295 33.4222 81.6306 35.3551 81.6306 35.3551L75.1575 36L70.3832 35.2686L67.8193 33.8077L67.8389 32.9051Z" fill="#6C63FF"/>
<path opacity="0.1" d="M86.8041 32.568C86.6244 33.4232 81.6282 35.3553 81.6282 35.3553L75.1558 36L70.3821 35.2707L67.8206 33.8104L67.8381 32.9082C67.8133 32.8339 67.8131 32.7539 67.8376 32.6795C67.8621 32.6051 67.91 32.5398 67.9748 32.4928C68.1954 32.3049 68.7109 32.1583 69.8901 32.2635C72.3014 32.4778 79.2169 33.2164 82.208 32.568C84.6447 32.0399 86.2808 31.8049 86.6986 32.1921C86.7502 32.2395 86.7873 32.2996 86.8058 32.3659C86.8244 32.4322 86.8238 32.5021 86.8041 32.568Z" fill="black"/>
<path d="M89.8193 45.9403C85.7162 46.7367 81.8468 48.4643 78.5045 50.9922C78.3353 50.5386 78.0168 50.1573 77.6023 49.912C77.3192 49.735 77.0102 49.6041 76.6866 49.5242C76.3923 49.4486 76.1095 49.6289 75.8498 49.8888C75.5511 50.2221 75.3005 50.5961 75.1054 51C70.6214 47.8971 63.8193 45.9171 63.8193 45.9171V45.2965C63.8193 45.1743 63.8405 45.0269 63.8636 44.8601C63.8867 44.6934 63.9155 44.546 63.9521 44.3656C64.5292 41.4062 66.8106 34.6439 66.8106 34.6439H67.5166H69.3902L74.3917 35.6911L80.0184 35.3439L85.6854 34.1551L86.4203 34C87.6456 34.9697 89.0364 41.7572 89.5827 44.6468C89.652 45.0133 89.7058 45.3159 89.7462 45.5389C89.7943 45.791 89.8193 45.9403 89.8193 45.9403Z" fill="#6C63FF"/>
<path d="M64.7442 44.8022C64.8919 42.023 67.1254 35.9998 67.5034 35H66.7992C66.7992 35 64.3892 42.0192 63.8999 44.7586C63.8988 44.7655 63.8988 44.7726 63.8999 44.7795C63.8865 44.8535 63.8731 44.9255 63.8635 44.9938C63.8404 45.157 63.8251 45.3012 63.8193 45.4207V46.0277C63.8193 46.0277 70.6041 47.9666 75.0768 51C75.2714 50.6049 75.5213 50.239 75.8193 49.913C74.1097 48.3763 67.6262 45.8722 64.7442 44.8022Z" fill="#6C63FF"/>
<path d="M89.7438 45.5389C89.7268 45.44 89.706 45.3256 89.6833 45.1995C89.655 45.0366 89.6209 44.8524 89.5832 44.6468C89.0465 41.7534 87.6805 34.9638 86.4769 34L85.7551 34.1551C86.1935 35.3633 89.0182 43.2525 88.7782 44.7923C84.0546 45.7619 79.2667 48.9133 77.8193 49.9198C78.2265 50.1651 78.5393 50.5464 78.7055 51C81.9885 48.4721 85.7891 46.7444 89.8193 45.9481C89.8193 45.9481 89.791 45.7988 89.7438 45.5389Z" fill="#6C63FF"/>
<path opacity="0.1" d="M64.8214 44.8003C64.9794 42.0211 67.4015 35.9979 67.811 35H67.0459C67.0459 35 64.4347 42.0192 63.9046 44.7567C63.9046 44.7567 63.9046 44.7719 63.9046 44.7776C63.8893 44.8534 63.8769 44.9255 63.8672 44.9938C63.8422 45.157 63.8256 45.3012 63.8193 45.4207V46.0277C63.8193 46.0277 71.1686 47.9647 76.0168 51C76.226 50.6045 76.4963 50.2384 76.8193 49.913C74.9669 48.3801 67.9441 45.8703 64.8214 44.8003Z" fill="black"/>
<path d="M64.7442 44.8022C64.8919 42.023 67.1254 35.9998 67.5034 35H66.7992C66.7992 35 64.3892 42.0192 63.8999 44.7586C63.8988 44.7655 63.8988 44.7726 63.8999 44.7795C63.8865 44.8535 63.8731 44.9255 63.8635 44.9938C63.8404 45.157 63.8251 45.3012 63.8193 45.4207V46.0277C63.8193 46.0277 70.6041 47.9666 75.0768 51C75.2714 50.6049 75.5213 50.239 75.8193 49.913C74.1097 48.3763 67.6262 45.8722 64.7442 44.8022Z" fill="#6C63FF"/>
<path opacity="0.1" d="M89.7437 45.5376L89.6833 45.1982C89.653 45.0354 89.6209 44.8531 89.5831 44.6456C89.0483 41.7544 87.6801 34.9657 86.4763 34L85.7563 34.1571C86.1948 35.3651 89.02 43.2533 88.78 44.793C84.0556 45.7625 79.265 48.9135 77.8193 49.918C78.2267 50.164 78.5396 50.5459 78.7056 51C81.9879 48.471 85.7887 46.7429 89.8193 45.9467C89.8193 45.9467 89.791 45.8013 89.7437 45.5376Z" fill="black"/>
<path d="M89.7438 45.5389C89.7268 45.44 89.706 45.3256 89.6833 45.1995C89.655 45.0366 89.6209 44.8524 89.5832 44.6468C89.0465 41.7534 87.6805 34.9638 86.4769 34L85.7551 34.1551C86.1935 35.3633 89.0182 43.2525 88.7782 44.7923C84.0546 45.7619 79.2667 48.9133 77.8193 49.9198C78.2265 50.1651 78.5393 50.5464 78.7055 51C81.9885 48.4721 85.7891 46.7444 89.8193 45.9481C89.8193 45.9481 89.791 45.7988 89.7438 45.5389Z" fill="#6C63FF"/>
<path opacity="0.1" d="M67.0809 38.294C67.0809 38.294 71.0206 41.0804 71.941 37L72.8173 37.2634C72.8173 37.2634 73.106 41.7846 66.8193 39.2043L67.0809 38.294Z" fill="black"/>
<path d="M67.0809 38.294C67.0809 38.294 71.0206 41.0804 71.941 37L72.8173 37.2634C72.8173 37.2634 73.106 41.7846 66.8193 39.2043L67.0809 38.294Z" fill="#6C63FF"/>
<path opacity="0.1" d="M80.8193 37.1519C80.8193 37.1519 81.423 40.0046 87.8193 38.6215L87.594 38.0826C87.594 38.0826 83.2258 39.5523 81.6423 37L80.8193 37.1519Z" fill="black"/>
<path d="M80.8193 37.1519C80.8193 37.1519 81.423 40.0046 87.8193 38.6215L87.594 38.0827C87.594 38.0827 83.2258 39.5523 81.6423 37L80.8193 37.1519Z" fill="#6C63FF"/>
<path opacity="0.1" d="M76.8193 37.6195V44H77.6698C77.6698 44 78.846 43.5083 78.8189 40.64C78.7917 37.7718 78.6123 37 78.6123 37L76.8193 37.6195Z" fill="black"/>
<path d="M76.8193 36.708V44H77.6698C77.6698 44 78.846 43.438 78.8189 40.16C78.7917 36.882 78.6108 36 78.6108 36L76.8193 36.708Z" fill="#6C63FF"/>
<path opacity="0.1" d="M86.6698 34.7695C86.2216 35.6271 82.1529 37.0359 81.4339 37.2784L81.3248 37.3145C81.3248 37.3145 81.0676 37.3826 80.6369 37.4748C79.3275 37.7553 76.4084 38.2763 74.2065 37.8194C73.8869 37.7553 73.5557 37.6852 73.2186 37.619L72.4391 37.4447C69.9059 36.8656 67.2851 36.1081 66.8193 35.4408C66.8193 35.4408 66.946 33.2625 67.3727 33.3206C67.7995 33.3787 72.5638 35.4408 72.5638 35.4408L72.632 35.4508C72.7548 35.4668 73.0335 35.5029 73.4251 35.549C74.9723 35.7233 78.2323 35.9999 79.9861 35.5169C80.0699 35.4929 80.1478 35.4688 80.2238 35.4408C80.3563 35.3947 80.4947 35.3466 80.6369 35.2925C82.8934 34.4709 86.2723 33 86.2723 33C86.2723 33 87.1648 33.8256 86.6698 34.7695Z" fill="black"/>
<path opacity="0.1" d="M86.8058 32.3877C86.6261 33.2878 81.6294 35.3215 81.6294 35.3215L75.1565 36L70.3824 35.2324L67.8206 33.6953L67.8381 32.7458C67.8133 32.6676 67.8131 32.5834 67.8376 32.5051C67.8621 32.4267 67.91 32.3581 67.9748 32.3086C68.8242 32.5697 73.0516 34.3719 73.0516 34.3719L73.1199 34.3818C73.2429 34.3976 73.5222 34.4332 73.9146 34.4787C75.465 34.6508 78.7317 34.9238 80.4891 34.4471C80.573 34.4233 80.6511 34.3996 80.7273 34.3719C80.8601 34.3284 80.9987 34.2789 81.1413 34.2255C83.1856 33.4916 86.1517 32.2334 86.7003 32C86.7505 32.0492 86.7868 32.1111 86.8053 32.1793C86.8239 32.2475 86.824 32.3195 86.8058 32.3877Z" fill="black"/>
<path d="M86.6698 34.4172C86.2216 35.1033 82.1529 36.2287 81.4339 36.4227L81.3248 36.4532C81.3248 36.4532 81.0676 36.5061 80.6369 36.5798C79.3275 36.8043 76.4084 37.2211 74.2065 36.8556C73.8869 36.8043 73.5557 36.7481 73.2186 36.6952L72.4391 36.5558C69.9059 36.0925 67.2851 35.4865 66.8193 34.9526C66.8193 34.9526 66.946 33.21 67.3727 33.2581C67.7995 33.3062 72.5638 34.9526 72.5638 34.9526L72.632 34.9606C72.7548 34.9735 73.0335 35.0039 73.4251 35.0392C74.9723 35.1787 78.2323 35.3999 79.9861 35.0135C80.0699 34.9943 80.1478 34.9751 80.2238 34.9526C80.3563 34.9174 80.4947 34.8773 80.6369 34.834C82.8934 34.1767 86.2723 33 86.2723 33C86.2723 33 87.1648 33.6653 86.6698 34.4172Z" fill="#6C63FF"/>
<path opacity="0.1" d="M77.3193 37C77.5955 37 77.8193 36.7761 77.8193 36.5C77.8193 36.2239 77.5955 36 77.3193 36C77.0432 36 76.8193 36.2239 76.8193 36.5C76.8193 36.7761 77.0432 37 77.3193 37Z" fill="black"/>
<path d="M77.3193 37C77.5955 37 77.8193 36.7761 77.8193 36.5C77.8193 36.2239 77.5955 36 77.3193 36C77.0432 36 76.8193 36.2239 76.8193 36.5C76.8193 36.7761 77.0432 37 77.3193 37Z" fill="#6C63FF"/>
<path opacity="0.1" d="M73.8193 35.0907L73.6193 37L72.8193 36.839L73.0193 35C73.1313 35.0185 73.4193 35.0537 73.8193 35.0907Z" fill="black"/>
<path d="M73.8193 35.0907L73.6193 37L72.8193 36.839L73.0193 35C73.1293 35.0185 73.4193 35.0537 73.8193 35.0907Z" fill="#6C63FF"/>
<path opacity="0.1" d="M81.8193 36.8203L81.67 36.8552C81.67 36.8552 81.3207 36.9157 80.7287 37L79.8193 35.2053C79.934 35.1833 80.0433 35.1613 80.1473 35.1357C80.3287 35.0953 80.518 35.0495 80.7127 35L81.8193 36.8203Z" fill="black"/>
<path d="M81.8193 36.8203L81.67 36.8552C81.67 36.8552 81.318 36.9157 80.7287 37L79.8193 35.2053C79.934 35.1833 80.0407 35.1613 80.1447 35.1357C80.326 35.0953 80.5153 35.0495 80.71 35L81.8193 36.8203Z" fill="#6C63FF"/>
<g opacity="0.5">
<path opacity="0.5" d="M31.8309 31.5842C32.7343 31.5901 33.6198 31.8354 34.3968 32.2949C34.3968 32.2949 36.7484 32.58 38.0304 32.2949C39.3124 32.0099 39.9611 31.016 40.2044 31.2991C40.4477 31.5823 40.4535 34.2499 40.4535 34.2499L39.3491 37.2008L36.8546 39.0479L32.9005 37.9115L31.5915 34.5735L31.8309 31.5842Z" fill="#6C63FF"/>
<path opacity="0.1" d="M40.4535 34.2538L39.3491 37.2046L36.8546 39.0518L32.9005 37.9154L31.5915 34.5735L31.8406 31.588H31.8985C32.782 31.6105 33.6455 31.8556 34.4084 32.3007C34.4084 32.3007 36.76 32.5858 38.042 32.3007C39.2603 32.0311 39.9013 31.1181 40.1658 31.2722C40.1814 31.2794 40.1952 31.2899 40.2063 31.303C40.4535 31.5842 40.4535 34.2538 40.4535 34.2538Z" fill="black"/>
<path opacity="0.1" d="M40.4535 34.2538L39.3491 37.2046L36.8546 39.0518L32.9005 37.9153L31.5915 34.5735L31.8406 31.588H31.8985C32.1186 32.5299 33.0569 35.5038 36.0457 35.7138C39.1193 35.9276 39.992 32.2795 40.1735 31.274C40.1891 31.2813 40.2029 31.2918 40.214 31.3049C40.4535 31.5842 40.4535 34.2538 40.4535 34.2538Z" fill="black"/>
<path opacity="0.5" d="M31.8306 31.5841C31.8306 31.5841 32.4716 35.7427 36.0356 35.9911C39.5997 36.2396 40.204 31.2991 40.204 31.2991C40.204 31.2991 45.3706 32.9883 46.5753 36.0008C47.7801 39.0132 48.6779 41.4305 48.6779 41.4305C48.6779 41.4305 48.2917 42.1047 47.8573 42.1759C47.4229 42.2472 44.4728 44.2735 44.4728 44.2735C44.4728 44.2735 44.4381 50.0326 44.7586 50.387C45.0791 50.7414 44.9729 52.2708 44.0094 52.1995C43.046 52.1282 36.3851 50.6355 30.6876 51.8798C30.6876 51.8798 28.3012 52.733 28.3707 51.3462C28.4402 49.9594 28.5484 44.522 28.5484 44.522C28.5484 44.522 24.9495 42.9579 24.7371 42.9579C24.5248 42.9579 23.988 42.6767 24.5576 41.7503C25.1271 40.8238 25.8415 37.663 25.8415 37.663C25.8415 37.663 27.2702 33.125 31.8306 31.5841Z" fill="#6C63FF"/>
<path opacity="0.1" d="M42.9109 39.0518C42.9109 39.0518 43.9804 39.8338 43.7314 40.4386C43.4823 41.0434 42.9109 39.0518 42.9109 39.0518Z" fill="black"/>
<path opacity="0.1" d="M44.4779 39.803C44.3783 40.1498 44.3783 40.5175 44.4779 40.8643V39.803Z" fill="black"/>
<path opacity="0.1" d="M45.1907 41.7542C45.1907 41.7542 45.3336 42.7172 44.9069 42.8193L45.1907 41.7542Z" fill="black"/>
<path opacity="0.1" d="M30.6547 38.8033C30.6547 38.8033 28.6603 40.5369 29.336 41.2207L30.6547 38.8033Z" fill="black"/>
<path opacity="0.1" d="M29.4079 42.9984C29.4079 42.9984 29.3751 44.8109 29.9253 44.9534L29.4079 42.9984Z" fill="black"/>
<path opacity="0.1" d="M35.1438 49.0754C35.1438 49.0754 36.4953 48.1528 36.8544 48.1875L35.1438 49.0754Z" fill="black"/>
<path opacity="0.1" d="M36.4957 50.0365C36.4957 50.0365 37.9592 49.0041 38.3511 49.0734L36.4957 50.0365Z" fill="black"/>
</g>
<g opacity="0.5">
<path opacity="0.5" d="M68.2759 66.5723C68.2759 66.5723 79.9335 67.1231 85.7295 66.7841L85.602 68.3096L75.3461 69.6579L72.3111 68.7257L68.2759 66.5723Z" fill="#6C63FF"/>
<path opacity="0.1" d="M85.7372 66.7841L85.6098 68.3096L75.3558 69.6579L72.3188 68.7257L68.2759 66.5723C68.2759 66.5723 68.5153 66.5857 68.942 66.6031C71.4712 66.7129 80.5783 67.0673 85.5789 66.7957L85.7372 66.7841Z" fill="black"/>
<path opacity="0.5" d="M89.772 88.4762C87.5208 89.8245 79.7072 88.5186 79.7072 88.5186L77.541 80.8141L75.1199 88.6515C71.6813 89.8804 64.5879 88.1006 64.5879 88.1006L67.3488 71.1507L67.8257 68.8143L68.2755 66.5723L72.6505 67.8859C72.6505 67.8859 73.9653 68.7758 79.4447 68.5215C84.924 68.2673 85.7291 66.788 85.7291 66.788C85.9705 66.8573 86.2002 67.7068 86.4319 68.7623C86.7678 70.3032 87.1096 72.2794 87.5131 72.9323C88.2004 74.0302 89.772 88.4762 89.772 88.4762Z" fill="#6C63FF"/>
<path opacity="0.1" d="M86.4396 68.928C81.5549 71.6034 77.3498 71.5302 77.3498 71.5302C76.3092 71.6573 67.8256 68.9819 67.8256 68.9819L68.2755 66.7418L72.6505 68.0554C72.6505 68.0554 73.9653 68.9453 79.4446 68.6911C84.924 68.4368 85.7291 66.9575 85.7291 66.9575C85.9781 67.025 86.2079 67.8725 86.4396 68.928Z" fill="black"/>
<path opacity="0.1" d="M85.7372 66.7841L85.6098 68.3096L75.3558 69.6579L72.3188 68.7257L68.2759 66.5723C68.2759 66.5723 68.5153 66.5857 68.942 66.6031L72.6489 67.7164C72.6489 67.7164 73.9638 68.6063 79.4431 68.352C83.7466 68.1594 85.1676 67.1963 85.5789 66.7938L85.7372 66.7841Z" fill="black"/>
<path opacity="0.5" d="M86.4396 68.7584C81.5549 71.4338 77.3498 71.3606 77.3498 71.3606C76.3092 71.4878 67.8256 68.8124 67.8256 68.8124L68.2755 66.5723L72.6505 67.8859C72.6505 67.8859 73.9653 68.7758 79.4446 68.5215C84.924 68.2673 85.7291 66.788 85.7291 66.788C85.9781 66.8535 86.2079 67.7029 86.4396 68.7584Z" fill="#6C63FF"/>
<path opacity="0.1" d="M78.1775 70.9562C78.4238 70.9562 78.6235 70.757 78.6235 70.5112C78.6235 70.2655 78.4238 70.0663 78.1775 70.0663C77.9312 70.0663 77.7315 70.2655 77.7315 70.5112C77.7315 70.757 77.9312 70.9562 78.1775 70.9562Z" fill="black"/>
<path opacity="0.5" d="M78.1775 70.7866C78.4238 70.7866 78.6235 70.5874 78.6235 70.3417C78.6235 70.0959 78.4238 69.8967 78.1775 69.8967C77.9312 69.8967 77.7315 70.0959 77.7315 70.3417C77.7315 70.5874 77.9312 70.7866 78.1775 70.7866Z" stroke="#6C63FF" stroke-miterlimit="10"/>
<path opacity="0.1" d="M66.7754 78.3081C66.7754 78.3081 67.5612 80.6387 68.1133 80.5964C68.6655 80.554 66.7754 78.3081 66.7754 78.3081Z" fill="black"/>
<path opacity="0.1" d="M66.2648 80.5964C66.2648 80.5964 66.7533 81.9948 67.263 82.2279L66.2648 80.5964Z" fill="black"/>
<path opacity="0.1" d="M66.2648 82.0583C66.2648 82.0583 67.0371 83.033 67.4947 83.2661L66.2648 82.0583Z" fill="black"/>
<path opacity="0.1" d="M87.0037 73.2463C87.0037 73.2463 87.7259 74.3269 87.0037 74.56V73.2463Z" fill="black"/>
<path opacity="0.1" d="M87.3325 75.003C86.4946 74.011 87.012 76.3512 87.012 76.3512C87.012 76.3512 87.5468 75.2572 87.3325 75.003Z" fill="black"/>
<path opacity="0.1" d="M87.7551 76.2107C87.7551 76.2107 86.4808 78.0964 86.7357 78.3082L87.7551 76.2107Z" fill="black"/>
<path opacity="0.1" d="M70.8978 73.2867C69.3358 73.2867 67.7063 72.5817 67.6156 72.5394L67.6851 72.3833C67.716 72.3988 70.8341 73.749 72.5215 72.7358C73.1586 72.3506 73.5158 71.6726 73.5853 70.7134L73.7552 70.7269C73.6819 71.7439 73.2957 72.4604 72.6084 72.8803C72.0858 73.1685 71.4944 73.309 70.8978 73.2867Z" fill="black"/>
<path opacity="0.5" d="M70.8978 73.1173C69.3358 73.1173 67.7063 72.4123 67.6156 72.3699L67.6851 72.2158C67.716 72.2293 70.8341 73.5796 72.5215 72.5664C73.1586 72.1812 73.5158 71.5032 73.5853 70.5439L73.7552 70.5574C73.6819 71.5744 73.2957 72.291 72.6084 72.7109C72.0858 72.999 71.4944 73.1395 70.8978 73.1173Z" fill="#6C63FF"/>
<path opacity="0.1" d="M83.7211 73.4139C83.3211 73.4196 82.925 73.3346 82.5627 73.1654C81.2961 72.5568 81.0915 71.0659 81.0818 71.0024L81.2517 70.9812C81.2517 70.9966 81.4544 72.447 82.638 73.0133C83.6921 73.5198 85.1884 73.2059 87.0786 72.0502L87.1655 72.1947C85.8198 73.0075 84.6671 73.4139 83.7211 73.4139Z" fill="black"/>
<path opacity="0.5" d="M83.7211 73.2444C83.3211 73.2501 82.925 73.1651 82.5627 72.9959C81.2961 72.3872 81.0915 70.8964 81.0818 70.8328L81.2517 70.8116C81.2517 70.8271 81.4544 72.2774 82.638 72.8437C83.6921 73.3503 85.1884 73.0364 87.0786 71.8807L87.1655 72.0251C85.8198 72.838 84.6671 73.2444 83.7211 73.2444Z" fill="#6C63FF"/>
</g>
<path d="M32.8193 67C32.8193 67 35.0893 69.839 36.6313 69.5632C38.1733 69.2874 38.3253 68.9846 39.6953 67L40.8193 69.316L39.4953 72.1819L37.9273 74L34.6033 73.5325L33.5273 70.2797L32.8193 67Z" fill="#6C63FF"/>
<path opacity="0.1" d="M40.8193 69.3184L39.4953 72.1829L37.9273 74L34.6033 73.5327L33.5273 70.2816L32.8193 67.0054C32.8193 67.0054 33.0193 67.2524 33.3313 67.5926C34.0933 68.4072 35.5433 69.7606 36.6313 69.5619C38.1513 69.2898 38.3213 68.9908 39.6413 67.0806L39.6953 67L40.8193 69.3184Z" fill="black"/>
<path opacity="0.1" d="M40.8193 69.3148L39.4953 72.1815L37.9273 74L34.6033 73.5324L33.5273 70.2787L32.8193 67C32.8193 67 33.0193 67.2472 33.3313 67.5877C33.8273 69.021 34.8933 71.3197 36.6313 71.3C38.5933 71.2803 39.3853 68.3688 39.6413 67.0806L39.6953 67L40.8193 69.3148Z" fill="black"/>
<path d="M31.3786 66.3923C31.3786 66.3923 30.6196 66.3035 31.0139 67.2238C31.4081 68.1441 32.1356 71.1712 31.7728 71.7944C31.4101 72.4176 31.5915 74.1096 30.0144 74.4376L30.4678 76.1875C30.4678 76.1875 30.5585 80.0462 30.3771 80.6115C30.1957 81.1768 30.1642 84.2907 30.2253 84.6168C30.2864 84.9428 30.2568 87.0805 30.0144 87.1712C29.7719 87.2619 29.6201 88.2979 30.4086 88.4754C31.1972 88.6529 34.5623 88.7436 35.1695 88.9211C35.7767 89.0986 40.0822 88.9211 40.0822 88.9211C40.0822 88.9211 41.9018 88.6838 42.3572 88.5352C42.8125 88.3867 42.9032 88.0317 42.7514 87.3487C42.5996 86.6657 41.9018 81.7093 42.0536 81.0861C42.2054 80.4629 42.2369 74.3778 42.2369 74.3778C42.2369 74.3778 41.0541 73.9919 41.0541 72.8633C41.0541 71.7346 40.5987 68.7075 41.539 66.809C41.539 66.809 40.78 66.2997 40.6598 66.3904C40.5395 66.481 39.3942 66.155 39.3942 66.155C39.3942 66.155 38.8028 71.3198 36.3287 71.3487C33.8546 71.3777 32.7526 66.155 32.7526 66.155C32.7526 66.155 32.7743 65.6804 31.3786 66.3923Z" fill="#6C63FF"/>
<path opacity="0.1" d="M34.8193 83C34.8193 83 35.4751 84.7282 36.5689 84.9802C37.6627 85.2321 34.8193 83 34.8193 83Z" fill="black"/>
<path opacity="0.1" d="M34.8193 84C34.8193 84 35.8629 85.6593 35.8179 86L34.8193 84Z" fill="black"/>
<path opacity="0.1" d="M30.8193 77C30.8193 77 32.8193 77.58 32.8193 78L30.8193 77Z" fill="black"/>
<path opacity="0.1" d="M41.8193 78C41.8193 78 39.6389 78.4479 39.8314 79L41.8193 78Z" fill="black"/>
<path opacity="0.1" d="M39.8193 83C39.8193 83 42.4656 80.9523 41.6703 81.0008C40.875 81.0494 39.8193 83 39.8193 83Z" fill="black"/>
<g opacity="0.1">
<path opacity="0.1" d="M41.1309 73.2021C41.1309 72.6821 41.0363 71.7575 41.0247 70.7271C41.0131 71.9097 41.1309 73.0037 41.1309 73.5874C41.1309 74.6891 42.2371 75.0801 42.2893 75.0974C42.2893 74.8567 42.2893 74.7122 42.2893 74.7122C42.2893 74.7122 41.1309 74.3289 41.1309 73.2021Z" fill="black"/>
<path opacity="0.1" d="M42.7896 88.0487C42.8122 88.1498 42.8296 88.252 42.8417 88.355C42.8664 88.1232 42.8487 87.8889 42.7896 87.6635C42.6621 87.0856 42.1447 83.3759 42.0907 81.9275C42.0327 82.9175 42.6544 87.4015 42.7896 88.0487Z" fill="black"/>
<path opacity="0.1" d="M30.5011 84.2061C30.5011 83.1486 30.5609 81.6905 30.6768 81.3169C30.7714 81.0164 30.7907 79.7875 30.7888 78.7012C30.7888 79.6758 30.7598 80.6658 30.6768 80.9316C30.5455 81.3515 30.4953 83.1582 30.5011 84.2061Z" fill="black"/>
<path opacity="0.1" d="M31.6577 67.1271C33.0228 66.4163 32.9938 66.8902 32.9938 66.8902C32.9938 66.8902 34.0634 72.1061 36.4961 72.0753C38.9288 72.0445 39.508 66.8902 39.508 66.8902C39.508 66.8902 40.6375 67.2157 40.7552 67.1252C40.873 67.0346 41.2688 67.3178 41.487 67.4564C41.5275 67.3544 41.57 67.2542 41.6182 67.1579C41.6182 67.1579 40.8749 66.6494 40.7552 66.7399C40.6355 66.8305 39.508 66.5049 39.508 66.5049C39.508 66.5049 38.9288 71.6612 36.5057 71.6901C34.0827 71.719 33.0034 66.5049 33.0034 66.5049C33.0034 66.5049 33.0324 66.0311 31.6674 66.7419C31.6674 66.7419 31.0631 66.6725 31.2311 67.337C31.3276 67.0886 31.6577 67.1271 31.6577 67.1271Z" fill="black"/>
<path opacity="0.1" d="M30.3193 87.8715C30.5124 87.8002 30.5645 86.4808 30.5529 85.7527C30.5432 86.4846 30.4757 87.4265 30.3193 87.4862C30.1629 87.5459 30.0876 87.8715 30.1475 88.1854C30.1784 88.0198 30.2401 87.8984 30.3193 87.8715Z" fill="black"/>
<path opacity="0.1" d="M32.0437 72.5203C32.1381 72.2677 32.1692 71.996 32.1344 71.7286C32.1327 71.8689 32.1018 72.0073 32.0437 72.135C31.6865 72.7572 31.8641 74.4464 30.3196 74.7738L30.4123 75.136C31.8564 74.7623 31.6942 73.1309 32.0437 72.5203Z" fill="black"/>
</g>
<path d="M121.798 31.7805C121.08 33.2963 113.798 31.7805 113.798 31.7805L113.817 31.6285L113.961 30.4542H121.635L121.781 31.6263L121.798 31.7805Z" fill="#6C63FF"/>
<path opacity="0.1" d="M121.798 31.6976C121.08 33.4001 113.798 31.6976 113.798 31.6976L113.817 31.5268C114.166 31.5268 119.435 31.3635 121.788 31.5268L121.798 31.6976Z" fill="black"/>
<path d="M113.213 31.5114C113.213 31.5114 111.86 31.8397 109.761 37.357C107.662 42.8742 106.918 50.0027 106.918 50.0027C106.918 50.0027 105.738 51.9424 110.776 52.0722C110.776 52.0722 110.37 53.3532 113.213 53.1565C116.056 52.9599 115.647 52.9618 115.647 52.9618C115.647 52.9618 117.474 51.845 118.286 52.0416C119.099 52.2383 119.606 52.3051 120.486 53.0267C121.365 53.7483 124.176 53.4543 124.21 52.8969C124.232 52.6231 124.232 52.3479 124.21 52.0741C124.21 52.0741 128.508 52.3375 127.696 49.3155C126.883 46.2934 126.206 41.3336 126.206 41.3336C126.206 41.3336 124.007 31.645 121.501 31.5133C118.995 31.3815 113.213 31.5114 113.213 31.5114Z" fill="#6C63FF"/>
<path opacity="0.1" d="M112.575 35.2759L111.013 52.1772L111.145 52.1895L112.708 35.2881L112.575 35.2759Z" fill="black"/>
<path opacity="0.1" d="M115.85 35.2632L115.781 53.0586L115.914 53.0591L115.983 35.2637L115.85 35.2632Z" fill="black"/>
<path opacity="0.1" d="M120.019 35.2595L119.886 35.2644L120.552 53.1265L120.685 53.1216L120.019 35.2595Z" fill="black"/>
<path opacity="0.1" d="M124.61 52.4482C124.282 41.8251 121.828 34.5527 121.798 34.4884L121.981 34.4542C122.005 34.5266 124.473 41.813 124.798 52.4542L124.61 52.4482Z" fill="black"/>
<path opacity="0.1" d="M114.798 32.4542C114.798 32.4542 112.548 32.8281 114.798 33.4542V32.4542Z" fill="black"/>
<path opacity="0.1" d="M119.798 32.4542C119.798 32.4542 121.042 33.2346 120.755 33.4542L119.798 32.4542Z" fill="black"/>
<path opacity="0.1" d="M120.798 32.4542C120.798 32.4542 121.011 33.2432 121.798 33.4542L120.798 32.4542Z" fill="black"/>
<g opacity="0.5">
<path opacity="0.5" d="M115.542 66.6349C115.542 66.6349 118.801 65.3405 120.21 66.92C121.619 68.4994 119.245 70.4217 119.245 70.4217L118.248 72.4056L115.905 72.1494L115.352 69.4066L115.542 66.6349Z" fill="#6C63FF"/>
<path opacity="0.1" d="M119.245 70.412L118.248 72.3959L115.905 72.1475L115.352 69.4066L115.545 66.6349L115.598 66.6156C116.011 66.4635 118.801 65.4927 120.135 66.8294C120.163 66.8549 120.189 66.8819 120.214 66.9103C121.619 68.482 119.245 70.412 119.245 70.412Z" fill="black"/>
<path opacity="0.1" d="M119.245 70.412L118.248 72.3959L115.905 72.1475L115.352 69.4066L115.545 66.6349L115.598 66.6156C116.001 68.821 117.078 69.7513 117.26 69.89L117.287 69.9093L117.949 69.8554C119.237 69.1465 119.917 67.4612 120.135 66.8236C120.163 66.8491 120.189 66.8761 120.214 66.9045C121.619 68.482 119.245 70.412 119.245 70.412Z" fill="black"/>
<path opacity="0.5" d="M124.936 77.9663C124.936 77.9663 124.218 87.0924 124.413 88.1941C124.608 89.2958 123.998 89.3787 123.998 89.3787C123.998 89.3787 121.399 89.9565 120.909 89.5713C120.418 89.186 119.582 89.1109 119.582 89.1109C119.582 89.1109 117.652 89.552 116.791 89.2226C115.93 88.8933 114.497 89.03 114.497 89.03C114.497 89.03 113.393 89.6926 113.088 89.5539C112.782 89.4153 112.396 89.4711 111.512 89.2246C110.628 88.978 110.13 88.7546 110.599 87.2387C111.068 85.7229 110.657 80.9249 110.628 80.3451C110.599 79.7654 110.325 78.3612 109.937 76.6855C109.549 75.0097 110.599 75.3622 110.599 75.3622C113.061 74.0948 112.037 71.612 111.651 70.5103C111.265 69.4085 111.871 69.3546 112.174 69.3546C112.477 69.3546 113.64 68.3627 113.64 68.3627L114.111 67.9408L115.547 66.6542C115.904 69.0638 117.063 70.075 117.256 70.2252L117.283 70.2464L117.945 70.1905C119.548 69.3103 120.21 66.9161 120.21 66.9161C120.403 67.2436 120.834 67.6172 121.314 67.9639C121.943 68.4079 122.599 68.8132 123.278 69.1774C124.436 69.867 123.583 70.5565 123.583 70.5565C122.173 75.3526 124.162 75.5645 124.162 75.5645C125.627 75.7802 124.936 77.9663 124.936 77.9663Z" fill="#6C63FF"/>
<path opacity="0.1" d="M114.077 69.3643C114.077 69.3643 113.662 69.5858 113.662 69.8323L114.077 69.3643Z" fill="black"/>
<path opacity="0.1" d="M114.326 69.8323C114.326 69.8323 113.774 70.4101 113.87 70.5777L114.326 69.8323Z" fill="black"/>
<path opacity="0.1" d="M114.325 70.5796C114.325 70.5796 113.91 71.0207 114.076 71.2691L114.325 70.5796Z" fill="black"/>
<path opacity="0.1" d="M117.091 70.5565L115.353 72.2303C115.289 70.3697 114.388 68.8808 113.944 68.2528L115.38 66.9662C115.731 69.395 116.9 70.4063 117.091 70.5565Z" fill="black"/>
<path opacity="0.5" d="M117.256 70.2252L115.518 71.9009C115.456 70.0384 114.553 68.5514 114.111 67.9215L115.547 66.6349C115.904 69.0637 117.063 70.075 117.256 70.2252Z" fill="#6C63FF"/>
<path opacity="0.1" d="M121.48 68.2895C120.785 69.372 119.493 72.2303 119.493 72.2303L118.111 70.5219C119.713 69.6397 120.376 67.2474 120.376 67.2474C120.569 67.5672 120.999 67.9408 121.48 68.2895Z" fill="black"/>
<path opacity="0.5" d="M121.31 67.9581C120.617 69.0425 119.323 71.9009 119.323 71.9009L117.945 70.1943C119.547 69.3141 120.21 66.9199 120.21 66.9199C120.403 67.2377 120.833 67.6114 121.31 67.9581Z" fill="#6C63FF"/>
<path opacity="0.1" d="M120.295 85.6304C120.295 85.6304 119.999 88.1343 119.83 88.2769L120.295 85.6304Z" fill="black"/>
<path opacity="0.1" d="M122.726 86.0715C122.726 86.0715 123.058 87.8628 122.919 88.2769L122.726 86.0715Z" fill="black"/>
<path opacity="0.1" d="M115.652 86.1813C115.652 86.1813 115.349 87.8628 115.652 88.0554V86.1813Z" fill="black"/>
<path opacity="0.1" d="M113.858 85.9327C113.858 85.9327 113.607 87.9186 113.664 88.2768L113.858 85.9327Z" fill="black"/>
<path opacity="0.1" d="M123.141 76.2559C123.141 76.2559 122.368 76.8626 122.422 77.0263L123.141 76.2559Z" fill="black"/>
<path opacity="0.1" d="M123.694 76.6431C123.694 76.6431 122.215 77.8835 122.954 77.7448C123.694 77.6062 123.694 76.6431 123.694 76.6431Z" fill="black"/>
</g>
<path d="M0.454426 78.2788L0.440117 78.2689C0.425189 78.2587 0.404749 78.2624 0.394466 78.2773L0.0188134 78.8214C0.00853076 78.8363 0.0122971 78.8567 0.0272249 78.8669L0.0415339 78.8767C0.0564618 78.887 0.0768977 78.8832 0.0871803 78.8684L0.462833 78.3243C0.473116 78.3094 0.469354 78.289 0.454426 78.2788Z" fill="#464353"/>
<path d="M97.8193 54.4919C97.8207 55.1845 97.6459 55.862 97.3171 56.4386C96.9883 57.0152 96.5203 57.4651 95.9722 57.7312C95.4241 57.9974 94.8207 58.0679 94.2383 57.9337C93.6559 57.7996 93.1207 57.4669 92.7005 56.9777C92.2802 56.4886 91.9938 55.865 91.8775 55.1858C91.7612 54.5067 91.8202 53.8025 92.047 53.1625C92.2739 52.5225 92.6584 51.9754 93.1519 51.5904C93.6454 51.2055 94.2257 51 94.8193 51C95.6138 51 96.3758 51.3676 96.9382 52.0223C97.5006 52.6769 97.8175 53.565 97.8193 54.4919ZM94.4719 56.3442L96.6989 53.7481C96.7346 53.7057 96.7547 53.6485 96.7547 53.589C96.7547 53.5295 96.7346 53.4724 96.6989 53.4299L96.4244 53.1097C96.4066 53.0886 96.3854 53.0718 96.362 53.0603C96.3386 53.0489 96.3135 53.043 96.2881 53.043C96.2627 53.043 96.2375 53.0489 96.2141 53.0603C96.1907 53.0718 96.1695 53.0886 96.1517 53.1097L94.3364 55.2276L93.4887 54.2426C93.452 54.2008 93.4028 54.1773 93.3515 54.1773C93.3002 54.1773 93.2509 54.2008 93.2142 54.2426L92.9415 54.5628C92.9234 54.5836 92.909 54.6083 92.8992 54.6356C92.8893 54.663 92.8843 54.6923 92.8843 54.7219C92.8843 54.7515 92.8893 54.7809 92.8992 54.8082C92.909 54.8355 92.9234 54.8603 92.9415 54.881L94.1992 56.3483C94.217 56.3694 94.2382 56.3862 94.2616 56.3977C94.285 56.4091 94.3102 56.4151 94.3355 56.4151C94.3609 56.4151 94.3861 56.4091 94.4095 56.3977C94.4329 56.3862 94.4541 56.3694 94.4719 56.3483V56.3442Z" fill="#3ACC6C"/>
<path d="M57.8193 91C57.8193 91.5933 57.6141 92.1734 57.2295 92.6667C56.8449 93.1601 56.2983 93.5446 55.6587 93.7716C55.0192 93.9987 54.3155 94.0581 53.6365 93.9424C52.9576 93.8266 52.334 93.5409 51.8445 93.1213C51.355 92.7018 51.0216 92.1672 50.8866 91.5853C50.7515 91.0033 50.8208 90.4001 51.0858 89.852C51.3507 89.3038 51.7993 88.8352 52.3748 88.5056C52.9504 88.1759 53.6271 88 54.3193 88C55.2476 88 56.1378 88.3161 56.7942 88.8787C57.4506 89.4413 57.8193 90.2044 57.8193 91ZM53.914 92.5877L56.5203 90.3625C56.5415 90.3445 56.5583 90.3232 56.5698 90.2996C56.5813 90.2761 56.5872 90.2508 56.5872 90.2252C56.5872 90.1997 56.5813 90.1744 56.5698 90.1509C56.5583 90.1273 56.5415 90.106 56.5203 90.088L56.192 89.824C56.171 89.8058 56.1461 89.7914 56.1186 89.7815C56.0911 89.7717 56.0616 89.7666 56.0319 89.7666C56.0021 89.7666 55.9726 89.7717 55.9451 89.7815C55.9176 89.7914 55.8927 89.8058 55.8717 89.824L53.7539 91.6306L52.7649 90.7829C52.7442 90.7647 52.7194 90.7503 52.6921 90.7405C52.6648 90.7307 52.6354 90.7256 52.6058 90.7256C52.5762 90.7256 52.5469 90.7307 52.5196 90.7405C52.4922 90.7503 52.4675 90.7647 52.4467 90.7829L52.1265 91.0556C52.0847 91.0923 52.0613 91.1415 52.0613 91.1928C52.0613 91.2441 52.0847 91.2934 52.1265 91.33L53.5938 92.5877C53.6147 92.6059 53.6397 92.6203 53.6671 92.6302C53.6946 92.64 53.7241 92.6451 53.7539 92.6451C53.7837 92.6451 53.8132 92.64 53.8407 92.6302C53.8682 92.6203 53.8931 92.6059 53.914 92.5877Z" fill="#3ACC6C"/>
<path d="M138.798 55.9542C138.798 56.6465 138.593 57.3232 138.208 57.8987C137.823 58.4743 137.277 58.9229 136.637 59.1878C135.998 59.4527 135.294 59.522 134.615 59.387C133.936 59.2519 133.312 58.9186 132.823 58.4291C132.334 57.9396 132 57.316 131.865 56.637C131.73 55.9581 131.799 55.2544 132.064 54.6148C132.329 53.9753 132.778 53.4287 133.353 53.0441C133.929 52.6595 134.606 52.4542 135.298 52.4542C136.226 52.4542 137.116 52.823 137.773 53.4794C138.429 54.1357 138.798 55.026 138.798 55.9542ZM134.893 57.8066L137.499 55.2105C137.52 55.1895 137.537 55.1646 137.548 55.1371C137.56 55.1096 137.566 55.0801 137.566 55.0503C137.566 55.0206 137.56 54.9911 137.548 54.9636C137.537 54.9361 137.52 54.9112 137.499 54.8902L137.181 54.5721C137.16 54.5509 137.135 54.534 137.107 54.5225C137.08 54.511 137.05 54.5051 137.02 54.5051C136.991 54.5051 136.961 54.511 136.934 54.5225C136.906 54.534 136.881 54.5509 136.86 54.5721L134.743 56.6899L133.754 55.7009C133.733 55.6798 133.708 55.663 133.681 55.6515C133.653 55.64 133.624 55.6341 133.594 55.6341C133.565 55.6341 133.536 55.64 133.508 55.6515C133.481 55.663 133.456 55.6798 133.435 55.7009L133.115 56.0191C133.073 56.0619 133.05 56.1193 133.05 56.1792C133.05 56.239 133.073 56.2965 133.115 56.3393L134.582 57.8066C134.603 57.8278 134.628 57.8446 134.656 57.8561C134.683 57.8676 134.713 57.8735 134.743 57.8735C134.772 57.8735 134.802 57.8676 134.829 57.8561C134.857 57.8446 134.882 57.8278 134.903 57.8066H134.893Z" fill="#3ACC6C"/>
<defs>
<linearGradient id="paint0_linear" x1="79" y1="97" x2="79" y2="0" gradientUnits="userSpaceOnUse">
<stop stop-color="#808080" stop-opacity="0.25"/>
<stop offset="0.54" stop-color="#808080" stop-opacity="0.12"/>
<stop offset="1" stop-color="#808080" stop-opacity="0.1"/>
</linearGradient>
</defs>
</svg>