<svg width="124" height="88" viewBox="0 0 124 88" fill="none" xmlns="http://www.w3.org/2000/svg">
<path d="M72.6028 75.4775H48.9523V83.8258H51.5802V88H69.975V83.8258H72.6028V75.4775Z" fill="url(#paint0_linear)"/>
<path d="M61.5724 16.809V45.4028C64.4037 46.2557 65.6439 47.1279 66.3404 48.9859C66.9506 50.6551 67.0542 52.4685 66.6382 54.1968C66.1916 56.1165 65.3707 57.1409 63.1349 57.736C61.8691 58.0802 60.5413 58.1271 59.2546 57.8731C56.1651 57.2437 54.5411 55.1306 54.5411 51.6256C54.5411 48.2715 55.6884 46.4916 58.8435 45.433V40.0631L58.7069 16.6705L35.5153 51.2979C35.5153 51.2979 46.6153 60.6129 50.6759 78.5931H69.5433C69.5433 78.5931 75.2237 57.7196 84.7039 52.5814L61.5724 16.809Z" fill="url(#paint1_linear)"/>
<path d="M61.9907 18.2036V44.7377C63.7926 45.0444 65.4214 46.0001 66.5719 47.4258C67.7224 48.8515 68.3158 50.6494 68.2409 52.4828C68.166 54.3162 67.4279 56.0593 66.1649 57.3856C64.9019 58.7119 63.2006 59.5304 61.3797 59.6878C59.5588 59.8453 57.7432 59.3308 56.273 58.2409C54.8027 57.1509 53.7787 55.5602 53.3926 53.7666C53.0066 51.9731 53.2851 50.0998 54.1759 48.4976C55.0667 46.8954 56.5087 45.6742 58.2319 45.0627V18.2036L36.9251 50.9153C36.9251 50.9153 48.2027 60.9804 51.9628 78.5944H68.257C68.257 78.5944 74.522 57.2026 83.2947 52.1741L61.9907 18.2036Z" fill="#ECEFF1"/>
<path d="M58.2306 4.36475H8.10636V6.88103H58.2306V4.36475Z" fill="#ECEFF1"/>
<path d="M114.621 4.36475H64.497V6.88103H114.621V4.36475Z" fill="#ECEFF1"/>
<path d="M69.5096 81.1094H51.9656V87.3994H69.5096V81.1094Z" fill="#6C63FF"/>
<path d="M66.0838 0.156372H56.5326V9.74568H66.0838V0.156372Z" fill="url(#paint2_linear)"/>
<path d="M65.7493 0.5896H56.978V9.3959H65.7493V0.5896Z" fill="#6C63FF"/>
<path d="M5.59986 11.2444C8.69258 11.2444 11.1997 8.72728 11.1997 5.62221C11.1997 2.51715 8.69258 0 5.59986 0C2.50714 0 0 2.51715 0 5.62221C0 8.72728 2.50714 11.2444 5.59986 11.2444Z" fill="url(#paint3_linear)"/>
<path d="M118.399 11.2444C121.491 11.2444 123.999 8.72728 123.999 5.62221C123.999 2.51715 121.491 0 118.399 0C115.306 0 112.799 2.51715 112.799 5.62221C112.799 8.72728 115.306 11.2444 118.399 11.2444Z" fill="url(#paint4_linear)"/>
<path d="M5.60009 10.6547C8.36845 10.6547 10.6126 8.40158 10.6126 5.62217C10.6126 2.84276 8.36845 0.5896 5.60009 0.5896C2.83173 0.5896 0.587532 2.84276 0.587532 5.62217C0.587532 8.40158 2.83173 10.6547 5.60009 10.6547Z" fill="#6C63FF"/>
<path d="M118.381 10.6547C121.149 10.6547 123.393 8.40158 123.393 5.62217C123.393 2.84276 121.149 0.5896 118.381 0.5896C115.613 0.5896 113.368 2.84276 113.368 5.62217C113.368 8.40158 115.613 10.6547 118.381 10.6547Z" fill="#6C63FF"/>
<path d="M72.0154 76.0768H49.4589V83.6256H72.0154V76.0768Z" fill="#6C63FF"/>
<path opacity="0.2" d="M72.0154 76.0768H49.4589V83.6256H72.0154V76.0768Z" fill="black"/>
<defs>
<linearGradient id="paint0_linear" x1="60.7776" y1="88" x2="60.7776" y2="75.4775" gradientUnits="userSpaceOnUse">
<stop stop-color="#808080" stop-opacity="0.25"/>
<stop offset="0.54" stop-color="#808080" stop-opacity="0.12"/>
<stop offset="1" stop-color="#808080" stop-opacity="0.1"/>
</linearGradient>
<linearGradient id="paint1_linear" x1="28868.4" y1="43503" x2="28868.4" y2="15541.3" gradientUnits="userSpaceOnUse">
<stop stop-color="#808080" stop-opacity="0.25"/>
<stop offset="0.54" stop-color="#808080" stop-opacity="0.12"/>
<stop offset="1" stop-color="#808080" stop-opacity="0.1"/>
</linearGradient>
<linearGradient id="paint2_linear" x1="4343.88" y1="681.764" x2="4343.88" y2="11.0882" gradientUnits="userSpaceOnUse">
<stop stop-color="#808080" stop-opacity="0.25"/>
<stop offset="0.54" stop-color="#808080" stop-opacity="0.12"/>
<stop offset="1" stop-color="#808080" stop-opacity="0.1"/>
</linearGradient>
<linearGradient id="paint3_linear" x1="459.188" y1="922.156" x2="459.188" y2="0" gradientUnits="userSpaceOnUse">
<stop stop-color="#808080" stop-opacity="0.25"/>
<stop offset="0.54" stop-color="#808080" stop-opacity="0.12"/>
<stop offset="1" stop-color="#808080" stop-opacity="0.1"/>
</linearGradient>
<linearGradient id="paint4_linear" x1="9821.5" y1="922.156" x2="9821.5" y2="0" gradientUnits="userSpaceOnUse">
<stop stop-color="#808080" stop-opacity="0.25"/>
<stop offset="0.54" stop-color="#808080" stop-opacity="0.12"/>
<stop offset="1" stop-color="#808080" stop-opacity="0.1"/>
</linearGradient>
</defs>
</svg>