<svg width="162" height="112" viewBox="0 0 162 112" fill="none" xmlns="http://www.w3.org/2000/svg">
<g clip-path="url(#clip0)">
<path d="M159.84 83.4035C159.842 83.758 159.775 84.1093 159.641 84.4375C159.507 84.7657 159.31 85.0642 159.062 85.3162C158.813 85.5681 158.517 85.7685 158.191 85.9058C157.865 86.0432 157.515 86.1148 157.161 86.1166H39.2864C38.9327 86.1148 38.5828 86.0432 38.2568 85.9058C37.9307 85.7685 37.6349 85.5681 37.3861 85.3162C37.1373 85.0642 36.9405 84.7657 36.8068 84.4375C36.6732 84.1093 36.6054 83.758 36.6072 83.4035V2.71308C36.6054 2.35864 36.6732 2.00731 36.8068 1.67914C36.9405 1.35097 37.1373 1.0524 37.3861 0.800462C37.6349 0.548528 37.9307 0.348169 38.2568 0.210826C38.5828 0.0734817 38.9327 0.00184363 39.2864 0H157.161C157.515 0.00184363 157.865 0.0734817 158.191 0.210826C158.517 0.348169 158.813 0.548528 159.062 0.800462C159.31 1.0524 159.507 1.35097 159.641 1.67914C159.775 2.00731 159.842 2.35864 159.84 2.71308" fill="url(#paint0_linear)"/>
<path d="M158.456 82.0822C158.456 82.4267 158.388 82.7679 158.256 83.0861C158.125 83.4044 157.932 83.6936 157.689 83.9372C157.446 84.1808 157.157 84.3741 156.84 84.5059C156.522 84.6377 156.182 84.7056 155.838 84.7056H40.6965C40.0023 84.7056 39.3365 84.4292 38.8456 83.9372C38.3546 83.4453 38.0789 82.778 38.0789 82.0822V4.08023C38.0803 3.38539 38.3567 2.71949 38.8474 2.22865C39.3382 1.73782 40.0032 1.46216 40.6965 1.46216H155.838C156.532 1.46216 157.198 1.73855 157.689 2.23052C158.18 2.72249 158.456 3.38975 158.456 4.08551" fill="#F5F5F5"/>
<path d="M152.42 5.18689H44.2325C43.3744 5.18689 42.6787 5.88404 42.6787 6.74401V79.8107C42.6787 80.6707 43.3744 81.3679 44.2325 81.3679H152.42C153.278 81.3679 153.974 80.6707 153.974 79.8107V6.74401C153.974 5.88404 153.278 5.18689 152.42 5.18689Z" fill="url(#paint1_linear)"/>
<path d="M150.933 6.93933H45.6017C44.7436 6.93933 44.048 7.63648 44.048 8.49645V77.6642C44.048 78.5242 44.7436 79.2214 45.6017 79.2214H150.933C151.791 79.2214 152.486 78.5242 152.486 77.6642V8.49645C152.486 7.63648 151.791 6.93933 150.933 6.93933Z" fill="white"/>
<path d="M38.0167 78.558L68.2913 43.7929C68.8135 43.1934 69.4488 42.7032 70.1607 42.3505C70.8725 41.9978 71.6469 41.7896 72.4393 41.7377C73.2317 41.6859 74.0265 41.7915 74.778 42.0485C75.5295 42.3055 76.223 42.7087 76.8186 43.2351L85.2966 50.7269C86.379 51.684 87.7683 52.2201 89.2117 52.2375C90.6551 52.2549 92.0569 51.7526 93.162 50.8219L119.072 28.9993C120.265 27.9948 121.799 27.4922 123.354 27.5968C124.908 27.7015 126.362 28.4053 127.41 29.5606L159.206 64.6266C160.089 65.6001 160.63 66.8356 160.748 68.1455L161.977 81.9801C162.053 82.8159 161.954 83.6584 161.688 84.4538C161.421 85.2493 160.991 85.9803 160.427 86.6003C159.863 87.2202 159.175 87.7155 158.409 88.0545C157.643 88.3936 156.815 88.5689 155.978 88.5693H42.5621C40.9954 88.5691 39.4902 87.9575 38.3658 86.8641C37.2413 85.7707 36.5859 84.2815 36.5384 82.7121C36.4911 81.1901 37.0191 79.7065 38.0167 78.558Z" fill="#6C63FF"/>
<path d="M57.1068 25.2605C60.8156 25.2605 63.8221 22.2474 63.8221 18.5306C63.8221 14.8137 60.8156 11.8007 57.1068 11.8007C53.3979 11.8007 50.3914 14.8137 50.3914 18.5306C50.3914 22.2474 53.3979 25.2605 57.1068 25.2605Z" fill="#FF5252"/>
<path d="M141.582 95.118C141.584 95.4724 141.516 95.8238 141.382 96.1519C141.249 96.4801 141.052 96.7787 140.803 97.0306C140.554 97.2825 140.258 97.4829 139.932 97.6202C139.606 97.7576 139.256 97.8292 138.903 97.8311H21.0207C20.6664 97.8301 20.3158 97.7592 19.9889 97.6222C19.6621 97.4853 19.3654 97.2851 19.1159 97.0331C18.8663 96.7811 18.6689 96.4822 18.5348 96.1535C18.4007 95.8249 18.3327 95.473 18.3345 95.118V14.4293C18.3327 14.0748 18.4005 13.7235 18.5341 13.3953C18.6678 13.0672 18.8646 12.7686 19.1134 12.5166C19.3622 12.2647 19.658 12.0644 19.9841 11.927C20.3101 11.7897 20.66 11.718 21.0136 11.7162H138.896C139.25 11.7171 139.601 11.7881 139.927 11.925C140.254 12.0619 140.551 12.2621 140.8 12.5142C141.05 12.7662 141.247 13.0651 141.382 13.3937C141.516 13.7223 141.584 14.0742 141.582 14.4293" fill="url(#paint2_linear)"/>
<path d="M140.19 93.7984C140.19 94.4942 139.914 95.1614 139.423 95.6534C138.932 96.1454 138.266 96.4218 137.572 96.4218H22.4305C21.7363 96.4218 21.0705 96.1454 20.5796 95.6534C20.0887 95.1614 19.8129 94.4942 19.8129 93.7984V15.7946C19.8129 15.0989 20.0887 14.4316 20.5796 13.9396C21.0705 13.4477 21.7363 13.1713 22.4305 13.1713H137.572C138.266 13.1713 138.932 13.4477 139.423 13.9396C139.914 14.4316 140.19 15.0989 140.19 15.7946" fill="#F5F5F5"/>
<path d="M134.154 16.9031H25.9664C25.1082 16.9031 24.4126 17.6002 24.4126 18.4602V91.5269C24.4126 92.3869 25.1082 93.084 25.9664 93.084H134.154C135.012 93.084 135.707 92.3869 135.707 91.5269V18.4602C135.707 17.6002 135.012 16.9031 134.154 16.9031Z" fill="url(#paint3_linear)"/>
<path d="M132.667 18.6555H27.3359C26.4777 18.6555 25.7821 19.3527 25.7821 20.2126V89.3804C25.7821 90.2404 26.4777 90.9375 27.3359 90.9375H132.667C133.525 90.9375 134.22 90.2404 134.22 89.3804V20.2126C134.22 19.3527 133.525 18.6555 132.667 18.6555Z" fill="white"/>
<path d="M19.7511 90.2742L50.0257 55.5073C50.548 54.9076 51.1833 54.4172 51.8953 54.0643C52.6073 53.7115 53.3819 53.5032 54.1745 53.4513C54.9671 53.3995 55.7621 53.5052 56.5138 53.7623C57.2655 54.0194 57.9591 54.4229 58.5547 54.9496L67.031 62.4449C68.1135 63.402 69.5027 63.938 70.9461 63.9555C72.3895 63.9729 73.7913 63.4706 74.8964 62.5399L100.806 40.7138C101.999 39.7093 103.534 39.2067 105.088 39.3113C106.643 39.416 108.096 40.1197 109.144 41.2751L140.939 76.3481C141.821 77.3216 142.363 78.5571 142.481 79.867L143.709 93.7016C143.783 94.5364 143.683 95.3774 143.415 96.1713C143.147 96.9651 142.717 97.6943 142.152 98.3126C141.588 98.9308 140.901 99.4245 140.136 99.7624C139.37 100.1 138.543 100.275 137.707 100.275H24.2913C22.7245 100.275 21.2194 99.6631 20.0949 98.5697C18.9705 97.4764 18.315 95.9871 18.2676 94.4177C18.2244 92.8987 18.7541 91.4192 19.7511 90.2742Z" fill="#6C63FF"/>
<path d="M38.8401 36.975C42.549 36.975 45.5555 33.9619 45.5555 30.2451C45.5555 26.5282 42.549 23.5151 38.8401 23.5151C35.1313 23.5151 32.1248 26.5282 32.1248 30.2451C32.1248 33.9619 35.1313 36.975 38.8401 36.975Z" fill="#FF5252"/>
<path d="M123.309 106.834C123.311 107.189 123.243 107.54 123.109 107.868C122.976 108.196 122.779 108.495 122.53 108.747C122.281 108.999 121.985 109.199 121.659 109.336C121.333 109.474 120.983 109.545 120.63 109.547H2.75473C2.40106 109.545 2.05121 109.474 1.72516 109.336C1.39911 109.199 1.10325 108.999 0.854472 108.747C0.60569 108.495 0.40886 108.196 0.275221 107.868C0.141582 107.54 0.0737491 107.189 0.0755983 106.834V26.1437C0.0737491 25.7893 0.141582 25.438 0.275221 25.1098C0.40886 24.7816 0.60569 24.4831 0.854472 24.2311C1.10325 23.9792 1.39911 23.7788 1.72516 23.6415C2.05121 23.5042 2.40106 23.4325 2.75473 23.4307H120.63C120.983 23.4325 121.333 23.5042 121.659 23.6415C121.985 23.7788 122.281 23.9792 122.53 24.2311C122.779 24.4831 122.976 24.7816 123.109 25.1098C123.243 25.438 123.311 25.7893 123.309 26.1437" fill="url(#paint4_linear)"/>
<path d="M121.919 105.513C121.919 106.209 121.643 106.876 121.152 107.368C120.661 107.86 119.995 108.136 119.301 108.136H4.16481C3.47055 108.136 2.80473 107.86 2.31382 107.368C1.82291 106.876 1.54712 106.209 1.54712 105.513V27.502C1.54712 26.8063 1.82291 26.139 2.31382 25.647C2.80473 25.155 3.47055 24.8787 4.16481 24.8787H119.306C120 24.8801 120.664 25.1571 121.154 25.6489C121.644 26.1407 121.919 26.8072 121.919 27.502" fill="white"/>
<path d="M115.888 28.6176H7.70049C6.84237 28.6176 6.14673 29.3147 6.14673 30.1747V103.241C6.14673 104.101 6.84237 104.799 7.70049 104.799H115.888C116.746 104.799 117.442 104.101 117.442 103.241V30.1747C117.442 29.3147 116.746 28.6176 115.888 28.6176Z" fill="url(#paint5_linear)"/>
<path d="M114.401 30.37H9.07012C8.212 30.37 7.51636 31.0671 7.51636 31.9271V101.095C7.51636 101.955 8.212 102.652 9.07012 102.652H114.401C115.259 102.652 115.955 101.955 115.955 101.095V31.9271C115.955 31.0671 115.259 30.37 114.401 30.37Z" fill="white"/>
<path d="M1.47994 101.989L31.7616 67.2236C32.2837 66.6254 32.9184 66.1364 33.6295 65.7845C34.3406 65.4326 35.1139 65.2247 35.9053 65.1729C36.6966 65.1211 37.4904 65.2263 38.2411 65.4825C38.9918 65.7387 39.6847 66.1408 40.28 66.6659L48.7563 74.1612C49.8388 75.1183 51.228 75.6543 52.6714 75.6718C54.1149 75.6892 55.5166 75.1869 56.6217 74.2562L82.5405 52.4301C83.7332 51.4256 85.2677 50.923 86.8221 51.0276C88.3766 51.1323 89.8302 51.8361 90.8781 52.9914L122.673 88.0644C123.556 89.0379 124.097 90.2735 124.215 91.5833L125.444 105.418C125.517 106.253 125.417 107.094 125.149 107.888C124.881 108.681 124.451 109.411 123.886 110.029C123.322 110.647 122.635 111.141 121.87 111.479C121.104 111.817 120.277 111.991 119.441 111.991H6.02535C4.46123 111.991 2.9584 111.382 1.83437 110.292C0.710344 109.202 0.0531615 107.717 0.00167738 106.15C-0.0474344 104.626 0.480662 103.139 1.47994 101.989Z" fill="#6C63FF"/>
<path d="M20.5743 48.6912C24.2831 48.6912 27.2897 45.6781 27.2897 41.9612C27.2897 38.2444 24.2831 35.2313 20.5743 35.2313C16.8655 35.2313 13.8589 38.2444 13.8589 41.9612C13.8589 45.6781 16.8655 48.6912 20.5743 48.6912Z" fill="#FF5252"/>
</g>
<defs>
<linearGradient id="paint0_linear" x1="98.2239" y1="86.1166" x2="98.2239" y2="0" gradientUnits="userSpaceOnUse">
<stop offset="0.01" stop-color="#808080" stop-opacity="0.25"/>
<stop offset="0.54" stop-color="#808080" stop-opacity="0.12"/>
<stop offset="1" stop-color="#808080" stop-opacity="0.1"/>
</linearGradient>
<linearGradient id="paint1_linear" x1="62373.3" y1="35235.8" x2="62373.3" y2="2251" gradientUnits="userSpaceOnUse">
<stop offset="0.01" stop-color="#808080" stop-opacity="0.25"/>
<stop offset="0.54" stop-color="#808080" stop-opacity="0.12"/>
<stop offset="1" stop-color="#808080" stop-opacity="0.1"/>
</linearGradient>
<linearGradient id="paint2_linear" x1="73966.8" y1="59837.4" x2="73966.8" y2="17689.4" gradientUnits="userSpaceOnUse">
<stop offset="0.01" stop-color="#808080" stop-opacity="0.25"/>
<stop offset="0.54" stop-color="#808080" stop-opacity="0.12"/>
<stop offset="1" stop-color="#808080" stop-opacity="0.1"/>
</linearGradient>
<linearGradient id="paint3_linear" x1="50775.9" y1="40319.7" x2="50775.9" y2="7335.61" gradientUnits="userSpaceOnUse">
<stop offset="0.01" stop-color="#808080" stop-opacity="0.25"/>
<stop offset="0.54" stop-color="#808080" stop-opacity="0.12"/>
<stop offset="1" stop-color="#808080" stop-opacity="0.1"/>
</linearGradient>
<linearGradient id="paint4_linear" x1="61118.9" y1="65584.9" x2="61118.9" y2="23435.1" gradientUnits="userSpaceOnUse">
<stop offset="0.01" stop-color="#808080" stop-opacity="0.25"/>
<stop offset="0.54" stop-color="#808080" stop-opacity="0.12"/>
<stop offset="1" stop-color="#808080" stop-opacity="0.1"/>
</linearGradient>
<linearGradient id="paint5_linear" x1="39178.6" y1="45404.3" x2="39178.6" y2="12419.5" gradientUnits="userSpaceOnUse">
<stop offset="0.01" stop-color="#808080" stop-opacity="0.25"/>
<stop offset="0.54" stop-color="#808080" stop-opacity="0.12"/>
<stop offset="1" stop-color="#808080" stop-opacity="0.1"/>
</linearGradient>
<clipPath id="clip0">
<rect width="162" height="112" fill="white"/>
</clipPath>
</defs>
</svg>