<svg width="115" height="114" viewBox="0 0 115 114" fill="none" xmlns="http://www.w3.org/2000/svg">
<path fill-rule="evenodd" clip-rule="evenodd" d="M60 113.75C90.3756 113.75 115 89.1256 115 58.75C115 28.3743 90.3756 3.75 60 3.75C29.6243 3.75 5 28.3743 5 58.75C5 89.1256 29.6243 113.75 60 113.75ZM59.5415 100C82.0701 100 100.333 81.7369 100.333 59.2083C100.333 36.6797 82.0701 18.4167 59.5415 18.4167C37.0129 18.4167 18.7499 36.6797 18.7499 59.2083C18.7499 81.7369 37.0129 100 59.5415 100Z" fill="#D0222E"/>
<line x1="26.8431" y1="95.0098" x2="93.7598" y2="28.0931" stroke="#D0222E" stroke-width="16"/>
<path fill-rule="evenodd" clip-rule="evenodd" d="M55 110C85.3756 110 110 85.3756 110 55C110 24.6243 85.3756 0 55 0C24.6243 0 0 24.6243 0 55C0 85.3756 24.6243 110 55 110ZM54.5415 96.25C77.0701 96.25 95.3332 77.9869 95.3332 55.4583C95.3332 32.9297 77.0701 14.6667 54.5415 14.6667C32.0129 14.6667 13.7499 32.9297 13.7499 55.4583C13.7499 77.9869 32.0129 96.25 54.5415 96.25Z" fill="#E34651"/>
<line x1="21.8427" y1="91.2598" x2="88.7593" y2="24.3431" stroke="#E34651" stroke-width="16"/>
</svg>