<svg width="344" height="241" viewBox="0 0 344 241" fill="none" xmlns="http://www.w3.org/2000/svg">
<g clip-path="url(#clip0)">
<path d="M175.04 241C268.354 241 344 236.27 344 230.434C344 224.599 268.354 219.869 175.04 219.869C81.7253 219.869 6.0791 224.599 6.0791 230.434C6.0791 236.27 81.7253 241 175.04 241Z" fill="#3F3D56"/>
<path d="M12.9788 220.075C16.8532 227.238 25.076 230.313 25.076 230.313C25.076 230.313 27.0172 221.775 23.1428 214.612C19.2684 207.45 11.0456 204.375 11.0456 204.375C11.0456 204.375 9.10443 212.913 12.9788 220.075Z" fill="#3F3D56"/>
<path d="M15.6418 217.719C22.6367 221.914 25.3306 230.247 25.3306 230.247C25.3306 230.247 16.6836 231.778 9.68878 227.583C2.69394 223.388 0 215.055 0 215.055C0 215.055 8.64695 213.524 15.6418 217.719Z" fill="#6C63FF"/>
<path d="M310.97 29.541H34.1208V38.3211H310.97V29.541Z" fill="#F2F2F2"/>
<path d="M310.97 227.803H34.1204V168.574L64.6842 142.381L310.97 123.765V227.803Z" fill="#6C63FF"/>
<path d="M41.529 36.074C42.788 36.074 43.8085 35.0566 43.8085 33.8016C43.8085 32.5467 42.788 31.5293 41.529 31.5293C40.2701 31.5293 39.2495 32.5467 39.2495 33.8016C39.2495 35.0566 40.2701 36.074 41.529 36.074Z" fill="#6C63FF"/>
<path d="M48.9377 36.074C50.1967 36.074 51.2172 35.0566 51.2172 33.8016C51.2172 32.5467 50.1967 31.5293 48.9377 31.5293C47.6788 31.5293 46.6582 32.5467 46.6582 33.8016C46.6582 35.0566 47.6788 36.074 48.9377 36.074Z" fill="#6C63FF"/>
<path d="M56.3459 36.074C57.6048 36.074 58.6254 35.0566 58.6254 33.8016C58.6254 32.5467 57.6048 31.5293 56.3459 31.5293C55.087 31.5293 54.0664 32.5467 54.0664 33.8016C54.0664 35.0566 55.087 36.074 56.3459 36.074Z" fill="#6C63FF"/>
<path d="M34.1204 168.438L310.97 123.479V38.3212H34.1204V168.438Z" fill="white"/>
<path d="M279.977 187.352C272.503 186.09 265.315 185.006 258.414 184.1L261.142 178.827C260.222 178.509 256.18 181.529 256.18 181.529L259.761 166.222C255.134 166.778 252.781 182.407 252.781 182.407L247.612 177.123L250.114 183.064C228.992 180.584 210.75 179.665 195.406 179.632L197.742 175.118C196.822 174.8 192.78 177.82 192.78 177.82L196.36 162.513C191.733 163.069 189.381 178.698 189.381 178.698L184.211 173.414L186.862 179.706C176.349 179.879 165.852 180.59 155.413 181.836C157.774 174.805 165.798 168.118 165.798 168.118C159.67 169.935 156.456 172.979 154.777 175.817C154.627 161.31 157.047 146.891 161.925 133.222C161.925 133.222 149.26 160.696 150.876 179.138L151.069 182.413C140.332 183.945 134.933 185.54 134.933 185.54L279.977 187.352Z" fill="#3F3D56"/>
<path d="M131.41 88.2737H54.1001V91.3812H131.41V88.2737Z" fill="#3F3D56"/>
<path d="M131.41 95.1104H54.1001V98.2179H131.41V95.1104Z" fill="#3F3D56"/>
<path d="M80.2859 101.947H54.1001V105.055H80.2859V101.947Z" fill="#3F3D56"/>
<path d="M163.727 224.938C165.406 224.938 166.768 223.58 166.768 221.906C166.768 220.232 165.406 218.875 163.727 218.875C162.047 218.875 160.686 220.232 160.686 221.906C160.686 223.58 162.047 224.938 163.727 224.938Z" fill="#F2F2F2"/>
<path d="M172.546 225.241C174.225 225.241 175.587 223.883 175.587 222.209C175.587 220.535 174.225 219.178 172.546 219.178C170.866 219.178 169.505 220.535 169.505 222.209C169.505 223.883 170.866 225.241 172.546 225.241Z" fill="#F2F2F2"/>
<path d="M181.365 225.544C183.044 225.544 184.406 224.186 184.406 222.512C184.406 220.838 183.044 219.481 181.365 219.481C179.685 219.481 178.323 220.838 178.323 222.512C178.323 224.186 179.685 225.544 181.365 225.544Z" fill="#F2F2F2"/>
<path d="M172.573 224.634C173.917 224.634 175.006 223.549 175.006 222.209C175.006 220.87 173.917 219.784 172.573 219.784C171.229 219.784 170.14 220.87 170.14 222.209C170.14 223.549 171.229 224.634 172.573 224.634Z" fill="#3F3D56"/>
<path d="M259.405 72.6372C274.963 72.6372 287.576 60.0646 287.576 44.5554C287.576 29.0462 274.963 16.4735 259.405 16.4735C243.847 16.4735 231.235 29.0462 231.235 44.5554C231.235 60.0646 243.847 72.6372 259.405 72.6372Z" fill="#FF6584"/>
<path d="M279.014 78.3822C284.56 116.112 263.995 132.571 236.242 136.625C235.597 136.719 234.955 136.806 234.314 136.884C233.024 137.045 231.742 137.172 230.47 137.267C205.161 139.158 183.663 128.152 178.505 93.0638C173.167 56.7514 212.987 4.12531 215.981 0.226955C215.984 0.22651 215.984 0.22651 215.987 0.222983C216.1 0.0744729 216.159 0 216.159 0C216.159 0 273.468 40.6555 279.014 78.3822Z" fill="#6C63FF"/>
<path d="M233.564 131.121L248.181 102.836L233.931 133.938L234.314 136.884C233.023 137.045 231.742 137.172 230.469 137.267L226.901 99.2326L226.843 98.9427L226.869 98.8824L226.533 95.2883L203.873 69.5055L226.195 92.6082L226.353 93.3579L223.657 64.6214L203.517 37.5002L223.114 59.5812L215.981 0.226961L215.958 0.0292969L215.986 0.222989L222.581 46.8888L235.604 26.1045L223.104 50.9143L226.441 76.5106L237.542 49.8574L226.934 80.2734L228.79 94.5062L245.114 57.2785L229.435 99.4718L233.564 131.121Z" fill="#3F3D56"/>
</g>
<defs>
<clipPath id="clip0">
<rect width="344" height="241" fill="white"/>
</clipPath>
</defs>
</svg>