<svg width="340" height="248" viewBox="0 0 340 248" fill="none" xmlns="http://www.w3.org/2000/svg">
<path opacity="0.5" d="M328.782 215.559C328.147 212.952 326.064 210.988 324.53 208.782C322.686 206.062 321.609 202.899 321.41 199.624C321.211 196.348 321.897 193.08 323.398 190.158C324.873 187.364 327.185 184.475 326.348 181.425C325.787 179.372 323.925 177.966 322.096 176.865C315.148 172.699 307.128 170.646 299.023 170.958C289.088 171.362 279.187 175.312 269.445 173.356C259.956 171.443 251.917 166.707 241.99 166.145C234.575 165.727 227.24 166.197 219.81 165.389C201.45 163.406 182.955 162.967 164.521 164.075C146.089 162.967 127.595 163.407 109.237 165.389C101.825 166.197 94.4866 165.727 87.0561 166.145C77.0996 166.703 69.0791 171.447 59.5872 173.356C49.8409 175.316 39.9434 171.362 30.009 170.958C21.904 170.646 13.8841 172.699 6.93576 176.865C5.09196 177.966 3.24816 179.372 2.68396 181.425C1.85057 184.472 4.159 187.361 5.63404 190.158C7.13576 193.079 7.82352 196.347 7.62571 199.623C7.4279 202.898 6.35176 206.061 4.50932 208.782C2.97528 210.984 0.89179 212.952 0.257523 215.559C-1.01838 220.801 4.1 225.419 9.10775 227.501C22.7703 233.187 39.3866 230.438 51.8838 238.356C57.4853 241.91 62.3861 247.615 69.0238 247.828C73.5116 247.971 77.5938 245.489 81.5137 243.305C87.3796 240.036 93.5116 237.264 99.8447 235.019C105.376 233.059 111.236 231.488 117.073 232.137C125.986 233.117 164.514 251.649 181.883 240.698C193.779 233.191 203.057 233.128 211.992 232.134C217.829 231.484 223.685 233.055 229.22 235.015C235.553 237.26 241.685 240.032 247.551 243.301C251.468 245.485 255.553 247.967 260.041 247.824C266.679 247.611 271.58 241.906 277.181 238.352C289.671 230.43 306.284 233.184 319.957 227.497C324.939 225.408 330.061 220.805 328.782 215.559Z" fill="url(#paint0_linear)"/>
<path d="M326.975 215.452C326.348 212.882 324.287 210.929 322.771 208.749C320.951 206.057 319.889 202.929 319.695 199.69C319.5 196.451 320.18 193.219 321.665 190.331C323.14 187.566 325.411 184.71 324.585 181.696C324.028 179.666 322.188 178.275 320.381 177.188C313.51 173.067 305.578 171.036 297.563 171.344C287.739 171.74 277.948 175.65 268.309 173.712C258.92 171.825 250.977 167.133 241.142 166.579C233.808 166.167 226.539 166.63 219.209 165.844C201.051 163.884 182.76 163.449 164.529 164.545C146.298 163.449 128.007 163.884 109.849 165.844C102.518 166.645 95.2501 166.178 87.9155 166.579C78.0843 167.129 70.1376 171.821 60.7489 173.712C51.1133 175.65 41.319 171.74 31.4952 171.344C23.4793 171.036 15.5479 173.067 8.67642 177.188C6.8695 178.289 5.02938 179.666 4.47256 181.696C3.64654 184.71 5.9476 187.57 7.39314 190.331C8.87756 193.219 9.55784 196.451 9.36329 199.69C9.16875 202.929 8.10648 206.057 6.28686 208.749C4.76757 210.929 2.70989 212.871 2.083 215.452C0.788652 220.636 5.85172 225.203 10.7968 227.244C24.3118 232.864 40.7437 230.144 53.0935 237.978C58.6249 241.491 63.4814 247.137 70.0564 247.347C74.4815 247.49 78.5379 245.034 82.4099 242.872C88.212 239.637 94.2774 236.895 100.542 234.674C106.018 232.732 111.807 231.179 117.582 231.822C126.432 232.805 164.525 251.121 181.687 240.291C193.454 232.868 202.629 232.805 211.465 231.822C217.239 231.179 223.033 232.732 228.505 234.674C234.769 236.895 240.835 239.637 246.637 242.872C250.513 245.03 254.55 247.486 258.99 247.347C265.554 247.137 270.403 241.495 275.953 237.978C288.307 230.144 304.739 232.864 318.25 227.244C323.177 225.203 328.24 220.636 326.975 215.452Z" fill="#F0EFFF"/>
<path opacity="0.6" d="M13.8662 110.414C14.9208 110.047 16.0419 109.698 17.1445 109.889C18.9883 110.208 20.2826 111.948 20.8321 113.736C21.3815 115.524 21.3631 117.407 21.7134 119.243C22.0637 121.078 22.9008 122.976 24.5528 123.854C26.2049 124.731 28.1556 124.386 29.9884 124.173C32.3922 123.897 34.8186 123.875 37.2271 124.107C39.2479 124.302 41.6227 124.981 42.2164 126.916C42.7032 128.494 41.737 130.106 41.1101 131.629C39.908 134.478 39.8121 137.844 41.1876 140.612C42.5631 143.38 45.3509 145.444 46.5162 148.366C46.8538 149.097 46.9518 149.915 46.7964 150.704C46.6241 151.257 46.3405 151.769 45.963 152.209C45.0485 153.381 43.957 154.412 43.1236 155.646C41.3867 158.215 40.911 161.409 40.7119 164.497C40.5133 167.533 40.5305 170.579 40.7635 173.612C38.4993 172.878 35.9991 173.531 33.6649 173.05C28.6977 172.03 25.5964 166.178 20.5371 165.822C18.1438 165.653 15.5699 166.776 13.4347 165.686C12.4147 165.101 11.6165 164.198 11.1632 163.116C10.2608 161.202 10.0548 159.035 10.5805 156.986C10.9493 155.569 11.6868 154.181 11.543 152.723C11.4213 151.475 10.6691 150.374 9.80616 149.46C7.34653 146.861 3.77694 145.271 2.01058 142.162C1.20721 140.685 0.871994 139 1.04906 137.33C1.22613 135.659 1.90718 134.082 3.00254 132.804C3.63297 132.191 4.22999 131.546 4.79102 130.869C5.63917 129.68 5.8973 128.178 6.01162 126.721C6.255 123.23 5.64286 119.533 6.7897 116.141C7.81854 113.072 10.9604 111.442 13.8662 110.414Z" fill="#6C63FF"/>
<path opacity="0.6" d="M13.9175 110.517C13.9175 110.517 23.9883 166.196 37.0645 172.837" stroke="#535461" stroke-miterlimit="10"/>
<path opacity="0.6" d="M41.9359 125.928C41.9359 125.928 31.1497 127.396 20.3745 138.428" stroke="#535461" stroke-miterlimit="10"/>
<path opacity="0.6" d="M22.27 144.897C22.27 144.897 13.9693 136.82 1 138.189" stroke="#535461" stroke-miterlimit="10"/>
<path opacity="0.6" d="M44.7038 142.309C44.7038 142.309 29.5551 143.59 23.9463 149.38" stroke="#535461" stroke-miterlimit="10"/>
<path opacity="0.6" d="M28.196 160.873C28.196 160.873 19.7145 159.405 11.8857 164.379" stroke="#535461" stroke-miterlimit="10"/>
<path d="M33 21.835V31.0091V203.628H301.062V31.0091V21.835H33Z" fill="url(#paint1_linear)"/>
<path d="M298.223 30.0839H36.9756V200.339H298.223V30.0839Z" fill="white"/>
<path d="M298.223 21.9854H36.9756V34.5112H298.223V21.9854Z" fill="#EEEEEE"/>
<path d="M46.9168 31.0935C48.6011 31.0935 49.9665 29.7342 49.9665 28.0575C49.9665 26.3808 48.6011 25.0215 46.9168 25.0215C45.2326 25.0215 43.8672 26.3808 43.8672 28.0575C43.8672 29.7342 45.2326 31.0935 46.9168 31.0935Z" fill="#FF5252"/>
<path d="M55.3065 31.0935C56.9907 31.0935 58.3561 29.7342 58.3561 28.0575C58.3561 26.3808 56.9907 25.0215 55.3065 25.0215C53.6222 25.0215 52.2568 26.3808 52.2568 28.0575C52.2568 29.7342 53.6222 31.0935 55.3065 31.0935Z" fill="#FFFF00"/>
<path d="M63.6956 31.0935C65.3799 31.0935 66.7453 29.7342 66.7453 28.0575C66.7453 26.3808 65.3799 25.0215 63.6956 25.0215C62.0114 25.0215 60.646 26.3808 60.646 28.0575C60.646 29.7342 62.0114 31.0935 63.6956 31.0935Z" fill="#69F0AE"/>
<path opacity="0.5" d="M144.34 54.5739H46.9873V58.6121H144.34V54.5739Z" fill="#6C63FF"/>
<path opacity="0.5" d="M144.34 62.6503H46.9873V66.6885H144.34V62.6503Z" fill="#6C63FF"/>
<path opacity="0.5" d="M144.34 70.7267H46.9873V74.7649H144.34V70.7267Z" fill="#6C63FF"/>
<path opacity="0.5" d="M144.339 78.8032H80.5439V82.8415H144.339V78.8032Z" fill="#6C63FF"/>
<path opacity="0.5" d="M98.2449 86.8796H46.9873V90.9178H98.2449V86.8796Z" fill="#6C63FF"/>
<path opacity="0.5" d="M114.101 94.9561H74.644V98.9943H114.101V94.9561Z" fill="#6C63FF"/>
<path d="M337.322 111.13C325.367 159.058 276.8 188.23 228.842 176.276C180.885 164.323 151.72 115.774 163.683 67.8403C175.646 19.907 224.199 -9.26747 272.141 2.68304C320.083 14.6336 349.277 63.1886 337.322 111.13Z" fill="#7C33FF"/>
<path d="M259.501 83.7134C265.829 87.6127 270.911 91.1396 274.746 94.2943C278.581 97.4491 281.477 101.446 283.433 106.286C285.511 111.054 285.715 116.682 284.046 123.171C282.701 128.401 280.1 132.895 276.242 136.652C272.41 140.313 267.433 142.802 261.312 144.118C255.216 145.338 248.294 144.952 240.546 142.959L240.401 142.922L237.412 154.544L231.891 153.124L234.955 141.212C225.107 137.749 217.672 132.533 212.65 125.562C207.75 118.52 206.069 110.602 207.608 101.808L229.399 107.412C228.89 110.998 229.449 114.446 231.075 117.756C232.727 120.969 235.39 123.461 239.065 125.232L246.388 96.7583L243.707 95.1394C237.257 91.3122 232.102 87.8696 228.242 84.8117C224.504 81.6819 221.596 77.7331 219.518 72.9652C217.562 68.1254 217.431 62.4127 219.125 55.827C220.594 50.113 223.378 45.5114 227.477 42.0223C231.672 38.5581 236.732 36.3488 242.656 35.3944C248.677 34.465 255.09 34.8237 261.894 36.4705L265.033 24.2676L270.553 25.6875L267.377 38.0356C277.275 41.3041 284.505 46.3129 289.068 53.0622C293.752 59.7395 295.448 67.197 294.156 75.4347L272.074 69.7554C272.412 66.4348 271.802 63.3868 270.244 60.6113C268.808 57.7639 266.483 55.5653 263.267 54.0155L256.168 81.6172L259.501 83.7134ZM241.285 60.5973C240.388 64.0838 240.816 67.2398 242.567 70.0651C244.343 72.7936 247.199 75.5415 251.134 78.3088L257.859 52.1599C253.548 51.2575 249.92 51.5119 246.976 52.923C244.129 54.359 242.232 56.9171 241.285 60.5973ZM244.436 127.233C248.916 128.282 252.714 127.968 255.83 126.291C258.97 124.517 261.027 121.742 261.998 117.965C262.92 114.382 262.395 111.201 260.425 108.423C258.577 105.572 255.576 102.787 251.423 100.067L244.436 127.233Z" fill="white"/>
<path d="M260.795 58.7233H260.338V59.1798H260.795V58.7233Z" fill="#CCCCCC"/>
<path d="M260.798 58.7993V59.0276C260.714 59.0276 260.646 58.9751 260.646 58.9121C260.646 58.8492 260.714 58.7993 260.798 58.7993Z" fill="#E6E6E6"/>
<path opacity="0.5" d="M133.687 124.618H47V174.288H133.687V124.618Z" fill="#6C63FF"/>
<path d="M144 129.335H57.313V179.006H144V129.335Z" fill="#EEEEEE"/>
<path d="M105.813 179.006H57.313V169.907C69.162 164.393 87.3942 161.296 105.813 179.006Z" fill="#6C63FF"/>
<g opacity="0.1">
<path opacity="0.1" d="M143.443 177.704V179.006H82.957V178.728C82.957 178.728 112.72 149.878 143.443 177.704Z" fill="black"/>
</g>
<path d="M144 177.704V179.006H83.5142V178.728C83.5142 178.728 113.278 149.878 144 177.704Z" fill="#6C63FF"/>
<path d="M67.3475 142.655C69.8105 142.655 71.8073 140.667 71.8073 138.215C71.8073 135.763 69.8105 133.775 67.3475 133.775C64.8844 133.775 62.8877 135.763 62.8877 138.215C62.8877 140.667 64.8844 142.655 67.3475 142.655Z" fill="#6C63FF"/>
<path d="M105.317 134.857C104.807 134.857 104.238 134.857 103.851 134.888C103.678 134.897 103.507 134.932 103.344 134.99L100.721 135.928C102.839 135.981 105.049 135.964 107.221 135.948L119.396 135.853C120.639 135.853 121.944 135.831 122.978 135.759C123.672 135.709 124.182 135.637 124.823 135.581C127.128 135.376 130.487 135.415 133.489 135.426C136.491 135.437 140.114 135.359 141.171 135.06H134.726C134.032 135.06 133.302 135.06 132.689 135.026C131.973 134.985 131.535 134.907 130.905 134.852C129.863 134.763 128.424 134.752 127.086 134.746C119.742 134.716 112.489 134.888 105.317 134.857Z" fill="#F4F4F4"/>
<path d="M112.531 140.235C112.419 140.235 112.297 140.235 112.213 140.235C112.175 140.237 112.137 140.244 112.101 140.257L111.544 140.46C112.004 140.46 112.48 140.46 112.952 140.46L115.588 140.44C115.867 140.44 116.146 140.44 116.363 140.421C116.514 140.421 116.625 140.393 116.762 140.382C117.261 140.338 117.988 140.346 118.641 140.349C119.199 140.367 119.759 140.34 120.313 140.268H118.919C118.769 140.268 118.61 140.268 118.479 140.268C118.348 140.268 118.228 140.243 118.091 140.229C117.866 140.21 117.553 140.207 117.255 140.207C115.666 140.207 114.094 140.243 112.531 140.235Z" fill="#F4F4F4"/>
<path d="M93.8554 148.005C93.7439 148.005 93.6212 148.005 93.5376 148.005C93.4995 148.007 93.462 148.014 93.4261 148.027L92.8687 148.229C93.3286 148.229 93.8052 148.229 94.2763 148.229L96.9131 148.21C97.1918 148.21 97.4706 148.21 97.688 148.191C97.8385 148.191 97.95 148.163 98.0866 148.152C98.5855 148.107 99.313 148.116 99.9653 148.118C100.524 148.137 101.083 148.11 101.638 148.038H100.244C100.093 148.038 99.9346 148.038 99.8036 148.038C99.6726 148.038 99.5527 148.013 99.4162 147.999C99.1904 147.98 98.8782 147.977 98.5799 147.977C96.9912 147.977 95.4191 148.013 93.8554 148.005Z" fill="#F4F4F4"/>
<path d="M83.3776 176.544H81.2815C81.2815 176.544 80.6265 153.724 83.3776 146.681H83.9016C83.9016 146.681 82.0676 172.501 83.3776 176.544Z" fill="#6C63FF"/>
<path d="M81.9369 145.507C81.9369 145.507 80.2338 150.202 81.0198 152.289C81.0198 152.289 82.1989 147.985 83.573 147.333C84.9472 146.681 86.3883 152.289 86.3883 152.289C86.3883 152.289 87.1743 148.768 85.7332 145.907C85.7332 145.907 88.6154 147.472 90.0564 150.472C90.0564 150.472 90.3184 148.529 86.9123 144.472C86.9123 144.472 89.9254 145.255 91.8905 147.081C91.8905 147.081 92.5455 145.646 88.4844 143.298C88.4844 143.298 89.0084 141.603 92.1525 142.385C92.1525 142.385 92.1525 140.166 87.1743 140.56C87.1743 140.56 87.1743 139.125 90.4495 139.386C90.4495 139.386 90.4495 137.56 86.6503 138.212C86.6503 138.212 87.4363 137.038 87.9603 136.777C87.305 136.717 86.6507 136.903 86.1263 137.299C86.1263 137.299 86.2573 134.952 84.2922 134.039L84.0302 137.299C84.0302 137.299 81.8282 134.716 82.3271 135.212C82.4581 135.343 82.8511 136.908 82.7201 137.69C82.7201 137.69 80.4902 135.864 77.7419 137.821C77.7419 137.821 81.148 138.082 81.6721 139.255C81.6721 139.255 78.7899 138.734 78.1349 139.125C78.1349 139.125 80.3648 139.907 80.231 140.429C80.231 140.429 76.3008 140.429 75.7712 141.864C75.7712 141.864 79.8324 142.385 80.0944 142.777C80.0944 142.777 75.3782 146.168 75.1162 147.081C75.1162 147.081 79.9634 144.211 80.7494 144.211C81.5355 144.211 77.2123 148.374 77.4743 149.428C77.4855 149.42 81.0338 145.246 81.9369 145.507Z" fill="#6C63FF"/>
<path d="M109.23 175.69H110.83C110.83 175.69 111.332 158.255 109.23 152.875H108.829C108.829 152.875 110.234 172.596 109.23 175.69Z" fill="#6C63FF"/>
<path d="M110.332 151.978C110.332 151.978 111.633 155.566 111.031 157.159C111.031 157.159 110.131 153.871 109.08 153.374C108.029 152.877 106.928 157.159 106.928 157.159C106.928 157.159 106.329 154.47 107.43 152.278C106.021 153.108 104.876 154.317 104.127 155.766C104.127 155.766 103.926 154.27 106.53 151.182C106.53 151.182 104.227 151.778 102.728 153.174C102.728 153.174 102.226 152.078 105.331 150.286C105.331 150.286 104.93 148.99 102.53 149.589C102.53 149.589 102.53 147.896 106.332 148.202C106.332 148.202 106.332 147.105 103.823 147.305C103.823 147.305 103.823 145.918 106.725 146.409C106.725 146.409 106.125 145.513 105.724 145.313C106.222 145.269 106.719 145.411 107.118 145.712C107.118 145.712 107.017 143.92 108.511 143.215L108.712 145.712C108.712 145.712 110.385 143.74 110.014 144.12C109.774 144.721 109.671 145.367 109.713 146.012C109.713 146.012 111.413 144.625 113.515 146.112C113.515 146.112 110.911 146.312 110.513 147.208C110.513 147.208 112.715 146.809 113.214 147.108C113.214 147.108 111.513 147.705 111.614 148.104C111.614 148.104 114.616 148.104 115.017 149.201C115.017 149.201 111.915 149.6 111.714 149.897C111.714 149.897 115.318 152.489 115.516 153.185C115.516 153.185 111.814 150.993 111.212 150.993C110.61 150.993 113.913 154.181 113.721 154.978C113.735 154.967 111.034 151.784 110.332 151.978Z" fill="#6C63FF"/>
<path d="M128.388 172.282H129.381C129.381 172.282 129.69 161.485 128.388 158.152H128.14C128.14 158.152 129.007 170.376 128.388 172.282Z" fill="#6C63FF"/>
<path d="M129.071 157.597C129.071 157.597 129.876 159.817 129.506 160.805C129.506 160.805 128.948 158.768 128.296 158.46C127.644 158.152 126.964 160.805 126.964 160.805C126.964 160.805 126.593 159.14 127.273 157.781C126.401 158.294 125.692 159.043 125.227 159.939C125.227 159.939 125.105 159.013 126.716 157.101C125.851 157.34 125.048 157.761 124.36 158.336C124.36 158.336 124.051 157.656 125.971 156.546C125.971 156.546 125.723 155.744 124.235 156.113C124.235 156.113 124.235 155.064 126.59 155.25C126.59 155.25 126.59 154.57 125.04 154.695C125.04 154.695 125.04 153.832 126.838 154.14C126.672 153.88 126.463 153.65 126.219 153.46C126.529 153.432 126.838 153.52 127.086 153.707C127.086 153.707 127.025 152.597 127.953 152.164L128.076 153.707C128.076 153.707 129.118 152.486 128.881 152.719C128.733 153.091 128.669 153.491 128.695 153.89C129.039 153.64 129.457 153.511 129.883 153.522C130.309 153.533 130.719 153.684 131.05 153.951C131.05 153.951 129.439 154.073 129.191 154.631C129.191 154.631 130.554 154.384 130.863 154.57C130.863 154.57 129.81 154.939 129.871 155.186C129.871 155.186 131.73 155.186 131.978 155.866C131.978 155.866 130.058 156.113 129.932 156.299C129.932 156.299 132.162 157.903 132.288 158.336C132.288 158.336 129.994 156.979 129.623 156.979C129.252 156.979 131.295 158.954 131.173 159.446C131.178 159.448 129.503 157.473 129.071 157.597Z" fill="#6C63FF"/>
<path d="M92.1524 160.073L91.9434 158.963C91.9431 158.881 91.9261 158.8 91.8935 158.725C91.861 158.651 91.8134 158.583 91.7538 158.527L90.7866 158.055C90.7153 157.972 90.6571 157.878 90.6138 157.778L90.6305 157.753C90.6838 157.687 90.7218 157.61 90.742 157.528C90.7438 157.507 90.7438 157.485 90.742 157.464H90.756C90.8452 157.476 90.9357 157.454 91.0095 157.403C91.0833 157.351 91.1351 157.274 91.1545 157.187V157.162C91.1374 157.237 91.0964 157.304 91.0376 157.354C90.9789 157.404 90.9055 157.434 90.8284 157.439C90.963 157.349 91.0734 157.228 91.1497 157.086C91.226 156.944 91.266 156.785 91.266 156.623C91.266 156.623 91.266 156.596 91.266 156.582C91.3088 156.556 91.3455 156.521 91.3738 156.48C91.4021 156.439 91.4214 156.392 91.4305 156.343V156.318C91.4187 156.365 91.3975 156.408 91.3683 156.447C91.3391 156.485 91.3024 156.517 91.2605 156.54C91.2537 156.445 91.2331 156.352 91.1991 156.263H91.2242C91.3196 156.263 91.4111 156.225 91.4785 156.158C91.5459 156.091 91.5838 156 91.5838 155.905C91.5838 155.905 91.5838 155.888 91.5838 155.88C91.5775 155.97 91.5372 156.054 91.471 156.116C91.4049 156.178 91.3177 156.212 91.227 156.213H91.1824V156.196C91.2893 156.164 91.3849 156.103 91.4579 156.019C91.531 155.934 91.5785 155.832 91.595 155.722C91.595 155.722 91.595 155.705 91.595 155.697C91.5902 155.766 91.565 155.833 91.5225 155.888C91.5272 155.799 91.4985 155.712 91.442 155.643C91.3854 155.574 91.3051 155.528 91.2166 155.515C91.1282 155.502 91.038 155.522 90.9636 155.571C90.8893 155.621 90.8361 155.696 90.8145 155.783L90.7504 155.747C90.7705 155.675 90.8124 155.612 90.8703 155.565C90.9282 155.518 90.9993 155.49 91.0737 155.486H91.0486C90.9733 155.485 90.8996 155.508 90.8381 155.551C90.7766 155.595 90.7303 155.656 90.7058 155.727C90.4903 155.627 90.246 155.608 90.0176 155.674C89.7892 155.739 89.5922 155.884 89.4626 156.082C89.3874 156.138 89.2898 156.218 89.2926 156.288C89.2603 156.32 89.2314 156.355 89.2062 156.393C89.1001 156.625 89.0614 156.882 89.0947 157.134C89.1101 157.26 89.0948 157.387 89.0501 157.505C89.0055 157.624 88.9328 157.729 88.8382 157.814C88.8797 157.831 88.9243 157.84 88.9692 157.84C89.0142 157.84 89.0588 157.831 89.1003 157.814C89.1831 157.779 89.2609 157.733 89.3316 157.678C89.3976 157.638 89.4538 157.584 89.4961 157.52V157.506C89.5425 157.537 89.592 157.563 89.6438 157.584C89.6633 157.75 89.6689 157.942 89.5936 158.005L89.6076 157.975C89.4279 158.109 89.2044 158.173 88.9804 158.152C88.8452 158.16 88.7144 158.202 88.6005 158.275C88.4867 158.348 88.3938 158.449 88.3309 158.569L88.0271 159.831V159.853V159.876C88.0317 159.893 88.0409 159.908 88.0537 159.92C88.0665 159.933 88.0823 159.941 88.0996 159.945L88.1944 159.97C88.2087 160.186 88.187 160.402 88.1303 160.611C88.0666 160.922 88.0303 161.237 88.0216 161.554C88.0438 161.713 88.0829 162.537 88.1024 162.928C88.0686 163.062 88.0416 163.197 88.0216 163.333L87.5728 166.014C87.5728 166.014 87.2383 168.159 87.255 168.808L87.1965 169.183C87.1965 169.183 86.285 170.32 86.5526 170.481C86.8202 170.642 87.2327 170.712 87.6257 170.107C87.679 169.964 87.7649 169.836 87.8766 169.732C87.9212 169.694 87.9559 169.645 87.9778 169.591C87.9996 169.536 88.0079 169.477 88.002 169.419L87.9742 169.141L88.0216 169.158H88.0494C88.0494 169.158 88.4982 167.69 88.448 166.66C88.448 166.66 89.2842 163.713 89.9114 163.25V163.23L89.9699 163.203L90.1037 166.058L89.9671 169.205L89.9365 169.394C89.9365 169.394 89.025 170.531 89.2926 170.692C89.5602 170.853 89.9727 170.923 90.3657 170.318C90.419 170.175 90.5049 170.047 90.6166 169.943C90.6612 169.905 90.6959 169.856 90.7177 169.801C90.7396 169.747 90.7479 169.688 90.742 169.629L90.7002 169.213C90.8563 168.683 91.2577 167.157 91.0932 166.272L91.372 164.39C91.6507 164.077 91.6145 163.28 91.6145 163.28C91.8347 162.823 91.8932 161.027 91.8932 161.027L91.9489 160.139C91.9907 160.136 92.0326 160.136 92.0744 160.139H92.1023H92.119V160.123C92.127 160.116 92.1337 160.107 92.1385 160.098H92.1552V160.075L92.1524 160.073ZM91.372 161.876C91.3469 161.815 91.319 161.754 91.2883 161.693H91.266V161.671C91.2653 161.664 91.2653 161.656 91.266 161.649V161.627C91.2791 161.597 91.2903 161.566 91.2995 161.535C91.3355 161.478 91.3539 161.411 91.3525 161.344C91.3853 161.519 91.3918 161.699 91.372 161.876ZM91.2883 161.116L91.2326 160.522L91.2493 160.475L91.3246 161.23L91.2883 161.116ZM88.6459 161.196C88.6267 161.218 88.6124 161.244 88.6037 161.272C88.5951 161.299 88.5924 161.329 88.5957 161.357C88.5957 161.357 88.5957 161.357 88.5957 161.377C88.5961 161.437 88.6046 161.497 88.6208 161.554L88.5344 161.926V161.216C88.5917 161.141 88.6421 161.061 88.6849 160.977C88.6937 161.053 88.6801 161.129 88.6459 161.196Z" fill="url(#paint2_linear)"/>
<path d="M89.2088 156.612C89.1063 156.835 89.0686 157.082 89.1001 157.325C89.1147 157.446 89.0998 157.569 89.0566 157.683C89.0134 157.797 88.9433 157.899 88.8521 157.98C88.8922 157.997 88.9353 158.006 88.9789 158.006C89.0224 158.006 89.0655 157.997 89.1057 157.98C89.1855 157.947 89.2605 157.903 89.3287 157.85C89.3924 157.811 89.4467 157.759 89.4876 157.697C89.5261 157.601 89.5386 157.497 89.5238 157.395C89.5242 157.213 89.5401 157.032 89.5712 156.854C89.5879 156.743 89.6938 156.44 89.5712 156.382C89.4486 156.324 89.2618 156.529 89.2088 156.612Z" fill="#72351C"/>
<path d="M87.3663 168.408L87.2799 168.963C87.2799 168.963 86.4019 170.073 86.6612 170.215C86.9204 170.356 87.3162 170.437 87.6953 169.854C87.746 169.717 87.8281 169.594 87.935 169.493C87.9779 169.456 88.0112 169.409 88.032 169.357C88.0529 169.304 88.0607 169.247 88.0548 169.191L87.9684 168.345L87.3663 168.408Z" fill="#333333"/>
<path d="M90.0089 168.628L89.9225 169.183C89.9225 169.183 89.0445 170.293 89.3037 170.434C89.563 170.576 89.9588 170.656 90.3378 170.073C90.3886 169.936 90.4707 169.813 90.5775 169.713C90.6204 169.676 90.6537 169.629 90.6746 169.576C90.6955 169.523 90.7033 169.466 90.6974 169.41L90.611 168.564L90.0089 168.628Z" fill="#333333"/>
<path d="M88.6402 161.993C88.6402 161.993 88.2277 162.29 88.0827 163.322L87.6507 165.906C87.6507 165.906 87.2855 168.248 87.3524 168.697L88.0827 168.947C88.0827 168.947 88.5148 167.532 88.4674 166.547C88.4674 166.547 89.3454 163.433 89.9614 163.217L90.0924 165.967L89.9531 169.061L90.5774 169.185C90.5774 169.185 91.2102 167.215 91.0095 166.172L91.3356 163.952C91.3356 163.952 91.7091 162.767 91.1906 161.732L88.6402 161.993Z" fill="#4D8AF0"/>
<g opacity="0.1">
<path opacity="0.1" d="M89.8977 163.258V163.211C89.2817 163.43 88.4036 166.541 88.4036 166.541C88.3887 167.346 88.2621 168.145 88.0273 168.916L88.1054 168.944C88.1054 168.944 88.5374 167.529 88.49 166.544C88.4873 166.546 89.29 163.716 89.8977 163.258Z" fill="black"/>
<path opacity="0.1" d="M91.2159 161.746H91.1322C91.4319 162.442 91.4812 163.219 91.2716 163.946L90.9455 166.166C91.1378 167.154 90.5776 168.972 90.519 169.163L90.5999 169.18C90.5999 169.18 91.2326 167.21 91.0319 166.166L91.358 163.946C91.358 163.946 91.7343 162.767 91.2159 161.746Z" fill="black"/>
</g>
<path d="M88.0801 159.97C88.0796 159.991 88.0866 160.012 88.0998 160.029C88.113 160.046 88.1317 160.057 88.1526 160.062C88.3565 160.113 88.5467 160.207 88.71 160.339C89.0166 160.578 88.3839 159.862 88.3839 159.862L88.1721 159.909L88.0857 159.987L88.0801 159.97Z" fill="#F55F44"/>
<path opacity="0.1" d="M88.0801 159.97C88.0796 159.991 88.0866 160.012 88.0998 160.029C88.113 160.046 88.1317 160.057 88.1526 160.062C88.3565 160.113 88.5467 160.207 88.71 160.339C89.0166 160.578 88.3839 159.862 88.3839 159.862L88.1721 159.909L88.0857 159.987L88.0801 159.97Z" fill="black"/>
<path d="M91.0962 160.603C91.354 160.42 91.6525 160.303 91.9658 160.261C91.9873 160.261 92.0078 160.253 92.023 160.238C92.0382 160.223 92.0467 160.202 92.0467 160.181C92.0467 160.181 91.3164 159.895 91.0962 160.603Z" fill="#F55F44"/>
<path opacity="0.1" d="M92.0467 160.178C92.0467 160.178 91.3164 159.901 91.0962 160.6C91.0962 160.6 91.6342 160.189 92.0077 160.256" fill="black"/>
<path d="M90.2488 157.781C90.7738 157.781 91.1993 157.357 91.1993 156.834C91.1993 156.312 90.7738 155.888 90.2488 155.888C89.7239 155.888 89.2983 156.312 89.2983 156.834C89.2983 157.357 89.7239 157.781 90.2488 157.781Z" fill="#72351C"/>
<path d="M89.5934 157.498C89.5934 157.498 89.7272 158.053 89.5934 158.166C89.4596 158.28 89.1892 158.491 89.3927 158.655C89.5962 158.818 90.3237 159.096 90.5662 158.96C90.8087 158.824 91.0846 158.866 91.0177 158.588C90.9508 158.311 90.4212 158.369 90.4129 156.99L89.5934 157.498Z" fill="#FDB797"/>
<path opacity="0.1" d="M88.2475 159.803C88.2674 160.104 88.2477 160.407 88.1889 160.703C88.1273 161.001 88.0919 161.305 88.083 161.61C88.1109 161.81 88.1694 163.131 88.1694 163.131C88.1694 163.131 88.0635 164.288 88.6293 164.182C89.1951 164.077 88.5429 162.861 88.5429 162.861L88.5708 161.282C88.7242 161.075 88.8204 160.831 88.8495 160.575C88.8913 160.195 88.2475 159.803 88.2475 159.803Z" fill="black"/>
<path d="M88.2392 159.803C88.259 160.104 88.2394 160.407 88.1806 160.703C88.119 161.001 88.0836 161.305 88.0747 161.61C88.1026 161.81 88.1611 163.131 88.1611 163.131C88.1611 163.131 88.0552 164.288 88.621 164.182C89.1868 164.077 88.5346 162.861 88.5346 162.861L88.5625 161.282C88.716 161.075 88.8121 160.831 88.8412 160.575C88.8802 160.195 88.2392 159.803 88.2392 159.803Z" fill="#FDB797"/>
<path opacity="0.1" d="M91.8599 159.89L91.7818 161.124C91.7818 161.124 91.7344 162.856 91.5226 163.294C91.5226 163.294 91.5811 164.51 91.0125 164.479C90.4439 164.449 91.1073 163.15 91.1073 163.15C91.1073 163.15 91.4111 161.799 91.255 161.371L91.1073 159.89H91.8599Z" fill="black"/>
<path d="M91.8677 159.89L91.7896 161.124C91.7896 161.124 91.7422 162.856 91.5304 163.294C91.5304 163.294 91.5889 164.51 91.0203 164.479C90.4517 164.449 91.1151 163.15 91.1151 163.15C91.1151 163.15 91.4189 161.799 91.2628 161.371L91.1151 159.89H91.8677Z" fill="#FDB797"/>
<path opacity="0.1" d="M90.0257 158.694C90.0257 158.694 90.4856 158.904 90.7365 158.277L91.6702 158.732C91.7277 158.787 91.7733 158.852 91.8045 158.925C91.8357 158.997 91.8516 159.075 91.8514 159.154L92.0521 160.225C92.0521 160.225 91.3692 159.995 91.1574 160.628L91.2159 161.23C91.2599 161.379 91.249 161.538 91.1852 161.679C91.1796 161.692 91.1767 161.706 91.1767 161.72C91.1767 161.733 91.1796 161.747 91.1852 161.76C91.1992 161.804 91.2026 161.85 91.1953 161.896C91.1879 161.941 91.1699 161.984 91.1428 162.021C91.1157 162.058 91.0802 162.089 91.0392 162.11C90.9981 162.131 90.9527 162.142 90.9065 162.143C90.6555 162.146 90.4051 162.165 90.1567 162.201C89.956 162.259 89.3484 162.087 89.1477 162.201C88.947 162.315 88.5233 162.115 88.5233 162.115L88.6376 161.627C88.6376 161.627 88.5595 161.388 88.6571 161.302C88.7547 161.216 88.6961 160.469 88.6097 160.259C88.6097 160.259 88.2641 159.934 88.0522 159.981L88.331 158.746C88.3911 158.631 88.4803 158.533 88.5897 158.463C88.6992 158.392 88.8252 158.351 88.9553 158.344C89.1714 158.363 89.387 158.302 89.5602 158.172C89.5602 158.172 89.3512 158.627 90.0257 158.694Z" fill="black"/>
<path opacity="0.1" d="M90.0731 158.671C90.1985 158.705 90.533 158.741 90.7337 158.238L91.6675 158.694C91.7249 158.748 91.7706 158.813 91.8017 158.886C91.8329 158.958 91.8488 159.036 91.8486 159.115L92.0493 160.186C92.0493 160.186 91.3664 159.956 91.1546 160.589L91.2131 161.191L91.2521 161.31C91.2689 161.361 91.2733 161.415 91.2651 161.469C91.2569 161.522 91.2362 161.572 91.2047 161.615C91.1916 161.63 91.1828 161.649 91.1793 161.668C91.1759 161.688 91.1779 161.708 91.1852 161.726C91.1992 161.77 91.2026 161.817 91.1953 161.862C91.1879 161.908 91.1699 161.951 91.1428 161.988C91.1157 162.025 91.0802 162.056 91.0392 162.077C90.9981 162.098 90.9527 162.109 90.9065 162.109C90.6555 162.112 90.4051 162.132 90.1567 162.168C89.956 162.226 89.3484 162.054 89.1477 162.168C88.947 162.281 88.5233 162.082 88.5233 162.082L88.6376 161.593C88.6376 161.593 88.5595 161.355 88.6571 161.269C88.7547 161.183 88.6961 160.436 88.6097 160.225C88.6097 160.225 88.2641 159.901 88.0522 159.948L88.331 158.713C88.3911 158.598 88.4803 158.5 88.5897 158.43C88.6992 158.359 88.8252 158.318 88.9553 158.311C89.1714 158.33 89.387 158.269 89.5602 158.139C89.5602 158.139 89.3344 158.549 89.9281 158.638L90.0731 158.671Z" fill="black"/>
<path d="M90.0734 158.691C90.1989 158.724 90.5334 158.76 90.734 158.258L91.6678 158.713C91.7252 158.767 91.7709 158.833 91.8021 158.905C91.8332 158.978 91.8492 159.056 91.849 159.135L92.0497 160.206C92.0497 160.206 91.3668 159.976 91.1549 160.608L91.2135 161.21C91.2575 161.359 91.2466 161.519 91.1828 161.66C91.1772 161.673 91.1743 161.686 91.1743 161.7C91.1743 161.714 91.1772 161.728 91.1828 161.74C91.1968 161.784 91.2002 161.831 91.1928 161.876C91.1855 161.922 91.1675 161.965 91.1404 162.002C91.1133 162.039 91.0778 162.069 91.0367 162.091C90.9957 162.112 90.9503 162.123 90.9041 162.123C90.6531 162.126 90.4026 162.146 90.1543 162.182C89.9536 162.24 89.3459 162.068 89.1452 162.182C88.9445 162.295 88.5209 162.096 88.5209 162.096L88.6352 161.607C88.6352 161.607 88.5571 161.369 88.6547 161.283C88.7522 161.197 88.6937 160.45 88.6073 160.239C88.6073 160.239 88.2616 159.915 88.0498 159.962L88.3285 158.727C88.3887 158.612 88.4779 158.514 88.5873 158.444C88.6968 158.373 88.8227 158.332 88.9529 158.325C89.169 158.344 89.3845 158.282 89.5578 158.152C89.5578 158.152 89.332 158.563 89.9257 158.652L90.0734 158.691Z" fill="#F55F44"/>
<path opacity="0.1" d="M90.4271 157.04L89.6104 157.547C89.6311 157.639 89.6469 157.732 89.6577 157.825C89.7508 157.862 89.8502 157.881 89.9504 157.88C90.1499 157.867 90.3378 157.782 90.48 157.642C90.4431 157.443 90.4253 157.242 90.4271 157.04Z" fill="black"/>
<path d="M89.9334 157.819C90.369 157.819 90.7222 157.468 90.7222 157.034C90.7222 156.6 90.369 156.249 89.9334 156.249C89.4977 156.249 89.1445 156.6 89.1445 157.034C89.1445 157.468 89.4977 157.819 89.9334 157.819Z" fill="#FDB797"/>
<path d="M91.0961 156.432C91.287 156.432 91.4417 156.278 91.4417 156.088C91.4417 155.898 91.287 155.744 91.0961 155.744C90.9052 155.744 90.7505 155.898 90.7505 156.088C90.7505 156.278 90.9052 156.432 91.0961 156.432Z" fill="#72351C"/>
<path d="M91.163 156.451C91.0755 156.452 90.9912 156.419 90.9271 156.36C90.8629 156.3 90.8237 156.219 90.8174 156.132C90.8174 156.132 90.8174 156.149 90.8174 156.157C90.8174 156.249 90.8538 156.336 90.9186 156.401C90.9834 156.465 91.0714 156.501 91.163 156.501C91.2547 156.501 91.3426 156.465 91.4074 156.401C91.4722 156.336 91.5087 156.249 91.5087 156.157C91.5087 156.157 91.5087 156.141 91.5087 156.132C91.5023 156.219 91.4631 156.3 91.399 156.36C91.3348 156.419 91.2505 156.452 91.163 156.451Z" fill="#72351C"/>
<path d="M90.9651 156.779C90.8794 156.763 90.803 156.715 90.7513 156.645C90.6996 156.575 90.6764 156.488 90.6864 156.401V156.424C90.6698 156.513 90.6896 156.606 90.7417 156.681C90.7937 156.757 90.8736 156.808 90.9638 156.825C91.0539 156.841 91.1471 156.821 91.2226 156.77C91.2981 156.718 91.3499 156.638 91.3665 156.549V156.524C91.3453 156.609 91.2918 156.684 91.2171 156.731C91.1424 156.779 91.0522 156.796 90.9651 156.779Z" fill="#72351C"/>
<path d="M90.6976 157.611C90.6118 157.595 90.5354 157.547 90.4837 157.477C90.432 157.407 90.4088 157.32 90.4188 157.234V157.256C90.4022 157.346 90.4221 157.439 90.4741 157.514C90.5261 157.589 90.606 157.641 90.6962 157.657C90.7863 157.674 90.8795 157.654 90.955 157.602C91.0305 157.55 91.0823 157.471 91.0989 157.381V157.356C91.0777 157.442 91.0242 157.516 90.9495 157.563C90.8748 157.611 90.7846 157.628 90.6976 157.611Z" fill="#72351C"/>
<path d="M91.163 156.268C91.0751 156.268 90.9904 156.235 90.9262 156.175C90.862 156.116 90.8231 156.034 90.8174 155.946C90.8174 155.946 90.8174 155.963 90.8174 155.971C90.8174 156.063 90.8538 156.15 90.9186 156.215C90.9834 156.279 91.0714 156.315 91.163 156.315C91.2547 156.315 91.3426 156.279 91.4074 156.215C91.4722 156.15 91.5087 156.063 91.5087 155.971C91.5087 155.971 91.5087 155.955 91.5087 155.946C91.503 156.034 91.4641 156.116 91.3999 156.175C91.3356 156.235 91.251 156.268 91.163 156.268Z" fill="#72351C"/>
<path d="M90.6808 156.082C90.6814 155.995 90.7154 155.911 90.776 155.847C90.8366 155.784 90.9192 155.746 91.007 155.741H90.9819C90.8902 155.741 90.8023 155.777 90.7375 155.842C90.6726 155.906 90.6362 155.994 90.6362 156.085C90.6362 156.176 90.6726 156.264 90.7375 156.328C90.8023 156.393 90.8902 156.429 90.9819 156.429H91.007C90.9182 156.424 90.8348 156.385 90.7741 156.321C90.7134 156.256 90.68 156.171 90.6808 156.082Z" fill="#72351C"/>
<path opacity="0.1" d="M91.0289 159.329C91.0652 159.499 91.0652 159.675 91.0289 159.845C91.0289 159.845 90.9815 160.295 91.0568 160.372" fill="black"/>
<path opacity="0.1" d="M88.6934 159.434C88.7298 159.605 88.7298 159.78 88.6934 159.951C88.6934 159.951 88.646 160.4 88.7213 160.478" fill="black"/>
<path opacity="0.1" d="M88.6738 161.28C88.7486 161.306 88.8304 161.306 88.9052 161.28C88.996 161.252 89.0931 161.252 89.1839 161.28" fill="black"/>
<path opacity="0.1" d="M88.791 160.603C89.0625 160.616 89.3338 160.573 89.5882 160.478C89.5882 160.478 90.5693 160.716 90.8481 160.544" fill="black"/>
<path d="M88.4953 164.726H88.2639C88.1608 164.726 88.0771 164.809 88.0771 164.912C88.0771 165.015 88.1608 165.098 88.2639 165.098H88.4953C88.5984 165.098 88.682 165.015 88.682 164.912C88.682 164.809 88.5984 164.726 88.4953 164.726Z" fill="#FDB797"/>
<path d="M88.0801 164.826L88.4034 164.812L88.6821 164.857H88.5846L88.0801 164.826Z" fill="#F0E4E4"/>
<path d="M90.2598 163.269H90.5831L90.8618 163.297H90.7643L90.2598 163.269Z" fill="#F0E4E4"/>
<path d="M90.2598 163.336H90.5831L90.8618 163.364H90.7643L90.2598 163.336Z" fill="#F0E4E4"/>
<path d="M90.2598 163.405H90.5831L90.8618 163.433H90.7643L90.2598 163.405Z" fill="#F0E4E4"/>
<path d="M90.2598 163.472H90.5831L90.8618 163.5H90.7643L90.2598 163.472Z" fill="#F0E4E4"/>
<path d="M88.0801 165.084H88.4034L88.6821 165.117H88.5846L88.0801 165.084Z" fill="#F0E4E4"/>
<path d="M88.0801 165.051H88.4034L88.6821 165.084H88.5846L88.0801 165.051Z" fill="#F0E4E4"/>
<path d="M88.0801 165.017H88.4034L88.6821 165.051H88.5846L88.0801 165.017Z" fill="#F0E4E4"/>
<path d="M88.0801 164.984H88.4034L88.6821 165.018H88.5846L88.0801 164.984Z" fill="#F0E4E4"/>
<path d="M88.0801 164.776L88.4034 164.762L88.6821 164.807H88.5846L88.0801 164.776Z" fill="#F0E4E4"/>
<path d="M88.0801 164.718L88.4034 164.704L88.6821 164.748H88.5846L88.0801 164.718Z" fill="#F0E4E4"/>
<path opacity="0.1" d="M90.0675 156.532C90.0366 156.825 90.0748 157.122 90.179 157.398C90.2307 157.532 90.2537 157.675 90.2465 157.818C90.2393 157.962 90.2021 158.102 90.1372 158.23C90.18 158.24 90.2246 158.24 90.2672 158.229C90.3099 158.218 90.3494 158.198 90.3825 158.169C90.4518 158.109 90.5119 158.039 90.5609 157.961C90.6127 157.898 90.6498 157.824 90.6696 157.745C90.6781 157.62 90.659 157.495 90.6139 157.378C90.5598 157.166 90.5207 156.95 90.4968 156.732C90.4801 156.599 90.4968 156.216 90.3463 156.177C90.1958 156.138 90.0954 156.421 90.0675 156.532Z" fill="black"/>
<path d="M90.0866 156.524C90.0557 156.817 90.0939 157.113 90.1981 157.389C90.2498 157.523 90.2728 157.667 90.2656 157.81C90.2584 157.953 90.2211 158.094 90.1563 158.222C90.1991 158.232 90.2436 158.231 90.2862 158.221C90.3289 158.21 90.3684 158.189 90.4015 158.161C90.4708 158.1 90.5309 158.03 90.5799 157.953C90.6317 157.889 90.6688 157.815 90.6886 157.736C90.6971 157.611 90.6781 157.486 90.6329 157.37C90.5788 157.157 90.5397 156.941 90.5158 156.723C90.4991 156.59 90.5158 156.207 90.3653 156.168C90.2148 156.129 90.1144 156.41 90.0866 156.524Z" fill="#72351C"/>
<path opacity="0.1" d="M89.7472 156.729C89.8141 156.798 89.828 156.901 89.8838 156.979C89.9333 157.032 89.994 157.073 90.0615 157.1C90.1289 157.127 90.2015 157.138 90.274 157.134C90.3137 157.132 90.3532 157.141 90.3883 157.159C90.4496 157.198 90.4524 157.287 90.4914 157.348C90.5123 157.37 90.5376 157.388 90.5656 157.4C90.5937 157.412 90.6239 157.418 90.6545 157.418C90.6851 157.418 90.7154 157.412 90.7434 157.4C90.7715 157.388 90.7967 157.37 90.8176 157.348C90.8981 157.252 90.9424 157.131 90.943 157.006C90.9564 156.869 90.9564 156.73 90.943 156.593C90.9392 156.435 90.8766 156.285 90.7674 156.171C90.6759 156.104 90.57 156.058 90.458 156.038C90.3051 155.984 90.1406 155.972 89.9813 156.002C89.9041 156.028 89.8309 156.064 89.7639 156.11C89.6692 156.171 89.5763 156.233 89.4852 156.296C89.3821 156.368 89.1869 156.512 89.3765 156.59C89.4963 156.646 89.6469 156.621 89.7472 156.729Z" fill="black"/>
<path d="M89.7662 156.718C89.8331 156.787 89.8471 156.89 89.9028 156.968C89.9524 157.02 90.013 157.062 90.0805 157.089C90.1479 157.116 90.2205 157.127 90.293 157.123C90.3327 157.121 90.3722 157.129 90.4073 157.148C90.4687 157.187 90.4714 157.276 90.5105 157.337C90.5313 157.359 90.5566 157.377 90.5846 157.389C90.6127 157.401 90.6429 157.407 90.6735 157.407C90.7041 157.407 90.7344 157.401 90.7624 157.389C90.7905 157.377 90.8157 157.359 90.8366 157.337C90.9171 157.241 90.9615 157.12 90.962 156.995C90.9754 156.858 90.9754 156.719 90.962 156.582C90.9583 156.424 90.8956 156.274 90.7864 156.16C90.6949 156.093 90.5891 156.047 90.477 156.027C90.3241 155.973 90.1597 155.961 90.0004 155.991C89.9231 156.016 89.8499 156.053 89.783 156.099C89.6882 156.16 89.5953 156.222 89.5042 156.285C89.4011 156.357 89.206 156.501 89.3955 156.579C89.5154 156.635 89.6743 156.612 89.7662 156.718Z" fill="#72351C"/>
<path d="M90.2793 163.269H90.6026L90.8814 163.297H90.7894L90.2793 163.269Z" fill="#F0E4E4"/>
<path d="M90.2793 163.336H90.6026L90.8814 163.364H90.7894L90.2793 163.336Z" fill="#F0E4E4"/>
<path d="M90.2793 163.405H90.6026L90.8814 163.433H90.7894L90.2793 163.405Z" fill="#F0E4E4"/>
<path d="M90.2793 163.472H90.6026L90.8814 163.5H90.7894L90.2793 163.472Z" fill="#F0E4E4"/>
<path d="M90.1396 167.154H90.463L90.7417 167.182H90.6442L90.1396 167.154Z" fill="#F0E4E4"/>
<path d="M90.1396 167.224H90.463L90.7417 167.251H90.6442L90.1396 167.224Z" fill="#F0E4E4"/>
<path d="M90.1396 167.29H90.463L90.7417 167.318H90.6442L90.1396 167.29Z" fill="#F0E4E4"/>
<path d="M90.1396 167.357H90.463L90.7417 167.385H90.6442L90.1396 167.357Z" fill="#F0E4E4"/>
<defs>
<linearGradient id="paint0_linear" x1="164.514" y1="247.831" x2="164.514" y2="163.491" gradientUnits="userSpaceOnUse">
<stop stop-color="#808080" stop-opacity="0.25"/>
<stop offset="0.54" stop-color="#808080" stop-opacity="0.12"/>
<stop offset="1" stop-color="#808080" stop-opacity="0.1"/>
</linearGradient>
<linearGradient id="paint1_linear" x1="117543" y1="90045.9" x2="117543" y2="21.835" gradientUnits="userSpaceOnUse">
<stop stop-color="#808080" stop-opacity="0.25"/>
<stop offset="0.54" stop-color="#808080" stop-opacity="0.12"/>
<stop offset="1" stop-color="#808080" stop-opacity="0.1"/>
</linearGradient>
<linearGradient id="paint2_linear" x1="3973.64" y1="7471.41" x2="3973.64" y2="6623.69" gradientUnits="userSpaceOnUse">
<stop stop-color="#808080" stop-opacity="0.25"/>
<stop offset="0.54" stop-color="#808080" stop-opacity="0.12"/>
<stop offset="1" stop-color="#808080" stop-opacity="0.1"/>
</linearGradient>
</defs>
</svg>