<svg width="323" height="222" viewBox="0 0 323 222" fill="none" xmlns="http://www.w3.org/2000/svg">
<path d="M313.139 0.577637H28.8891C27.5877 0.583211 26.3002 0.845952 25.1001 1.35084C23.9 1.85573 22.811 2.59286 21.8952 3.52009C20.9794 4.44732 20.2549 5.54646 19.763 6.75468C19.2711 7.96289 19.0215 9.25648 19.0285 10.5615V211.019C19.0215 212.324 19.2711 213.617 19.763 214.826C20.2549 216.034 20.9794 217.133 21.8952 218.06C22.811 218.988 23.9 219.725 25.1001 220.23C26.3002 220.734 27.5877 220.997 28.8891 221.003H313.139C314.441 220.997 315.728 220.734 316.928 220.23C318.128 219.725 319.217 218.988 320.133 218.06C321.049 217.133 321.774 216.034 322.265 214.826C322.757 213.617 323.007 212.324 323 211.019V10.5615C323.007 9.25648 322.757 7.96289 322.265 6.75468C321.774 5.54646 321.049 4.44732 320.133 3.52009C319.217 2.59286 318.128 1.85573 316.928 1.35084C315.728 0.845952 314.441 0.583211 313.139 0.577637Z" fill="url(#paint0_linear)"/>
<path d="M321.714 21.8149V208.628C321.714 211.228 320.684 213.722 318.851 215.56C317.018 217.398 314.531 218.431 311.939 218.431H30.1993C27.6066 218.431 25.1201 217.398 23.2868 215.56C21.4535 213.722 20.4236 211.228 20.4236 208.628V21.8149H321.714Z" fill="#F6F7F9"/>
<path d="M94.0212 118.103V218.428H30.1993C24.8022 218.428 20.4236 213.952 20.4236 208.433V118.103H94.0212Z" fill="#DDE1EC"/>
<path d="M238.537 44.6874H115.873V48.1454H238.537V44.6874Z" fill="#DDE1EC"/>
<path d="M189.853 69.2872H115.873V72.7452H189.853V69.2872Z" fill="#DDE1EC"/>
<path d="M231.253 69.2872H206.336V72.7452H231.253V69.2872Z" fill="#DDE1EC"/>
<g opacity="0.1">
<path opacity="0.1" d="M67.9562 155.581H43.0393V159.039H67.9562V155.581Z" fill="#6C63FF"/>
</g>
<path d="M231.253 101.576H206.336V105.034H231.253V101.576Z" fill="#DDE1EC"/>
<path d="M231.253 133.865H206.336V137.323H231.253V133.865Z" fill="#DDE1EC"/>
<path d="M231.253 80.0512H206.336V83.5092H231.253V80.0512Z" fill="#DDE1EC"/>
<path d="M274.185 80.0512H249.269V83.5092H274.185V80.0512Z" fill="#DDE1EC"/>
<path d="M231.253 90.8119H206.336V94.2699H231.253V90.8119Z" fill="#DDE1EC"/>
<path d="M274.185 90.8119H249.269V94.2699H274.185V90.8119Z" fill="#DDE1EC"/>
<path d="M274.185 110.801H249.269V114.259H274.185V110.801Z" fill="#DDE1EC"/>
<path d="M274.185 121.565H249.269V125.023H274.185V121.565Z" fill="#DDE1EC"/>
<path d="M274.185 144.629H249.269V148.087H274.185V144.629Z" fill="#DDE1EC"/>
<path d="M189.853 80.0512H115.873V83.5092H189.853V80.0512Z" fill="#DDE1EC"/>
<path d="M189.853 90.8119H115.873V94.2699H189.853V90.8119Z" fill="#DDE1EC"/>
<path d="M189.853 101.576H115.873V105.034H189.853V101.576Z" fill="#DDE1EC"/>
<path d="M189.853 112.34H115.873V115.798H189.853V112.34Z" fill="#DDE1EC"/>
<path d="M189.853 123.101H115.873V126.559H189.853V123.101Z" fill="#DDE1EC"/>
<path d="M189.853 133.865H115.873V137.323H189.853V133.865Z" fill="#DDE1EC"/>
<path d="M189.853 144.629H115.873V148.087H189.853V144.629Z" fill="#DDE1EC"/>
<path d="M94.0212 21.6237H20.4236V120.026H94.0212V21.6237Z" fill="#6C63FF"/>
<path d="M321.714 11.8207C321.713 9.22137 320.683 6.72886 318.85 4.89121C317.017 3.05356 314.531 2.02124 311.939 2.02124H30.1993C27.6066 2.02124 25.1201 3.05405 23.2868 4.89247C21.4535 6.73088 20.4236 9.22431 20.4236 11.8242V22.9714H321.714V11.8207Z" fill="#E8EAF1"/>
<path d="M32.308 16.2432C34.4254 16.2432 36.1419 14.5219 36.1419 12.3986C36.1419 10.2753 34.4254 8.55402 32.308 8.55402C30.1906 8.55402 28.4741 10.2753 28.4741 12.3986C28.4741 14.5219 30.1906 16.2432 32.308 16.2432Z" fill="#FF5252"/>
<path d="M44.9555 16.2432C47.0729 16.2432 48.7894 14.5219 48.7894 12.3986C48.7894 10.2753 47.0729 8.55402 44.9555 8.55402C42.8381 8.55402 41.1216 10.2753 41.1216 12.3986C41.1216 14.5219 42.8381 16.2432 44.9555 16.2432Z" fill="#FFFF00"/>
<path d="M57.6076 16.2432C59.725 16.2432 61.4415 14.5219 61.4415 12.3986C61.4415 10.2753 59.725 8.55402 57.6076 8.55402C55.4902 8.55402 53.7737 10.2753 53.7737 12.3986C53.7737 14.5219 55.4902 16.2432 57.6076 16.2432Z" fill="#69F0AE"/>
<path d="M25.9949 201.443C30.9154 201.443 34.9042 199.974 34.9042 198.162C34.9042 196.35 30.9154 194.881 25.9949 194.881C21.0745 194.881 17.0857 196.35 17.0857 198.162C17.0857 199.974 21.0745 201.443 25.9949 201.443Z" fill="#CD9494"/>
<path opacity="0.05" d="M25.9957 199.471C28.5058 199.471 30.5405 198.721 30.5405 197.797C30.5405 196.872 28.5058 196.123 25.9957 196.123C23.4857 196.123 21.4509 196.872 21.4509 197.797C21.4509 198.721 23.4857 199.471 25.9957 199.471Z" fill="black"/>
<path d="M17.083 197.442C17.083 197.442 26.9012 202.911 34.9015 198.173C34.9015 198.173 33.8122 217.137 28.3549 218.96H21.0867C21.0867 218.96 14.9044 206.181 17.083 197.442Z" fill="#FF7361"/>
<path d="M33.6878 162.685C36.1883 171.846 25.5283 197.942 25.5283 197.942C25.5283 197.942 3.10847 180.918 0.607943 171.761C-0.592256 167.362 -0.000704613 162.665 2.25246 158.704C4.50563 154.742 8.23585 151.841 12.6225 150.637C17.0092 149.433 21.6929 150.027 25.6434 152.286C29.5939 154.546 32.4876 158.286 33.6878 162.685Z" fill="#6C63FF"/>
<path opacity="0.1" d="M33.6878 162.685C36.1883 171.846 25.5283 197.942 25.5283 197.942C25.5283 197.942 3.10847 180.918 0.607943 171.761C-0.592256 167.362 -0.000704613 162.665 2.25246 158.704C4.50563 154.742 8.23585 151.841 12.6225 150.637C17.0092 149.433 21.6929 150.027 25.6434 152.286C29.5939 154.546 32.4876 158.286 33.6878 162.685Z" fill="black"/>
<path d="M12.7134 150.687C12.7134 150.687 26.6697 171.814 25.6192 197.988" stroke="#535461" stroke-miterlimit="10"/>
<path d="M37.25 179.425C37.25 179.425 24.5811 172.52 26.1974 198.006C26.1974 198.006 36.7548 197.627 40.5003 188.99C41.2321 187.311 41.3246 185.421 40.7601 183.678C40.1957 181.935 39.0135 180.459 37.4374 179.531L37.25 179.425Z" fill="#6C63FF"/>
<path d="M37.458 179.468C37.458 179.468 35.824 192.697 26.1968 198.006" stroke="#535461" stroke-miterlimit="10"/>
<path opacity="0.05" d="M33.7122 198.779C33.3585 203.142 31.8341 216.69 27.2681 218.219H20.7498C20.9584 218.683 21.0858 218.949 21.0858 218.949H28.361C33.8112 217.123 34.9041 198.152 34.9041 198.152C34.5177 198.381 34.1198 198.591 33.7122 198.779Z" fill="black"/>
<path d="M189.853 168.267H115.873V211.32H189.853V168.267Z" fill="#DDE1EC"/>
<path d="M158.138 158.56L253.2 58.7677C255.447 56.4124 258.534 55.0477 261.783 54.9732C265.033 54.8987 268.179 56.1206 270.531 58.3705C272.879 60.6234 274.24 63.7191 274.315 66.9776C274.389 70.2361 273.17 73.3909 270.927 75.7491L175.878 175.556L149.798 185.132L158.138 158.56Z" fill="#6C63FF"/>
<path opacity="0.1" d="M265.35 56.6007C267.699 58.8537 269.06 61.9494 269.134 65.2079C269.208 68.4664 267.99 71.6212 265.746 73.9794L170.687 173.772L151.107 180.954L149.784 185.125L175.865 175.549L270.938 75.7917C273.182 73.4335 274.4 70.2787 274.326 67.0202C274.252 63.7617 272.891 60.6661 270.542 58.4131C268.584 56.5314 266.056 55.3572 263.359 55.0757C264.072 55.5148 264.74 56.0258 265.35 56.6007Z" fill="white"/>
<path d="M158.138 158.564L175.878 175.556L154.481 183.408L149.798 185.125L152.765 175.68L158.138 158.564Z" fill="#EFC8C4"/>
<path d="M152.766 175.676C153.415 175.803 154.035 176.052 154.591 176.41C155.235 176.875 155.701 177.68 155.525 178.453C155.351 178.935 155.102 179.386 154.789 179.79C154.469 180.331 154.276 180.938 154.222 181.564C154.169 182.19 154.258 182.821 154.481 183.408L149.784 185.125L152.766 175.676Z" fill="#727A9C"/>
<defs>
<linearGradient id="paint0_linear" x1="171.016" y1="221.003" x2="171.016" y2="0.577637" gradientUnits="userSpaceOnUse">
<stop stop-color="#808080" stop-opacity="0.25"/>
<stop offset="0.54" stop-color="#808080" stop-opacity="0.12"/>
<stop offset="1" stop-color="#808080" stop-opacity="0.1"/>
</linearGradient>
</defs>
</svg>