<svg width="209" height="118" viewBox="0 0 209 118" fill="none" xmlns="http://www.w3.org/2000/svg">
<path opacity="0.1" d="M203.904 109.469C203.717 109.606 203.544 109.74 203.361 109.869C202.684 110.35 201.975 110.783 201.239 111.167C197.386 113.206 192.636 114.201 188.009 114.877C177.632 116.395 167.038 116.69 156.489 116.979C127.985 117.765 99.4122 118.548 70.9778 116.739C59.7434 116.025 48.2618 114.83 38.0815 111.167C36.6223 110.644 35.1917 110.067 33.7899 109.436C30.9532 108.156 28.2289 106.599 25.9633 104.739C23.8343 102.996 22.108 100.994 21.0763 98.7169C18.9249 93.9757 20.0633 88.6502 22.5199 84.0029C23.5402 82.1228 24.6908 80.3169 25.9633 78.5985C27.86 75.9818 29.9515 73.4402 31.8595 70.8254C38.6488 61.5307 43.079 49.7715 36.812 40.2383C35.0107 37.4995 32.4081 35.095 30.9401 32.236C29.0677 28.5786 29.2119 24.5174 29.8073 20.5726C29.8847 20.0716 29.9665 19.5757 30.0526 19.0848C31.0693 13.2353 32.9829 6.93299 38.8829 3.28124C45.0113 -0.513273 53.7142 -0.321669 61.3199 1.02707C73.1479 3.14599 84.0585 7.55664 95.0851 11.539C106.112 15.5214 117.648 19.16 129.766 19.5507C140.467 19.8963 152.948 17.3097 160.05 10.5866C166.948 4.05705 179.914 3.55925 189.26 7.50404C195.675 10.2109 200.46 15.0874 202.479 20.5726C202.888 21.6738 203.182 22.8144 203.357 23.9764C203.519 25.0382 203.572 26.114 203.514 27.1867C203.486 27.7164 203.432 28.2405 203.357 28.7589C201.795 39.5827 190.555 48.1203 183.723 57.7888C180.384 62.5113 178.027 68.1843 180.323 73.2768C183.824 81.0368 196 83.7962 203.353 89.5707C204.737 90.6216 205.955 91.8754 206.967 93.29C210.534 98.4295 209.218 105.37 203.904 109.469Z" fill="#6C63FF"/>
<path d="M48.2752 61.0266C48.2752 61.0266 39.6621 45.7133 26.6826 41.3026C21.2358 39.4505 16.4817 35.9678 13.2312 31.2077C11.6924 28.9477 10.3636 26.5508 9.26172 24.047" stroke="#535461" stroke-width="2" stroke-miterlimit="10"/>
<path d="M1.09976 21.2124C2.57896 22.6457 9.46568 24.1485 9.46568 24.1485C9.46568 24.1485 7.78051 17.2883 6.29756 15.8475C5.58472 15.1703 4.63459 14.8022 3.65307 14.823C2.67156 14.8437 1.73773 15.2517 1.05396 15.9584C0.370194 16.6652 -0.00843007 17.6138 0.000142458 18.5986C0.00871499 19.5835 0.403793 20.5253 1.09976 21.22V21.2124Z" fill="#6C63FF"/>
<path d="M4.99611 33.6272C7.01644 34.0292 13.6092 31.5252 13.6092 31.5252C13.6092 31.5252 8.46943 26.6863 6.44723 26.2843C5.48615 26.1145 4.49701 26.3292 3.69181 26.8823C2.8866 27.4354 2.3294 28.2829 2.13962 29.2433C1.94984 30.2036 2.14258 31.2003 2.67653 32.0198C3.21048 32.8393 4.04316 33.4163 4.99611 33.6272Z" fill="#6C63FF"/>
<path d="M19.1798 47.0658C21.1271 46.3896 25.546 40.8913 25.546 40.8913C25.546 40.8913 18.678 39.3153 16.7325 39.9915C16.2552 40.1403 15.8125 40.3837 15.4307 40.7074C15.049 41.0312 14.7359 41.4285 14.5102 41.8759C14.2844 42.3233 14.1506 42.8117 14.1166 43.312C14.0825 43.8123 14.1491 44.3143 14.3122 44.7884C14.4753 45.2624 14.7316 45.6987 15.066 46.0714C15.4004 46.4441 15.8061 46.7456 16.2588 46.9581C16.7116 47.1705 17.2023 47.2895 17.7018 47.308C18.2014 47.3265 18.6995 47.2442 19.1667 47.0658H19.1798Z" fill="#6C63FF"/>
<path d="M32.193 54.8032C34.2264 54.4651 39.5141 49.7971 39.5141 49.7971C39.5141 49.7971 33.0113 47.0789 30.9778 47.4152C30.0013 47.5768 29.1287 48.1211 28.5522 48.9281C27.9756 49.7352 27.7422 50.739 27.9033 51.7187C28.0645 52.6984 28.6069 53.5738 29.4114 54.1523C30.2159 54.7307 31.2165 54.9648 32.193 54.8032Z" fill="#6C63FF"/>
<path d="M19.3463 26.1641C19.3463 28.2304 15.6202 34.2284 15.6202 34.2284C15.6202 34.2284 11.8866 28.2342 11.8847 26.1679C11.8736 25.6693 11.9619 25.1735 12.1443 24.7096C12.3268 24.2457 12.5999 23.8231 12.9474 23.4666C13.2949 23.11 13.71 22.8267 14.1682 22.6333C14.6263 22.4398 15.1184 22.3402 15.6155 22.3402C16.1126 22.3402 16.6047 22.4398 17.0628 22.6333C17.521 22.8267 17.9361 23.11 18.2836 23.4666C18.6311 23.8231 18.9042 24.2457 19.0867 24.7096C19.2691 25.1735 19.3574 25.6693 19.3463 26.1679V26.1641Z" fill="#6C63FF"/>
<path d="M34.4531 35.4193C33.837 37.3917 28.4913 41.994 28.4913 41.994C28.4913 41.994 26.7163 35.1469 27.3248 33.1651C27.6519 32.2578 28.3155 31.5121 29.1773 31.0837C30.0391 30.6553 31.0324 30.5772 31.9502 30.8658C32.8679 31.1544 33.6392 31.7873 34.1031 32.6325C34.567 33.4778 34.6876 34.4701 34.44 35.4024L34.4531 35.4193Z" fill="#6C63FF"/>
<path d="M47.9042 46.4177C47.6309 48.4671 43.1371 53.9091 43.1371 53.9091C43.1371 53.9091 40.2349 47.4697 40.5157 45.4202C40.6611 44.4482 41.1818 43.5724 41.9653 42.9822C42.7488 42.3919 43.7322 42.1345 44.7033 42.2654C45.6744 42.3964 46.5551 42.9053 47.1554 43.6822C47.7557 44.459 48.0274 45.4416 47.9117 46.4177H47.9042Z" fill="#6C63FF"/>
<path opacity="0.25" d="M1.09976 21.2124C2.57896 22.6457 9.46568 24.1485 9.46568 24.1485C9.46568 24.1485 7.78051 17.2883 6.29756 15.8475C5.58472 15.1703 4.63459 14.8022 3.65307 14.823C2.67156 14.8437 1.73773 15.2517 1.05396 15.9584C0.370194 16.6652 -0.00843007 17.6138 0.000142458 18.5986C0.00871499 19.5835 0.403793 20.5253 1.09976 21.22V21.2124Z" fill="black"/>
<path opacity="0.25" d="M4.99611 33.6272C7.01644 34.0292 13.6092 31.5252 13.6092 31.5252C13.6092 31.5252 8.46943 26.6863 6.44723 26.2843C5.48615 26.1145 4.49701 26.3292 3.69181 26.8823C2.8866 27.4354 2.3294 28.2829 2.13962 29.2433C1.94984 30.2036 2.14258 31.2003 2.67653 32.0198C3.21048 32.8393 4.04316 33.4163 4.99611 33.6272Z" fill="black"/>
<path opacity="0.25" d="M19.1798 47.0658C21.1271 46.3896 25.546 40.8913 25.546 40.8913C25.546 40.8913 18.678 39.3153 16.7325 39.9915C16.2552 40.1403 15.8125 40.3837 15.4307 40.7074C15.049 41.0312 14.7359 41.4285 14.5102 41.8759C14.2844 42.3233 14.1506 42.8117 14.1166 43.312C14.0825 43.8123 14.1491 44.3143 14.3122 44.7884C14.4753 45.2624 14.7316 45.6987 15.066 46.0714C15.4004 46.4441 15.8061 46.7456 16.2588 46.9581C16.7116 47.1705 17.2023 47.2895 17.7018 47.308C18.2014 47.3265 18.6995 47.2442 19.1667 47.0658H19.1798Z" fill="black"/>
<path opacity="0.25" d="M32.193 54.8032C34.2264 54.4651 39.5141 49.7971 39.5141 49.7971C39.5141 49.7971 33.0113 47.0789 30.9778 47.4152C30.0013 47.5768 29.1287 48.1211 28.5522 48.9281C27.9756 49.7352 27.7422 50.739 27.9033 51.7187C28.0645 52.6984 28.6069 53.5738 29.4114 54.1523C30.2159 54.7307 31.2165 54.9648 32.193 54.8032Z" fill="black"/>
<path opacity="0.25" d="M19.3463 26.1641C19.3463 28.2304 15.6202 34.2284 15.6202 34.2284C15.6202 34.2284 11.8866 28.2342 11.8847 26.1679C11.8736 25.6693 11.9619 25.1735 12.1443 24.7096C12.3268 24.2457 12.5999 23.8231 12.9474 23.4666C13.2949 23.11 13.71 22.8267 14.1682 22.6333C14.6263 22.4398 15.1184 22.3402 15.6155 22.3402C16.1126 22.3402 16.6047 22.4398 17.0628 22.6333C17.521 22.8267 17.9361 23.11 18.2836 23.4666C18.6311 23.8231 18.9042 24.2457 19.0867 24.7096C19.2691 25.1735 19.3574 25.6693 19.3463 26.1679V26.1641Z" fill="black"/>
<path opacity="0.25" d="M34.4531 35.4193C33.837 37.3917 28.4913 41.994 28.4913 41.994C28.4913 41.994 26.7163 35.1469 27.3248 33.1651C27.6519 32.2578 28.3155 31.5121 29.1773 31.0837C30.0391 30.6553 31.0324 30.5772 31.9502 30.8658C32.8679 31.1544 33.6392 31.7873 34.1031 32.6325C34.567 33.4778 34.6876 34.4701 34.44 35.4024L34.4531 35.4193Z" fill="black"/>
<path opacity="0.25" d="M47.9042 46.4177C47.6309 48.4671 43.1371 53.9091 43.1371 53.9091C43.1371 53.9091 40.2349 47.4697 40.5157 45.4202C40.6611 44.4482 41.1818 43.5724 41.9653 42.9822C42.7488 42.3919 43.7322 42.1345 44.7033 42.2654C45.6744 42.3964 46.5551 42.9053 47.1554 43.6822C47.7557 44.459 48.0274 45.4416 47.9117 46.4177H47.9042Z" fill="black"/>
<path d="M47.7789 60.7223C47.7789 60.7223 46.0937 43.2187 36.0052 33.909C31.7754 30.0018 28.8357 24.8924 27.7853 19.2119C27.2923 16.5195 27.0466 13.7874 27.0513 11.0499" stroke="#535461" stroke-width="2" stroke-miterlimit="10"/>
<path d="M20.732 5.14583C21.5034 7.06375 27.1974 11.2246 27.1974 11.2246C27.1974 11.2246 28.4238 4.26483 27.6543 2.34691C27.2843 1.42524 26.5646 0.688758 25.6533 0.299487C24.7421 -0.0897843 23.7141 -0.0999588 22.7954 0.271201C21.8767 0.642361 21.1426 1.36445 20.7546 2.27862C20.3666 3.19279 20.3564 4.22416 20.7264 5.14583H20.732Z" fill="#6C63FF"/>
<path d="M19.2735 18.0791C20.9587 19.2681 27.9933 19.657 27.9933 19.657C27.9933 19.657 25.2652 13.1462 23.5801 11.9571C22.7709 11.3842 21.768 11.1572 20.7919 11.3262C19.8159 11.4951 18.9468 12.046 18.3757 12.8579C17.8046 13.6697 17.5784 14.6759 17.7468 15.655C17.9151 16.6342 18.4643 17.5061 19.2735 18.0791Z" fill="#6C63FF"/>
<path d="M26.8212 36.1274C28.8809 36.3021 35.1422 33.073 35.1422 33.073C35.1422 33.073 29.5006 28.8408 27.4466 28.668C26.9524 28.6152 26.4526 28.662 25.9767 28.8056C25.5007 28.9492 25.0582 29.1868 24.675 29.5044C24.2918 29.8219 23.9757 30.213 23.7452 30.6548C23.5148 31.0966 23.3746 31.5801 23.333 32.077C23.2913 32.5739 23.349 33.0741 23.5027 33.5483C23.6563 34.0224 23.9029 34.4611 24.2278 34.8384C24.5527 35.2157 24.9495 35.5241 25.3949 35.7454C25.8402 35.9668 26.3252 36.0967 26.8212 36.1274Z" fill="#6C63FF"/>
<path d="M35.5916 48.4954C37.5876 49.0138 44.3076 46.8949 44.3076 46.8949C44.3076 46.8949 39.46 41.7667 37.4658 41.2482C36.514 41.0169 35.5096 41.1702 34.6694 41.6752C33.8292 42.1801 33.2206 42.9962 32.9749 43.9474C32.7291 44.8986 32.8659 45.9085 33.3558 46.7593C33.8457 47.6102 34.6494 48.2337 35.5934 48.4954H35.5916Z" fill="#6C63FF"/>
<path d="M35.4135 17.091C34.5803 18.9808 28.7496 22.9462 28.7496 22.9462C28.7496 22.9462 27.7572 15.9508 28.5905 14.0592C28.7834 13.6015 29.0653 13.187 29.4196 12.8397C29.7739 12.4925 30.1936 12.2195 30.6542 12.0366C31.1147 11.8538 31.607 11.7647 32.1022 11.7747C32.5974 11.7846 33.0857 11.8934 33.5386 12.0947C33.9915 12.2959 34.3999 12.5856 34.74 12.9468C35.0802 13.308 35.3452 13.7336 35.5197 14.1986C35.6943 14.6637 35.7748 15.159 35.7565 15.6555C35.7383 16.1521 35.6217 16.6401 35.4135 17.091Z" fill="#6C63FF"/>
<path d="M45.487 31.683C44.1276 33.2365 37.3813 35.2709 37.3813 35.2709C37.3813 35.2709 38.5198 28.298 39.881 26.7445C40.2042 26.3752 40.5968 26.0734 41.0363 25.8563C41.4757 25.6392 41.9535 25.5111 42.4424 25.4793C42.9312 25.4475 43.4215 25.5125 43.8853 25.6708C44.349 25.8291 44.7772 26.0774 45.1453 26.4017C45.5134 26.7259 45.8142 27.1198 46.0306 27.5607C46.247 28.0016 46.3747 28.4809 46.4064 28.9713C46.4381 29.4618 46.3733 29.9536 46.2155 30.4189C46.0578 30.8842 45.8102 31.3137 45.487 31.683Z" fill="#6C63FF"/>
<path d="M53.351 47.216C52.2725 48.978 45.9662 52.1263 45.9662 52.1263C45.9662 52.1263 45.9138 45.0595 46.9923 43.2975C47.5103 42.4506 48.3424 41.8448 49.3055 41.6133C50.2687 41.3819 51.2841 41.5438 52.1283 42.0634C52.9725 42.583 53.5764 43.4178 53.8071 44.3841C54.0378 45.3504 53.8764 46.3691 53.3585 47.216H53.351Z" fill="#6C63FF"/>
<path d="M203.706 109.831V17.9495H25.5742V104.56C27.8492 106.465 30.5848 108.067 33.4383 109.384C34.8439 110.034 36.2794 110.628 37.7449 111.167H201.581L203.706 109.831Z" fill="url(#paint0_linear)"/>
<path d="M203.361 109.869V20.5793H25.9634V104.754C28.229 106.606 30.9533 108.163 33.79 109.45C35.1906 110.076 36.6211 110.653 38.0816 111.182H201.239L203.361 109.869Z" fill="white"/>
<path d="M203.361 18.2106H25.9653V22.933H203.361V18.2106Z" fill="#5A5773"/>
<path d="M29.5081 21.7928C30.1802 21.7928 30.7251 21.2462 30.7251 20.5718C30.7251 19.8975 30.1802 19.3508 29.5081 19.3508C28.8359 19.3508 28.291 19.8975 28.291 20.5718C28.291 21.2462 28.8359 21.7928 29.5081 21.7928Z" fill="white"/>
<path d="M32.7849 21.7928C33.4571 21.7928 34.002 21.2462 34.002 20.5718C34.002 19.8975 33.4571 19.3508 32.7849 19.3508C32.1128 19.3508 31.5679 19.8975 31.5679 20.5718C31.5679 21.2462 32.1128 21.7928 32.7849 21.7928Z" fill="white"/>
<path d="M36.0613 21.7928C36.7335 21.7928 37.2784 21.2462 37.2784 20.5718C37.2784 19.8975 36.7335 19.3508 36.0613 19.3508C35.3891 19.3508 34.8442 19.8975 34.8442 20.5718C34.8442 21.2462 35.3891 21.7928 36.0613 21.7928Z" fill="white"/>
<path d="M100.601 33.3116H71.2979V51.7845H100.601V33.3116Z" fill="#6C63FF"/>
<path opacity="0.2" d="M60.0278 33.3116H30.7246V51.7845H60.0278V33.3116Z" fill="#5A5773"/>
<path opacity="0.2" d="M141.174 33.3116H111.871V51.7845H141.174V33.3116Z" fill="#5A5773"/>
<path opacity="0.2" d="M60.0278 59.7211H30.7246V78.194H60.0278V59.7211Z" fill="#5A5773"/>
<path opacity="0.2" d="M100.601 59.7211H71.2979V78.194H100.601V59.7211Z" fill="#5A5773"/>
<path opacity="0.2" d="M141.174 59.7211H111.871V78.194H141.174V59.7211Z" fill="#5A5773"/>
<path opacity="0.2" d="M60.0278 86.1285H30.7246V104.601H60.0278V86.1285Z" fill="#5A5773"/>
<path opacity="0.2" d="M100.601 86.1285H71.2979V104.601H100.601V86.1285Z" fill="#5A5773"/>
<path opacity="0.2" d="M141.174 86.1285H111.871V104.601H141.174V86.1285Z" fill="#5A5773"/>
<path opacity="0.1" d="M154.856 5.67929C154.856 5.67929 147.732 5.24912 148.572 10.2571C148.572 10.2571 148.406 11.1419 149.205 11.5439C149.205 11.5439 149.218 11.1682 149.935 11.2978C150.191 11.3409 150.45 11.3535 150.709 11.3354C151.058 11.3111 151.389 11.1733 151.652 10.9428C151.652 10.9428 153.654 10.1144 154.433 6.83079C154.433 6.83079 155.01 6.11322 154.995 5.92913L153.793 6.4457C153.793 6.4457 154.203 7.31544 153.879 8.03865C153.879 8.03865 153.841 6.47576 153.609 6.51333C153.562 6.51333 152.986 6.81389 152.986 6.81389C152.986 6.81389 153.692 8.32981 153.158 9.43247C153.158 9.43247 153.36 7.56527 152.765 6.92472L151.915 7.43002C151.915 7.43002 152.74 8.99479 152.18 10.2721C152.18 10.2721 152.325 8.3129 151.737 7.55025L150.969 8.14948C150.969 8.14948 151.746 9.68419 151.278 10.7436C151.278 10.7436 151.216 8.4613 150.808 8.29036C150.808 8.29036 150.138 8.88396 150.037 9.12816C150.037 9.12816 150.566 10.2552 150.237 10.8376C150.237 10.8376 150.035 9.31976 149.862 9.31225C149.862 9.31225 149.194 10.3191 149.125 11.0029C149.157 10.3648 149.355 9.74643 149.7 9.20893C149.314 9.28216 148.958 9.46771 148.677 9.74242C148.677 9.74242 148.78 9.03048 149.864 8.96661C149.864 8.96661 150.417 8.20395 150.565 8.15699C150.565 8.15699 149.486 8.06682 148.833 8.35799C148.833 8.35799 149.407 7.68549 150.763 7.98229L151.512 7.3624C151.512 7.3624 150.093 7.17455 149.49 7.38306C149.49 7.38306 150.183 6.78946 151.716 7.22151L152.54 6.72748C152.54 6.72748 151.33 6.46449 150.61 6.56029C150.61 6.56029 151.37 6.14891 152.782 6.5941L153.371 6.32924C153.371 6.32924 152.484 6.15454 152.225 6.12637C151.967 6.09819 151.952 6.02681 151.952 6.02681C152.514 5.93305 153.09 5.9981 153.617 6.21465C153.617 6.21465 154.877 5.75819 154.856 5.67929Z" fill="#6C63FF"/>
<path opacity="0.1" d="M144.702 1.61804C144.702 1.61804 138.711 5.50836 142.345 9.04176C142.345 9.04176 142.733 9.85326 143.615 9.70298C143.615 9.70298 143.405 9.39491 144.058 9.06994C144.29 8.95292 144.507 8.8085 144.704 8.63977C144.971 8.41278 145.157 8.10487 145.234 7.76252C145.234 7.76252 146.358 5.90284 145.047 2.79584C145.047 2.79584 145.088 1.87539 144.961 1.74014L144.298 2.86723C144.298 2.86723 145.142 3.32369 145.309 4.09762C145.309 4.09762 144.356 2.86347 144.186 3.03065C144.152 3.06447 143.86 3.64491 143.86 3.64491C143.86 3.64491 145.326 4.44514 145.545 5.64924C145.545 5.64924 144.609 4.02436 143.746 3.86469L143.356 4.76636C143.356 4.76636 144.948 5.53653 145.251 6.89842C145.251 6.89842 144.208 5.2341 143.285 4.96923L143.023 5.90847C143.023 5.90847 144.558 6.68991 144.804 7.82451C144.804 7.82451 143.407 6.02494 142.976 6.13389C142.976 6.13389 142.789 7.00925 142.849 7.26097C142.849 7.26097 143.938 7.84705 144.021 8.51955C144.021 8.51955 142.961 7.41688 142.824 7.50893C142.824 7.50893 142.881 8.71678 143.231 9.31414C142.881 8.7808 142.675 8.16503 142.635 7.52771C142.368 7.81586 142.191 8.17642 142.126 8.56463C142.126 8.56463 141.789 7.92971 142.626 7.23467C142.626 7.23467 142.626 6.29544 142.71 6.16582C142.71 6.16582 141.789 6.72936 141.433 7.35677C141.433 7.35677 141.501 6.47389 142.772 5.91411L143.015 4.96548C143.015 4.96548 141.757 5.653 141.399 6.18461C141.399 6.18461 141.607 5.29421 143.096 4.73067L143.47 3.84215C143.47 3.84215 142.347 4.35122 141.815 4.85653C141.815 4.85653 142.19 4.07133 143.586 3.59232L143.905 3.02877C143.905 3.02877 143.086 3.41574 142.862 3.54723C142.637 3.67873 142.583 3.62988 142.583 3.62988C142.98 3.2204 143.482 2.92968 144.034 2.79021C144.034 2.79021 144.766 1.67064 144.702 1.61804Z" fill="#6C63FF"/>
<path opacity="0.1" d="M135.584 6.15082C135.584 6.15082 132.002 12.3498 136.838 13.8394C136.838 13.8394 137.552 14.386 138.269 13.8394C138.269 13.8394 137.945 13.6628 138.379 13.0749C138.53 12.865 138.656 12.638 138.754 12.3986C138.889 12.0747 138.916 11.7154 138.83 11.3748C138.83 11.3748 138.99 9.20709 136.415 7.0337C136.415 7.0337 136.041 6.1959 135.853 6.13391L135.773 7.44884C135.773 7.44884 136.731 7.47138 137.231 8.08564C137.231 8.08564 135.823 7.41879 135.752 7.64232C135.737 7.68741 135.739 8.33736 135.739 8.33736C135.739 8.33736 137.422 8.38808 138.171 9.36112C138.171 9.36112 136.598 8.34111 135.762 8.58907L135.821 9.56963C135.821 9.56963 137.587 9.53207 138.473 10.6084C138.473 10.6084 136.788 9.59969 135.851 9.78378L136.039 10.7399C136.039 10.7399 137.761 10.7399 138.492 11.6378C138.492 11.6378 136.432 10.6685 136.097 10.9559C136.097 10.9559 136.323 11.8238 136.496 12.0248C136.496 12.0248 137.731 12.0511 138.11 12.6128C138.11 12.6128 136.666 12.1112 136.585 12.2577C136.585 12.2577 137.183 13.3078 137.765 13.6797C137.212 13.3655 136.751 12.9123 136.426 12.3648C136.319 12.7431 136.324 13.1447 136.441 13.5201C136.441 13.5201 135.853 13.1087 136.284 12.1074C136.284 12.1074 135.853 11.2697 135.878 11.1175C135.878 11.1175 135.316 12.0436 135.278 12.7593C135.278 12.7593 134.938 11.9421 135.818 10.8658L135.606 9.90776C135.606 9.90776 134.795 11.0931 134.717 11.7299C134.717 11.7299 134.5 10.8414 135.572 9.66356L135.501 8.70366C135.501 8.70366 134.726 9.67107 134.486 10.3605C134.486 10.3605 134.46 9.49262 135.492 8.42752L135.52 7.77945C135.52 7.77945 134.958 8.49515 134.825 8.71869C134.692 8.94223 134.614 8.91029 134.614 8.91029C134.782 8.36436 135.099 7.87603 135.527 7.49956C135.527 7.49956 135.662 6.16772 135.584 6.15082Z" fill="#6C63FF"/>
<path d="M166.338 76.8152C165.808 76.8152 165.29 76.9728 164.849 77.2682C164.409 77.5636 164.065 77.9834 163.863 78.4746C163.66 78.9658 163.607 79.5063 163.71 80.0277C163.813 80.5491 164.069 81.0281 164.443 81.404C164.818 81.78 165.296 82.036 165.815 82.1397C166.335 82.2434 166.874 82.1902 167.363 81.9867C167.853 81.7833 168.271 81.4388 168.566 80.9967C168.86 80.5546 169.017 80.0349 169.017 79.5033C169.015 78.791 168.733 78.1084 168.23 77.6047C167.728 77.101 167.048 76.8172 166.338 76.8152ZM158.504 55.7218V58.4099H161.183L166.007 68.2118L163.99 71.5047C163.77 71.8942 163.654 72.3344 163.655 72.7821C163.655 74.5817 164.881 75.4702 166.544 75.4702H182.21V72.8854H166.872C166.827 72.8882 166.782 72.8813 166.74 72.8654C166.698 72.8495 166.66 72.8248 166.629 72.793C166.597 72.7612 166.572 72.7231 166.556 72.681C166.541 72.639 166.534 72.594 166.537 72.5492C166.572 72.4329 166.62 72.3208 166.679 72.2148L168.018 70.094H177.999C178.482 70.098 178.956 69.9684 179.369 69.7195C179.783 69.4706 180.12 69.112 180.344 68.6833L185.169 60.3598C185.263 60.1484 185.309 59.9187 185.304 59.6873C185.302 59.5143 185.265 59.3435 185.196 59.1849C185.128 59.0263 185.028 58.8832 184.903 58.7641C184.778 58.645 184.63 58.5523 184.469 58.4914C184.307 58.4306 184.135 58.4029 183.963 58.4099H164.132L162.859 55.7218H158.504ZM179.529 76.8152C178.999 76.8155 178.481 76.9735 178.041 77.2691C177.601 77.5647 177.258 77.9847 177.055 78.4759C176.853 78.9671 176.8 79.5075 176.903 80.0288C177.007 80.5502 177.262 81.0289 177.637 81.4047C178.012 81.7804 178.489 82.0363 179.009 82.1398C179.529 82.2434 180.067 82.1901 180.557 81.9866C181.046 81.7831 181.465 81.4385 181.759 80.9965C182.053 80.5545 182.21 80.0348 182.21 79.5033C182.208 78.7906 181.925 78.1078 181.423 77.604C180.92 77.1003 180.239 76.8167 179.529 76.8152Z" fill="#6C63FF"/>
<path d="M176.101 63.1587H173.854V60.9045H172.169V63.1587H169.922V64.8493H172.169V67.1035H173.854V64.8493H176.101V63.1587Z" fill="white"/>
<defs>
<linearGradient id="paint0_linear" x1="114.639" y1="111.167" x2="114.639" y2="17.9495" gradientUnits="userSpaceOnUse">
<stop stop-color="#808080" stop-opacity="0.25"/>
<stop offset="0.54" stop-color="#808080" stop-opacity="0.12"/>
<stop offset="1" stop-color="#808080" stop-opacity="0.1"/>
</linearGradient>
</defs>
</svg>