<svg width="163" height="112" viewBox="0 0 163 112" fill="none" xmlns="http://www.w3.org/2000/svg">
<path d="M158.024 0H14.5782C13.9215 0.00281298 13.2718 0.135404 12.6661 0.390193C12.0605 0.644981 11.511 1.01697 11.0488 1.48489C10.5867 1.95281 10.221 2.50749 9.97279 3.11721C9.72455 3.72693 9.5986 4.37974 9.60212 5.0383V106.198C9.5986 106.857 9.72455 107.509 9.97279 108.119C10.221 108.729 10.5867 109.284 11.0488 109.752C11.511 110.219 12.0605 110.591 12.6661 110.846C13.2718 111.101 13.9215 111.234 14.5782 111.236H158.024C158.68 111.234 159.33 111.101 159.936 110.846C160.541 110.591 161.091 110.219 161.553 109.752C162.015 109.284 162.381 108.729 162.629 108.119C162.877 107.509 163.003 106.857 163 106.198V5.0383C163.003 4.37974 162.877 3.72693 162.629 3.11721C162.381 2.50749 162.015 1.95281 161.553 1.48489C161.091 1.01697 160.541 0.644981 159.936 0.390193C159.33 0.135404 158.68 0.00281298 158.024 0Z" fill="url(#paint0_linear)"/>
<path d="M162.352 10.7173V104.992C162.352 106.304 161.832 107.562 160.907 108.49C159.982 109.418 158.727 109.939 157.419 109.939H15.2404C13.932 109.939 12.6772 109.418 11.7521 108.49C10.8269 107.562 10.3071 106.304 10.3071 104.992V10.7173H162.352Z" fill="#F6F7F9"/>
<path d="M47.4478 59.3088V109.937H15.2404C12.5168 109.937 10.3071 107.678 10.3071 104.893V59.3088H47.4478Z" fill="#DDE1EC"/>
<path d="M120.376 22.2598H58.4746V24.0048H120.376V22.2598Z" fill="#DDE1EC"/>
<path d="M95.808 34.674H58.4746V36.419H95.808V34.674Z" fill="#DDE1EC"/>
<path d="M116.702 34.674H104.127V36.419H116.702V34.674Z" fill="#DDE1EC"/>
<g opacity="0.1">
<path opacity="0.1" d="M34.2934 78.2217H21.7192V79.9668H34.2934V78.2217Z" fill="#6C63FF"/>
</g>
<path d="M116.702 50.9683H104.127V52.7133H116.702V50.9683Z" fill="#DDE1EC"/>
<path d="M116.702 67.2627H104.127V69.0078H116.702V67.2627Z" fill="#DDE1EC"/>
<path d="M116.702 40.106H104.127V41.851H116.702V40.106Z" fill="#DDE1EC"/>
<path d="M138.366 40.106H125.792V41.851H138.366V40.106Z" fill="#DDE1EC"/>
<path d="M116.702 45.5363H104.127V47.2813H116.702V45.5363Z" fill="#DDE1EC"/>
<path d="M138.366 45.5363H125.792V47.2813H138.366V45.5363Z" fill="#DDE1EC"/>
<path d="M138.366 55.6235H125.792V57.3686H138.366V55.6235Z" fill="#DDE1EC"/>
<path d="M138.366 61.0557H125.792V62.8007H138.366V61.0557Z" fill="#DDE1EC"/>
<path d="M138.366 72.6947H125.792V74.4398H138.366V72.6947Z" fill="#DDE1EC"/>
<path d="M95.808 40.106H58.4746V41.851H95.808V40.106Z" fill="#DDE1EC"/>
<path d="M95.808 45.5363H58.4746V47.2813H95.808V45.5363Z" fill="#DDE1EC"/>
<path d="M95.808 50.9683H58.4746V52.7133H95.808V50.9683Z" fill="#DDE1EC"/>
<path d="M95.808 56.4004H58.4746V58.1455H95.808V56.4004Z" fill="#DDE1EC"/>
<path d="M95.808 61.8306H58.4746V63.5756H95.808V61.8306Z" fill="#DDE1EC"/>
<path d="M95.808 67.2627H58.4746V69.0078H95.808V67.2627Z" fill="#DDE1EC"/>
<path d="M95.808 72.6947H58.4746V74.4398H95.808V72.6947Z" fill="#DDE1EC"/>
<path d="M47.4478 10.6207H10.3071V60.2789H47.4478V10.6207Z" fill="#6C63FF"/>
<path d="M162.352 5.67375C162.352 4.36203 161.832 3.10419 160.906 2.17683C159.981 1.24947 158.727 0.728516 157.419 0.728516H15.2404C13.932 0.728516 12.6772 1.24972 11.7521 2.17747C10.8269 3.10521 10.3071 4.36351 10.3071 5.67554V11.3009H162.352V5.67375Z" fill="#E8EAF1"/>
<path d="M16.3044 7.90557C17.3729 7.90557 18.2392 7.03693 18.2392 5.96542C18.2392 4.8939 17.3729 4.02527 16.3044 4.02527C15.2359 4.02527 14.3696 4.8939 14.3696 5.96542C14.3696 7.03693 15.2359 7.90557 16.3044 7.90557Z" fill="#FF5252"/>
<path d="M22.6867 7.90557C23.7553 7.90557 24.6215 7.03693 24.6215 5.96542C24.6215 4.8939 23.7553 4.02527 22.6867 4.02527C21.6182 4.02527 20.752 4.8939 20.752 5.96542C20.752 7.03693 21.6182 7.90557 22.6867 7.90557Z" fill="#FFFF00"/>
<path d="M29.071 7.90557C30.1395 7.90557 31.0058 7.03693 31.0058 5.96542C31.0058 4.8939 30.1395 4.02527 29.071 4.02527C28.0025 4.02527 27.1362 4.8939 27.1362 5.96542C27.1362 7.03693 28.0025 7.90557 29.071 7.90557Z" fill="#69F0AE"/>
<path d="M13.1181 101.366C15.6011 101.366 17.6141 100.624 17.6141 99.71C17.6141 98.7957 15.6011 98.0544 13.1181 98.0544C10.635 98.0544 8.62207 98.7957 8.62207 99.71C8.62207 100.624 10.635 101.366 13.1181 101.366Z" fill="#CD9494"/>
<path opacity="0.05" d="M13.1182 100.37C14.3849 100.37 15.4117 99.9923 15.4117 99.5257C15.4117 99.0591 14.3849 98.6809 13.1182 98.6809C11.8515 98.6809 10.8247 99.0591 10.8247 99.5257C10.8247 99.9923 11.8515 100.37 13.1182 100.37Z" fill="black"/>
<path d="M8.62046 99.3468C8.62046 99.3468 13.5752 102.107 17.6125 99.7155C17.6125 99.7155 17.0627 109.286 14.3087 110.206H10.6409C10.6409 110.206 7.521 103.757 8.62046 99.3468Z" fill="#FF7361"/>
<path d="M17.0004 81.8067C18.2622 86.4298 12.8827 99.5992 12.8827 99.5992C12.8827 99.5992 1.56867 91.0081 0.306795 86.3868C-0.298879 84.1669 -0.00035558 81.7967 1.13669 79.7976C2.27374 77.7984 4.15618 76.3341 6.36988 75.7267C8.58359 75.1194 10.9472 75.4187 12.9408 76.5589C14.9344 77.6991 16.3947 79.5868 17.0004 81.8067Z" fill="#6C63FF"/>
<path opacity="0.1" d="M17.0004 81.8067C18.2622 86.4298 12.8827 99.5992 12.8827 99.5992C12.8827 99.5992 1.56867 91.0081 0.306795 86.3868C-0.298879 84.1669 -0.00035558 81.7967 1.13669 79.7976C2.27374 77.7984 4.15618 76.3341 6.36988 75.7267C8.58359 75.1194 10.9472 75.4187 12.9408 76.5589C14.9344 77.6991 16.3947 79.5868 17.0004 81.8067Z" fill="black"/>
<path d="M6.41602 75.7517C6.41602 75.7517 13.459 86.4136 12.9289 99.6224" stroke="#535461" stroke-miterlimit="10"/>
<path d="M18.7975 90.2545C18.7975 90.2545 12.4042 86.7697 13.2199 99.6313C13.2199 99.6313 18.5476 99.4398 20.4377 95.0816C20.807 94.2341 20.8537 93.2802 20.5689 92.4006C20.284 91.5209 19.6874 90.7765 18.8921 90.3082L18.7975 90.2545Z" fill="#6C63FF"/>
<path d="M18.9031 90.276C18.9031 90.276 18.0785 96.952 13.2202 99.6313" stroke="#535461" stroke-miterlimit="10"/>
<path opacity="0.05" d="M17.0126 100.022C16.8341 102.223 16.0649 109.06 13.7606 109.831H10.4712C10.5765 110.066 10.6408 110.2 10.6408 110.2H14.3122C17.0626 109.278 17.6141 99.7047 17.6141 99.7047C17.4191 99.8205 17.2183 99.9262 17.0126 100.022Z" fill="black"/>
<path d="M95.808 84.6238H58.4746V106.35H95.808V84.6238Z" fill="#DDE1EC"/>
<path d="M79.8034 79.7251L127.776 29.3654C128.91 28.1768 130.468 27.4881 132.108 27.4505C133.748 27.4129 135.335 28.0295 136.522 29.1649C137.707 30.3019 138.394 31.8641 138.431 33.5084C138.469 35.1528 137.854 36.7449 136.722 37.935L88.7561 88.3019L75.5947 93.1344L79.8034 79.7251Z" fill="#6C63FF"/>
<path opacity="0.1" d="M133.907 28.2718C135.093 29.4088 135.779 30.971 135.817 32.6154C135.854 34.2597 135.24 35.8518 134.107 37.0419L86.1363 87.4016L76.2554 91.026L75.5879 93.1308L88.7493 88.2983L136.727 37.9565C137.86 36.7664 138.475 35.1743 138.437 33.5299C138.4 31.8856 137.713 30.3234 136.528 29.1864C135.539 28.2368 134.264 27.6443 132.903 27.5022C133.263 27.7238 133.599 27.9817 133.907 28.2718Z" fill="white"/>
<path d="M79.8034 79.7269L88.7561 88.3019L77.9579 92.2645L75.5947 93.1308L77.0922 88.3645L79.8034 79.7269Z" fill="#EFC8C4"/>
<path d="M77.0925 88.3627C77.4201 88.4265 77.7327 88.5522 78.0135 88.7332C78.3383 88.9676 78.5739 89.3739 78.4847 89.7641C78.3968 90.0071 78.2716 90.2348 78.1134 90.4388C77.9521 90.7118 77.8544 91.0177 77.8275 91.3338C77.8006 91.65 77.8453 91.9681 77.9581 92.2645L75.5879 93.1307L77.0925 88.3627Z" fill="#727A9C"/>
<defs>
<linearGradient id="paint0_linear" x1="86.3019" y1="111.236" x2="86.3019" y2="0" gradientUnits="userSpaceOnUse">
<stop stop-color="#808080" stop-opacity="0.25"/>
<stop offset="0.54" stop-color="#808080" stop-opacity="0.12"/>
<stop offset="1" stop-color="#808080" stop-opacity="0.1"/>
</linearGradient>
</defs>
</svg>