<svg width="196" height="127" viewBox="0 0 196 127" fill="none" xmlns="http://www.w3.org/2000/svg">
<path d="M31.9375 0V6.62134V119.558H168.557V6.62134V0H31.9375Z" fill="url(#paint0_linear)"/>
<path d="M167.684 0H32.8115V3.82473H167.684V0Z" fill="#535461"/>
<path d="M167.684 3.71655H32.8115V116.968H167.684V3.71655Z" fill="#EDEDF4"/>
<path d="M35.3213 2.51376C35.6834 2.51376 35.977 2.21974 35.977 1.85704C35.977 1.49434 35.6834 1.20032 35.3213 1.20032C34.9591 1.20032 34.6655 1.49434 34.6655 1.85704C34.6655 2.21974 34.9591 2.51376 35.3213 2.51376Z" fill="#FA595F"/>
<path d="M37.2834 2.51376C37.6456 2.51376 37.9392 2.21974 37.9392 1.85704C37.9392 1.49434 37.6456 1.20032 37.2834 1.20032C36.9213 1.20032 36.6277 1.49434 36.6277 1.85704C36.6277 2.21974 36.9213 2.51376 37.2834 2.51376Z" fill="#FFC74C"/>
<path d="M39.2485 2.51376C39.6107 2.51376 39.9042 2.21974 39.9042 1.85704C39.9042 1.49434 39.6107 1.20032 39.2485 1.20032C38.8864 1.20032 38.5928 1.49434 38.5928 1.85704C38.5928 2.21974 38.8864 2.51376 39.2485 2.51376Z" fill="#85D459"/>
<path d="M151.971 10.3575H48.5247V51.0128H151.971V10.3575Z" fill="white"/>
<path d="M151.971 49.537V51.0128H150.498" stroke="#6C63FF" stroke-miterlimit="10"/>
<path d="M147.626 51.0128H51.4321" stroke="#6C63FF" stroke-miterlimit="10" stroke-dasharray="11.69 11.69"/>
<path d="M49.9982 51.0128H48.5247V49.537" stroke="#6C63FF" stroke-miterlimit="10"/>
<path d="M48.5247 46.6371V13.2844" stroke="#6C63FF" stroke-miterlimit="10" stroke-dasharray="11.79 11.79"/>
<path d="M48.5247 11.8333V10.3575H49.9982" stroke="#6C63FF" stroke-miterlimit="10"/>
<path d="M52.8689 10.3575H149.061" stroke="#6C63FF" stroke-miterlimit="10" stroke-dasharray="11.69 11.69"/>
<path d="M150.498 10.3575H151.971V11.8333" stroke="#6C63FF" stroke-miterlimit="10"/>
<path d="M151.971 14.7332V48.0858" stroke="#6C63FF" stroke-miterlimit="10" stroke-dasharray="11.79 11.79"/>
<path d="M126.655 56.6946H73.8403V58.8812H126.655V56.6946Z" fill="white"/>
<path d="M100.193 77.0455H47.3779V79.2322H100.193V77.0455Z" fill="white"/>
<path d="M100.193 81.8541H47.3779V84.0407H100.193V81.8541Z" fill="white"/>
<path d="M100.193 86.6628H47.3779V88.8495H100.193V86.6628Z" fill="white"/>
<path d="M100.193 91.4713H47.3779V93.6579H100.193V91.4713Z" fill="white"/>
<path d="M100.193 96.2799H47.3779V98.4665H100.193V96.2799Z" fill="white"/>
<path d="M100.193 101.089H47.3779V103.275H100.193V101.089Z" fill="white"/>
<path d="M100.193 105.897H47.3779V108.084H100.193V105.897Z" fill="white"/>
<path d="M111.596 61.0653H88.8977V63.2519H111.596V61.0653Z" fill="white"/>
<path opacity="0.5" d="M68.5109 41.6121C70.669 41.6121 72.7787 40.9711 74.5731 39.7703C76.3675 38.5695 77.7661 36.8628 78.592 34.8659C79.4179 32.8691 79.634 30.6718 79.2129 28.5519C78.7919 26.4321 77.7527 24.4849 76.2266 22.9565C74.7006 21.4282 72.7563 20.3874 70.6396 19.9657C68.523 19.5441 66.329 19.7605 64.3351 20.5876C62.3413 21.4147 60.6371 22.8154 59.4381 24.6125C58.2391 26.4097 57.5991 28.5225 57.5991 30.6839C57.5988 32.1191 57.8808 33.5403 58.4291 34.8663C58.9773 36.1923 59.7811 37.3972 60.7944 38.412C61.8077 39.4268 63.0107 40.2318 64.3347 40.7809C65.6587 41.3299 67.0778 41.6124 68.5109 41.6121ZM68.5109 21.871C70.2513 21.871 71.9526 22.3879 73.3997 23.3563C74.8468 24.3246 75.9746 25.701 76.6407 27.3114C77.3067 28.9217 77.4809 30.6937 77.1414 32.4032C76.8019 34.1127 75.9638 35.683 74.7331 36.9155C73.5025 38.148 71.9345 38.9874 70.2276 39.3274C68.5206 39.6675 66.7513 39.493 65.1434 38.8259C63.5355 38.1589 62.1611 37.0293 61.1942 35.5801C60.2273 34.1308 59.7112 32.4269 59.7112 30.6839C59.7109 29.5265 59.9383 28.3803 60.3804 27.311C60.8225 26.2416 61.4707 25.27 62.2879 24.4515C63.105 23.6331 64.0752 22.984 65.143 22.5412C66.2108 22.0984 67.3552 21.8707 68.5109 21.871ZM69.3901 36.3238H67.6292C67.4893 36.3232 67.3554 36.2673 67.2565 36.1682C67.1576 36.0692 67.1018 35.9351 67.1012 35.795V30.6839H64.154C64.0496 30.6839 63.9475 30.6528 63.8607 30.5947C63.7739 30.5366 63.7063 30.454 63.6663 30.3574C63.6264 30.2608 63.6159 30.1545 63.6363 30.0519C63.6566 29.9494 63.7069 29.8552 63.7807 29.7812L68.1376 25.4178C68.2361 25.3217 68.3683 25.2679 68.5059 25.2679C68.6436 25.2679 68.7757 25.3217 68.8743 25.4178L73.2312 29.7812C73.305 29.8552 73.3553 29.9494 73.3756 30.0519C73.396 30.1545 73.3855 30.2608 73.3456 30.3574C73.3056 30.454 73.238 30.5366 73.1512 30.5947C73.0643 30.6528 72.9623 30.6839 72.8579 30.6839H69.9107V35.795C69.9101 35.9334 69.8557 36.0661 69.7589 36.1648C69.6621 36.2636 69.5307 36.3206 69.3925 36.3238H69.3901Z" fill="#6C63FF"/>
<path d="M36.9891 86.8866C39.6906 96.7817 28.1649 124.969 28.1649 124.969C28.1649 124.969 3.91495 106.583 1.21341 96.6833C0.554081 94.3254 0.36681 91.8602 0.662372 89.4295C0.957935 86.9989 1.7305 84.6508 2.93561 82.5203C4.14072 80.3898 5.75459 78.5189 7.68436 77.0154C9.61413 75.512 11.8217 74.4055 14.1801 73.7597C16.5384 73.1139 19.001 72.9415 21.4262 73.2524C23.8513 73.5634 26.1911 74.3515 28.311 75.5715C30.4308 76.7915 32.2889 78.4193 33.7782 80.3612C35.2676 82.3031 36.3588 84.5207 36.9891 86.8866Z" fill="#6C63FF"/>
<path opacity="0.1" d="M36.9891 86.8866C39.6906 96.7817 28.1649 124.969 28.1649 124.969C28.1649 124.969 3.91495 106.583 1.21341 96.6833C0.554081 94.3254 0.36681 91.8602 0.662372 89.4295C0.957935 86.9989 1.7305 84.6508 2.93561 82.5203C4.14072 80.3898 5.75459 78.5189 7.68436 77.0154C9.61413 75.512 11.8217 74.4055 14.1801 73.7597C16.5384 73.1139 19.001 72.9415 21.4262 73.2524C23.8513 73.5634 26.1911 74.3515 28.311 75.5715C30.4308 76.7915 32.2889 78.4193 33.7782 80.3612C35.2676 82.3031 36.3588 84.5207 36.9891 86.8866Z" fill="black"/>
<path d="M14.3035 73.9366C14.3035 73.9366 29.4001 96.7596 28.2606 125.036" stroke="#535461" stroke-miterlimit="10"/>
<path d="M40.8425 104.98C40.8425 104.98 27.153 97.522 28.8869 125.05C28.8869 125.05 40.3071 124.642 44.3594 115.313C45.153 113.497 45.2539 111.454 44.6427 109.569C44.0316 107.684 42.751 106.09 41.0438 105.088L40.8425 104.98Z" fill="#6C63FF"/>
<path d="M41.0733 105.026C41.0733 105.026 39.305 119.317 28.8943 125.05" stroke="#535461" stroke-miterlimit="10"/>
<g opacity="0.1">
<path opacity="0.1" d="M184.524 68.7724C184.554 68.7349 184.57 68.71 184.57 68.71L184.524 68.7724Z" fill="url(#paint1_linear)"/>
</g>
<path d="M90.8779 20.2048V62.486H102.04H107.944H110.965H113.716H117.694H118.574H127.098H130.229H132.58H134.115H134.159H134.238H135.365H137.713H138.626H138.725H138.747H138.803H138.923H140.846H140.972H141.001H144.727H144.845H144.992H149.374H150.68H153.811H160.688H168.518H170.008H170.283H170.541H172.118H172.346H175.35H179.307H181.22H185.137H195.634V20.2048H90.8779Z" fill="url(#paint2_linear)"/>
<path d="M194.869 20.8468H91.4229V61.5021H194.869V20.8468Z" fill="white"/>
<g opacity="0.6">
<path opacity="0.3" d="M184.503 45.0153V61.5022H102.445V36.4975H105.021V30.1271H114.818V36.4975H117.483V55.5991H120.919V49.4032H125.045V55.5991H128.48V45.0153H128.652V39.5081H131.919V45.0153H139.478V53.2772H143.688V50.6945H146.269V53.2772H150.478V28.8358H155.977V24.9643H156.923V28.8358H158.468V36.4975H161.218V30.1271H163.537V23.5869H168.35V30.1271H170.669V36.4975H173.505V45.0153H177.371V39.5081H180.637V45.0153H184.503Z" fill="#6C63FF"/>
<path opacity="0.4" d="M107.686 38.4751H104.078V40.5412H107.686V38.4751Z" fill="white"/>
<path opacity="0.4" d="M112.156 40.5387H115.764V38.4726H112.156V40.5387Z" fill="white"/>
<path opacity="0.4" d="M107.686 42.5187H104.078V44.5848H107.686V42.5187Z" fill="white"/>
<path opacity="0.4" d="M112.156 44.5848H115.764V42.5187H112.156V44.5848Z" fill="white"/>
<path opacity="0.4" d="M107.686 46.5648H104.078V48.6309H107.686V46.5648Z" fill="white"/>
<path opacity="0.4" d="M112.156 48.6284H115.764V46.5623H112.156V48.6284Z" fill="white"/>
<path opacity="0.4" d="M107.686 50.6084H104.078V52.6745H107.686V50.6084Z" fill="white"/>
<path opacity="0.4" d="M112.156 52.6746H115.764V50.6085H112.156V52.6746Z" fill="white"/>
<path opacity="0.4" d="M107.686 54.6545H104.078V56.7206H107.686V54.6545Z" fill="white"/>
<path opacity="0.4" d="M112.156 56.7206H115.764V54.6545H112.156V56.7206Z" fill="white"/>
<path opacity="0.4" d="M107.686 58.6982H104.078V60.7643H107.686V58.6982Z" fill="white"/>
<path opacity="0.4" d="M112.156 60.7618H115.764V58.6958H112.156V60.7618Z" fill="white"/>
<path opacity="0.4" d="M127.191 57.6652H118.77V58.6982H127.191V57.6652Z" fill="white"/>
<path opacity="0.4" d="M127.191 59.2147H118.77V60.2478H127.191V59.2147Z" fill="white"/>
<path opacity="0.4" d="M127.191 60.7617H118.772V61.4996H127.191V60.7617Z" fill="white"/>
<path opacity="0.4" d="M149.189 58.1816H140.767V59.2147H149.189V58.1816Z" fill="white"/>
<path opacity="0.4" d="M149.189 59.7312H140.767V60.7642H149.189V59.7312Z" fill="white"/>
<path opacity="0.4" d="M149.186 61.2808H140.767V61.5021H149.186V61.2808Z" fill="white"/>
<path opacity="0.4" d="M132.606 46.9952H130.285V50.0083H132.606V46.9952Z" fill="white"/>
<path opacity="0.4" d="M135.352 50.0083H137.673V46.9953H135.352V50.0083Z" fill="white"/>
<path opacity="0.4" d="M132.606 51.8137H130.285V54.8268H132.606V51.8137Z" fill="white"/>
<path opacity="0.4" d="M135.352 54.8243H137.673V51.8113H135.352V54.8243Z" fill="white"/>
<path opacity="0.4" d="M132.606 56.6321H130.285V59.6451H132.606V56.6321Z" fill="white"/>
<path opacity="0.4" d="M135.352 59.6451H137.673V56.6321H135.352V59.6451Z" fill="white"/>
<path opacity="0.4" d="M132.604 61.4506H130.283V61.4998H132.604V61.4506Z" fill="white"/>
<path opacity="0.4" d="M137.675 61.4506H135.354V61.4998H137.675V61.4506Z" fill="white"/>
<path opacity="0.4" d="M153.573 30.8158H150.478V34.7733H153.573V30.8158Z" fill="white"/>
<path opacity="0.4" d="M153.573 36.4951H150.478V40.4527H153.573V36.4951Z" fill="white"/>
<path opacity="0.4" d="M153.573 42.1743H150.478V46.1319H153.573V42.1743Z" fill="white"/>
<path opacity="0.4" d="M153.573 47.8561H150.478V51.8136H153.573V47.8561Z" fill="white"/>
<path opacity="0.4" d="M153.573 53.5354H150.478V57.493H153.573V53.5354Z" fill="white"/>
<path opacity="0.4" d="M153.57 59.2147H150.478V61.5022H153.57V59.2147Z" fill="white"/>
<path opacity="0.4" d="M171.744 38.9055H160.23V42.2604H171.744V38.9055Z" fill="white"/>
<path opacity="0.4" d="M171.786 46.1344H160.273V49.4893H171.786V46.1344Z" fill="white"/>
<path opacity="0.4" d="M171.83 53.3633H160.316V56.7182H171.83V53.3633Z" fill="white"/>
<path opacity="0.4" d="M170.091 61.5022H171.646H171.872V61.1235V60.6881V60.5922H171.842H170.251H169.524H160.358V61.5022H168.092H169.565H169.836H170.091Z" fill="white"/>
<path opacity="0.4" d="M106.571 31.9349H105.024V35.2062H106.571V31.9349Z" fill="white"/>
<path opacity="0.4" d="M184.503 46.9952H180.637V51.9858H184.503V46.9952Z" fill="white"/>
<path opacity="0.4" d="M184.503 54.2241H180.637V59.2147H184.503V54.2241Z" fill="white"/>
<path opacity="0.4" d="M184.506 61.4506H180.637V61.4998H184.506V61.4506Z" fill="white"/>
<path opacity="0.1" d="M125.187 27.6896H124.595C124.652 27.694 124.709 27.6866 124.763 27.6677C124.817 27.6489 124.867 27.6191 124.909 27.5802C124.951 27.5413 124.984 27.4941 125.007 27.4416C125.03 27.3891 125.042 27.3325 125.042 27.2752C125.042 27.2179 125.03 27.1612 125.007 27.1087C124.984 27.0563 124.951 27.0091 124.909 26.9702C124.867 26.9312 124.817 26.9014 124.763 26.8826C124.709 26.8638 124.652 26.8563 124.595 26.8607H119.806C119.749 26.8563 119.692 26.8638 119.638 26.8826C119.584 26.9014 119.534 26.9312 119.492 26.9702C119.45 27.0091 119.417 27.0563 119.394 27.1087C119.371 27.1612 119.359 27.2179 119.359 27.2752C119.359 27.3325 119.371 27.3891 119.394 27.4416C119.417 27.4941 119.45 27.5413 119.492 27.5802C119.534 27.6191 119.584 27.6489 119.638 27.6677C119.692 27.6866 119.749 27.694 119.806 27.6896H120.398C120.341 27.6852 120.284 27.6927 120.23 27.7115C120.176 27.7303 120.126 27.7601 120.084 27.7991C120.042 27.838 120.009 27.8851 119.986 27.9376C119.963 27.9901 119.951 28.0468 119.951 28.1041C119.951 28.1613 119.963 28.218 119.986 28.2705C120.009 28.323 120.042 28.3702 120.084 28.4091C120.126 28.448 120.176 28.4778 120.23 28.4966C120.284 28.5155 120.341 28.5229 120.398 28.5185H119.57C119.513 28.5141 119.456 28.5216 119.402 28.5404C119.348 28.5592 119.298 28.589 119.256 28.6279C119.214 28.6669 119.181 28.714 119.158 28.7665C119.135 28.819 119.123 28.8757 119.123 28.933C119.123 28.9902 119.135 29.0469 119.158 29.0994C119.181 29.1519 119.214 29.1991 119.256 29.238C119.298 29.2769 119.348 29.3067 119.402 29.3255C119.456 29.3444 119.513 29.3518 119.57 29.3474H124.359C124.464 29.3394 124.561 29.2922 124.632 29.2154C124.703 29.1385 124.742 29.0377 124.742 28.933C124.742 28.8282 124.703 28.7274 124.632 28.6506C124.561 28.5737 124.464 28.5266 124.359 28.5185H125.187C125.291 28.5105 125.389 28.4633 125.46 28.3865C125.531 28.3096 125.57 28.2088 125.57 28.1041C125.57 27.9994 125.531 27.8985 125.46 27.8217C125.389 27.7448 125.291 27.6977 125.187 27.6896Z" fill="#252223"/>
<path opacity="0.1" d="M146.326 38.1037H145.734C145.838 38.0956 145.935 38.0485 146.006 37.9716C146.077 37.8948 146.117 37.7939 146.117 37.6892C146.117 37.5845 146.077 37.4837 146.006 37.4068C145.935 37.33 145.838 37.2828 145.734 37.2748H140.945C140.84 37.2828 140.743 37.33 140.672 37.4068C140.601 37.4837 140.561 37.5845 140.561 37.6892C140.561 37.7939 140.601 37.8948 140.672 37.9716C140.743 38.0485 140.84 38.0956 140.945 38.1037H141.536C141.479 38.0993 141.422 38.1067 141.368 38.1255C141.314 38.1444 141.265 38.1742 141.223 38.2131C141.181 38.252 141.147 38.2992 141.124 38.3517C141.101 38.4042 141.09 38.4608 141.09 38.5181C141.09 38.5754 141.101 38.6321 141.124 38.6846C141.147 38.737 141.181 38.7842 141.223 38.8231C141.265 38.8621 141.314 38.8919 141.368 38.9107C141.422 38.9295 141.479 38.937 141.536 38.9326H140.709C140.605 38.9406 140.507 38.9878 140.436 39.0646C140.365 39.1415 140.326 39.2423 140.326 39.347C140.326 39.4517 140.365 39.5526 140.436 39.6294C140.507 39.7063 140.605 39.7534 140.709 39.7615H145.498C145.602 39.7534 145.7 39.7063 145.771 39.6294C145.842 39.5526 145.881 39.4517 145.881 39.347C145.881 39.2423 145.842 39.1415 145.771 39.0646C145.7 38.9878 145.602 38.9406 145.498 38.9326H146.326C146.383 38.937 146.44 38.9295 146.494 38.9107C146.548 38.8919 146.597 38.8621 146.639 38.8231C146.681 38.7842 146.715 38.737 146.738 38.6846C146.761 38.6321 146.773 38.5754 146.773 38.5181C146.773 38.4608 146.761 38.4042 146.738 38.3517C146.715 38.2992 146.681 38.252 146.639 38.2131C146.597 38.1742 146.548 38.1444 146.494 38.1255C146.44 38.1067 146.383 38.0993 146.326 38.1037Z" fill="#252223"/>
<path opacity="0.1" d="M182.329 24.5068H181.737C181.842 24.4987 181.939 24.4516 182.01 24.3747C182.081 24.2979 182.121 24.197 182.121 24.0923C182.121 23.9876 182.081 23.8867 182.01 23.8099C181.939 23.7331 181.842 23.6859 181.737 23.6779H176.948C176.891 23.6735 176.834 23.6809 176.78 23.6997C176.726 23.7186 176.676 23.7484 176.634 23.7873C176.592 23.8262 176.559 23.8734 176.536 23.9259C176.513 23.9784 176.501 24.035 176.501 24.0923C176.501 24.1496 176.513 24.2063 176.536 24.2587C176.559 24.3112 176.592 24.3584 176.634 24.3973C176.676 24.4362 176.726 24.4661 176.78 24.4849C176.834 24.5037 176.891 24.5112 176.948 24.5068H177.54C177.483 24.5024 177.426 24.5098 177.372 24.5286C177.318 24.5475 177.268 24.5773 177.226 24.6162C177.184 24.6551 177.151 24.7023 177.128 24.7548C177.105 24.8073 177.093 24.8639 177.093 24.9212C177.093 24.9785 177.105 25.0352 177.128 25.0876C177.151 25.1401 177.184 25.1873 177.226 25.2262C177.268 25.2651 177.318 25.2949 177.372 25.3138C177.426 25.3326 177.483 25.3401 177.54 25.3357H176.717C176.66 25.3313 176.603 25.3387 176.549 25.3575C176.495 25.3764 176.446 25.4062 176.404 25.4451C176.362 25.484 176.328 25.5312 176.305 25.5837C176.282 25.6362 176.271 25.6928 176.271 25.7501C176.271 25.8074 176.282 25.864 176.305 25.9165C176.328 25.969 176.362 26.0162 176.404 26.0551C176.446 26.094 176.495 26.1238 176.549 26.1427C176.603 26.1615 176.66 26.169 176.717 26.1645H181.507C181.611 26.1565 181.708 26.1093 181.779 26.0325C181.85 25.9557 181.89 25.8548 181.89 25.7501C181.89 25.6454 181.85 25.5445 181.779 25.4677C181.708 25.3909 181.611 25.3437 181.507 25.3357H182.334C182.438 25.3276 182.536 25.2805 182.607 25.2036C182.678 25.1268 182.717 25.0259 182.717 24.9212C182.717 24.8165 182.678 24.7156 182.607 24.6388C182.536 24.562 182.438 24.5148 182.334 24.5068H182.329Z" fill="#252223"/>
<path opacity="0.6" d="M136.607 54.2389L136.504 54.3151C136.542 54.295 136.576 54.2693 136.607 54.2389Z" fill="url(#paint3_linear)"/>
<path opacity="0.6" d="M136.686 54.3201L136.583 54.3963C136.62 54.3761 136.655 54.3504 136.686 54.3201Z" fill="url(#paint4_linear)"/>
<path opacity="0.6" d="M136.686 54.2389L136.583 54.3151C136.62 54.295 136.655 54.2693 136.686 54.2389Z" fill="url(#paint5_linear)"/>
<path opacity="0.6" d="M132.404 52.7855C132.463 52.7572 132.48 52.6708 132.442 52.5925C132.405 52.5142 132.326 52.4736 132.268 52.502C132.209 52.5303 132.192 52.6167 132.23 52.695C132.268 52.7733 132.346 52.8139 132.404 52.7855Z" fill="#F2F2F2"/>
</g>
<path d="M166.477 75.651L166.434 75.7084L166.477 75.651Z" fill="#D39999"/>
<path d="M150.827 81.6353H124.636V99.1208H150.827V81.6353Z" fill="white"/>
<path d="M177.665 126.088C177.665 126.088 173.063 110.438 178.527 98.9216C180.848 94.1084 181.549 88.6715 180.524 83.4259C180.016 80.9379 179.282 78.5017 178.331 76.1478" stroke="#535461" stroke-width="2" stroke-miterlimit="10"/>
<path d="M181.742 68.855C181.742 70.7735 178.275 76.3347 178.275 76.3347C178.275 76.3347 174.807 70.7735 174.807 68.855C174.807 67.9339 175.172 67.0505 175.823 66.3992C176.473 65.7479 177.355 65.382 178.275 65.382C179.194 65.382 180.076 65.7479 180.727 66.3992C181.377 67.0505 181.742 67.9339 181.742 68.855Z" fill="#6C63FF"/>
<path d="M187.474 79.4807C186.433 81.0917 180.504 83.8711 180.504 83.8711C180.504 83.8711 180.612 77.3162 181.654 75.7051C182.16 74.9474 182.944 74.4195 183.836 74.2357C184.728 74.0518 185.656 74.2266 186.42 74.7223C187.185 75.2181 187.724 75.995 187.921 76.8853C188.118 77.7756 187.958 78.7078 187.474 79.4807Z" fill="#6C63FF"/>
<path d="M187.224 97.6327C185.505 98.4961 178.994 97.9008 178.994 97.9008C178.994 97.9008 182.39 92.2953 184.102 91.432C184.51 91.2144 184.957 91.0806 185.417 91.0384C185.877 90.9962 186.341 91.0465 186.781 91.1864C187.222 91.3263 187.63 91.5529 187.982 91.8529C188.333 92.1529 188.622 92.5203 188.83 92.9334C189.038 93.3466 189.161 93.7972 189.193 94.2588C189.224 94.7205 189.164 95.1838 189.014 95.6215C188.865 96.0593 188.629 96.4627 188.322 96.8081C188.014 97.1535 187.641 97.4338 187.224 97.6327Z" fill="#6C63FF"/>
<path d="M183.945 111.328C182.405 112.469 175.88 112.983 175.88 112.983C175.88 112.983 178.282 106.883 179.822 105.745C180.187 105.463 180.605 105.257 181.05 105.139C181.496 105.02 181.961 104.992 182.418 105.056C182.874 105.12 183.314 105.275 183.71 105.511C184.106 105.747 184.452 106.059 184.726 106.431C185 106.802 185.198 107.224 185.307 107.673C185.416 108.122 185.435 108.587 185.362 109.043C185.29 109.499 185.127 109.936 184.883 110.329C184.64 110.721 184.321 111.061 183.945 111.328Z" fill="#6C63FF"/>
<path d="M173.223 84.2425C174.596 85.5781 180.996 86.9628 180.996 86.9628C180.996 86.9628 179.429 80.5973 178.049 79.2593C177.387 78.6312 176.504 78.2897 175.592 78.3086C174.681 78.3275 173.813 78.7054 173.177 79.3604C172.542 80.0154 172.19 80.8947 172.197 81.808C172.204 82.7213 172.57 83.5951 173.216 84.24L173.223 84.2425Z" fill="#6C63FF"/>
<path d="M169.593 100.306C171.312 101.17 177.823 100.575 177.823 100.575C177.823 100.575 174.426 94.969 172.714 94.1056C171.896 93.7156 170.958 93.6617 170.101 93.9556C169.243 94.2494 168.535 94.8676 168.127 95.6779C167.719 96.4883 167.644 97.4263 167.918 98.2913C168.192 99.1563 168.793 99.8796 169.593 100.306Z" fill="#6C63FF"/>
<path d="M168.203 116.402C169.743 117.543 176.268 118.057 176.268 118.057C176.268 118.057 173.866 111.958 172.326 110.819C171.586 110.292 170.669 110.078 169.772 110.221C168.876 110.365 168.071 110.854 167.531 111.585C166.991 112.317 166.759 113.231 166.884 114.131C167.01 115.032 167.483 115.847 168.203 116.402Z" fill="#6C63FF"/>
<path d="M160.758 117.44C160.758 117.44 157.865 107.602 161.301 100.36C162.761 97.3328 163.202 93.9125 162.556 90.6129C162.237 89.049 161.776 87.5176 161.178 86.038" stroke="#535461" stroke-width="2" stroke-miterlimit="10"/>
<path d="M163.315 81.4606C163.315 82.6658 161.134 86.1634 161.134 86.1634C161.134 86.1634 158.953 82.6658 158.953 81.4606C158.972 80.8943 159.21 80.3576 159.617 79.9638C160.024 79.5699 160.567 79.3497 161.133 79.3497C161.699 79.3497 162.242 79.5699 162.649 79.9638C163.056 80.3576 163.294 80.8943 163.313 81.4606H163.315Z" fill="#6C63FF"/>
<path d="M166.92 88.1386C166.267 89.1495 162.539 90.8983 162.539 90.8983C162.539 90.8983 162.608 86.7759 163.261 85.765C163.412 85.515 163.612 85.2979 163.849 85.1266C164.085 84.9553 164.354 84.8334 164.638 84.7679C164.923 84.7025 165.218 84.6949 165.505 84.7457C165.793 84.7965 166.067 84.9045 166.312 85.0634C166.557 85.2223 166.768 85.4289 166.931 85.6709C167.095 85.9129 167.209 86.1853 167.266 86.4721C167.322 86.7589 167.321 87.0541 167.262 87.3404C167.203 87.6267 167.086 87.8981 166.92 88.1386Z" fill="#6C63FF"/>
<path d="M166.761 99.5512C165.685 100.095 161.586 99.7185 161.586 99.7185C161.586 99.7185 163.723 96.1938 164.796 95.6527C165.31 95.4086 165.899 95.3755 166.438 95.5604C166.976 95.7453 167.421 96.1335 167.677 96.6423C167.933 97.151 167.981 97.7399 167.81 98.2834C167.639 98.8269 167.262 99.2818 166.761 99.5512Z" fill="#6C63FF"/>
<path d="M164.7 108.16C163.733 108.878 159.629 109.2 159.629 109.2C159.629 109.2 161.139 105.366 162.107 104.65C162.572 104.326 163.146 104.196 163.706 104.288C164.266 104.38 164.768 104.687 165.105 105.144C165.443 105.601 165.589 106.171 165.513 106.734C165.438 107.297 165.146 107.809 164.7 108.16Z" fill="#6C63FF"/>
<path d="M157.961 91.1319C158.826 91.9731 162.849 92.8536 162.849 92.8536C162.849 92.8536 161.866 88.8518 160.999 88.0106C160.797 87.7996 160.553 87.6316 160.284 87.5166C160.015 87.4017 159.726 87.3421 159.433 87.3414C159.141 87.3408 158.851 87.399 158.582 87.5128C158.312 87.6265 158.068 87.7934 157.864 88.0035C157.661 88.2136 157.501 88.4626 157.395 88.7357C157.289 89.0088 157.24 89.3004 157.249 89.5932C157.258 89.886 157.325 90.174 157.448 90.44C157.57 90.706 157.745 90.9446 157.961 91.1417V91.1319Z" fill="#6C63FF"/>
<path d="M155.677 101.231C156.753 101.775 160.852 101.398 160.852 101.398C160.852 101.398 158.715 97.8737 157.642 97.3326C157.128 97.0886 156.539 97.0555 156 97.2403C155.462 97.4252 155.017 97.8135 154.761 98.3222C154.505 98.8309 154.457 99.4199 154.628 99.9634C154.799 100.507 155.176 100.962 155.677 101.231Z" fill="#6C63FF"/>
<path d="M154.805 111.35C155.773 112.068 159.877 112.391 159.877 112.391C159.877 112.391 158.366 108.556 157.399 107.84C157.169 107.66 156.906 107.527 156.625 107.45C156.343 107.373 156.049 107.353 155.76 107.392C155.471 107.431 155.192 107.528 154.941 107.677C154.69 107.825 154.471 108.023 154.297 108.258C154.124 108.493 153.999 108.76 153.931 109.044C153.862 109.328 153.851 109.623 153.899 109.911C153.946 110.2 154.051 110.476 154.206 110.723C154.362 110.97 154.566 111.183 154.805 111.35Z" fill="#6C63FF"/>
<defs>
<linearGradient id="paint0_linear" x1="100.247" y1="119.558" x2="100.247" y2="0" gradientUnits="userSpaceOnUse">
<stop stop-color="#808080" stop-opacity="0.25"/>
<stop offset="0.54" stop-color="#808080" stop-opacity="0.12"/>
<stop offset="1" stop-color="#808080" stop-opacity="0.1"/>
</linearGradient>
<linearGradient id="paint1_linear" x1="224.346" y1="94.9624" x2="224.346" y2="94.9474" gradientUnits="userSpaceOnUse">
<stop stop-color="#808080" stop-opacity="0.25"/>
<stop offset="0.54" stop-color="#808080" stop-opacity="0.12"/>
<stop offset="1" stop-color="#808080" stop-opacity="0.1"/>
</linearGradient>
<linearGradient id="paint2_linear" x1="71193.8" y1="10277.6" x2="71193.8" y2="3009.48" gradientUnits="userSpaceOnUse">
<stop stop-color="#808080" stop-opacity="0.25"/>
<stop offset="0.54" stop-color="#808080" stop-opacity="0.12"/>
<stop offset="1" stop-color="#808080" stop-opacity="0.1"/>
</linearGradient>
<linearGradient id="paint3_linear" x1="217.403" y1="80.9226" x2="217.447" y2="80.9226" gradientUnits="userSpaceOnUse">
<stop stop-color="#808080" stop-opacity="0.25"/>
<stop offset="0.54" stop-color="#808080" stop-opacity="0.12"/>
<stop offset="1" stop-color="#808080" stop-opacity="0.1"/>
</linearGradient>
<linearGradient id="paint4_linear" x1="217.516" y1="81.0274" x2="217.559" y2="81.0274" gradientUnits="userSpaceOnUse">
<stop stop-color="#808080" stop-opacity="0.25"/>
<stop offset="0.54" stop-color="#808080" stop-opacity="0.12"/>
<stop offset="1" stop-color="#808080" stop-opacity="0.1"/>
</linearGradient>
<linearGradient id="paint5_linear" x1="217.516" y1="80.9226" x2="217.559" y2="80.9226" gradientUnits="userSpaceOnUse">
<stop stop-color="#808080" stop-opacity="0.25"/>
<stop offset="0.54" stop-color="#808080" stop-opacity="0.12"/>
<stop offset="1" stop-color="#808080" stop-opacity="0.1"/>
</linearGradient>
</defs>
</svg>