<svg width="194" height="136" viewBox="0 0 194 136" fill="none" xmlns="http://www.w3.org/2000/svg">
<path d="M98.5 136C151.243 136 194 133.314 194 130C194 126.686 151.243 124 98.5 124C45.7568 124 3 126.686 3 130C3 133.314 45.7568 136 98.5 136Z" fill="#3F3D56"/>
<path d="M7.29013 124.08C9.35606 128.222 13.7407 130 13.7407 130C13.7407 130 14.7758 125.062 12.7099 120.92C10.6439 116.778 6.25931 115 6.25931 115C6.25931 115 5.22421 119.938 7.29013 124.08Z" fill="#3F3D56"/>
<path d="M8.64509 122.679C12.5111 125.079 14 129.844 14 129.844C14 129.844 9.2209 130.72 5.35491 128.321C1.48892 125.921 0 121.156 0 121.156C0 121.156 4.7791 120.28 8.64509 122.679Z" fill="#6C63FF"/>
<path d="M175 17H19V21H175V17Z" fill="#F2F2F2"/>
<path d="M175 129H19V95.411L36.2222 80.5569L175 70V129Z" fill="#6C63FF"/>
<path d="M23.5 20C24.3284 20 25 19.5523 25 19C25 18.4477 24.3284 18 23.5 18C22.6716 18 22 18.4477 22 19C22 19.5523 22.6716 20 23.5 20Z" fill="#6C63FF"/>
<path d="M27.5 20C28.3284 20 29 19.5523 29 19C29 18.4477 28.3284 18 27.5 18C26.6716 18 26 18.4477 26 19C26 19.5523 26.6716 20 27.5 20Z" fill="#6C63FF"/>
<path d="M31.5 20C32.3284 20 33 19.5523 33 19C33 18.4477 32.3284 18 31.5 18C30.6716 18 30 18.4477 30 19C30 19.5523 30.6716 20 31.5 20Z" fill="#6C63FF"/>
<path d="M19 95L175 69.4311V21H19V95Z" fill="white"/>
<path d="M158 106C153.775 105.277 149.711 104.656 145.809 104.138L147.352 101.118C146.832 100.935 144.547 102.665 144.547 102.665L146.571 93.8988C143.955 94.2173 142.625 103.168 142.625 103.168L139.703 100.142L141.117 103.544C129.176 102.124 118.863 101.597 110.188 101.578L111.509 98.9936C110.988 98.8112 108.703 100.541 108.703 100.541L110.728 91.7746C108.112 92.0932 106.782 101.044 106.782 101.044L103.859 98.0177L105.358 101.621C99.4144 101.72 93.48 102.127 87.5779 102.841C88.9132 98.8142 93.4493 94.9847 93.4493 94.9847C89.9851 96.0251 88.168 97.7685 87.2185 99.3938C87.1336 91.0858 88.5017 82.8278 91.2596 75C91.2596 75 84.0993 90.7342 85.013 101.296L85.1222 103.171C79.0519 104.049 76 104.962 76 104.962L158 106Z" fill="#3F3D56"/>
<path d="M74 50H31V51H74V50Z" fill="#3F3D56"/>
<path d="M74 54H31V55H74V54Z" fill="#3F3D56"/>
<path d="M45 57H31V59H45V57Z" fill="#3F3D56"/>
<path d="M92.5 127C93.3284 127 94 126.105 94 125C94 123.895 93.3284 123 92.5 123C91.6716 123 91 123.895 91 125C91 126.105 91.6716 127 92.5 127Z" fill="#F2F2F2"/>
<path d="M97.5 127C98.3284 127 99 126.328 99 125.5C99 124.672 98.3284 124 97.5 124C96.6716 124 96 124.672 96 125.5C96 126.328 96.6716 127 97.5 127Z" fill="#F2F2F2"/>
<path d="M102.5 127C103.328 127 104 126.328 104 125.5C104 124.672 103.328 124 102.5 124C101.672 124 101 124.672 101 125.5C101 126.328 101.672 127 102.5 127Z" fill="#F2F2F2"/>
<path d="M97.5 127C98.3284 127 99 126.328 99 125.5C99 124.672 98.3284 124 97.5 124C96.6716 124 96 124.672 96 125.5C96 126.328 96.6716 127 97.5 127Z" fill="#3F3D56"/>
<path d="M146 41C154.837 41 162 33.8366 162 25C162 16.1634 154.837 9 146 9C137.163 9 130 16.1634 130 25C130 33.8366 137.163 41 146 41Z" fill="#FF6584"/>
<path d="M157.483 44.4736C160.64 65.8812 148.936 75.2198 133.14 77.5201C132.773 77.5735 132.408 77.6226 132.043 77.6674C131.309 77.7583 130.579 77.8306 129.855 77.8844C115.451 78.9573 103.215 72.7128 100.28 52.8038C97.2419 32.2004 119.905 2.34068 121.609 0.128773C121.611 0.12852 121.611 0.128521 121.612 0.126519C121.677 0.0422554 121.71 0 121.71 0C121.71 0 154.327 23.0677 157.483 44.4736Z" fill="#6C63FF"/>
<path d="M131.818 73.5515L140 57.6817L132.024 75.1321L132.238 76.7854C131.516 76.8753 130.799 76.9468 130.086 77L128.089 55.66L128.056 55.4974L128.071 55.4636L127.883 53.447L115.2 38.9811L127.694 51.9433L127.782 52.3639L126.273 36.2407L115 21.0238L125.969 33.4128L121.976 0.110904L121.964 0L121.98 0.108675L125.671 26.2915L132.96 14.63L125.963 28.5501L127.831 42.9114L134.045 27.9571L128.107 45.0226L129.146 53.0082L138.283 32.1208L129.507 55.7942L131.818 73.5515Z" fill="#3F3D56"/>
</svg>