<svg width="165" height="136" viewBox="0 0 165 136" fill="none" xmlns="http://www.w3.org/2000/svg">
<path d="M158.858 16.9321H0.0678711V118.135H158.858V16.9321Z" fill="#E6E6E6"/>
<path d="M154.317 29.6254H4.6084V112.148H154.317V29.6254Z" fill="white"/>
<path d="M158.79 16.8425H0V23.5558H158.79V16.8425Z" fill="#6C63FF"/>
<path d="M5.01302 21.5189C5.70355 21.5189 6.26334 20.9618 6.26334 20.2746C6.26334 19.5875 5.70355 19.0304 5.01302 19.0304C4.32248 19.0304 3.7627 19.5875 3.7627 20.2746C3.7627 20.9618 4.32248 21.5189 5.01302 21.5189Z" fill="white"/>
<path d="M9.75911 21.5189C10.4496 21.5189 11.0094 20.9618 11.0094 20.2746C11.0094 19.5875 10.4496 19.0304 9.75911 19.0304C9.06858 19.0304 8.50879 19.5875 8.50879 20.2746C8.50879 20.9618 9.06858 21.5189 9.75911 21.5189Z" fill="white"/>
<path d="M14.5047 21.5189C15.1952 21.5189 15.755 20.9618 15.755 20.2746C15.755 19.5875 15.1952 19.0304 14.5047 19.0304C13.8142 19.0304 13.2544 19.5875 13.2544 20.2746C13.2544 20.9618 13.8142 21.5189 14.5047 21.5189Z" fill="white"/>
<path d="M56.6801 38.1877H18.2119V103.585H56.6801V38.1877Z" fill="#E6E6E6"/>
<path d="M95.3771 38.1877H63.3203V56.1891H95.3771V38.1877Z" fill="#6C63FF"/>
<path d="M95.3771 61.2021H63.3203V80.5707H95.3771V61.2021Z" fill="#E6E6E6"/>
<path d="M95.3771 85.5837H63.3203V103.585H95.3771V85.5837Z" fill="#E6E6E6"/>
<path d="M140.715 38.1877H102.247V66.6876H140.715V38.1877Z" fill="#E6E6E6"/>
<path d="M140.715 75.0853H102.247V103.585H140.715V75.0853Z" fill="#6C63FF"/>
<path d="M79.6784 46.3251L79.1763 46.1924L90.1346 5.1687H153.698V5.68557H90.5339L79.6784 46.3251Z" fill="#3F3D56"/>
<path d="M158.893 10.854C157.814 10.854 156.76 10.5357 155.863 9.93941C154.966 9.34308 154.267 8.4955 153.855 7.50384C153.442 6.51219 153.334 5.42099 153.544 4.36826C153.755 3.31552 154.274 2.34852 155.037 1.58954C155.799 0.830555 156.771 0.313683 157.829 0.104281C158.887 -0.105122 159.983 0.00235217 160.98 0.41311C161.976 0.823867 162.828 1.51946 163.427 2.41193C164.027 3.30439 164.346 4.35365 164.346 5.42701C164.345 6.86584 163.77 8.24528 162.747 9.26268C161.725 10.2801 160.339 10.8524 158.893 10.854ZM158.893 0.516862C157.917 0.516861 156.963 0.804835 156.152 1.34437C155.34 1.8839 154.708 2.65077 154.334 3.54798C153.961 4.4452 153.863 5.43246 154.054 6.38494C154.244 7.33742 154.714 8.21232 155.404 8.89902C156.094 9.58572 156.973 10.0534 157.93 10.2428C158.887 10.4323 159.88 10.335 160.781 9.96341C161.683 9.59177 162.453 8.96242 162.995 8.15495C163.538 7.34748 163.827 6.39815 163.827 5.42701C163.826 4.12521 163.305 2.87716 162.38 1.95665C161.455 1.03613 160.201 0.51834 158.893 0.516862Z" fill="#3F3D56"/>
<path d="M158.892 7.49448C160.04 7.49448 160.97 6.56886 160.97 5.42705C160.97 4.28524 160.04 3.35962 158.892 3.35962C157.745 3.35962 156.815 4.28524 156.815 5.42705C156.815 6.56886 157.745 7.49448 158.892 7.49448Z" fill="#6C63FF"/>
<path d="M111.31 130.248H47.7456V129.731H110.91L121.766 89.0916L122.268 89.2243L111.31 130.248Z" fill="#3F3D56"/>
<path d="M42.5516 135.417C41.473 135.417 40.4187 135.098 39.5218 134.502C38.625 133.906 37.926 133.058 37.5133 132.067C37.1005 131.075 36.9925 129.984 37.2029 128.931C37.4134 127.878 37.9327 126.911 38.6954 126.152C39.4581 125.393 40.4298 124.876 41.4877 124.667C42.5456 124.458 43.6421 124.565 44.6386 124.976C45.6351 125.387 46.4868 126.082 47.086 126.975C47.6853 127.867 48.0051 128.916 48.0051 129.99C48.0035 131.429 47.4284 132.808 46.406 133.825C45.3837 134.843 43.9975 135.415 42.5516 135.417ZM42.5516 125.08C41.5758 125.08 40.6218 125.368 39.8104 125.907C38.999 126.447 38.3666 127.214 37.9931 128.111C37.6197 129.008 37.5219 129.995 37.7123 130.948C37.9027 131.9 38.3726 132.775 39.0627 133.462C39.7527 134.148 40.6319 134.616 41.589 134.806C42.5462 134.995 43.5382 134.898 44.4398 134.526C45.3414 134.155 46.112 133.525 46.6542 132.718C47.1964 131.91 47.4858 130.961 47.4858 129.99C47.4843 128.688 46.9639 127.44 46.0389 126.519C45.1139 125.599 43.8598 125.081 42.5516 125.08Z" fill="#3F3D56"/>
<path d="M42.5516 132.057C43.699 132.057 44.6292 131.132 44.6292 129.99C44.6292 128.848 43.699 127.922 42.5516 127.922C41.4043 127.922 40.4741 128.848 40.4741 129.99C40.4741 131.132 41.4043 132.057 42.5516 132.057Z" fill="#6C63FF"/>
</svg>