<svg width="162" height="104" viewBox="0 0 162 104" fill="none" xmlns="http://www.w3.org/2000/svg">
<path d="M161.22 0.0913086H0.0688477V103.204H161.22V0.0913086Z" fill="#E6E6E6"/>
<path d="M156.612 13.0242H4.67676V97.1036H156.612V13.0242Z" fill="white"/>
<path d="M161.151 0H0V6.83992H161.151V0Z" fill="#6C63FF"/>
<path d="M5.08776 4.7647C5.78856 4.7647 6.35667 4.19712 6.35667 3.49698C6.35667 2.79683 5.78856 2.22925 5.08776 2.22925C4.38696 2.22925 3.81885 2.79683 3.81885 3.49698C3.81885 4.19712 4.38696 4.7647 5.08776 4.7647Z" fill="white"/>
<path d="M9.90416 4.7647C10.605 4.7647 11.1731 4.19712 11.1731 3.49698C11.1731 2.79683 10.605 2.22925 9.90416 2.22925C9.20337 2.22925 8.63525 2.79683 8.63525 3.49698C8.63525 4.19712 9.20337 4.7647 9.90416 4.7647Z" fill="white"/>
<path d="M14.7206 4.7647C15.4214 4.7647 15.9895 4.19712 15.9895 3.49698C15.9895 2.79683 15.4214 2.22925 14.7206 2.22925C14.0198 2.22925 13.4517 2.79683 13.4517 3.49698C13.4517 4.19712 14.0198 4.7647 14.7206 4.7647Z" fill="white"/>
<path d="M113.621 20.8993H64.1561C64.0505 20.8854 63.9536 20.8336 63.8833 20.7536C63.8131 20.6736 63.7744 20.5708 63.7744 20.4644C63.7744 20.358 63.8131 20.2552 63.8833 20.1752C63.9536 20.0952 64.0505 20.0434 64.1561 20.0295H113.621C113.727 20.0434 113.824 20.0952 113.894 20.1752C113.964 20.2552 114.003 20.358 114.003 20.4644C114.003 20.5708 113.964 20.6736 113.894 20.7536C113.824 20.8336 113.727 20.8854 113.621 20.8993Z" fill="#CCCCCC"/>
<path d="M79.3469 25.6829H47.8968C47.7912 25.669 47.6943 25.6172 47.6241 25.5372C47.5538 25.4572 47.5151 25.3544 47.5151 25.248C47.5151 25.1416 47.5538 25.0388 47.6241 24.9588C47.6943 24.8788 47.7912 24.827 47.8968 24.8131H79.3469C79.4525 24.827 79.5494 24.8788 79.6196 24.9588C79.6898 25.0388 79.7285 25.1416 79.7285 25.248C79.7285 25.3544 79.6898 25.4572 79.6196 25.5372C79.5494 25.6172 79.4525 25.669 79.3469 25.6829Z" fill="#CCCCCC"/>
<path d="M113.621 25.7699H82.1712C82.0656 25.756 81.9687 25.7042 81.8985 25.6242C81.8283 25.5442 81.7896 25.4414 81.7896 25.335C81.7896 25.2286 81.8283 25.1258 81.8985 25.0458C81.9687 24.9658 82.0656 24.9141 82.1712 24.9001H113.621C113.727 24.9141 113.824 24.9658 113.894 25.0458C113.964 25.1258 114.003 25.2286 114.003 25.335C114.003 25.4414 113.964 25.5442 113.894 25.6242C113.824 25.7042 113.727 25.756 113.621 25.7699H113.621Z" fill="#CCCCCC"/>
<path d="M79.423 30.4664H47.973C47.8674 30.4525 47.7705 30.4007 47.7002 30.3207C47.63 30.2407 47.5913 30.138 47.5913 30.0316C47.5913 29.9251 47.63 29.8224 47.7002 29.7424C47.7705 29.6624 47.8674 29.6106 47.973 29.5967H79.423C79.5286 29.6106 79.6256 29.6624 79.6958 29.7424C79.766 29.8224 79.8047 29.9251 79.8047 30.0316C79.8047 30.138 79.766 30.2407 79.6958 30.3207C79.6256 30.4007 79.5286 30.4525 79.423 30.4664Z" fill="#CCCCCC"/>
<path d="M79.4992 35.2501H48.0492C47.9436 35.2362 47.8466 35.1844 47.7764 35.1044C47.7062 35.0244 47.6675 34.9216 47.6675 34.8152C47.6675 34.7088 47.7062 34.6061 47.7764 34.5261C47.8466 34.4461 47.9436 34.3943 48.0492 34.3804H79.4992C79.6048 34.3943 79.7018 34.4461 79.772 34.5261C79.8422 34.6061 79.8809 34.7088 79.8809 34.8152C79.8809 34.9216 79.8422 35.0244 79.772 35.1044C79.7018 35.1844 79.6048 35.2362 79.4992 35.2501Z" fill="#CCCCCC"/>
<path d="M93.774 30.4664H84.7664C84.6608 30.4525 84.5639 30.4007 84.4937 30.3207C84.4235 30.2407 84.3848 30.138 84.3848 30.0316C84.3848 29.9251 84.4235 29.8224 84.4937 29.7424C84.5639 29.6624 84.6608 29.6106 84.7664 29.5967H93.774C93.8796 29.6106 93.9765 29.6624 94.0467 29.7424C94.1169 29.8224 94.1557 29.9251 94.1557 30.0316C94.1557 30.138 94.1169 30.2407 94.0467 30.3207C93.9765 30.4007 93.8796 30.4525 93.774 30.4664Z" fill="#CCCCCC"/>
<path d="M93.774 35.1631H84.7664C84.6608 35.1492 84.5639 35.0974 84.4937 35.0174C84.4235 34.9374 84.3848 34.8346 84.3848 34.7282C84.3848 34.6218 84.4235 34.519 84.4937 34.439C84.5639 34.359 84.6608 34.3072 84.7664 34.2933H93.774C93.8796 34.3072 93.9765 34.359 94.0467 34.439C94.1169 34.519 94.1557 34.6218 94.1557 34.7282C94.1557 34.8346 94.1169 34.9374 94.0467 35.0174C93.9765 35.0974 93.8796 35.1492 93.774 35.1631Z" fill="#CCCCCC"/>
<path d="M108.888 35.1631H99.8807C99.7751 35.1492 99.6782 35.0974 99.608 35.0174C99.5377 34.9374 99.499 34.8346 99.499 34.7282C99.499 34.6218 99.5377 34.519 99.608 34.439C99.6782 34.359 99.7751 34.3072 99.8807 34.2933H108.888C108.994 34.3072 109.091 34.359 109.161 34.439C109.231 34.519 109.27 34.6218 109.27 34.7282C109.27 34.8346 109.231 34.9374 109.161 35.0174C109.091 35.0974 108.994 35.1492 108.888 35.1631Z" fill="#CCCCCC"/>
<path d="M56.6749 20.8993H47.6673C47.5617 20.8854 47.4648 20.8336 47.3946 20.7536C47.3244 20.6736 47.2856 20.5708 47.2856 20.4644C47.2856 20.358 47.3244 20.2552 47.3946 20.1752C47.4648 20.0952 47.5617 20.0434 47.6673 20.0295H56.6749C56.7804 20.0434 56.8774 20.0952 56.9476 20.1752C57.0178 20.2552 57.0565 20.358 57.0565 20.4644C57.0565 20.5708 57.0178 20.6736 56.9476 20.7536C56.8774 20.8336 56.7804 20.8854 56.6749 20.8993Z" fill="#CCCCCC"/>
<path d="M79.2326 75.7474H47.7825C47.677 75.7335 47.58 75.6818 47.5098 75.6017C47.4396 75.5217 47.4009 75.419 47.4009 75.3126C47.4009 75.2062 47.4396 75.1034 47.5098 75.0234C47.58 74.9434 47.677 74.8916 47.7825 74.8777H79.2326C79.3382 74.8916 79.4351 74.9434 79.5054 75.0234C79.5756 75.1034 79.6143 75.2062 79.6143 75.3126C79.6143 75.419 79.5756 75.5217 79.5054 75.6017C79.4351 75.6818 79.3382 75.7335 79.2326 75.7474H79.2326Z" fill="#CCCCCC"/>
<path d="M79.0798 85.3146H47.6297C47.5241 85.3007 47.4272 85.2489 47.357 85.1689C47.2868 85.0889 47.248 84.9861 47.248 84.8797C47.248 84.7733 47.2868 84.6705 47.357 84.5905C47.4272 84.5105 47.5241 84.4587 47.6297 84.4448H79.0798C79.1854 84.4587 79.2824 84.5105 79.3526 84.5905C79.4228 84.6705 79.4615 84.7733 79.4615 84.8797C79.4615 84.9861 79.4228 85.0889 79.3526 85.1689C79.2824 85.2489 79.1854 85.3007 79.0798 85.3146H79.0798Z" fill="#CCCCCC"/>
<path d="M79.156 90.0981H47.7059C47.6003 90.0842 47.5034 90.0325 47.4332 89.9525C47.3629 89.8725 47.3242 89.7697 47.3242 89.6633C47.3242 89.5569 47.3629 89.4541 47.4332 89.3741C47.5034 89.2941 47.6003 89.2423 47.7059 89.2284H79.156C79.2616 89.2423 79.3585 89.2941 79.4288 89.3741C79.499 89.4541 79.5377 89.5569 79.5377 89.6633C79.5377 89.7697 79.499 89.8725 79.4288 89.9525C79.3585 90.0325 79.2616 90.0842 79.156 90.0981H79.156Z" fill="#CCCCCC"/>
<path d="M92.5909 85.4015H83.5833C83.4778 85.3876 83.3808 85.3358 83.3106 85.2558C83.2404 85.1758 83.2017 85.073 83.2017 84.9666C83.2017 84.8602 83.2404 84.7574 83.3106 84.6774C83.3808 84.5974 83.4778 84.5456 83.5833 84.5317H92.5909C92.6965 84.5456 92.7934 84.5974 92.8636 84.6774C92.9339 84.7574 92.9726 84.8602 92.9726 84.9666C92.9726 85.073 92.9339 85.1758 92.8636 85.2558C92.7934 85.3358 92.6965 85.3876 92.5909 85.4015Z" fill="#CCCCCC"/>
<path d="M92.5909 90.0981H83.5833C83.4778 90.0842 83.3808 90.0325 83.3106 89.9525C83.2404 89.8725 83.2017 89.7697 83.2017 89.6633C83.2017 89.5569 83.2404 89.4541 83.3106 89.3741C83.3808 89.2941 83.4778 89.2423 83.5833 89.2284H92.5909C92.6965 89.2423 92.7934 89.2941 92.8636 89.3741C92.9339 89.4541 92.9726 89.5569 92.9726 89.6633C92.9726 89.7697 92.9339 89.8725 92.8636 89.9525C92.7934 90.0325 92.6965 90.0842 92.5909 90.0981Z" fill="#CCCCCC"/>
<path d="M107.705 85.4015H98.6976C98.592 85.3876 98.4951 85.3358 98.4249 85.2558C98.3546 85.1758 98.3159 85.073 98.3159 84.9666C98.3159 84.8602 98.3546 84.7574 98.4249 84.6774C98.4951 84.5974 98.592 84.5456 98.6976 84.5317H107.705C107.811 84.5456 107.908 84.5974 107.978 84.6774C108.048 84.7574 108.087 84.8602 108.087 84.9666C108.087 85.073 108.048 85.1758 107.978 85.2558C107.908 85.3358 107.811 85.3876 107.705 85.4015Z" fill="#CCCCCC"/>
<path d="M113.659 80.5309H64.1942C64.0886 80.517 63.9917 80.4652 63.9214 80.3852C63.8512 80.3052 63.8125 80.2024 63.8125 80.096C63.8125 79.9896 63.8512 79.8868 63.9214 79.8068C63.9917 79.7268 64.0886 79.675 64.1942 79.6611H113.659C113.765 79.675 113.862 79.7268 113.932 79.8068C114.002 79.8868 114.041 79.9896 114.041 80.096C114.041 80.2024 114.002 80.3052 113.932 80.3852C113.862 80.4652 113.765 80.517 113.659 80.5309Z" fill="#CCCCCC"/>
<path d="M56.7135 80.5309H47.7059C47.6003 80.517 47.5034 80.4652 47.4332 80.3852C47.3629 80.3052 47.3242 80.2024 47.3242 80.096C47.3242 79.9896 47.3629 79.8868 47.4332 79.8068C47.5034 79.7268 47.6003 79.675 47.7059 79.6611H56.7135C56.819 79.675 56.916 79.7268 56.9862 79.8068C57.0564 79.8868 57.0951 79.9896 57.0951 80.096C57.0951 80.2024 57.0564 80.3052 56.9862 80.3852C56.916 80.4652 56.819 80.517 56.7135 80.5309Z" fill="#CCCCCC"/>
<path d="M71.6371 42.9771L59.4233 55.027L71.6371 67.0766L74.3851 64.3311L65.1484 55.1031L74.4613 45.7989L71.6371 42.9771Z" fill="#E6E6E6"/>
<path d="M89.6521 42.9771L101.866 55.027L89.6521 67.0766L86.9041 64.3311L96.1405 55.1031L86.8276 45.7989L89.6521 42.9771Z" fill="#E6E6E6"/>
<path d="M71.6371 42.9771L59.4233 55.027L71.6371 67.0766L74.3851 64.3311L65.1484 55.1031L74.4613 45.7989L71.6371 42.9771Z" fill="#6C63FF"/>
<path d="M89.6521 42.9771L101.866 55.027L89.6521 67.0766L86.9041 64.3311L96.1405 55.1031L86.8276 45.7989L89.6521 42.9771Z" fill="#6C63FF"/>
</svg>