<svg width="190" height="133" viewBox="0 0 190 133" fill="none" xmlns="http://www.w3.org/2000/svg">
<g clip-path="url(#clip0)">
<path d="M96.6788 133C148.219 133 190 130.389 190 127.169C190 123.949 148.219 121.338 96.6788 121.338C45.1389 121.338 3.35754 123.949 3.35754 127.169C3.35754 130.389 45.1389 133 96.6788 133Z" fill="#3F3D56"/>
<path d="M7.16837 121.452C9.30829 125.405 13.85 127.102 13.85 127.102C13.85 127.102 14.9221 122.39 12.7822 118.437C10.6423 114.485 6.10063 112.788 6.10063 112.788C6.10063 112.788 5.02845 117.5 7.16837 121.452Z" fill="#3F3D56"/>
<path d="M8.63937 120.152C12.5028 122.467 13.9907 127.066 13.9907 127.066C13.9907 127.066 9.2148 127.911 5.35136 125.595C1.48793 123.28 0 118.682 0 118.682C0 118.682 4.77593 117.837 8.63937 120.152Z" fill="#6C63FF"/>
<path d="M171.757 16.3027H18.8458V21.1482H171.757V16.3027Z" fill="#F2F2F2"/>
<path d="M171.757 125.717H18.8457V93.0303L35.7269 78.5753L171.757 68.302V125.717Z" fill="#6C63FF"/>
<path d="M22.9376 19.9081C23.633 19.9081 24.1967 19.3466 24.1967 18.6541C24.1967 17.9615 23.633 17.4 22.9376 17.4C22.2423 17.4 21.6786 17.9615 21.6786 18.6541C21.6786 19.3466 22.2423 19.9081 22.9376 19.9081Z" fill="#6C63FF"/>
<path d="M27.0295 19.9081C27.7249 19.9081 28.2886 19.3466 28.2886 18.6541C28.2886 17.9615 27.7249 17.4 27.0295 17.4C26.3342 17.4 25.7705 17.9615 25.7705 18.6541C25.7705 19.3466 26.3342 19.9081 27.0295 19.9081Z" fill="#6C63FF"/>
<path d="M31.1213 19.9081C31.8167 19.9081 32.3804 19.3466 32.3804 18.6541C32.3804 17.9615 31.8167 17.4 31.1213 17.4C30.426 17.4 29.8623 17.9615 29.8623 18.6541C29.8623 19.3466 30.426 19.9081 31.1213 19.9081Z" fill="#6C63FF"/>
<path d="M18.8457 92.9552L171.757 68.1441V21.1482H18.8457V92.9552Z" fill="white"/>
<path d="M154.638 103.394C150.51 102.697 146.54 102.099 142.728 101.599L144.235 98.689C143.727 98.5132 141.495 100.18 141.495 100.18L143.472 91.7325C140.917 92.0395 139.617 100.665 139.617 100.665L136.762 97.7485L138.145 101.027C126.478 99.6585 116.403 99.1511 107.928 99.1328L109.218 96.6421C108.71 96.4663 106.477 98.1328 106.477 98.1328L108.455 89.6856C105.899 89.9926 104.6 98.6177 104.6 98.6177L101.744 95.7016L103.209 99.1741C97.4021 99.2696 91.6044 99.6618 85.8383 100.349C87.1428 96.4692 91.5744 92.7789 91.5744 92.7789C88.1901 93.7815 86.4148 95.4615 85.4871 97.0278C85.4042 89.0218 86.7408 81.0642 89.4352 73.521C89.4352 73.521 82.4398 88.6831 83.3324 98.8605L83.4392 100.668C77.5087 101.514 74.5271 102.393 74.5271 102.393L154.638 103.394Z" fill="#3F3D56"/>
<path d="M72.5815 48.7153H29.881V50.4303H72.5815V48.7153Z" fill="#3F3D56"/>
<path d="M72.5815 52.4883H29.881V54.2032H72.5815V52.4883Z" fill="#3F3D56"/>
<path d="M44.3441 56.2612H29.881V57.9762H44.3441V56.2612Z" fill="#3F3D56"/>
<path d="M90.4304 124.136C91.358 124.136 92.11 123.387 92.11 122.463C92.11 121.539 91.358 120.79 90.4304 120.79C89.5027 120.79 88.7507 121.539 88.7507 122.463C88.7507 123.387 89.5027 124.136 90.4304 124.136Z" fill="#F2F2F2"/>
<path d="M95.3013 124.303C96.2289 124.303 96.9809 123.554 96.9809 122.63C96.9809 121.706 96.2289 120.957 95.3013 120.957C94.3736 120.957 93.6216 121.706 93.6216 122.63C93.6216 123.554 94.3736 124.303 95.3013 124.303Z" fill="#F2F2F2"/>
<path d="M100.172 124.47C101.1 124.47 101.852 123.721 101.852 122.797C101.852 121.873 101.1 121.124 100.172 121.124C99.2447 121.124 98.4927 121.873 98.4927 122.797C98.4927 123.721 99.2447 124.47 100.172 124.47Z" fill="#F2F2F2"/>
<path d="M95.3166 123.968C96.0587 123.968 96.6604 123.369 96.6604 122.63C96.6604 121.891 96.0587 121.292 95.3166 121.292C94.5745 121.292 93.9729 121.891 93.9729 122.63C93.9729 123.369 94.5745 123.968 95.3166 123.968Z" fill="#3F3D56"/>
<path d="M143.276 40.0861C151.869 40.0861 158.835 33.1477 158.835 24.5887C158.835 16.0296 151.869 9.09119 143.276 9.09119C134.683 9.09119 127.717 16.0296 127.717 24.5887C127.717 33.1477 134.683 40.0861 143.276 40.0861Z" fill="#FF6584"/>
<path d="M154.107 43.2566C157.17 64.0784 145.811 73.1615 130.482 75.3988C130.126 75.4507 129.771 75.4985 129.418 75.542C128.705 75.6305 127.997 75.7008 127.294 75.7531C113.316 76.7967 101.442 70.7231 98.593 51.3588C95.6448 31.3192 117.638 2.27663 119.292 0.125249C119.293 0.125003 119.293 0.125004 119.295 0.123057C119.358 0.0410991 119.39 0 119.39 0C119.39 0 151.044 22.4364 154.107 43.2566Z" fill="#6C63FF"/>
<path d="M129.004 72.3612L137.077 56.7517L129.206 73.9158L129.418 75.542C128.705 75.6304 127.997 75.7008 127.294 75.7531L125.324 54.7631L125.291 54.6032L125.306 54.5699L125.12 52.5864L112.605 38.3578L124.934 51.1074L125.021 51.5211L123.531 35.6624L112.408 20.6951L123.232 32.8809L119.292 0.125198L119.279 0.0161133L119.295 0.123006L122.938 25.8764L130.13 14.4062L123.226 28.0979L125.069 42.2237L131.201 27.5146L125.342 44.3002L126.367 52.1548L135.383 31.6101L126.723 54.8951L129.004 72.3612Z" fill="#3F3D56"/>
</g>
<defs>
<clipPath id="clip0">
<rect width="190" height="133" fill="white"/>
</clipPath>
</defs>
</svg>