<svg width="92" height="91" viewBox="0 0 92 91" fill="none" xmlns="http://www.w3.org/2000/svg">
<path fill-rule="evenodd" clip-rule="evenodd" d="M48 91C72.3005 91 92 71.3005 92 47C92 22.6995 72.3005 3 48 3C23.6995 3 4 22.6995 4 47C4 71.3005 23.6995 91 48 91ZM47.6333 80C65.6562 80 80.2667 65.3896 80.2667 47.3667C80.2667 29.3438 65.6562 14.7333 47.6333 14.7333C29.6104 14.7333 15 29.3438 15 47.3667C15 65.3896 29.6104 80 47.6333 80Z" fill="#D0222E"/>
<line x1="20.3431" y1="74.8765" x2="73.8765" y2="21.3431" stroke="#D0222E" stroke-width="16"/>
<path fill-rule="evenodd" clip-rule="evenodd" d="M44 88C68.3005 88 88 68.3005 88 44C88 19.6995 68.3005 0 44 0C19.6995 0 0 19.6995 0 44C0 68.3005 19.6995 88 44 88ZM43.6333 77C61.6562 77 76.2667 62.3896 76.2667 44.3667C76.2667 26.3438 61.6562 11.7333 43.6333 11.7333C25.6104 11.7333 11 26.3438 11 44.3667C11 62.3896 25.6104 77 43.6333 77Z" fill="#E34651"/>
<line x1="16.3431" y1="71.8765" x2="69.8765" y2="18.3431" stroke="#E34651" stroke-width="16"/>
</svg>