<svg width="189" height="103" viewBox="0 0 189 103" fill="none" xmlns="http://www.w3.org/2000/svg">
<path d="M188.035 0H64.6744V103H188.035V0Z" fill="#3F3D56"/>
<path d="M150.907 16.7675H101.802V22.7558H150.907V16.7675Z" fill="white"/>
<path d="M114.977 31.1395H81.4419V34.7325H114.977V31.1395Z" fill="white"/>
<path d="M142.523 55.093H108.988V58.686H142.523V55.093Z" fill="white"/>
<path d="M170.07 31.1395H136.535V34.7325H170.07V31.1395Z" fill="white"/>
<path d="M43.1163 16.7675H0V53.8954H43.1163V16.7675Z" fill="#3F3D56"/>
<path d="M37.1279 37.1279H5.9884V39.5233H37.1279V37.1279Z" fill="#6C63FF"/>
<path d="M37.1279 40.7209H5.9884V43.1163H37.1279V40.7209Z" fill="#6C63FF"/>
<path d="M37.1279 44.314H5.9884V46.7093H37.1279V44.314Z" fill="#6C63FF"/>
<path d="M37.1279 25.1511H5.9884V26.3488H37.1279V25.1511Z" fill="#6C63FF"/>
<path d="M37.1279 28.7441H5.9884V29.9418H37.1279V28.7441Z" fill="#6C63FF"/>
<path d="M37.1279 32.3372H5.9884V34.7325H37.1279V32.3372Z" fill="#6C63FF"/>
<path d="M171.267 43.1163H81.4419V46.7094H171.267V43.1163Z" fill="white"/>
<path d="M101.802 55.093H81.4419V58.686H101.802V55.093Z" fill="#6C63FF"/>
<path d="M101.802 79.0465H81.4419V83.8372H101.802V79.0465Z" fill="white"/>
<path d="M170.07 55.093H150.907V58.686H170.07V55.093Z" fill="white"/>
<path d="M171.267 67.0698H81.4419V71.8605H171.267V67.0698Z" fill="white"/>
<path d="M171.268 79.0465H118.57V83.8372H171.268V79.0465Z" fill="white"/>
<path d="M83.5744 57.4884L51.4942 7.91626H29.9419V7.18604H51.6434L83.8372 56.9334L83.5744 57.4884Z" fill="#2F2E41"/>
<path d="M20.9594 14.3721C23.9359 14.3721 26.3489 11.691 26.3489 8.38376C26.3489 5.07647 23.9359 2.39539 20.9594 2.39539C17.9828 2.39539 15.5698 5.07647 15.5698 8.38376C15.5698 11.691 17.9828 14.3721 20.9594 14.3721Z" fill="#6C63FF"/>
</svg>