<svg width="179" height="116" viewBox="0 0 179 116" fill="none" xmlns="http://www.w3.org/2000/svg">
<path d="M179 116H0V0H179V116ZM0.365679 115.638H178.634V0.3625H0.365679V115.638Z" fill="#3F3D56"/>
<path d="M89.9571 2.90002H3.65686V113.1H89.9571V2.90002Z" fill="#3F3D56"/>
<path d="M175.709 2.90002H89.4086V113.1H175.709V2.90002Z" fill="#6C63FF"/>
<path d="M113.888 105.432C113.677 105.046 113.489 104.649 113.325 104.242C112.606 102.458 114.001 101.039 114.06 100.979L114.115 100.925L114.114 100.848C114.098 99.859 113.713 76.5672 112.558 71.9885C111.515 67.854 108.289 66.7254 107.537 66.5157L107.539 66.4952L103.829 66.0239C105.217 56.9604 106.609 36.0026 90.8917 31.6869C90.3467 31.5509 89.7913 31.4601 89.2311 31.4153L89.1971 31.7762C89.7354 31.82 90.2692 31.9069 90.7933 32.036C106.234 36.276 104.84 57.0154 103.466 65.9778L97.8482 65.2641C96.3851 64.4504 94.7327 62.9901 94.5387 59.0717C96.5555 57.3929 97.8486 55.0133 98.1532 52.4201C98.1793 52.4232 98.2056 52.4247 98.2319 52.4247C99.0452 52.4247 99.7068 51.4816 99.7068 50.3222C99.7068 49.1628 99.0452 48.2197 98.2319 48.2197C98.0683 48.2128 97.9084 48.2694 97.7861 48.3773C97.2223 46.5214 96.1378 44.8627 94.6591 43.5946C93.1804 42.3265 91.3684 41.5013 89.4346 41.2153L89.3825 41.5741C91.7358 41.9133 93.8872 43.0812 95.443 44.864C96.9989 46.6468 97.8551 48.9254 97.8551 51.2828C97.8551 53.6402 96.9989 55.9187 95.443 57.7016C93.8872 59.4844 91.7358 60.6523 89.3825 60.9915L89.4346 61.3505C91.1665 61.1016 92.8041 60.413 94.1883 59.3515C94.439 63.0119 96.0146 64.5712 97.3631 65.4014C95.8219 67.4909 93.325 68.7561 89.9352 69.1589C89.7541 69.1805 89.5731 69.1986 89.3921 69.2147L89.4248 69.5758C89.6095 69.5593 89.7941 69.5409 89.9788 69.5189C93.479 69.103 96.0653 67.787 97.668 65.6067L97.7314 65.6147C97.7432 65.6212 97.7553 65.6281 97.7671 65.6344L97.7749 65.6202L107.144 66.8106L104.446 97.7615L104.445 97.7716L104.445 97.7817C104.445 97.783 104.453 98.0676 104.453 98.5683V98.6103L104.453 98.6106C104.467 101.342 104.332 104.072 104.05 106.789C103.747 109.483 103.288 111.544 102.684 112.919H97.9507C97.9735 112.493 98.0607 112.072 98.2094 111.672L98.6327 110.469L97.8878 111.507C97.4704 112.044 96.9783 112.519 96.4264 112.919H89.4085V113.281H96.5456L96.5937 113.247C96.9718 112.973 97.3253 112.668 97.6503 112.334C97.6025 112.588 97.58 112.845 97.5832 113.104L97.5866 113.281H110.58L110.622 113.256C111.4 112.805 111.4 111.971 111.4 110.457C111.4 109.508 112.044 108.87 112.725 108.195C113.084 107.862 113.409 107.495 113.695 107.1C114.277 106.235 114.253 106.114 113.888 105.432ZM97.9067 48.7683C98.0451 48.6216 98.0824 48.5822 98.2319 48.5822C98.8331 48.5822 99.3411 49.379 99.3411 50.3222C99.3411 51.2591 98.84 52.0515 98.244 52.0621C98.2314 52.0302 98.2147 52 98.1943 51.9722C98.2101 51.7439 98.2208 51.5144 98.2208 51.2828C98.2202 50.4374 98.1119 49.5954 97.8985 48.7769L97.9067 48.7683ZM105.599 100.875L104.507 105.928C104.753 103.344 104.809 100.819 104.818 99.3321L105.599 100.875ZM113.391 106.899C113.117 107.274 112.808 107.622 112.466 107.938C111.763 108.636 111.035 109.358 111.035 110.457C111.035 111.943 111.013 112.579 110.479 112.919H103.081C103.666 111.521 104.111 109.49 104.408 106.874L104.799 106.303L105.983 100.827L104.818 98.5245C104.818 98.1009 104.812 97.8366 104.811 97.7828L107.505 66.8829C108.296 67.1147 111.231 68.2217 112.203 72.0763C113.316 76.4905 113.722 99.3142 113.747 100.782C113.469 101.091 112.262 102.582 112.986 104.377C113.154 104.796 113.348 105.205 113.565 105.601C113.874 106.18 113.874 106.18 113.391 106.899Z" fill="#3F3D56"/>
<path d="M89.4762 31.6717V72.1539L81.4953 73.0764L74.3828 73.9011L71.8944 74.1875V74.1893L71.7774 74.202C71.7774 74.202 71.366 72.9532 71.0424 70.4628C70.4829 66.1581 70.1848 58.145 72.7355 46.4707C76.1381 30.8887 86.3935 31.204 89.4762 31.6717Z" fill="#2F2E41"/>
<path d="M88.9275 105.642L89.476 105.669V113.085H64.1655L64.7049 111.066L65.3851 108.522L68.5445 105.39L69.2613 104.679L88.9275 105.642Z" fill="#2F2E41"/>
<path d="M89.4761 41.4736V61.0631C88.0957 61.3396 86.6723 61.3263 85.2975 61.0241C83.9227 60.7218 82.627 60.1374 81.494 59.3084C80.361 58.4793 79.4158 57.4242 78.7193 56.2109C78.0229 54.9976 77.5906 53.6531 77.4504 52.264C77.3103 50.875 77.4653 49.4722 77.9055 48.1462C78.3457 46.8202 79.0613 45.6003 80.0062 44.5652C80.9511 43.5302 82.1043 42.7028 83.3915 42.1366C84.6786 41.5704 86.0712 41.2779 87.4794 41.2778C88.1151 41.277 88.7494 41.3365 89.3737 41.4555C89.4084 41.4609 89.4413 41.4663 89.4761 41.4736Z" fill="#FFB9B9"/>
<path d="M89.476 57.9221V79.1483L81.495 73.0764L76.8198 69.5203L80.5552 67.8365C80.7234 67.7622 80.899 67.6824 81.0836 67.5991C83.8683 66.3448 84.3382 62.9572 84.329 60.7605C84.3294 60.0915 84.2811 59.4234 84.1846 58.7613L89.476 57.9221Z" fill="#FFB9B9"/>
<path d="M88.9276 69.3807C89.1104 69.3644 89.2932 69.3462 89.4761 69.3245V113.085H86.547C84.6838 112.525 83.2156 111.98 83.2156 111.98C83.2156 111.98 74.3004 110.827 71.587 111.211C71.4353 111.233 71.2561 111.258 71.0532 111.287C69.4167 111.519 66.314 111.898 64.705 111.066C63.1015 110.238 62.979 108.208 67.2574 103.635C67.6322 103.235 68.0418 102.814 68.4861 102.374C68.4861 102.374 74.3004 98.5311 73.5252 97.3784C72.7499 96.2256 71.587 91.2304 71.587 91.2304L71.6053 90.2426L71.8942 74.1892V74.1874L71.9747 69.7124L80.5554 67.8364L82.0528 68.9439C84.3115 69.4145 86.6267 69.5616 88.9276 69.3807Z" fill="#575A89"/>
<path d="M73.2335 113.086H68.6058L70.4251 112.364C70.4251 112.364 71.1308 112.493 72.1401 112.767C72.4766 112.857 72.8459 112.963 73.2335 113.086Z" fill="#FFB9B9"/>
<path d="M73.5258 88.5409C72.9279 88.7638 72.2733 89.3837 71.6059 90.2428C68.8048 93.8406 65.7734 101.605 65.7734 101.605C65.7734 101.605 66.7954 102.619 67.258 103.635C67.4939 104.154 67.5853 104.674 67.3238 105.064C66.5486 106.216 67.3238 105.064 68.0991 105.064C68.4008 105.064 68.5269 105.18 68.5452 105.39C68.5726 105.72 68.3349 106.282 68.0991 106.985C67.7115 108.138 68.0991 108.522 70.0372 108.906C71.9753 109.29 70.8124 109.29 70.8124 110.443C70.8224 110.74 70.9052 111.03 71.0538 111.288C71.3937 111.852 71.8379 112.348 72.3629 112.749C72.2861 112.754 72.213 112.76 72.1398 112.767C71.6215 112.807 71.1106 112.914 70.6204 113.086H60.6977C60.8821 112.873 61.0258 112.628 61.1219 112.364C61.5095 111.212 58.4086 109.29 58.021 108.906C57.6333 108.522 57.6333 106.985 58.021 105.448C58.4086 103.911 57.6333 103.911 56.8581 103.142C56.0829 102.374 56.8581 101.221 57.6333 100.068C58.4086 98.9156 58.4086 99.2999 57.2457 96.9944C56.0828 94.6889 58.4086 94.3046 58.4086 94.3046C58.4086 94.3046 63.4476 83.9299 66.161 77.7819C67.9546 73.7165 69.9202 71.498 71.0428 70.463C71.3317 70.1873 71.6437 69.9363 71.9753 69.7126L73.9134 70.4811C73.9134 70.4811 74.1383 71.8786 74.3833 73.8995C74.994 78.902 75.7345 87.7198 73.5258 88.5409Z" fill="#575A89"/>
<path d="M89.4759 38.1912V41.2887C89.4429 41.3449 89.4082 41.3993 89.3735 41.4555C87.3513 44.7452 83.7439 49.2673 78.2001 51.7342L77.7028 48.8396L76.6661 42.8076L89.4759 38.1912Z" fill="#2F2E41"/>
<path d="M46.8419 97.6831C46.8475 109.107 39.9983 113.099 31.5476 113.103C31.3513 113.103 31.156 113.101 30.9616 113.097C30.5699 113.089 30.1823 113.071 29.7988 113.044C22.1716 112.513 16.2434 108.322 16.2382 97.6978C16.2328 86.7026 30.4018 72.8201 31.4644 71.7936C31.4654 71.7936 31.4654 71.7936 31.4663 71.7927C31.5067 71.7536 31.5273 71.734 31.5273 71.734C31.5273 71.734 46.8364 86.2596 46.8419 97.6831Z" fill="#6C63FF"/>
<path d="M30.9898 111.356L36.5825 103.602L30.9761 112.207L30.9615 113.097C30.5699 113.089 30.1823 113.071 29.7988 113.045L30.3962 101.615L30.3914 101.527L30.4017 101.51L30.4585 100.43L24.8296 91.8089L30.475 99.621L30.4892 99.85L30.9405 91.2147L26.121 82.3055L30.9989 89.6972L31.4644 71.7937L31.4662 71.7341L31.4663 71.7928L31.3943 85.9115L36.1841 80.312L31.3742 87.1274L31.2512 94.8595L35.7246 87.4372L31.234 95.9962L31.1656 100.296L37.6577 89.964L31.141 101.796L30.9898 111.356Z" fill="#3F3D56"/>
<path d="M151.044 80.1348C148.702 77.0501 146.137 74.1382 143.369 71.4219L143.243 71.3026L143.052 71.4828C141.487 72.9942 127.765 86.5658 127.771 97.5168C127.776 109.445 135.099 112.549 141.322 113.03L141.322 113.031L141.501 113.044C141.885 113.071 142.28 113.089 142.672 113.097L142.674 113.097L142.857 113.101L142.857 113.099C142.983 113.101 143.109 113.103 143.237 113.103H143.263C147.895 113.101 151.576 111.933 154.202 109.63C157.216 106.989 158.743 102.908 158.74 97.5019C158.737 91.5509 154.553 84.773 151.044 80.1348ZM146.156 95.2455L142.674 101.567L142.513 111.753L143.948 109.763L142.509 111.971L142.497 112.729C142.455 112.727 142.412 112.726 142.37 112.724C142.186 112.718 142.002 112.71 141.82 112.699C141.782 112.697 141.744 112.695 141.706 112.693L142.294 101.443L142.294 101.434L142.292 101.392L142.359 100.2L140.908 97.9772L142.011 99.5029L142.022 99.6799L142.387 99.6782L142.838 91.0429L142.841 90.9925L139.981 85.7047L142.857 90.0636L142.773 95.3528L144.416 92.6275L142.767 95.7692L142.688 100.765L146.156 95.2455ZM128.136 97.5166C128.134 92.9618 130.549 87.3825 135.314 80.9335C137.652 77.7955 140.216 74.8292 142.986 72.0577L142.546 88.9308L137.989 82.0249L137.675 82.2098L142.471 91.0746L142.059 98.9471L136.693 91.5221L136.391 91.726L141.988 100.298L141.937 101.273L141.921 101.299L141.928 101.434L141.341 112.668C135.274 112.195 128.142 109.161 128.136 97.5166ZM145.493 83.2237L142.967 86.8027L142.984 86.157L145.493 83.2237ZM143.263 112.741C143.128 112.74 142.996 112.738 142.863 112.736L142.873 112.081L148.451 103.519L148.149 103.315L142.897 110.597L143.038 101.662L149.533 89.8696L149.218 89.6869L143.074 99.4642L143.131 95.8606L147.602 87.3395L147.283 87.163L143.16 94.0036L143.271 87.0046L148.049 80.2347L147.76 80.0136L143.295 85.2332L143.363 71.9237C145.325 73.8533 158.369 87.0779 158.374 97.5019C158.38 110.091 150.16 112.737 143.263 112.741Z" fill="#3F3D56"/>
</svg>