<svg width="185" height="137" viewBox="0 0 185 137" fill="none" xmlns="http://www.w3.org/2000/svg">
<g clip-path="url(#clip0)">
<path d="M133.874 0.251315L3.90872 40.5654C0.978468 41.4743 -0.658856 44.5825 0.251657 47.5077L23.6323 122.623C24.5428 125.548 27.6564 127.182 30.5867 126.273L160.552 85.9593C163.482 85.0504 165.119 81.9422 164.209 79.017L140.828 3.90207C139.917 0.976874 136.804 -0.657627 133.874 0.251315Z" fill="url(#paint0_linear)"/>
<path d="M133.2 1.43751L6.10355 40.8619C3.17329 41.7708 1.53597 44.879 2.44648 47.8042L24.8829 119.886C25.7935 122.811 28.907 124.445 31.8373 123.536L158.934 84.112C161.864 83.2031 163.502 80.0949 162.591 77.1697L140.155 5.08827C139.244 2.16307 136.13 0.52857 133.2 1.43751Z" fill="white"/>
<path d="M141.898 10.6869L4.1897 53.4028L7.88019 65.2593L145.588 22.5433L141.898 10.6869Z" fill="#6C63FF"/>
<path d="M67.6467 95.5623L32.658 106.416L34.2539 111.543L69.2426 100.689L67.6467 95.5623Z" fill="#BDBDBD"/>
<path d="M90.6337 78.9446L29.9651 97.7635L31.561 102.891L92.2296 84.0717L90.6337 78.9446Z" fill="#E0E0E0"/>
<path d="M179.444 47.1613H42.5196C39.4511 47.1613 36.9636 49.6444 36.9636 52.7076V131.454C36.9636 134.517 39.4511 137 42.5196 137H179.444C182.512 137 185 134.517 185 131.454V52.7076C185 49.6444 182.512 47.1613 179.444 47.1613Z" fill="url(#paint1_linear)"/>
<path d="M177.292 48.0773H44.2007C41.1323 48.0773 38.6448 50.5605 38.6448 53.6236V129.105C38.6448 132.168 41.1323 134.651 44.2007 134.651H177.292C180.36 134.651 182.848 132.168 182.848 129.105V53.6236C182.848 50.5605 180.36 48.0773 177.292 48.0773Z" fill="white"/>
<path d="M77.1387 90.105H72.937V102.017H77.1387V90.105Z" fill="#E0E0E0"/>
<path d="M82.5169 90.105H78.3152V102.017H82.5169V90.105Z" fill="#E0E0E0"/>
<path d="M87.8946 90.105H83.6929V102.017H87.8946V90.105Z" fill="#E0E0E0"/>
<path d="M97.3069 90.105H93.1052V102.017H97.3069V90.105Z" fill="#E0E0E0"/>
<path d="M102.685 90.105H98.4834V102.017H102.685V90.105Z" fill="#E0E0E0"/>
<path d="M108.064 90.105H103.862V102.017H108.064V90.105Z" fill="#E0E0E0"/>
<path d="M117.475 90.105H113.273V102.017H117.475V90.105Z" fill="#E0E0E0"/>
<path d="M122.853 90.105H118.652V102.017H122.853V90.105Z" fill="#E0E0E0"/>
<path d="M128.231 90.105H124.03V102.017H128.231V90.105Z" fill="#E0E0E0"/>
<path d="M137.643 90.105H133.441V102.017H137.643V90.105Z" fill="#E0E0E0"/>
<path d="M143.022 90.105H138.82V102.017H143.022V90.105Z" fill="#E0E0E0"/>
<path d="M148.4 90.105H144.198V102.017H148.4V90.105Z" fill="#E0E0E0"/>
<path d="M72.8713 70.7584H47.8191V84.473H72.8713V70.7584Z" fill="#6C63FF"/>
<path opacity="0.1" d="M160.554 115.734H145.199V131.062H160.554V115.734Z" fill="#6C63FF"/>
<path opacity="0.1" d="M168.231 115.734H152.877V131.062H168.231V115.734Z" fill="#6C63FF"/>
</g>
<defs>
<linearGradient id="paint0_linear" x1="82.5068" y1="126.76" x2="83.0642" y2="-0.230425" gradientUnits="userSpaceOnUse">
<stop stop-color="#808080" stop-opacity="0.25"/>
<stop offset="0.53514" stop-color="#808080" stop-opacity="0.12"/>
<stop offset="1" stop-color="#808080" stop-opacity="0.1"/>
</linearGradient>
<linearGradient id="paint1_linear" x1="81356.7" y1="61072.4" x2="81356.7" y2="21054.7" gradientUnits="userSpaceOnUse">
<stop stop-color="#808080" stop-opacity="0.25"/>
<stop offset="0.53514" stop-color="#808080" stop-opacity="0.12"/>
<stop offset="1" stop-color="#808080" stop-opacity="0.1"/>
</linearGradient>
<clipPath id="clip0">
<rect width="185" height="137" fill="white"/>
</clipPath>
</defs>
</svg>