<svg width="175" height="124" viewBox="0 0 175 124" fill="none" xmlns="http://www.w3.org/2000/svg">
<path d="M174.193 50.928H173.86V41.8005C173.86 41.1068 173.724 40.4199 173.459 39.7789C173.194 39.138 172.805 38.5556 172.315 38.0651C171.825 37.5745 171.244 37.1854 170.604 36.9199C169.964 36.6545 169.278 36.5178 168.585 36.5178H149.275C148.582 36.5178 147.896 36.6545 147.256 36.9199C146.616 37.1854 146.035 37.5745 145.545 38.0651C145.055 38.5556 144.667 39.138 144.402 39.7789C144.136 40.4199 144 41.1068 144 41.8005V91.8744C144 92.5682 144.136 93.2551 144.402 93.8961C144.667 94.537 145.055 95.1194 145.545 95.6099C146.035 96.1004 146.616 96.4896 147.256 96.755C147.896 97.0205 148.582 97.1572 149.275 97.1572H168.585C169.278 97.1572 169.964 97.0205 170.604 96.755C171.244 96.4896 171.825 96.1004 172.315 95.6099C172.805 95.1194 173.194 94.537 173.459 93.8961C173.724 93.2551 173.86 92.5682 173.86 91.8744V57.4251H174.193V50.928Z" fill="#3F3D56"/>
<path d="M172.738 42.111V92.1121C172.738 93.1585 172.323 94.1621 171.584 94.902C170.845 95.642 169.843 96.0577 168.798 96.0577H149.395C148.878 96.0577 148.366 95.9556 147.888 95.7572C147.41 95.5589 146.976 95.2682 146.61 94.9018C146.244 94.5354 145.954 94.1005 145.756 93.6218C145.559 93.1431 145.457 92.6301 145.457 92.1121V42.111C145.457 41.065 145.872 40.0619 146.611 39.3223C147.349 38.5826 148.351 38.1671 149.395 38.1671H151.749C151.634 38.4517 151.59 38.7603 151.621 39.0659C151.653 39.3714 151.759 39.6645 151.93 39.9195C152.101 40.1744 152.332 40.3833 152.603 40.5279C152.873 40.6725 153.175 40.7482 153.482 40.7486H164.545C164.852 40.7491 165.154 40.6739 165.426 40.5296C165.697 40.3853 165.928 40.1763 166.099 39.9211C166.271 39.6659 166.377 39.3724 166.408 39.0664C166.439 38.7605 166.394 38.4516 166.278 38.1671H168.798C169.843 38.1671 170.845 38.5825 171.584 39.3221C172.322 40.0617 172.738 41.0648 172.738 42.111Z" fill="#D0CDE1"/>
<path d="M169.065 63.7665H146.51V69.8615H169.065V63.7665Z" fill="#6C63FF"/>
<path d="M169.96 68.7859H148.121C147.979 68.7857 147.842 68.729 147.741 68.6282C147.641 68.5274 147.584 68.3907 147.584 68.2481V62.8701C147.584 62.7275 147.641 62.5908 147.741 62.49C147.842 62.3891 147.979 62.3324 148.121 62.3323H169.96C170.102 62.3324 170.239 62.3891 170.34 62.49C170.44 62.5908 170.497 62.7275 170.497 62.8701V68.2481C170.497 68.3907 170.44 68.5274 170.34 68.6282C170.239 68.729 170.102 68.7857 169.96 68.7859ZM148.121 62.6908C148.074 62.6909 148.028 62.7098 147.994 62.7434C147.961 62.777 147.942 62.8225 147.942 62.8701V68.2481C147.942 68.2956 147.961 68.3412 147.994 68.3748C148.028 68.4084 148.074 68.4273 148.121 68.4273H169.96C170.008 68.4273 170.053 68.4084 170.087 68.3748C170.12 68.3412 170.139 68.2956 170.139 68.2481V62.8701C170.139 62.8225 170.12 62.777 170.087 62.7434C170.053 62.7098 170.008 62.6909 169.96 62.6908H148.121Z" fill="#3F3D56"/>
<path d="M151.88 67.1725H149.016V67.531H151.88V67.1725Z" fill="#3F3D56"/>
<path d="M155.818 67.1725H152.954V67.531H155.818V67.1725Z" fill="#3F3D56"/>
<path d="M159.756 67.1725H156.892V67.531H159.756V67.1725Z" fill="#3F3D56"/>
<path d="M163.694 67.1725H160.83V67.531H163.694V67.1725Z" fill="#3F3D56"/>
<path d="M167.633 67.1725H164.769V67.531H167.633V67.1725Z" fill="#3F3D56"/>
<path opacity="0.1" d="M172.738 87.028V92.112C172.738 93.1584 172.323 94.162 171.584 94.9019C170.845 95.6419 169.843 96.0576 168.798 96.0576H149.395C148.878 96.0576 148.366 95.9555 147.888 95.7571C147.41 95.5588 146.976 95.2682 146.61 94.9018C146.244 94.5354 145.954 94.1004 145.756 93.6217C145.559 93.1431 145.457 92.63 145.457 92.112V68.7249L172.738 87.028Z" fill="black"/>
<path d="M102.546 82.4102H17.874V124H102.546V82.4102Z" fill="#D0CDE1"/>
<path opacity="0.1" d="M81.0196 124H18.232C18.1372 124 18.0463 123.962 17.9792 123.895C17.9121 123.828 17.8743 123.737 17.874 123.642V82.7687C17.8743 82.6737 17.9121 82.5827 17.9792 82.5155C18.0463 82.4483 18.1372 82.4104 18.232 82.4102H19.0268L81.0196 124Z" fill="black"/>
<path d="M57 88H165V88H57V88Z" stroke="#3F3D56" stroke-width="0.4"/>
<path d="M98.561 0.77403H61.0604V0H44.0561V0.77403H6.40089C6.06778 0.77403 5.73792 0.839737 5.43016 0.967398C5.12241 1.09506 4.84277 1.28217 4.60722 1.51806C4.37167 1.75395 4.18482 2.03399 4.05735 2.34219C3.92987 2.65039 3.86426 2.98072 3.86426 3.31431V54.738C3.86426 55.4117 4.13151 56.0579 4.60722 56.5343C5.08293 57.0107 5.72814 57.2783 6.40089 57.2783H98.561C99.2338 57.2783 99.879 57.0107 100.355 56.5343C100.83 56.0579 101.098 55.4117 101.098 54.738V3.31431C101.098 2.98072 101.032 2.65039 100.905 2.34219C100.777 2.03399 100.59 1.75395 100.355 1.51806C100.119 1.28217 99.8395 1.09506 99.5317 0.967398C99.224 0.839737 98.8941 0.77403 98.561 0.77403Z" fill="#3F3D56"/>
<path d="M97.6968 5.2627H7.2666V56.3501H97.6968V5.2627Z" fill="#D0CDE1"/>
<path d="M52.4041 3.87013C52.9163 3.87013 53.3316 3.45427 53.3316 2.94129C53.3316 2.42831 52.9163 2.01245 52.4041 2.01245C51.8918 2.01245 51.4766 2.42831 51.4766 2.94129C51.4766 3.45427 51.8918 3.87013 52.4041 3.87013Z" fill="#6C63FF"/>
<path d="M34.1637 24.3276H32.0155C31.8732 24.3275 31.7367 24.2708 31.636 24.1699C31.5353 24.0691 31.4787 23.9324 31.4785 23.7898V21.6386C31.4787 21.496 31.5353 21.3593 31.636 21.2585C31.7367 21.1577 31.8732 21.101 32.0155 21.1008H34.1637C34.306 21.101 34.4425 21.1577 34.5432 21.2585C34.6439 21.3593 34.7005 21.496 34.7007 21.6386V23.7898C34.7005 23.9324 34.6439 24.0691 34.5432 24.1699C34.4425 24.2708 34.306 24.3275 34.1637 24.3276ZM32.0155 21.4594C31.9681 21.4594 31.9226 21.4783 31.889 21.5119C31.8555 21.5455 31.8366 21.5911 31.8365 21.6386V23.7898C31.8366 23.8374 31.8555 23.8829 31.889 23.9165C31.9226 23.9501 31.9681 23.969 32.0155 23.9691H34.1637C34.2111 23.969 34.2566 23.9501 34.2902 23.9165C34.3237 23.8829 34.3426 23.8374 34.3427 23.7898V21.6386C34.3426 21.5911 34.3237 21.5455 34.2902 21.5119C34.2566 21.4783 34.2111 21.4594 34.1637 21.4594H32.0155Z" fill="#3F3D56"/>
<path d="M72.4724 23.9692H31.6582V24.3278H72.4724V23.9692Z" fill="#3F3D56"/>
<path d="M71.3977 33.8289H61.9102V36.6971H71.3977V33.8289Z" fill="#6C63FF"/>
<path d="M72.1142 35.98H63.3427C63.2003 35.9798 63.0638 35.9231 62.9631 35.8223C62.8624 35.7215 62.8058 35.5848 62.8057 35.4422V33.291C62.8058 33.1484 62.8624 33.0117 62.9631 32.9109C63.0638 32.81 63.2003 32.7533 63.3427 32.7532H72.1142C72.2565 32.7533 72.393 32.81 72.4937 32.9109C72.5944 33.0117 72.651 33.1484 72.6512 33.291V35.4422C72.651 35.5848 72.5944 35.7215 72.4937 35.8223C72.393 35.9231 72.2565 35.9798 72.1142 35.98ZM63.3427 33.1117C63.2952 33.1118 63.2497 33.1307 63.2162 33.1643C63.1826 33.1979 63.1637 33.2435 63.1637 33.291V35.4422C63.1637 35.4897 63.1826 35.5353 63.2162 35.5689C63.2497 35.6025 63.2952 35.6214 63.3427 35.6215H72.1142C72.1616 35.6214 72.2071 35.6025 72.2407 35.5689C72.2742 35.5353 72.2931 35.4897 72.2932 35.4422V33.291C72.2931 33.2435 72.2742 33.1979 72.2407 33.1643C72.2071 33.1307 72.1616 33.1118 72.1142 33.1117H63.3427Z" fill="#3F3D56"/>
<path d="M129.901 31.067H112V43.6157H129.901V31.067Z" fill="#6C63FF"/>
<path d="M131.691 42.6297H114.506C114.316 42.6295 114.134 42.5539 114 42.4195C113.866 42.2851 113.79 42.1028 113.79 41.9127V30.0811C113.79 29.891 113.866 29.7087 114 29.5743C114.134 29.4398 114.316 29.3642 114.506 29.364H131.691C131.881 29.3642 132.063 29.4398 132.197 29.5743C132.331 29.7087 132.407 29.891 132.407 30.0811V41.9127C132.407 42.1028 132.331 42.2851 132.197 42.4195C132.063 42.5539 131.881 42.6295 131.691 42.6297ZM114.506 30.0811V41.9127H131.691L131.691 30.0811H114.506Z" fill="#3F3D56"/>
<path d="M129.721 29.6329H129.005C129.005 28.0639 128.383 26.5592 127.275 25.4498C126.167 24.3403 124.665 23.7171 123.098 23.7171C121.531 23.7171 120.029 24.3403 118.921 25.4498C117.813 26.5592 117.191 28.0639 117.191 29.6329H116.475C116.475 27.8737 117.172 26.1866 118.415 24.9427C119.657 23.6988 121.341 23 123.098 23C124.855 23 126.539 23.6988 127.781 24.9427C129.024 26.1866 129.721 27.8737 129.721 29.6329Z" fill="#3F3D56"/>
<path d="M124.889 34.5627C124.889 34.2505 124.808 33.9437 124.654 33.6725C124.499 33.4014 124.277 33.1753 124.008 33.0166C123.74 32.858 123.435 32.7723 123.123 32.7681C122.811 32.7639 122.504 32.8412 122.231 32.9925C121.959 33.1438 121.73 33.3637 121.568 33.6306C121.407 33.8975 121.317 34.202 121.309 34.5141C121.301 34.8261 121.375 35.1349 121.522 35.4098C121.67 35.6848 121.887 35.9163 122.151 36.0816V38.0057C122.151 38.1303 122.176 38.2537 122.223 38.3689C122.271 38.484 122.341 38.5886 122.429 38.6768C122.517 38.7649 122.621 38.8348 122.736 38.8825C122.851 38.9302 122.974 38.9547 123.099 38.9547C123.35 38.9547 123.591 38.8547 123.769 38.6768C123.947 38.4988 124.046 38.2574 124.046 38.0057V36.0816C124.304 35.9209 124.517 35.6971 124.664 35.4314C124.811 35.1656 124.889 34.8667 124.889 34.5627Z" fill="#3F3D56"/>
<path d="M53.7655 100.875H50.9014V101.233H53.7655V100.875Z" fill="#3F3D56"/>
<path d="M57.704 100.875H54.8398V101.233H57.704V100.875Z" fill="#3F3D56"/>
<path d="M61.6415 100.875H58.7773V101.233H61.6415V100.875Z" fill="#3F3D56"/>
<path d="M65.58 100.875H62.7158V101.233H65.58V100.875Z" fill="#3F3D56"/>
<path d="M69.5185 100.875H66.6543V101.233H69.5185V100.875Z" fill="#3F3D56"/>
<path d="M106.305 120.952H22.3498C22.16 120.952 21.978 120.877 21.8437 120.742C21.7095 120.608 21.634 120.425 21.6338 120.235V79.3626C21.634 79.1725 21.7095 78.9902 21.8437 78.8558C21.978 78.7213 22.16 78.6457 22.3498 78.6455H106.305C106.495 78.6457 106.677 78.7213 106.811 78.8557C106.946 78.9902 107.021 79.1725 107.021 79.3626V120.235C107.021 120.425 106.946 120.608 106.811 120.742C106.677 120.877 106.495 120.952 106.305 120.952ZM22.3498 79.3626V120.235H106.306L106.305 79.3626H22.3498Z" fill="#3F3D56"/>
<path d="M26.1082 85.4577C26.7014 85.4577 27.1823 84.9762 27.1823 84.3821C27.1823 83.7881 26.7014 83.3065 26.1082 83.3065C25.5151 83.3065 25.0342 83.7881 25.0342 84.3821C25.0342 84.9762 25.5151 85.4577 26.1082 85.4577Z" fill="#3F3D56"/>
<path d="M29.868 85.4577C30.4612 85.4577 30.9421 84.9762 30.9421 84.3821C30.9421 83.7881 30.4612 83.3065 29.868 83.3065C29.2748 83.3065 28.7939 83.7881 28.7939 84.3821C28.7939 84.9762 29.2748 85.4577 29.868 85.4577Z" fill="#3F3D56"/>
<path d="M33.6268 85.4577C34.22 85.4577 34.7008 84.9762 34.7008 84.3821C34.7008 83.7881 34.22 83.3065 33.6268 83.3065C33.0336 83.3065 32.5527 83.7881 32.5527 84.3821C32.5527 84.9762 33.0336 85.4577 33.6268 85.4577Z" fill="#3F3D56"/>
<path d="M72.2931 103.384H48.1269C47.9845 103.384 47.848 103.327 47.7473 103.227C47.6466 103.126 47.59 102.989 47.5898 102.846V96.7514C47.59 96.6088 47.6466 96.4721 47.7473 96.3713C47.848 96.2705 47.9845 96.2138 48.1269 96.2136H72.2931C72.4355 96.2138 72.572 96.2705 72.6727 96.3713C72.7734 96.4721 72.83 96.6088 72.8302 96.7514V102.846C72.83 102.989 72.7734 103.126 72.6727 103.227C72.572 103.327 72.4355 103.384 72.2931 103.384ZM48.1269 96.5722C48.0794 96.5722 48.0339 96.5911 48.0003 96.6247C47.9668 96.6583 47.9479 96.7039 47.9479 96.7514V102.846C47.9479 102.894 47.9668 102.94 48.0003 102.973C48.0339 103.007 48.0794 103.026 48.1269 103.026H72.2931C72.3406 103.026 72.3861 103.007 72.4197 102.973C72.4532 102.94 72.4721 102.894 72.4722 102.846V96.7514C72.4721 96.7039 72.4532 96.6583 72.4197 96.6247C72.3861 96.5911 72.3406 96.5722 72.2931 96.5722H48.1269Z" fill="#3F3D56"/>
<path d="M78.3794 103.564C80.159 103.564 81.6016 102.119 81.6016 100.337C81.6016 98.5547 80.159 97.11 78.3794 97.11C76.5998 97.11 75.1572 98.5547 75.1572 100.337C75.1572 102.119 76.5998 103.564 78.3794 103.564Z" fill="#6C63FF"/>
<path d="M79.4529 103.205C78.7803 103.205 78.1227 103.005 77.5633 102.631C77.004 102.257 76.5681 101.725 76.3107 101.102C76.0532 100.48 75.9859 99.7952 76.1171 99.1345C76.2483 98.4738 76.5723 97.8669 77.0479 97.3906C77.5236 96.9142 78.1296 96.5898 78.7894 96.4584C79.4492 96.327 80.133 96.3944 80.7545 96.6522C81.376 96.91 81.9072 97.3466 82.2809 97.9067C82.6546 98.4668 82.8541 99.1254 82.8541 99.799C82.8531 100.702 82.4944 101.568 81.8568 102.206C81.2192 102.845 80.3547 103.204 79.4529 103.205ZM79.4529 96.7515C78.8511 96.7515 78.2627 96.9302 77.7623 97.2651C77.2618 97.5999 76.8718 98.0759 76.6414 98.6328C76.4111 99.1896 76.3508 99.8024 76.4683 100.394C76.5857 100.985 76.8755 101.528 77.3011 101.954C77.7267 102.38 78.2689 102.67 78.8592 102.788C79.4496 102.906 80.0614 102.845 80.6175 102.615C81.1736 102.384 81.6489 101.993 81.9832 101.492C82.3176 100.991 82.4961 100.402 82.4961 99.799C82.4952 98.991 82.1743 98.2164 81.6038 97.6451C81.0333 97.0737 80.2598 96.7524 79.4529 96.7515Z" fill="#3F3D56"/>
<path d="M79.5006 101.071L77.7676 99.3354L78.2738 98.8285L79.405 99.9611L82.5613 95.4694L83.1468 95.8822L79.5006 101.071Z" fill="#3F3D56"/>
<path opacity="0.1" d="M77.6477 56.3501H7.2666V9.13306L77.6477 56.3501Z" fill="black"/>
<path d="M103.637 55.4206H94.8116V54.7839C94.8116 54.7673 94.8083 54.7509 94.802 54.7355C94.7956 54.7202 94.7863 54.7063 94.7746 54.6946C94.7629 54.6829 94.749 54.6736 94.7337 54.6672C94.7184 54.6609 94.702 54.6576 94.6855 54.6576H91.6596C91.643 54.6576 91.6266 54.6609 91.6113 54.6672C91.596 54.6736 91.5821 54.6829 91.5704 54.6946C91.5587 54.7063 91.5494 54.7202 91.5431 54.7355C91.5368 54.7509 91.5335 54.7673 91.5335 54.7839V55.4206H89.6423V54.7839C89.6423 54.7673 89.6391 54.7509 89.6327 54.7355C89.6264 54.7202 89.6171 54.7063 89.6054 54.6946C89.5937 54.6829 89.5798 54.6736 89.5645 54.6672C89.5492 54.6609 89.5328 54.6576 89.5162 54.6576H86.4903C86.4738 54.6576 86.4574 54.6609 86.4421 54.6672C86.4268 54.6736 86.4129 54.6829 86.4012 54.6946C86.3895 54.7063 86.3802 54.7202 86.3738 54.7355C86.3675 54.7509 86.3643 54.7673 86.3643 54.7839V55.4206H84.4731V54.7839C84.4731 54.7673 84.4698 54.7509 84.4635 54.7355C84.4571 54.7202 84.4478 54.7063 84.4361 54.6946C84.4244 54.6829 84.4105 54.6736 84.3952 54.6672C84.3799 54.6609 84.3635 54.6576 84.347 54.6576H81.3211C81.3045 54.6576 81.2881 54.6609 81.2728 54.6672C81.2575 54.6736 81.2436 54.6829 81.2319 54.6946C81.2202 54.7063 81.2109 54.7202 81.2046 54.7355C81.1983 54.7509 81.195 54.7673 81.195 54.7839V55.4206H79.3038V54.7839C79.3038 54.7673 79.3006 54.7509 79.2942 54.7355C79.2879 54.7202 79.2786 54.7063 79.2669 54.6946C79.2552 54.6829 79.2413 54.6736 79.226 54.6672C79.2107 54.6609 79.1943 54.6576 79.1777 54.6576H76.1518C76.1353 54.6576 76.1189 54.6609 76.1036 54.6672C76.0883 54.6736 76.0744 54.6829 76.0627 54.6946C76.051 54.7063 76.0417 54.7202 76.0354 54.7355C76.029 54.7509 76.0258 54.7673 76.0258 54.7839V55.4206H74.1346V54.7839C74.1346 54.7673 74.1313 54.7509 74.125 54.7355C74.1186 54.7202 74.1094 54.7063 74.0976 54.6946C74.0859 54.6829 74.072 54.6736 74.0567 54.6672C74.0414 54.6609 74.025 54.6576 74.0085 54.6576H70.9826C70.966 54.6576 70.9496 54.6609 70.9343 54.6672C70.9191 54.6736 70.9052 54.6829 70.8934 54.6946C70.8817 54.7063 70.8724 54.7202 70.8661 54.7355C70.8598 54.7509 70.8565 54.7673 70.8565 54.7839V55.4206H68.9653V54.7839C68.9653 54.7673 68.9621 54.7509 68.9557 54.7355C68.9494 54.7202 68.9401 54.7063 68.9284 54.6946C68.9167 54.6829 68.9028 54.6736 68.8875 54.6672C68.8722 54.6609 68.8558 54.6576 68.8392 54.6576H65.8133C65.7968 54.6576 65.7804 54.6609 65.7651 54.6672C65.7498 54.6736 65.7359 54.6829 65.7242 54.6946C65.7125 54.7063 65.7032 54.7202 65.6969 54.7355C65.6905 54.7509 65.6873 54.7673 65.6873 54.7839V55.4206H63.7961V54.7839C63.7961 54.7673 63.7928 54.7509 63.7865 54.7355C63.7801 54.7202 63.7709 54.7063 63.7592 54.6946C63.7474 54.6829 63.7335 54.6736 63.7182 54.6672C63.7029 54.6609 63.6866 54.6576 63.67 54.6576H39.9671C39.9506 54.6576 39.9342 54.6609 39.9189 54.6672C39.9036 54.6736 39.8897 54.6829 39.878 54.6946C39.8662 54.7063 39.857 54.7202 39.8506 54.7355C39.8443 54.7509 39.841 54.7673 39.841 54.7839V55.4206H37.9498V54.7839C37.9498 54.7673 37.9466 54.7509 37.9402 54.7355C37.9339 54.7202 37.9246 54.7063 37.9129 54.6946C37.9012 54.6829 37.8873 54.6736 37.872 54.6672C37.8567 54.6609 37.8403 54.6576 37.8238 54.6576H34.7979C34.7813 54.6576 34.7649 54.6609 34.7496 54.6672C34.7343 54.6736 34.7204 54.6829 34.7087 54.6946C34.697 54.7063 34.6877 54.7202 34.6814 54.7355C34.675 54.7509 34.6718 54.7673 34.6718 54.7839V55.4206H32.7806V54.7839C32.7806 54.7673 32.7773 54.7509 32.771 54.7355C32.7647 54.7202 32.7554 54.7063 32.7437 54.6946C32.732 54.6829 32.7181 54.6736 32.7028 54.6672C32.6875 54.6609 32.6711 54.6576 32.6545 54.6576H29.6286C29.6121 54.6576 29.5957 54.6609 29.5804 54.6672C29.5651 54.6736 29.5512 54.6829 29.5395 54.6946C29.5278 54.7063 29.5185 54.7202 29.5121 54.7355C29.5058 54.7509 29.5025 54.7673 29.5025 54.7839V55.4206H27.6113V54.7839C27.6113 54.7673 27.6081 54.7509 27.6017 54.7355C27.5954 54.7202 27.5861 54.7063 27.5744 54.6946C27.5627 54.6829 27.5488 54.6736 27.5335 54.6672C27.5182 54.6609 27.5018 54.6576 27.4853 54.6576H24.4594C24.4428 54.6576 24.4264 54.6609 24.4111 54.6672C24.3958 54.6736 24.3819 54.6829 24.3702 54.6946C24.3585 54.7063 24.3492 54.7202 24.3429 54.7355C24.3366 54.7509 24.3333 54.7673 24.3333 54.7839V55.4206H22.4421V54.7839C22.4421 54.7673 22.4388 54.7509 22.4325 54.7355C22.4262 54.7202 22.4169 54.7063 22.4052 54.6946C22.3935 54.6829 22.3796 54.6736 22.3643 54.6672C22.349 54.6609 22.3326 54.6576 22.316 54.6576H19.2901C19.2736 54.6576 19.2572 54.6609 19.2419 54.6672C19.2266 54.6736 19.2127 54.6829 19.201 54.6946C19.1893 54.7063 19.18 54.7202 19.1736 54.7355C19.1673 54.7509 19.164 54.7673 19.164 54.7839V55.4206H17.2729V54.7839C17.2729 54.7673 17.2696 54.7509 17.2633 54.7355C17.2569 54.7202 17.2476 54.7063 17.2359 54.6946C17.2242 54.6829 17.2103 54.6736 17.195 54.6672C17.1797 54.6609 17.1633 54.6576 17.1468 54.6576H14.1209C14.1043 54.6576 14.0879 54.6609 14.0726 54.6672C14.0573 54.6736 14.0434 54.6829 14.0317 54.6946C14.02 54.7063 14.0107 54.7202 14.0044 54.7355C13.9981 54.7509 13.9948 54.7673 13.9948 54.7839V55.4206H12.1036V54.7839C12.1036 54.7673 12.1003 54.7509 12.094 54.7355C12.0877 54.7202 12.0784 54.7063 12.0667 54.6946C12.055 54.6829 12.0411 54.6736 12.0258 54.6672C12.0105 54.6609 11.9941 54.6576 11.9775 54.6576H8.95162C8.93507 54.6576 8.91867 54.6609 8.90337 54.6672C8.88808 54.6736 8.87418 54.6829 8.86247 54.6946C8.85076 54.7063 8.84148 54.7202 8.83514 54.7355C8.8288 54.7509 8.82554 54.7673 8.82555 54.7839V55.4206H3.0259C2.62853 55.4206 2.23506 55.499 1.86794 55.6513C1.50082 55.8036 1.16725 56.0268 0.886265 56.3082C0.605284 56.5896 0.382398 56.9236 0.230332 57.2913C0.0782667 57.6589 -2.35078e-07 58.053 0 58.4509V59.8211C1.89905e-06 60.6248 0.318802 61.3955 0.886268 61.9638C1.45373 62.5321 2.22338 62.8514 3.0259 62.8514H103.637C104.034 62.8514 104.428 62.773 104.795 62.6207C105.162 62.4684 105.496 62.2452 105.777 61.9638C106.058 61.6824 106.281 61.3484 106.433 60.9808C106.585 60.6131 106.663 60.2191 106.663 59.8211V58.4509C106.663 58.053 106.585 57.6589 106.433 57.2913C106.281 56.9236 106.058 56.5896 105.777 56.3082C105.496 56.0268 105.162 55.8036 104.795 55.6513C104.428 55.499 104.034 55.4206 103.637 55.4206Z" fill="#3F3D56"/>
<path d="M76.0524 39.0276H28.7939C28.6515 39.0274 28.515 38.9707 28.4143 38.8699C28.3136 38.7691 28.257 38.6324 28.2568 38.4898V18.7705C28.257 18.6279 28.3136 18.4912 28.4143 18.3904C28.515 18.2895 28.6515 18.2328 28.7939 18.2327H76.0524C76.1947 18.2328 76.3312 18.2895 76.4319 18.3904C76.5326 18.4912 76.5892 18.6279 76.5894 18.7705V38.4898C76.5892 38.6324 76.5326 38.7691 76.4319 38.8699C76.3312 38.9707 76.1947 39.0274 76.0524 39.0276ZM28.7939 18.5912C28.7464 18.5913 28.7009 18.6102 28.6674 18.6438C28.6338 18.6774 28.6149 18.7229 28.6149 18.7705V38.4898C28.6149 38.5373 28.6338 38.5829 28.6674 38.6165C28.7009 38.6501 28.7464 38.669 28.7939 38.6691H76.0524C76.0998 38.669 76.1453 38.6501 76.1789 38.6165C76.2124 38.5829 76.2313 38.5373 76.2314 38.4898V18.7705C76.2313 18.7229 76.2124 18.6774 76.1789 18.6438C76.1453 18.6102 76.0998 18.5913 76.0524 18.5912H28.7939Z" fill="#3F3D56"/>
<path d="M34.1637 29.7057H32.0155C31.8732 29.7055 31.7367 29.6488 31.636 29.548C31.5353 29.4472 31.4787 29.3105 31.4785 29.1679V27.0167C31.4787 26.8741 31.5353 26.7374 31.636 26.6366C31.7367 26.5357 31.8732 26.479 32.0155 26.4789H34.1637C34.306 26.479 34.4425 26.5357 34.5432 26.6366C34.6439 26.7374 34.7005 26.8741 34.7007 27.0167V29.1679C34.7005 29.3105 34.6439 29.4472 34.5432 29.548C34.4425 29.6488 34.306 29.7055 34.1637 29.7057ZM32.0155 26.8374C31.9681 26.8375 31.9226 26.8564 31.889 26.89C31.8555 26.9236 31.8366 26.9692 31.8365 27.0167V29.1679C31.8366 29.2154 31.8555 29.261 31.889 29.2946C31.9226 29.3282 31.9681 29.3471 32.0155 29.3472H34.1637C34.2111 29.3471 34.2566 29.3282 34.2902 29.2946C34.3237 29.261 34.3426 29.2154 34.3427 29.1679V27.0167C34.3426 26.9692 34.3237 26.9236 34.2902 26.89C34.2566 26.8564 34.2111 26.8375 34.1637 26.8374H32.0155Z" fill="#3F3D56"/>
<path d="M72.4724 29.3472H31.6582V29.7057H72.4724V29.3472Z" fill="#3F3D56"/>
<path d="M47.4104 50.8592C48.7945 50.8592 49.9166 49.7355 49.9166 48.3495C49.9166 46.9634 48.7945 45.8397 47.4104 45.8397C46.0263 45.8397 44.9043 46.9634 44.9043 48.3495C44.9043 49.7355 46.0263 50.8592 47.4104 50.8592Z" fill="#3F3D56"/>
<path d="M155.818 50.68C156.905 50.68 157.787 49.7971 157.787 48.708C157.787 47.6189 156.905 46.7361 155.818 46.7361C154.73 46.7361 153.849 47.6189 153.849 48.708C153.849 49.7971 154.73 50.68 155.818 50.68Z" fill="#3F3D56"/>
<path d="M165.485 90.2979C166.572 90.2979 167.454 89.415 167.454 88.3259C167.454 87.2369 166.572 86.354 165.485 86.354C164.397 86.354 163.516 87.2369 163.516 88.3259C163.516 89.415 164.397 90.2979 165.485 90.2979Z" fill="#3F3D56"/>
<path d="M57.6146 90.2979C58.7021 90.2979 59.5837 89.415 59.5837 88.3259C59.5837 87.2369 58.7021 86.354 57.6146 86.354C56.5271 86.354 55.6455 87.2369 55.6455 88.3259C55.6455 89.415 56.5271 90.2979 57.6146 90.2979Z" fill="#3F3D56"/>
<path d="M48 49H156V49H48V49Z" stroke="#3F3D56" stroke-width="0.4"/>
</svg>