<svg width="136" height="60" viewBox="0 0 136 60" fill="none" xmlns="http://www.w3.org/2000/svg">
<path opacity="0.05" d="M135.474 0H0V59.6718H135.474V0Z" fill="black"/>
<path d="M134.44 0.452393H1.03418V58.8086H134.44V0.452393Z" fill="#3F3D56"/>
<path d="M37.4015 15.4713C34.7767 15.4713 32.2107 16.251 30.0282 17.7118C27.8457 19.1726 26.1446 21.2488 25.1401 23.678C24.1356 26.1072 23.8728 28.7802 24.3849 31.359C24.897 33.9379 26.161 36.3067 28.0171 38.1659C29.8731 40.0251 32.2379 41.2912 34.8124 41.8042C37.3868 42.3172 40.0553 42.0539 42.4804 41.0477C44.9055 40.0415 46.9782 38.3375 48.4365 36.1513C49.8948 33.9651 50.6732 31.3948 50.6732 28.7655C50.6732 27.0197 50.3299 25.2909 49.6629 23.678C48.996 22.0651 48.0184 20.5996 46.786 19.3651C45.5536 18.1306 44.0906 17.1514 42.4804 16.4833C40.8702 15.8152 39.1444 15.4713 37.4015 15.4713ZM39.7818 29.0849V35.3798H35.0902V29.0849C34.441 28.5926 33.9625 27.9085 33.7223 27.1291C33.4821 26.3498 33.4923 25.5145 33.7515 24.7413C34.0107 23.9681 34.5058 23.2959 35.1669 22.8197C35.828 22.3435 36.6217 22.0874 37.436 22.0874C38.2503 22.0874 39.044 22.3435 39.7051 22.8197C40.3662 23.2959 40.8613 23.9681 41.1205 24.7413C41.3797 25.5145 41.39 26.3498 41.1498 27.1291C40.9096 27.9085 40.4311 28.5926 39.7818 29.0849Z" fill="#6C63FF"/>
<path opacity="0.05" d="M37.4015 15.4713C34.7767 15.4713 32.2107 16.251 30.0282 17.7118C27.8457 19.1726 26.1446 21.2488 25.1401 23.678C24.1356 26.1072 23.8728 28.7802 24.3849 31.359C24.897 33.9379 26.161 36.3067 28.0171 38.1659C29.8731 40.0251 32.2379 41.2912 34.8124 41.8042C37.3868 42.3172 40.0553 42.0539 42.4804 41.0477C44.9055 40.0415 46.9782 38.3375 48.4365 36.1513C49.8948 33.9651 50.6732 31.3948 50.6732 28.7655C50.6732 27.0197 50.3299 25.2909 49.6629 23.678C48.996 22.0651 48.0184 20.5996 46.786 19.3651C45.5536 18.1306 44.0906 17.1514 42.4804 16.4833C40.8702 15.8152 39.1444 15.4713 37.4015 15.4713ZM39.7818 29.0849V35.3798H35.0902V29.0849C34.441 28.5926 33.9625 27.9085 33.7223 27.1291C33.4821 26.3498 33.4923 25.5145 33.7515 24.7413C34.0107 23.9681 34.5058 23.2959 35.1669 22.8197C35.828 22.3435 36.6217 22.0874 37.436 22.0874C38.2503 22.0874 39.044 22.3435 39.7051 22.8197C40.3662 23.2959 40.8613 23.9681 41.1205 24.7413C41.3797 25.5145 41.39 26.3498 41.1498 27.1291C40.9096 27.9085 40.4311 28.5926 39.7818 29.0849Z" fill="black"/>
<path d="M37.4014 11.673C34.0266 11.673 30.7275 12.6754 27.9214 14.5536C25.1154 16.4317 22.9283 19.1012 21.6368 22.2245C20.3453 25.3477 20.0074 28.7844 20.6658 32.1C21.3242 35.4157 22.9493 38.4613 25.3357 40.8517C27.7221 43.2421 30.7625 44.87 34.0725 45.5295C37.3825 46.189 40.8134 45.8506 43.9314 44.5569C47.0493 43.2632 49.7143 41.0724 51.5893 38.2615C53.4642 35.4507 54.465 32.146 54.465 28.7655C54.465 24.2323 52.6672 19.8847 49.4672 16.6792C46.2672 13.4738 41.927 11.673 37.4014 11.673ZM40.4608 29.1764V37.2686H34.4283V29.1764C33.5932 28.5434 32.9777 27.6636 32.6687 26.6613C32.3597 25.659 32.3727 24.5848 32.7061 23.5903C33.0394 22.5958 33.6761 21.7314 34.5263 21.1189C35.3765 20.5065 36.3973 20.177 37.4445 20.177C38.4918 20.177 39.5126 20.5065 40.3628 21.1189C41.213 21.7314 41.8497 22.5958 42.183 23.5903C42.5163 24.5848 42.5294 25.659 42.2204 26.6613C41.9114 27.6636 41.2959 28.5434 40.4608 29.1764Z" fill="#6C63FF"/>
<path d="M116.687 26.5227H61.5322V32.3929H116.687V26.5227Z" fill="white"/>
<path d="M116.687 37.2271H104.794V43.0972H116.687V37.2271Z" fill="#6C63FF"/>
<path d="M66.9611 29.3697H65.9632L66.8508 28.4823C66.8667 28.4658 66.8756 28.4439 66.8756 28.421C66.8756 28.3981 66.8667 28.3761 66.8508 28.3597C66.8428 28.3516 66.8333 28.3452 66.8228 28.3408C66.8123 28.3364 66.801 28.3341 66.7896 28.3341C66.7782 28.3341 66.767 28.3364 66.7565 28.3408C66.746 28.3452 66.7364 28.3516 66.7284 28.3597L65.8408 29.2488V28.2475C65.8408 28.2246 65.8317 28.2026 65.8155 28.1864C65.7994 28.1702 65.7775 28.1611 65.7546 28.1611C65.7319 28.1616 65.7102 28.1708 65.6941 28.1869C65.6781 28.203 65.6689 28.2247 65.6684 28.2475V29.2488L64.7825 28.3545C64.7745 28.3464 64.765 28.34 64.7545 28.3356C64.744 28.3312 64.7327 28.329 64.7213 28.329C64.7099 28.329 64.6987 28.3312 64.6882 28.3356C64.6777 28.34 64.6681 28.3464 64.6601 28.3545C64.6442 28.3709 64.6353 28.3929 64.6353 28.4158C64.6353 28.4387 64.6442 28.4607 64.6601 28.4771L65.5478 29.3645H64.5481C64.5254 29.365 64.5037 29.3742 64.4876 29.3903C64.4716 29.4064 64.4624 29.4281 64.4619 29.4508C64.4619 29.4737 64.471 29.4957 64.4872 29.5119C64.5033 29.5281 64.5252 29.5372 64.5481 29.5372H65.5478L64.6601 30.4263C64.6442 30.4428 64.6353 30.4647 64.6353 30.4876C64.6353 30.5105 64.6442 30.5325 64.6601 30.5489C64.6767 30.5644 64.6986 30.5731 64.7213 30.5731C64.744 30.5731 64.7659 30.5644 64.7825 30.5489L65.6684 29.6598V30.6594C65.6684 30.6823 65.6775 30.7043 65.6937 30.7204C65.7098 30.7366 65.7318 30.7457 65.7546 30.7457C65.7775 30.7457 65.7994 30.7366 65.8155 30.7204C65.8317 30.7043 65.8408 30.6823 65.8408 30.6594V29.6598L66.7284 30.5489C66.745 30.5644 66.7669 30.5731 66.7896 30.5731C66.8123 30.5731 66.8342 30.5644 66.8508 30.5489C66.8667 30.5325 66.8756 30.5105 66.8756 30.4876C66.8756 30.4647 66.8667 30.4428 66.8508 30.4263L65.9632 29.5372H66.9611C66.984 29.5372 67.0059 29.5281 67.0221 29.5119C67.0382 29.4957 67.0473 29.4737 67.0473 29.4508C67.046 29.4289 67.0363 29.4082 67.0203 29.3931C67.0043 29.378 66.9831 29.3697 66.9611 29.3697Z" fill="#6C63FF"/>
<path d="M70.5803 29.3697H69.5823L70.47 28.4823C70.4859 28.4658 70.4947 28.4439 70.4947 28.421C70.4947 28.3981 70.4859 28.3761 70.47 28.3597C70.4619 28.3516 70.4524 28.3452 70.4419 28.3408C70.4314 28.3364 70.4201 28.3341 70.4088 28.3341C70.3974 28.3341 70.3861 28.3364 70.3756 28.3408C70.3651 28.3452 70.3556 28.3516 70.3476 28.3597L69.4599 29.2488V28.2475C69.4599 28.2246 69.4508 28.2026 69.4347 28.1864C69.4185 28.1702 69.3966 28.1611 69.3737 28.1611C69.351 28.1616 69.3294 28.1708 69.3133 28.1869C69.2972 28.203 69.288 28.2247 69.2876 28.2475V29.2488L68.4016 28.3545C68.3936 28.3464 68.3841 28.34 68.3736 28.3356C68.3631 28.3312 68.3518 28.329 68.3404 28.329C68.3291 28.329 68.3178 28.3312 68.3073 28.3356C68.2968 28.34 68.2873 28.3464 68.2793 28.3545C68.2634 28.3709 68.2545 28.3929 68.2545 28.4158C68.2545 28.4387 68.2634 28.4607 68.2793 28.4771L69.1669 29.3645H68.1672C68.1445 29.365 68.1228 29.3742 68.1068 29.3903C68.0907 29.4064 68.0815 29.4281 68.0811 29.4508C68.0811 29.4737 68.0901 29.4957 68.1063 29.5119C68.1225 29.5281 68.1444 29.5372 68.1672 29.5372H69.1669L68.2793 30.4263C68.2634 30.4428 68.2545 30.4647 68.2545 30.4876C68.2545 30.5105 68.2634 30.5325 68.2793 30.5489C68.2959 30.5644 68.3177 30.5731 68.3404 30.5731C68.3632 30.5731 68.385 30.5644 68.4016 30.5489L69.2876 29.6598V30.6594C69.2876 30.6823 69.2966 30.7043 69.3128 30.7204C69.329 30.7366 69.3509 30.7457 69.3737 30.7457C69.3966 30.7457 69.4185 30.7366 69.4347 30.7204C69.4508 30.7043 69.4599 30.6823 69.4599 30.6594V29.6598L70.3476 30.5489C70.3642 30.5644 70.386 30.5731 70.4088 30.5731C70.4315 30.5731 70.4534 30.5644 70.47 30.5489C70.4859 30.5325 70.4947 30.5105 70.4947 30.4876C70.4947 30.4647 70.4859 30.4428 70.47 30.4263L69.5823 29.5372H70.5803C70.6031 29.5372 70.625 29.5281 70.6412 29.5119C70.6574 29.4957 70.6664 29.4737 70.6664 29.4508C70.6651 29.4289 70.6555 29.4082 70.6394 29.3931C70.6234 29.378 70.6023 29.3697 70.5803 29.3697Z" fill="#6C63FF"/>
<path d="M74.2004 29.3697H73.2024L74.0901 28.4823C74.106 28.4658 74.1149 28.4439 74.1149 28.421C74.1149 28.3981 74.106 28.3761 74.0901 28.3597C74.0821 28.3516 74.0725 28.3452 74.062 28.3408C74.0515 28.3364 74.0403 28.3341 74.0289 28.3341C74.0175 28.3341 74.0062 28.3364 73.9957 28.3408C73.9852 28.3452 73.9757 28.3516 73.9677 28.3597L73.08 29.2488V28.2475C73.08 28.2246 73.071 28.2026 73.0548 28.1864C73.0386 28.1702 73.0167 28.1611 72.9939 28.1611C72.9711 28.1616 72.9495 28.1708 72.9334 28.1869C72.9173 28.203 72.9081 28.2247 72.9077 28.2475V29.2488L72.0218 28.3545C72.0137 28.3464 72.0042 28.34 71.9937 28.3356C71.9832 28.3312 71.9719 28.329 71.9606 28.329C71.9492 28.329 71.9379 28.3312 71.9274 28.3356C71.9169 28.34 71.9074 28.3464 71.8994 28.3545C71.8835 28.3709 71.8746 28.3929 71.8746 28.4158C71.8746 28.4387 71.8835 28.4607 71.8994 28.4771L72.787 29.3645H71.7874C71.7646 29.365 71.743 29.3742 71.7269 29.3903C71.7108 29.4064 71.7016 29.4281 71.7012 29.4508C71.7012 29.4737 71.7102 29.4957 71.7264 29.5119C71.7426 29.5281 71.7645 29.5372 71.7874 29.5372H72.787L71.8994 30.4263C71.8835 30.4428 71.8746 30.4647 71.8746 30.4876C71.8746 30.5105 71.8835 30.5325 71.8994 30.5489C71.916 30.5644 71.9378 30.5731 71.9606 30.5731C71.9833 30.5731 72.0052 30.5644 72.0218 30.5489L72.9077 29.6598V30.6594C72.9077 30.6823 72.9168 30.7043 72.9329 30.7204C72.9491 30.7366 72.971 30.7457 72.9939 30.7457C73.0167 30.7457 73.0386 30.7366 73.0548 30.7204C73.071 30.7043 73.08 30.6823 73.08 30.6594V29.6598L73.9677 30.5489C73.9843 30.5644 74.0062 30.5731 74.0289 30.5731C74.0516 30.5731 74.0735 30.5644 74.0901 30.5489C74.106 30.5325 74.1149 30.5105 74.1149 30.4876C74.1149 30.4647 74.106 30.4428 74.0901 30.4263L73.2024 29.5372H74.2004C74.2232 29.5372 74.2452 29.5281 74.2613 29.5119C74.2775 29.4957 74.2866 29.4737 74.2866 29.4508C74.2852 29.4289 74.2756 29.4082 74.2596 29.3931C74.2435 29.378 74.2224 29.3697 74.2004 29.3697Z" fill="#6C63FF"/>
<path d="M77.8205 29.3697H76.8225L77.7102 28.4823C77.7261 28.4658 77.735 28.4439 77.735 28.421C77.735 28.3981 77.7261 28.3761 77.7102 28.3597C77.7022 28.3516 77.6926 28.3452 77.6821 28.3408C77.6716 28.3364 77.6604 28.3341 77.649 28.3341C77.6376 28.3341 77.6264 28.3364 77.6159 28.3408C77.6054 28.3452 77.5958 28.3516 77.5878 28.3597L76.7002 29.2488V28.2475C76.7002 28.2246 76.6911 28.2026 76.6749 28.1864C76.6588 28.1702 76.6368 28.1611 76.614 28.1611C76.5913 28.1616 76.5696 28.1708 76.5535 28.1869C76.5375 28.203 76.5282 28.2247 76.5278 28.2475V29.2488L75.6419 28.3545C75.6339 28.3464 75.6243 28.34 75.6138 28.3356C75.6033 28.3312 75.5921 28.329 75.5807 28.329C75.5693 28.329 75.558 28.3312 75.5475 28.3356C75.537 28.34 75.5275 28.3464 75.5195 28.3545C75.5036 28.3709 75.4947 28.3929 75.4947 28.4158C75.4947 28.4387 75.5036 28.4607 75.5195 28.4771L76.4072 29.3645H75.4075C75.3848 29.365 75.3631 29.3742 75.347 29.3903C75.3309 29.4064 75.3217 29.4281 75.3213 29.4508C75.3213 29.4737 75.3304 29.4957 75.3465 29.5119C75.3627 29.5281 75.3846 29.5372 75.4075 29.5372H76.4072L75.5195 30.4263C75.5036 30.4428 75.4947 30.4647 75.4947 30.4876C75.4947 30.5105 75.5036 30.5325 75.5195 30.5489C75.5361 30.5644 75.558 30.5731 75.5807 30.5731C75.6034 30.5731 75.6253 30.5644 75.6419 30.5489L76.5278 29.6598V30.6594C76.5278 30.6823 76.5369 30.7043 76.553 30.7204C76.5692 30.7366 76.5911 30.7457 76.614 30.7457C76.6368 30.7457 76.6588 30.7366 76.6749 30.7204C76.6911 30.7043 76.7002 30.6823 76.7002 30.6594V29.6598L77.5878 30.5489C77.6044 30.5644 77.6263 30.5731 77.649 30.5731C77.6717 30.5731 77.6936 30.5644 77.7102 30.5489C77.7261 30.5325 77.735 30.5105 77.735 30.4876C77.735 30.4647 77.7261 30.4428 77.7102 30.4263L76.8225 29.5372H77.8205C77.8434 29.5372 77.8653 29.5281 77.8814 29.5119C77.8976 29.4957 77.9067 29.4737 77.9067 29.4508C77.9054 29.4289 77.8957 29.4082 77.8797 29.3931C77.8637 29.378 77.8425 29.3697 77.8205 29.3697Z" fill="#6C63FF"/>
<path d="M81.4396 29.3697H80.4417L81.3293 28.4823C81.3452 28.4658 81.3541 28.4439 81.3541 28.421C81.3541 28.3981 81.3452 28.3761 81.3293 28.3597C81.3213 28.3516 81.3118 28.3452 81.3013 28.3408C81.2908 28.3364 81.2795 28.3341 81.2681 28.3341C81.2568 28.3341 81.2455 28.3364 81.235 28.3408C81.2245 28.3452 81.215 28.3516 81.2069 28.3597L80.3193 29.2488V28.2475C80.3193 28.2246 80.3102 28.2026 80.2941 28.1864C80.2779 28.1702 80.256 28.1611 80.2331 28.1611C80.2104 28.1616 80.1887 28.1708 80.1727 28.1869C80.1566 28.203 80.1474 28.2247 80.1469 28.2475V29.2488L79.261 28.3545C79.253 28.3464 79.2435 28.34 79.233 28.3356C79.2225 28.3312 79.2112 28.329 79.1998 28.329C79.1884 28.329 79.1772 28.3312 79.1667 28.3356C79.1562 28.34 79.1466 28.3464 79.1386 28.3545C79.1227 28.3709 79.1138 28.3929 79.1138 28.4158C79.1138 28.4387 79.1227 28.4607 79.1386 28.4771L80.0263 29.3645H79.0266C79.0039 29.365 78.9822 29.3742 78.9662 29.3903C78.9501 29.4064 78.9409 29.4281 78.9404 29.4508C78.9404 29.4737 78.9495 29.4957 78.9657 29.5119C78.9818 29.5281 79.0038 29.5372 79.0266 29.5372H80.0263L79.1386 30.4263C79.1227 30.4428 79.1138 30.4647 79.1138 30.4876C79.1138 30.5105 79.1227 30.5325 79.1386 30.5489C79.1552 30.5644 79.1771 30.5731 79.1998 30.5731C79.2225 30.5731 79.2444 30.5644 79.261 30.5489L80.1469 29.6598V30.6594C80.1469 30.6823 80.156 30.7043 80.1722 30.7204C80.1883 30.7366 80.2103 30.7457 80.2331 30.7457C80.256 30.7457 80.2779 30.7366 80.2941 30.7204C80.3102 30.7043 80.3193 30.6823 80.3193 30.6594V29.6598L81.2069 30.5489C81.2235 30.5644 81.2454 30.5731 81.2681 30.5731C81.2908 30.5731 81.3127 30.5644 81.3293 30.5489C81.3452 30.5325 81.3541 30.5105 81.3541 30.4876C81.3541 30.4647 81.3452 30.4428 81.3293 30.4263L80.4417 29.5372H81.4396C81.4625 29.5372 81.4844 29.5281 81.5006 29.5119C81.5167 29.4957 81.5258 29.4737 81.5258 29.4508C81.5245 29.4289 81.5148 29.4082 81.4988 29.3931C81.4828 29.378 81.4616 29.3697 81.4396 29.3697Z" fill="#6C63FF"/>
<path d="M85.0588 29.3697H84.0608L84.9485 28.4823C84.9644 28.4658 84.9733 28.4439 84.9733 28.421C84.9733 28.3981 84.9644 28.3761 84.9485 28.3597C84.9405 28.3516 84.9309 28.3452 84.9204 28.3408C84.9099 28.3364 84.8986 28.3341 84.8873 28.3341C84.8759 28.3341 84.8646 28.3364 84.8541 28.3408C84.8436 28.3452 84.8341 28.3516 84.8261 28.3597L83.9384 29.2488V28.2475C83.9384 28.2246 83.9294 28.2026 83.9132 28.1864C83.897 28.1702 83.8751 28.1611 83.8523 28.1611C83.8295 28.1616 83.8079 28.1708 83.7918 28.1869C83.7757 28.203 83.7665 28.2247 83.7661 28.2475V29.2488L82.8802 28.3545C82.8721 28.3464 82.8626 28.34 82.8521 28.3356C82.8416 28.3312 82.8303 28.329 82.819 28.329C82.8076 28.329 82.7963 28.3312 82.7858 28.3356C82.7753 28.34 82.7658 28.3464 82.7578 28.3545C82.7419 28.3709 82.733 28.3929 82.733 28.4158C82.733 28.4387 82.7419 28.4607 82.7578 28.4771L83.6454 29.3645H82.6457C82.623 29.365 82.6014 29.3742 82.5853 29.3903C82.5692 29.4064 82.56 29.4281 82.5596 29.4508C82.5596 29.4737 82.5686 29.4957 82.5848 29.5119C82.601 29.5281 82.6229 29.5372 82.6457 29.5372H83.6454L82.7578 30.4263C82.7419 30.4428 82.733 30.4647 82.733 30.4876C82.733 30.5105 82.7419 30.5325 82.7578 30.5489C82.7744 30.5644 82.7962 30.5731 82.819 30.5731C82.8417 30.5731 82.8636 30.5644 82.8802 30.5489L83.7661 29.6598V30.6594C83.7661 30.6823 83.7752 30.7043 83.7913 30.7204C83.8075 30.7366 83.8294 30.7457 83.8523 30.7457C83.8751 30.7457 83.897 30.7366 83.9132 30.7204C83.9294 30.7043 83.9384 30.6823 83.9384 30.6594V29.6598L84.8261 30.5489C84.8427 30.5644 84.8646 30.5731 84.8873 30.5731C84.91 30.5731 84.9319 30.5644 84.9485 30.5489C84.9644 30.5325 84.9733 30.5105 84.9733 30.4876C84.9733 30.4647 84.9644 30.4428 84.9485 30.4263L84.0608 29.5372H85.0588C85.0816 29.5372 85.1035 29.5281 85.1197 29.5119C85.1359 29.4957 85.145 29.4737 85.145 29.4508C85.1436 29.4289 85.134 29.4082 85.118 29.3931C85.1019 29.378 85.0808 29.3697 85.0588 29.3697Z" fill="#6C63FF"/>
<path d="M88.6789 29.3697H87.6809L88.5686 28.4823C88.5845 28.4658 88.5934 28.4439 88.5934 28.421C88.5934 28.3981 88.5845 28.3761 88.5686 28.3597C88.5606 28.3516 88.551 28.3452 88.5405 28.3408C88.53 28.3364 88.5188 28.3341 88.5074 28.3341C88.496 28.3341 88.4847 28.3364 88.4742 28.3408C88.4637 28.3452 88.4542 28.3516 88.4462 28.3597L87.5586 29.2488V28.2475C87.5586 28.2246 87.5495 28.2026 87.5333 28.1864C87.5171 28.1702 87.4952 28.1611 87.4724 28.1611C87.4497 28.1616 87.428 28.1708 87.4119 28.1869C87.3958 28.203 87.3866 28.2247 87.3862 28.2475V29.2488L86.5003 28.3545C86.4923 28.3464 86.4827 28.34 86.4722 28.3356C86.4617 28.3312 86.4505 28.329 86.4391 28.329C86.4277 28.329 86.4164 28.3312 86.4059 28.3356C86.3954 28.34 86.3859 28.3464 86.3779 28.3545C86.362 28.3709 86.3531 28.3929 86.3531 28.4158C86.3531 28.4387 86.362 28.4607 86.3779 28.4771L87.2655 29.3645H86.2659C86.2431 29.365 86.2215 29.3742 86.2054 29.3903C86.1893 29.4064 86.1801 29.4281 86.1797 29.4508C86.1797 29.4737 86.1888 29.4957 86.2049 29.5119C86.2211 29.5281 86.243 29.5372 86.2659 29.5372H87.2655L86.3779 30.4263C86.362 30.4428 86.3531 30.4647 86.3531 30.4876C86.3531 30.5105 86.362 30.5325 86.3779 30.5489C86.3945 30.5644 86.4164 30.5731 86.4391 30.5731C86.4618 30.5731 86.4837 30.5644 86.5003 30.5489L87.3862 29.6598V30.6594C87.3862 30.6823 87.3953 30.7043 87.4114 30.7204C87.4276 30.7366 87.4495 30.7457 87.4724 30.7457C87.4952 30.7457 87.5171 30.7366 87.5333 30.7204C87.5495 30.7043 87.5586 30.6823 87.5586 30.6594V29.6598L88.4462 30.5489C88.4628 30.5644 88.4847 30.5731 88.5074 30.5731C88.5301 30.5731 88.552 30.5644 88.5686 30.5489C88.5845 30.5325 88.5934 30.5105 88.5934 30.4876C88.5934 30.4647 88.5845 30.4428 88.5686 30.4263L87.6809 29.5372H88.6789C88.7017 29.5372 88.7237 29.5281 88.7398 29.5119C88.756 29.4957 88.7651 29.4737 88.7651 29.4508C88.7637 29.4289 88.7541 29.4082 88.7381 29.3931C88.722 29.378 88.7009 29.3697 88.6789 29.3697Z" fill="#6C63FF"/>
<path d="M92.2981 29.3697H91.3001L92.1877 28.4823C92.2036 28.4658 92.2125 28.4439 92.2125 28.421C92.2125 28.3981 92.2036 28.3761 92.1877 28.3597C92.1797 28.3516 92.1702 28.3452 92.1597 28.3408C92.1492 28.3364 92.1379 28.3341 92.1265 28.3341C92.1152 28.3341 92.1039 28.3364 92.0934 28.3408C92.0829 28.3452 92.0734 28.3516 92.0654 28.3597L91.1777 29.2488V28.2475C91.1777 28.2246 91.1686 28.2026 91.1525 28.1864C91.1363 28.1702 91.1144 28.1611 91.0915 28.1611C91.0688 28.1616 91.0471 28.1708 91.0311 28.1869C91.015 28.203 91.0058 28.2247 91.0053 28.2475V29.2488L90.1194 28.3545C90.1114 28.3464 90.1019 28.34 90.0914 28.3356C90.0809 28.3312 90.0696 28.329 90.0582 28.329C90.0468 28.329 90.0356 28.3312 90.0251 28.3356C90.0146 28.34 90.005 28.3464 89.997 28.3545C89.9811 28.3709 89.9722 28.3929 89.9722 28.4158C89.9722 28.4387 89.9811 28.4607 89.997 28.4771L90.8847 29.3645H89.885C89.8623 29.365 89.8406 29.3742 89.8245 29.3903C89.8085 29.4064 89.7993 29.4281 89.7988 29.4508C89.7988 29.4737 89.8079 29.4957 89.8241 29.5119C89.8402 29.5281 89.8622 29.5372 89.885 29.5372H90.8847L89.997 30.4263C89.9811 30.4428 89.9722 30.4647 89.9722 30.4876C89.9722 30.5105 89.9811 30.5325 89.997 30.5489C90.0136 30.5644 90.0355 30.5731 90.0582 30.5731C90.0809 30.5731 90.1028 30.5644 90.1194 30.5489L91.0053 29.6598V30.6594C91.0053 30.6823 91.0144 30.7043 91.0306 30.7204C91.0467 30.7366 91.0687 30.7457 91.0915 30.7457C91.1144 30.7457 91.1363 30.7366 91.1525 30.7204C91.1686 30.7043 91.1777 30.6823 91.1777 30.6594V29.6598L92.0654 30.5489C92.082 30.5644 92.1038 30.5731 92.1265 30.5731C92.1493 30.5731 92.1711 30.5644 92.1877 30.5489C92.2036 30.5325 92.2125 30.5105 92.2125 30.4876C92.2125 30.4647 92.2036 30.4428 92.1877 30.4263L91.3001 29.5372H92.2981C92.3209 29.5372 92.3428 29.5281 92.359 29.5119C92.3751 29.4957 92.3842 29.4737 92.3842 29.4508C92.3829 29.4289 92.3732 29.4082 92.3572 29.3931C92.3412 29.378 92.32 29.3697 92.2981 29.3697Z" fill="#6C63FF"/>
<path d="M95.9182 29.3697H94.9202L95.8078 28.4823C95.8237 28.4658 95.8326 28.4439 95.8326 28.421C95.8326 28.3981 95.8237 28.3761 95.8078 28.3597C95.7998 28.3516 95.7903 28.3452 95.7798 28.3408C95.7693 28.3364 95.758 28.3341 95.7466 28.3341C95.7353 28.3341 95.724 28.3364 95.7135 28.3408C95.703 28.3452 95.6935 28.3516 95.6855 28.3597L94.7978 29.2488V28.2475C94.7978 28.2246 94.7887 28.2026 94.7726 28.1864C94.7564 28.1702 94.7345 28.1611 94.7116 28.1611C94.6889 28.1616 94.6672 28.1708 94.6512 28.1869C94.6351 28.203 94.6259 28.2247 94.6255 28.2475V29.2488L93.7395 28.3545C93.7315 28.3464 93.722 28.34 93.7115 28.3356C93.701 28.3312 93.6897 28.329 93.6783 28.329C93.667 28.329 93.6557 28.3312 93.6452 28.3356C93.6347 28.34 93.6252 28.3464 93.6172 28.3545C93.6013 28.3709 93.5924 28.3929 93.5924 28.4158C93.5924 28.4387 93.6013 28.4607 93.6172 28.4771L94.5048 29.3645H93.5051C93.4824 29.365 93.4607 29.3742 93.4447 29.3903C93.4286 29.4064 93.4194 29.4281 93.4189 29.4508C93.4189 29.4737 93.428 29.4957 93.4442 29.5119C93.4603 29.5281 93.4823 29.5372 93.5051 29.5372H94.5048L93.6172 30.4263C93.6013 30.4428 93.5924 30.4647 93.5924 30.4876C93.5924 30.5105 93.6013 30.5325 93.6172 30.5489C93.6338 30.5644 93.6556 30.5731 93.6783 30.5731C93.7011 30.5731 93.7229 30.5644 93.7395 30.5489L94.6255 29.6598V30.6594C94.6255 30.6823 94.6345 30.7043 94.6507 30.7204C94.6669 30.7366 94.6888 30.7457 94.7116 30.7457C94.7345 30.7457 94.7564 30.7366 94.7726 30.7204C94.7887 30.7043 94.7978 30.6823 94.7978 30.6594V29.6598L95.6855 30.5489C95.7021 30.5644 95.7239 30.5731 95.7466 30.5731C95.7694 30.5731 95.7912 30.5644 95.8078 30.5489C95.8237 30.5325 95.8326 30.5105 95.8326 30.4876C95.8326 30.4647 95.8237 30.4428 95.8078 30.4263L94.9202 29.5372H95.9182C95.941 29.5372 95.9629 29.5281 95.9791 29.5119C95.9952 29.4957 96.0043 29.4737 96.0043 29.4508C96.003 29.4289 95.9933 29.4082 95.9773 29.3931C95.9613 29.378 95.9401 29.3697 95.9182 29.3697Z" fill="#6C63FF"/>
<path d="M99.5373 29.3697H98.5393L99.427 28.4823C99.4429 28.4658 99.4518 28.4439 99.4518 28.421C99.4518 28.3981 99.4429 28.3761 99.427 28.3597C99.419 28.3516 99.4094 28.3452 99.3989 28.3408C99.3884 28.3364 99.3772 28.3341 99.3658 28.3341C99.3544 28.3341 99.3432 28.3364 99.3326 28.3408C99.3221 28.3452 99.3126 28.3516 99.3046 28.3597L98.417 29.2488V28.2475C98.417 28.2246 98.4079 28.2026 98.3917 28.1864C98.3755 28.1702 98.3536 28.1611 98.3308 28.1611C98.3081 28.1616 98.2864 28.1708 98.2703 28.1869C98.2543 28.203 98.245 28.2247 98.2446 28.2475V29.2488L97.3587 28.3545C97.3507 28.3464 97.3411 28.34 97.3306 28.3356C97.3201 28.3312 97.3089 28.329 97.2975 28.329C97.2861 28.329 97.2748 28.3312 97.2643 28.3356C97.2538 28.34 97.2443 28.3464 97.2363 28.3545C97.2204 28.3709 97.2115 28.3929 97.2115 28.4158C97.2115 28.4387 97.2204 28.4607 97.2363 28.4771L98.1239 29.3645H97.1243C97.1015 29.365 97.0799 29.3742 97.0638 29.3903C97.0477 29.4064 97.0385 29.4281 97.0381 29.4508C97.0381 29.4737 97.0472 29.4957 97.0633 29.5119C97.0795 29.5281 97.1014 29.5372 97.1243 29.5372H98.1239L97.2363 30.4263C97.2204 30.4428 97.2115 30.4647 97.2115 30.4876C97.2115 30.5105 97.2204 30.5325 97.2363 30.5489C97.2529 30.5644 97.2748 30.5731 97.2975 30.5731C97.3202 30.5731 97.3421 30.5644 97.3587 30.5489L98.2446 29.6598V30.6594C98.2446 30.6823 98.2537 30.7043 98.2698 30.7204C98.286 30.7366 98.3079 30.7457 98.3308 30.7457C98.3536 30.7457 98.3755 30.7366 98.3917 30.7204C98.4079 30.7043 98.417 30.6823 98.417 30.6594V29.6598L99.3046 30.5489C99.3212 30.5644 99.3431 30.5731 99.3658 30.5731C99.3885 30.5731 99.4104 30.5644 99.427 30.5489C99.4429 30.5325 99.4518 30.5105 99.4518 30.4876C99.4518 30.4647 99.4429 30.4428 99.427 30.4263L98.5393 29.5372H99.5373C99.5602 29.5372 99.5821 29.5281 99.5982 29.5119C99.6144 29.4957 99.6235 29.4737 99.6235 29.4508C99.6222 29.4289 99.6125 29.4082 99.5965 29.3931C99.5804 29.378 99.5593 29.3697 99.5373 29.3697Z" fill="#6C63FF"/>
<path d="M103.156 29.3697H102.158L103.046 28.4823C103.062 28.4658 103.071 28.4439 103.071 28.421C103.071 28.3981 103.062 28.3761 103.046 28.3597C103.038 28.3516 103.029 28.3452 103.018 28.3408C103.008 28.3364 102.996 28.3341 102.985 28.3341C102.974 28.3341 102.962 28.3364 102.952 28.3408C102.941 28.3452 102.932 28.3516 102.924 28.3597L102.036 29.2488V28.2475C102.036 28.2246 102.027 28.2026 102.011 28.1864C101.995 28.1702 101.973 28.1611 101.95 28.1611C101.927 28.1616 101.906 28.1708 101.889 28.1869C101.873 28.203 101.864 28.2247 101.864 28.2475V29.2488L100.978 28.3545C100.97 28.3464 100.96 28.34 100.95 28.3356C100.939 28.3312 100.928 28.329 100.917 28.329C100.905 28.329 100.894 28.3312 100.883 28.3356C100.873 28.34 100.863 28.3464 100.855 28.3545C100.84 28.3709 100.831 28.3929 100.831 28.4158C100.831 28.4387 100.84 28.4607 100.855 28.4771L101.743 29.3645H100.743C100.721 29.365 100.699 29.3742 100.683 29.3903C100.667 29.4064 100.658 29.4281 100.657 29.4508C100.657 29.4737 100.666 29.4957 100.682 29.5119C100.699 29.5281 100.721 29.5372 100.743 29.5372H101.743L100.855 30.4263C100.84 30.4428 100.831 30.4647 100.831 30.4876C100.831 30.5105 100.84 30.5325 100.855 30.5489C100.872 30.5644 100.894 30.5731 100.917 30.5731C100.939 30.5731 100.961 30.5644 100.978 30.5489L101.864 29.6598V30.6594C101.864 30.6823 101.873 30.7043 101.889 30.7204C101.905 30.7366 101.927 30.7457 101.95 30.7457C101.973 30.7457 101.995 30.7366 102.011 30.7204C102.027 30.7043 102.036 30.6823 102.036 30.6594V29.6598L102.924 30.5489C102.94 30.5644 102.962 30.5731 102.985 30.5731C103.008 30.5731 103.029 30.5644 103.046 30.5489C103.062 30.5325 103.071 30.5105 103.071 30.4876C103.071 30.4647 103.062 30.4428 103.046 30.4263L102.158 29.5372H103.156C103.179 29.5372 103.201 29.5281 103.217 29.5119C103.233 29.4957 103.243 29.4737 103.243 29.4508C103.241 29.4289 103.232 29.4082 103.216 29.3931C103.2 29.378 103.178 29.3697 103.156 29.3697Z" fill="#6C63FF"/>
<g opacity="0.1">
<path opacity="0.1" d="M119.966 47.802C119.574 49.6767 119.032 51.5167 118.346 53.3044C118.465 53.0678 118.565 52.8192 118.66 52.5723C119.351 50.7778 119.895 48.9302 120.288 47.0475C120.78 44.6994 120.967 42.0406 119.537 40.1155C119.192 39.6563 118.749 39.159 118.765 38.6204C118.637 38.7833 118.538 38.9666 118.472 39.1625C118.299 39.7858 118.827 40.3538 119.213 40.8717C120.643 42.7933 120.456 45.4556 119.966 47.802Z" fill="black"/>
<path opacity="0.1" d="M119.072 37.8867C119.21 37.7146 119.313 37.5169 119.375 37.3048C119.402 37.0483 119.395 36.7895 119.354 36.5348C119.222 36.6349 119.122 36.7726 119.068 36.9302C118.967 37.2358 119.084 37.5673 119.072 37.8867Z" fill="black"/>
<path opacity="0.1" d="M129.344 53.4391C129.23 53.6146 129.074 53.7583 128.889 53.857C128.648 53.9422 128.388 53.9554 128.139 53.8949C126.986 53.7223 125.726 53.3666 124.706 53.9243C124.153 54.2247 123.724 54.7703 123.108 54.9084C122.09 55.1363 121.221 54.1574 120.214 53.8725C119.501 53.6739 118.749 53.838 118.03 54.0451C117.888 54.3502 117.695 54.6292 117.46 54.8704C118.253 54.6425 119.096 54.4129 119.89 54.6339C120.897 54.9136 121.765 55.8925 122.786 55.6698C123.399 55.5334 123.83 54.9878 124.382 54.6857C125.416 54.128 126.662 54.4785 127.815 54.6581C128.064 54.7168 128.324 54.7036 128.565 54.6201C128.75 54.5208 128.906 54.3765 129.02 54.2005C129.332 53.7878 129.574 53.3256 129.734 52.8331C129.618 53.0442 129.488 53.2467 129.344 53.4391Z" fill="black"/>
</g>
</svg>