<svg width="125" height="97" viewBox="0 0 125 97" fill="none" xmlns="http://www.w3.org/2000/svg">
<path d="M123.549 16.0808L114.145 6.51875C113.684 6.04209 113.134 5.66247 112.527 5.40182C111.92 5.14117 111.268 5.00464 110.609 5.00012C109.95 4.99559 109.296 5.12315 108.685 5.37544C108.075 5.62774 107.52 5.99976 107.053 6.47005L47.9975 65.6748L23.0275 40.2307C22.1004 39.2799 20.8376 38.7403 19.5171 38.7308C18.1965 38.7212 16.9262 39.2424 15.9857 40.1797L6.4803 49.6885C5.54095 50.637 5.00913 51.9217 5.00012 53.264C4.9911 54.6063 5.50561 55.8981 6.43214 56.8595L44.3527 95.5021C45.2905 96.4522 46.5609 96.9903 47.8885 96.9999C49.216 97.0094 50.4939 96.4896 51.445 95.5531L123.497 23.2495C123.968 22.7837 124.344 22.2281 124.602 21.6148C124.86 21.0016 124.995 20.3427 125 19.6763C125.005 19.0099 124.879 18.349 124.63 17.7319C124.381 17.1149 124.014 16.5537 123.549 16.0808Z" fill="#2CC15F"/>
<path d="M118.549 10.9604L109.145 1.50224C108.684 1.03076 108.134 0.655274 107.527 0.397456C106.92 0.139637 106.268 0.00459404 105.609 0.000115187C104.95 -0.00436366 104.296 0.121814 103.685 0.371364C103.075 0.620914 102.52 0.988896 102.053 1.45407L42.9975 60.0153L18.0275 34.8478C17.1004 33.9073 15.8376 33.3736 14.5171 33.3641C13.1965 33.3547 11.9262 33.8702 10.9857 34.7973L1.4803 44.2027C0.540947 45.141 0.00913304 46.4117 0.000116537 47.7394C-0.00889997 49.0671 0.505609 50.3448 1.43214 51.2958L39.3527 89.5184C40.2905 90.4581 41.5609 90.9904 42.8885 90.9999C44.216 91.0093 45.4939 90.4952 46.445 89.5688L118.497 18.0511C118.968 17.5904 119.344 17.0409 119.602 16.4342C119.86 15.8276 119.995 15.1759 120 14.5168C120.005 13.8576 119.879 13.2039 119.63 12.5936C119.381 11.9832 119.014 11.4281 118.549 10.9604Z" fill="#3ACC6C"/>
</svg>