<svg width="77" height="101" viewBox="0 0 77 101" fill="none" xmlns="http://www.w3.org/2000/svg">
<path d="M56 89.0086C55.9983 91.3812 55.2933 93.7001 53.974 95.6722C52.6548 97.6443 50.7806 99.181 48.5882 100.088C46.3959 100.995 43.9838 101.232 41.6568 100.769C39.3299 100.306 37.1925 99.163 35.5147 97.4853C33.837 95.8076 32.6943 93.6702 32.231 91.3433C31.7677 89.0163 32.0046 86.6042 32.9118 84.4119C33.8189 82.2195 35.3556 80.3453 37.3277 79.026C39.2997 77.7068 41.6186 77.0018 43.9913 77C45.5695 76.9956 47.1331 77.3032 48.592 77.9051C50.051 78.507 51.3766 79.3914 52.4926 80.5073C53.6086 81.6233 54.4929 82.9489 55.0949 84.4079C55.6968 85.8668 56.0044 87.4304 56 89.0086Z" fill="#6C63FF"/>
<path opacity="0.3" d="M56 89.0086C55.9983 91.3812 55.2933 93.7001 53.974 95.6722C52.6548 97.6443 50.7806 99.181 48.5882 100.088C46.3959 100.995 43.9838 101.232 41.6568 100.769C39.3299 100.306 37.1925 99.163 35.5147 97.4853C33.837 95.8076 32.6943 93.6702 32.231 91.3433C31.7677 89.0163 32.0046 86.6042 32.9118 84.4119C33.8189 82.2195 35.3556 80.3453 37.3277 79.026C39.2997 77.7068 41.6186 77.0018 43.9913 77C45.5695 76.9956 47.1331 77.3032 48.592 77.9051C50.051 78.507 51.3766 79.3914 52.4926 80.5073C53.6086 81.6233 54.4929 82.9489 55.0949 84.4079C55.6968 85.8668 56.0044 87.4304 56 89.0086Z" fill="black"/>
<path d="M76.9995 29.195C77.0219 33.0477 76.2255 36.8614 74.6629 40.3853C73.9861 41.9022 73.1746 43.3557 72.2382 44.7286C70.2979 47.5237 67.9698 50.0305 65.3233 52.1742C64.869 52.5538 64.371 52.948 63.7043 53.459C62.8693 54.0794 61.939 54.7291 60.8695 55.4299C58.9812 56.647 57.164 57.9703 55.4268 59.3936C54.3967 60.1937 53.5036 61.1552 52.7825 62.2404C51.8815 63.8098 51.4273 66.8465 51.4273 71.27V72H31.6787V68.5838C31.6787 65.9121 31.7447 63.6638 31.8692 61.7076C31.9588 59.9348 32.1447 58.1681 32.4259 56.4153C32.6192 54.8737 33.0854 53.3784 33.8029 51.999C35.0995 49.8457 38.2274 46.9185 43.355 43.0497C43.5747 42.8891 43.7945 42.7212 44.0217 42.5533C44.2341 42.4073 44.4391 42.254 44.6515 42.0935C46.4279 40.8361 48.0635 39.3923 49.5302 37.7867C49.9587 37.2866 50.3551 36.76 50.7168 36.21L50.8121 36.064C51.9603 34.037 52.5232 31.7329 52.4383 29.4067C52.4438 28.8182 52.4047 28.2301 52.3211 27.6475C52.0933 25.375 51.0347 23.2654 49.3471 21.7202C47.5158 20.0475 45.155 19.0662 42.6738 18.9463C42.3588 18.9171 42.0659 18.9098 41.7655 18.9098C40.598 18.9034 39.4343 19.0407 38.3007 19.3186C36.1758 19.841 34.2693 21.0156 32.8508 22.6764C32.099 23.5609 31.4593 24.5342 30.9462 25.5744C29.2156 29.5528 28.1088 33.7725 27.6645 38.0859L27.5912 38.8524L9 33.9179V25.7496C9.08799 25.4211 9.18313 25.0926 9.28578 24.7714C10.4726 20.6748 12.3636 16.8145 14.8748 13.3621C15.9481 11.8971 17.1572 10.5358 18.486 9.29622C18.801 8.98234 19.1454 8.67577 19.4897 8.37649C21.7266 6.44121 24.2121 4.81124 26.8806 3.52953L27.1151 3.42004C32.1698 1.09202 37.6845 -0.0754342 43.2524 0.00377752C43.8311 0.00377752 44.5124 0.0110754 45.1862 0.0475735C50.7193 0.187358 56.1498 1.56705 61.0746 4.08426C63.2861 5.22509 65.3582 6.61634 67.2497 8.23044C72.557 12.5415 75.9744 18.74 76.7797 25.5159C76.9266 26.7368 77 27.9654 76.9995 29.195Z" fill="#6C63FF"/>
<path opacity="0.3" d="M76.9995 29.195C77.0219 33.0477 76.2255 36.8614 74.6629 40.3853C73.9861 41.9022 73.1746 43.3557 72.2382 44.7286C70.2979 47.5237 67.9698 50.0305 65.3233 52.1742C64.869 52.5538 64.371 52.948 63.7043 53.459C62.8693 54.0794 61.939 54.7291 60.8695 55.4299C58.9812 56.647 57.164 57.9703 55.4268 59.3936C54.3967 60.1937 53.5036 61.1552 52.7825 62.2404C51.8815 63.8098 51.4273 66.8465 51.4273 71.27V72H31.6787V68.5838C31.6787 65.9121 31.7447 63.6638 31.8692 61.7076C31.9588 59.9348 32.1447 58.1681 32.4259 56.4153C32.6192 54.8737 33.0854 53.3784 33.8029 51.999C35.0995 49.8457 38.2274 46.9185 43.355 43.0497C43.5747 42.8891 43.7945 42.7212 44.0217 42.5533C44.2341 42.4073 44.4391 42.254 44.6515 42.0935C46.4279 40.8361 48.0635 39.3923 49.5302 37.7867C49.9587 37.2866 50.3551 36.76 50.7168 36.21L50.8121 36.064C51.9603 34.037 52.5232 31.7329 52.4383 29.4067C52.4438 28.8182 52.4047 28.2301 52.3211 27.6475C52.0933 25.375 51.0347 23.2654 49.3471 21.7202C47.5158 20.0475 45.155 19.0662 42.6738 18.9463C42.3588 18.9171 42.0659 18.9098 41.7655 18.9098C40.598 18.9034 39.4343 19.0407 38.3007 19.3186C36.1758 19.841 34.2693 21.0156 32.8508 22.6764C32.099 23.5609 31.4593 24.5342 30.9462 25.5744C29.2156 29.5528 28.1088 33.7725 27.6645 38.0859L27.5912 38.8524L9 33.9179V25.7496C9.08799 25.4211 9.18313 25.0926 9.28578 24.7714C10.4726 20.6748 12.3636 16.8145 14.8748 13.3621C15.9481 11.8971 17.1572 10.5358 18.486 9.29622C18.801 8.98234 19.1454 8.67577 19.4897 8.37649C21.7266 6.44121 24.2121 4.81124 26.8806 3.52953L27.1151 3.42004C32.1698 1.09202 37.6845 -0.0754342 43.2524 0.00377752C43.8311 0.00377752 44.5124 0.0110754 45.1862 0.0475735C50.7193 0.187358 56.1498 1.56705 61.0746 4.08426C63.2861 5.22509 65.3582 6.61634 67.2497 8.23044C72.557 12.5415 75.9744 18.74 76.7797 25.5159C76.9266 26.7368 77 27.9654 76.9995 29.195Z" fill="black"/>
<path d="M48 89.0086C47.9983 91.3812 47.2933 93.7001 45.974 95.6722C44.6548 97.6443 42.7806 99.181 40.5882 100.088C38.3959 100.995 35.9838 101.232 33.6568 100.769C31.3299 100.306 29.1925 99.163 27.5147 97.4853C25.837 95.8076 24.6943 93.6702 24.231 91.3433C23.7677 89.0163 24.0046 86.6042 24.9118 84.4119C25.8189 82.2195 27.3556 80.3453 29.3277 79.026C31.2997 77.7068 33.6186 77.0018 35.9913 77C37.5695 76.9956 39.1331 77.3032 40.592 77.9051C42.051 78.507 43.3766 79.3914 44.4926 80.5073C45.6086 81.6233 46.4929 82.9489 47.0949 84.4079C47.6968 85.8668 48.0044 87.4304 48 89.0086Z" fill="#6C63FF"/>
<path d="M68.9995 29.195C69.0217 33.0477 68.232 36.8614 66.6824 40.3853C66.0113 41.9022 65.2066 43.3557 64.278 44.7286C62.354 47.5237 60.0453 50.0305 57.421 52.1742C56.9705 52.5538 56.4767 52.948 55.8155 53.459C54.9875 54.0794 54.065 54.7291 53.0045 55.4299C51.1319 56.647 49.33 57.9703 47.6073 59.3936C46.5858 60.1937 45.7002 61.1552 44.9851 62.2404C44.0917 63.8098 43.6413 66.8465 43.6413 71.27V72H24.0579V68.5838C24.0579 65.9121 24.1233 63.6638 24.2468 61.7076C24.3357 59.9348 24.52 58.1681 24.7988 56.4153C24.9905 54.8737 25.4529 53.3784 26.1643 51.999C27.45 49.8457 30.5518 46.9185 35.6365 43.0497C35.8544 42.8891 36.0724 42.7212 36.2976 42.5533C36.5082 42.4073 36.7115 42.254 36.9222 42.0935C38.6837 40.8361 40.3056 39.3923 41.76 37.7867C42.185 37.2866 42.578 36.76 42.9367 36.21L43.0312 36.064C44.1698 34.037 44.728 31.7329 44.6438 29.4067C44.6493 28.8182 44.6104 28.2301 44.5276 27.6475C44.3016 25.375 43.252 23.2654 41.5784 21.7202C39.7625 20.0475 37.4214 19.0662 34.961 18.9463C34.6487 18.9171 34.3582 18.9098 34.0603 18.9098C32.9026 18.9034 31.7486 19.0407 30.6245 19.3186C28.5173 19.841 26.6268 21.0156 25.2202 22.6764C24.4746 23.5609 23.8403 24.5342 23.3315 25.5744C22.024 28.195 21.1741 31.6696 20.8036 35.896L20.7309 36.6625L0 33.6916L0.101616 32.9689C0.465872 30.1937 1.05132 27.4524 1.85232 24.7714C3.02921 20.6748 4.90443 16.8145 7.39457 13.3621C8.45891 11.8971 9.65786 10.5358 10.9756 9.29622C11.2879 8.98234 11.6295 8.67577 11.9708 8.37649C14.1891 6.44121 16.6538 4.81124 19.3 3.52953L19.5325 3.42004C24.5449 1.09202 30.0135 -0.0754342 35.5348 0.00377752C36.1086 0.00377752 36.7842 0.0110754 37.4524 0.0475735C42.9392 0.187358 48.3242 1.56705 53.2079 4.08426C55.4009 5.22509 57.4556 6.61634 59.3312 8.23044C64.5942 12.5415 67.983 18.74 68.7815 25.5159C68.9272 26.7368 69 27.9654 68.9995 29.195Z" fill="#6C63FF"/>
</svg>