<svg width="456" height="258" viewBox="0 0 456 258" fill="none" xmlns="http://www.w3.org/2000/svg">
<path opacity="0.1" d="M444.952 238.881C444.543 239.18 444.168 239.471 443.767 239.754C442.29 240.802 440.743 241.748 439.138 242.586C430.729 247.034 420.363 249.206 410.267 250.682C387.623 253.994 364.504 254.638 341.484 255.269C279.285 256.982 216.934 258.692 154.885 254.744C130.369 253.187 105.315 250.58 83.0995 242.586C79.9152 241.444 76.7936 240.184 73.7346 238.807C67.5445 236.015 61.5995 232.617 56.6555 228.559C52.0098 224.755 48.2426 220.385 45.9913 215.417C41.2966 205.071 43.7808 193.45 49.1415 183.309C51.3679 179.206 53.8788 175.265 56.6555 171.515C60.7945 165.805 65.3585 160.259 69.522 154.553C84.3376 134.27 94.0048 108.61 80.3293 87.8067C76.3986 81.8301 70.7192 76.5832 67.5159 70.3443C63.43 62.3633 63.7446 53.5009 65.0439 44.8927C65.2128 43.7996 65.3912 42.7175 65.5791 41.6462C67.7978 28.8815 71.9736 15.1289 84.8483 7.16012C98.2215 -1.12015 117.213 -0.702035 133.81 2.24115C159.62 6.86498 183.429 16.4898 207.491 25.18C231.553 33.8701 256.726 41.8102 283.17 42.6628C306.521 43.417 333.758 37.7725 349.256 23.1017C364.308 8.85307 392.603 7.76679 412.996 16.375C426.994 22.2819 437.438 32.9232 441.843 44.8927C442.735 47.2958 443.377 49.7849 443.759 52.3204C444.112 54.6376 444.227 56.985 444.102 59.3258C444.041 60.4818 443.922 61.6254 443.759 62.7568C440.351 86.3761 415.824 105.007 400.914 126.105C393.629 136.41 388.485 148.79 393.494 159.902C401.135 176.836 427.705 182.858 443.751 195.458C446.77 197.752 449.429 200.488 451.637 203.575C459.42 214.79 456.548 229.936 444.952 238.881Z" fill="#6C63FF"/>
<path d="M105.346 133.171C105.346 133.171 86.5503 99.7544 58.2268 90.1296C46.3408 86.0879 35.9667 78.4881 28.8736 68.1008C25.5155 63.1692 22.616 57.9386 20.2114 52.4749" stroke="#535461" stroke-width="2" stroke-miterlimit="10"/>
<path d="M2.39986 46.2889C5.62773 49.4165 20.6557 52.6958 20.6557 52.6958C20.6557 52.6958 16.9784 37.7258 13.7424 34.5817C12.1868 33.1039 10.1135 32.3006 7.97163 32.3459C5.82979 32.3912 3.79202 33.2814 2.29992 34.8237C0.807826 36.3659 -0.0183958 38.4359 0.000310868 40.585C0.0190176 42.7342 0.881146 44.7894 2.39986 46.3053V46.2889Z" fill="#6C63FF"/>
<path d="M10.903 73.3804C15.3117 74.2576 29.6982 68.7934 29.6982 68.7934C29.6982 68.7934 18.4824 58.234 14.0696 57.3568C11.9724 56.9863 9.8139 57.4548 8.0568 58.6618C6.29971 59.8687 5.0838 61.7182 4.66967 63.8138C4.25553 65.9095 4.67612 68.0844 5.8413 69.8727C7.00647 71.6609 8.82352 72.9201 10.903 73.3804Z" fill="#6C63FF"/>
<path d="M41.8552 102.705C46.1046 101.23 55.7474 89.2314 55.7474 89.2314C55.7474 89.2314 40.7602 85.7922 36.5149 87.2679C35.4733 87.5925 34.5073 88.1238 33.6742 88.8302C32.8412 89.5366 32.1581 90.4037 31.6654 91.38C31.1728 92.3563 30.8807 93.422 30.8065 94.5137C30.7322 95.6054 30.8774 96.701 31.2333 97.7354C31.5892 98.7698 32.1486 99.7219 32.8784 100.535C33.6081 101.349 34.4933 102.007 35.4813 102.47C36.4694 102.934 37.5402 103.193 38.6302 103.234C39.7202 103.274 40.8072 103.094 41.8266 102.705H41.8552Z" fill="#6C63FF"/>
<path d="M70.25 119.59C74.6873 118.852 86.226 108.666 86.226 108.666C86.226 108.666 72.0356 102.734 67.5983 103.468C65.4673 103.821 63.5633 105.008 62.3051 106.77C61.0469 108.531 60.5376 110.721 60.8892 112.859C61.2409 114.997 62.4246 116.907 64.1801 118.17C65.9356 119.432 68.119 119.943 70.25 119.59Z" fill="#6C63FF"/>
<path d="M42.2168 57.0945C42.2168 61.6035 34.0858 74.6921 34.0858 74.6921C34.0858 74.6921 25.9385 61.6117 25.9344 57.1027C25.9101 56.0147 26.1027 54.9328 26.5009 53.9206C26.8992 52.9083 27.495 51.986 28.2533 51.208C29.0117 50.4299 29.9174 49.8117 30.9172 49.3896C31.9171 48.9675 32.9909 48.7501 34.0756 48.7501C35.1603 48.7501 36.2341 48.9675 37.234 49.3896C38.2338 49.8117 39.1395 50.4299 39.8979 51.208C40.6562 51.986 41.252 52.9083 41.6503 53.9206C42.0485 54.9328 42.2411 56.0147 42.2168 57.1027V57.0945Z" fill="#6C63FF"/>
<path d="M75.1807 77.2908C73.8364 81.5949 62.1712 91.6378 62.1712 91.6378C62.1712 91.6378 58.2977 76.6964 59.6256 72.3718C60.3394 70.3917 61.7875 68.7646 63.6681 67.8298C65.5486 66.8949 67.7163 66.7246 69.719 67.3543C71.7217 67.984 73.4047 69.3652 74.417 71.2096C75.4292 73.054 75.6926 75.2194 75.1521 77.2539L75.1807 77.2908Z" fill="#6C63FF"/>
<path d="M104.536 101.292C103.939 105.764 94.1332 117.639 94.1332 117.639C94.1332 117.639 87.8 103.587 88.4129 99.115C88.7302 96.9937 89.8664 95.0827 91.5761 93.7947C93.2858 92.5067 95.4318 91.9449 97.5509 92.2307C99.6699 92.5165 101.592 93.6269 102.902 95.3222C104.212 97.0174 104.805 99.1616 104.552 101.292H104.536Z" fill="#6C63FF"/>
<path opacity="0.25" d="M2.39986 46.2889C5.62773 49.4165 20.6557 52.6958 20.6557 52.6958C20.6557 52.6958 16.9784 37.7258 13.7424 34.5817C12.1868 33.1039 10.1135 32.3006 7.97163 32.3459C5.82979 32.3912 3.79202 33.2814 2.29992 34.8237C0.807826 36.3659 -0.0183958 38.4359 0.000310868 40.585C0.0190176 42.7342 0.881146 44.7894 2.39986 46.3053V46.2889Z" fill="black"/>
<path opacity="0.25" d="M10.903 73.3804C15.3117 74.2576 29.6982 68.7934 29.6982 68.7934C29.6982 68.7934 18.4824 58.234 14.0696 57.3568C11.9724 56.9863 9.8139 57.4548 8.0568 58.6618C6.29971 59.8687 5.0838 61.7182 4.66967 63.8138C4.25553 65.9095 4.67612 68.0844 5.8413 69.8727C7.00647 71.6609 8.82352 72.9201 10.903 73.3804Z" fill="black"/>
<path opacity="0.25" d="M41.8552 102.705C46.1046 101.23 55.7474 89.2314 55.7474 89.2314C55.7474 89.2314 40.7602 85.7922 36.5149 87.2679C35.4733 87.5925 34.5073 88.1238 33.6742 88.8302C32.8412 89.5366 32.1581 90.4037 31.6654 91.38C31.1728 92.3563 30.8807 93.422 30.8065 94.5137C30.7322 95.6054 30.8774 96.701 31.2333 97.7354C31.5892 98.7698 32.1486 99.7219 32.8784 100.535C33.6081 101.349 34.4933 102.007 35.4813 102.47C36.4694 102.934 37.5402 103.193 38.6302 103.234C39.7202 103.274 40.8072 103.094 41.8266 102.705H41.8552Z" fill="black"/>
<path opacity="0.25" d="M70.25 119.59C74.6873 118.852 86.226 108.666 86.226 108.666C86.226 108.666 72.0356 102.734 67.5983 103.468C65.4673 103.821 63.5633 105.008 62.3051 106.77C61.0469 108.531 60.5376 110.721 60.8892 112.859C61.2409 114.997 62.4246 116.907 64.1801 118.17C65.9356 119.432 68.119 119.943 70.25 119.59Z" fill="black"/>
<path opacity="0.25" d="M42.2168 57.0945C42.2168 61.6035 34.0858 74.6921 34.0858 74.6921C34.0858 74.6921 25.9385 61.6117 25.9344 57.1027C25.9101 56.0147 26.1027 54.9328 26.5009 53.9206C26.8992 52.9083 27.495 51.986 28.2533 51.208C29.0117 50.4299 29.9174 49.8117 30.9172 49.3896C31.9171 48.9675 32.9909 48.7501 34.0756 48.7501C35.1603 48.7501 36.2341 48.9675 37.234 49.3896C38.2338 49.8117 39.1395 50.4299 39.8979 51.208C40.6562 51.986 41.252 52.9083 41.6503 53.9206C42.0485 54.9328 42.2411 56.0147 42.2168 57.1027V57.0945Z" fill="black"/>
<path opacity="0.25" d="M75.1807 77.2908C73.8364 81.5949 62.1712 91.6378 62.1712 91.6378C62.1712 91.6378 58.2977 76.6964 59.6256 72.3718C60.3394 70.3917 61.7875 68.7646 63.6681 67.8298C65.5486 66.8949 67.7163 66.7246 69.719 67.3543C71.7217 67.984 73.4047 69.3652 74.417 71.2096C75.4292 73.054 75.6926 75.2194 75.1521 77.2539L75.1807 77.2908Z" fill="black"/>
<path opacity="0.25" d="M104.536 101.292C103.939 105.764 94.1332 117.639 94.1332 117.639C94.1332 117.639 87.8 103.587 88.4129 99.115C88.7302 96.9937 89.8664 95.0827 91.5761 93.7947C93.2858 92.5067 95.4318 91.9449 97.5509 92.2307C99.6699 92.5165 101.592 93.6269 102.902 95.3222C104.212 97.0174 104.805 99.1616 104.552 101.292H104.536Z" fill="black"/>
<path d="M104.261 132.506C104.261 132.506 100.584 94.3104 78.5688 73.9951C69.3387 65.4689 62.9238 54.3192 60.6316 41.9234C59.5557 36.0481 59.0195 30.0862 59.0299 24.1126" stroke="#535461" stroke-width="2" stroke-miterlimit="10"/>
<path d="M45.2401 11.2292C46.9235 15.4144 59.3487 24.494 59.3487 24.494C59.3487 24.494 62.025 9.30668 60.3457 5.12145C59.5384 3.1102 57.9677 1.50308 55.9793 0.653623C53.9909 -0.195833 51.7475 -0.218036 49.7428 0.591899C47.738 1.40183 46.1361 2.97756 45.2894 4.97244C44.4426 6.96731 44.4205 9.21793 45.2278 11.2292H45.2401Z" fill="#6C63FF"/>
<path d="M42.059 39.4519C45.7363 42.0467 61.0871 42.8952 61.0871 42.8952C61.0871 42.8952 55.1339 28.6876 51.4566 26.0928C49.6908 24.8426 47.5022 24.3473 45.3724 24.7159C43.2426 25.0845 41.346 26.2868 40.0998 28.0584C38.8536 29.8299 38.3599 32.0255 38.7273 34.1622C39.0947 36.2989 40.2932 38.2017 42.059 39.4519Z" fill="#6C63FF"/>
<path d="M58.5269 78.8362C63.0214 79.2174 76.6847 72.171 76.6847 72.171C76.6847 72.171 64.3738 62.9356 59.8916 62.5585C58.8131 62.4433 57.7226 62.5454 56.684 62.8588C55.6454 63.1722 54.6796 63.6906 53.8434 64.3835C53.0072 65.0765 52.3175 65.93 51.8146 66.8941C51.3117 67.8581 51.0058 68.9132 50.9149 69.9975C50.824 71.0817 50.9499 72.1733 51.2852 73.208C51.6205 74.2428 52.1585 75.2 52.8676 76.0233C53.5766 76.8466 54.4425 77.5196 55.4143 78.0026C56.3862 78.4857 57.4444 78.7691 58.5269 78.8362Z" fill="#6C63FF"/>
<path d="M77.6672 105.825C82.0227 106.956 96.6871 102.332 96.6871 102.332C96.6871 102.332 86.1087 91.1418 81.7572 90.0104C79.68 89.5055 77.4883 89.8402 75.6548 90.9421C73.8214 92.044 72.4933 93.8249 71.9571 95.9005C71.4208 97.9761 71.7194 100.18 72.7884 102.037C73.8574 103.893 75.6112 105.254 77.6713 105.825H77.6672Z" fill="#6C63FF"/>
<path d="M77.2789 37.2957C75.4607 41.4194 62.7371 50.0727 62.7371 50.0727C62.7371 50.0727 60.5715 34.8075 62.3898 30.6797C62.8109 29.681 63.426 28.7764 64.1991 28.0186C64.9723 27.2609 65.8881 26.6651 66.8931 26.2661C67.8982 25.8671 68.9723 25.6728 70.053 25.6945C71.1336 25.7163 72.1992 25.9536 73.1874 26.3928C74.1757 26.8319 75.067 27.464 75.8092 28.2523C76.5515 29.0406 77.1299 29.9692 77.5107 30.984C77.8915 31.9989 78.0672 33.0796 78.0274 34.1632C77.9876 35.2469 77.7331 36.3117 77.2789 37.2957Z" fill="#6C63FF"/>
<path d="M99.2587 69.1377C96.2923 72.5277 81.5708 76.9671 81.5708 76.9671C81.5708 76.9671 84.055 61.7511 87.0255 58.3611C87.7308 57.5552 88.5874 56.8966 89.5465 56.4229C90.5055 55.9492 91.5481 55.6696 92.6148 55.6002C93.6815 55.5307 94.7514 55.6727 95.7635 56.0181C96.7755 56.3634 97.7098 56.9054 98.513 57.613C99.3163 58.3206 99.9727 59.18 100.445 60.1421C100.917 61.1042 101.196 62.1502 101.265 63.2204C101.334 64.2906 101.193 65.3639 100.848 66.3792C100.504 67.3945 99.964 68.3319 99.2587 69.1377Z" fill="#6C63FF"/>
<path d="M116.42 103.033C114.066 106.878 100.305 113.748 100.305 113.748C100.305 113.748 100.191 98.3274 102.544 94.4824C103.674 92.6342 105.49 91.3122 107.592 90.8071C109.694 90.3021 111.91 90.6553 113.752 91.7892C115.594 92.9232 116.912 94.7448 117.415 96.8534C117.919 98.9621 117.567 101.185 116.436 103.033H116.42Z" fill="#6C63FF"/>
<path d="M444.519 239.67V39.1688H55.8059V228.168C60.7703 232.324 66.7398 235.821 72.9667 238.695C76.0339 240.113 79.1664 241.41 82.3643 242.585H439.882L444.519 239.67Z" fill="url(#paint0_linear)"/>
<path d="M443.77 239.752V44.9076H56.658V228.59C61.6019 232.632 67.5469 236.03 73.7371 238.838C76.7933 240.205 79.915 241.464 83.102 242.618H439.14L443.77 239.752Z" fill="white"/>
<path d="M443.769 39.7385H56.6616V50.0437H443.769V39.7385Z" fill="#5A5773"/>
<path d="M64.3914 47.5557C65.8582 47.5557 67.0473 46.3628 67.0473 44.8912C67.0473 43.4197 65.8582 42.2268 64.3914 42.2268C62.9247 42.2268 61.7356 43.4197 61.7356 44.8912C61.7356 46.3628 62.9247 47.5557 64.3914 47.5557Z" fill="white"/>
<path d="M71.5413 47.5557C73.0081 47.5557 74.1972 46.3628 74.1972 44.8912C74.1972 43.4197 73.0081 42.2268 71.5413 42.2268C70.0746 42.2268 68.8855 43.4197 68.8855 44.8912C68.8855 46.3628 70.0746 47.5557 71.5413 47.5557Z" fill="white"/>
<path d="M78.6932 47.5557C80.16 47.5557 81.349 46.3628 81.349 44.8912C81.349 43.4197 80.16 42.2268 78.6932 42.2268C77.2264 42.2268 76.0374 43.4197 76.0374 44.8912C76.0374 46.3628 77.2264 47.5557 78.6932 47.5557Z" fill="white"/>
<path d="M219.528 72.6915H155.584V113.002H219.528V72.6915Z" fill="#6C63FF"/>
<path opacity="0.2" d="M130.992 72.6914H67.0471V113.002H130.992V72.6914Z" fill="#5A5773"/>
<path opacity="0.2" d="M308.066 72.6915H244.121V113.002H308.066V72.6915Z" fill="#5A5773"/>
<path opacity="0.2" d="M130.991 130.321H67.0464V170.632H130.991V130.321Z" fill="#5A5773"/>
<path opacity="0.2" d="M219.528 130.321H155.584V170.632H219.528V130.321Z" fill="#5A5773"/>
<path opacity="0.2" d="M308.066 130.321H244.121V170.632H308.066V130.321Z" fill="#5A5773"/>
<path opacity="0.2" d="M130.991 187.947H67.0464V228.258H130.991V187.947Z" fill="#5A5773"/>
<path opacity="0.2" d="M219.528 187.947H155.584V228.258H219.528V187.947Z" fill="#5A5773"/>
<path opacity="0.2" d="M308.066 187.947H244.121V228.258H308.066V187.947Z" fill="#5A5773"/>
<path opacity="0.1" d="M337.923 12.3931C337.923 12.3931 322.376 11.4544 324.21 22.3827C324.21 22.3827 323.847 24.3134 325.591 25.1906C325.591 25.1906 325.62 24.3708 327.185 24.6537C327.742 24.7478 328.309 24.7753 328.872 24.7356C329.633 24.6828 330.357 24.3819 330.932 23.8789C330.932 23.8789 335.299 22.0712 336.999 14.9059C336.999 14.9059 338.258 13.34 338.225 12.9383L335.602 14.0656C335.602 14.0656 336.497 15.9635 335.79 17.5417C335.79 17.5417 335.708 14.1312 335.201 14.2131C335.099 14.2131 333.841 14.869 333.841 14.869C333.841 14.869 335.381 18.177 334.217 20.5832C334.217 20.5832 334.658 16.5087 333.359 15.1109L331.504 16.2135C331.504 16.2135 333.305 19.6281 332.084 22.4155C332.084 22.4155 332.398 18.1401 331.115 16.4759L329.44 17.7835C329.44 17.7835 331.136 21.1325 330.114 23.4444C330.114 23.4444 329.98 18.464 329.089 18.0909C329.089 18.0909 327.626 19.3863 327.405 19.9192C327.405 19.9192 328.562 22.3786 327.843 23.6494C327.843 23.6494 327.401 20.3373 327.025 20.3209C327.025 20.3209 325.567 22.518 325.416 24.0101C325.487 22.6178 325.919 21.2683 326.67 20.0954C325.829 20.2552 325.053 20.6601 324.439 21.2596C324.439 21.2596 324.664 19.706 327.03 19.5666C327.03 19.5666 328.235 17.9024 328.558 17.7999C328.558 17.7999 326.204 17.6031 324.778 18.2385C324.778 18.2385 326.033 16.771 328.991 17.4187L330.625 16.066C330.625 16.066 327.528 15.656 326.212 16.1111C326.212 16.1111 327.724 14.8157 331.071 15.7585L332.868 14.6805C332.868 14.6805 330.229 14.1066 328.656 14.3156C328.656 14.3156 330.315 13.4179 333.395 14.3894L334.682 13.8114C334.682 13.8114 332.746 13.4302 332.182 13.3687C331.618 13.3072 331.585 13.1515 331.585 13.1515C332.811 12.9469 334.068 13.0888 335.218 13.5614C335.218 13.5614 337.967 12.5653 337.923 12.3931Z" fill="#6C63FF"/>
<path opacity="0.1" d="M315.767 3.53085C315.767 3.53085 302.692 12.0202 310.623 19.7307C310.623 19.7307 311.469 21.5015 313.393 21.1736C313.393 21.1736 312.936 20.5013 314.362 19.7922C314.867 19.5368 315.341 19.2217 315.771 18.8535C316.354 18.3581 316.76 17.6862 316.928 16.9392C316.928 16.9392 319.379 12.881 316.519 6.10102C316.519 6.10102 316.609 4.09244 316.331 3.7973L314.885 6.25678C314.885 6.25678 316.728 7.25288 317.091 8.94172C317.091 8.94172 315.011 6.24859 314.64 6.61341C314.566 6.6872 313.929 7.95383 313.929 7.95383C313.929 7.95383 317.128 9.70007 317.606 12.3276C317.606 12.3276 315.563 8.78186 313.679 8.43343L312.83 10.401C312.83 10.401 316.303 12.0817 316.965 15.0535C316.965 15.0535 314.689 11.4217 312.674 10.8437L312.102 12.8933C312.102 12.8933 315.453 14.5985 315.988 17.0744C315.988 17.0744 312.94 13.1474 312 13.3852C312 13.3852 311.592 15.2954 311.722 15.8447C311.722 15.8447 314.1 17.1236 314.28 18.5911C314.28 18.5911 311.967 16.1849 311.669 16.3858C311.669 16.3858 311.792 19.0215 312.556 20.325C311.792 19.1612 311.344 17.8175 311.257 16.4268C310.673 17.0556 310.287 17.8423 310.145 18.6895C310.145 18.6895 309.41 17.304 311.236 15.7873C311.236 15.7873 311.236 13.7377 311.42 13.4549C311.42 13.4549 309.41 14.6846 308.633 16.0537C308.633 16.0537 308.78 14.1271 311.555 12.9056L312.086 10.8355C312.086 10.8355 309.34 12.3358 308.56 13.4959C308.56 13.4959 309.013 11.5529 312.262 10.3231L313.079 8.38424C313.079 8.38424 310.627 9.49511 309.467 10.5978C309.467 10.5978 310.284 8.88434 313.332 7.83905L314.027 6.60931C314.027 6.60931 312.241 7.45374 311.751 7.74068C311.261 8.02762 311.142 7.92104 311.142 7.92104C312.008 7.02747 313.104 6.39306 314.309 6.08872C314.309 6.08872 315.906 3.64563 315.767 3.53085Z" fill="#6C63FF"/>
<path opacity="0.1" d="M295.867 13.4217C295.867 13.4217 288.051 26.9489 298.604 30.1995C298.604 30.1995 300.161 31.3924 301.726 30.1995C301.726 30.1995 301.019 29.8142 301.967 28.5312C302.296 28.0733 302.571 27.5779 302.784 27.0555C303.08 26.3486 303.138 25.5647 302.952 24.8215C302.952 24.8215 303.299 20.0911 297.681 15.3483C297.681 15.3483 296.864 13.5201 296.455 13.3849L296.28 16.2543C296.28 16.2543 298.372 16.3034 299.462 17.6439C299.462 17.6439 296.39 16.1887 296.235 16.6765C296.202 16.7749 296.206 18.1932 296.206 18.1932C296.206 18.1932 299.879 18.3038 301.514 20.4272C301.514 20.4272 298.081 18.2014 296.255 18.7424L296.386 20.8822C296.386 20.8822 300.239 20.8002 302.171 23.149C302.171 23.149 298.494 20.9478 296.451 21.3495L296.86 23.436C296.86 23.436 300.619 23.436 302.212 25.3954C302.212 25.3954 297.718 23.2802 296.986 23.9074C296.986 23.9074 297.481 25.8012 297.857 26.2398C297.857 26.2398 300.553 26.2972 301.379 27.5228C301.379 27.5228 298.229 26.4283 298.053 26.7481C298.053 26.7481 299.356 29.0395 300.627 29.8511C299.421 29.1654 298.414 28.1765 297.706 26.9817C297.471 27.8072 297.482 28.6836 297.738 29.5027C297.738 29.5027 296.455 28.605 297.395 26.4201C297.395 26.4201 296.455 24.5919 296.508 24.2599C296.508 24.2599 295.283 26.2808 295.201 27.8425C295.201 27.8425 294.457 26.0594 296.378 23.7106L295.916 21.62C295.916 21.62 294.147 24.2066 293.975 25.5962C293.975 25.5962 293.501 23.6573 295.842 21.0871L295.687 18.9925C295.687 18.9925 293.996 21.1035 293.473 22.6079C293.473 22.6079 293.415 20.7141 295.667 18.3899L295.728 16.9757C295.728 16.9757 294.502 18.5375 294.212 19.0253C293.922 19.5131 293.75 19.4434 293.75 19.4434C294.119 18.2521 294.809 17.1865 295.744 16.3649C295.744 16.3649 296.038 13.4586 295.867 13.4217Z" fill="#6C63FF"/>
<path d="M362.978 167.624C361.822 167.624 360.691 167.968 359.73 168.612C358.768 169.257 358.019 170.173 357.576 171.245C357.134 172.317 357.018 173.496 357.243 174.634C357.469 175.772 358.026 176.817 358.844 177.637C359.661 178.458 360.703 179.016 361.837 179.243C362.971 179.469 364.147 179.353 365.216 178.909C366.284 178.465 367.197 177.713 367.84 176.748C368.482 175.784 368.825 174.65 368.825 173.49C368.821 171.935 368.203 170.446 367.108 169.347C366.012 168.247 364.527 167.628 362.978 167.624ZM345.883 121.594V127.46H351.729L362.255 148.85L357.854 156.035C357.374 156.885 357.122 157.846 357.123 158.823C357.123 162.75 359.799 164.689 363.427 164.689H397.614V159.048H364.142C364.045 159.054 363.947 159.039 363.856 159.005C363.764 158.97 363.681 158.916 363.612 158.847C363.543 158.777 363.489 158.694 363.455 158.602C363.42 158.511 363.405 158.412 363.411 158.315C363.488 158.061 363.592 157.816 363.722 157.585L366.643 152.957H388.425C389.477 152.966 390.512 152.683 391.414 152.14C392.317 151.597 393.053 150.814 393.541 149.878L404.07 131.715C404.275 131.254 404.376 130.753 404.364 130.248C404.36 129.87 404.281 129.497 404.13 129.151C403.98 128.805 403.762 128.493 403.489 128.233C403.216 127.973 402.894 127.771 402.542 127.638C402.19 127.505 401.815 127.445 401.439 127.46H358.165L355.386 121.594H345.883ZM391.763 167.624C390.607 167.625 389.477 167.969 388.516 168.614C387.555 169.259 386.806 170.176 386.364 171.248C385.922 172.32 385.807 173.499 386.033 174.636C386.259 175.774 386.816 176.819 387.634 177.639C388.452 178.459 389.494 179.017 390.628 179.243C391.762 179.469 392.938 179.353 394.006 178.909C395.074 178.464 395.987 177.713 396.629 176.748C397.271 175.784 397.614 174.65 397.614 173.49C397.61 171.934 396.992 170.444 395.895 169.345C394.799 168.246 393.313 167.627 391.763 167.624Z" fill="#6C63FF"/>
<path d="M384.282 137.823H379.379V132.904H375.702V137.823H370.799V141.512H375.702V146.431H379.379V141.512H384.282V137.823Z" fill="white"/>
<defs>
<linearGradient id="paint0_linear" x1="250.161" y1="242.585" x2="250.161" y2="39.1688" gradientUnits="userSpaceOnUse">
<stop stop-color="#808080" stop-opacity="0.25"/>
<stop offset="0.54" stop-color="#808080" stop-opacity="0.12"/>
<stop offset="1" stop-color="#808080" stop-opacity="0.1"/>
</linearGradient>
</defs>
</svg>