<svg width="22" height="24" viewBox="0 0 22 24" fill="none" xmlns="http://www.w3.org/2000/svg">
<path d="M18.0723 16.9759C17.1567 16.9759 16.3313 17.3313 15.7048 17.9036L7.12048 12.8976C7.18673 12.6265 7.22892 12.3434 7.22892 12.0542C7.22892 11.7651 7.18673 11.4819 7.12048 11.2109L15.6145 6.25301C16.259 6.85544 17.1205 7.22892 18.0723 7.22892C20.0663 7.22892 21.6868 5.60845 21.6868 3.61446C21.6868 1.62046 20.0663 0 18.0723 0C16.0783 0 14.4578 1.62046 14.4578 3.61446C14.4578 3.90361 14.5 4.18673 14.5663 4.45781L6.07229 9.41561C5.42773 8.81318 4.56625 8.4397 3.61446 8.4397C1.62046 8.4397 0 10.0602 0 12.0542C0 14.0482 1.62046 15.6686 3.61446 15.6686C4.56625 15.6686 5.42773 15.2951 6.07229 14.6927L14.6566 19.6987C14.5964 19.9517 14.5602 20.2168 14.5602 20.4879C14.5602 22.4277 16.1325 23.9999 18.0723 23.9999C20.0121 23.9999 21.5844 22.4277 21.5844 20.4879C21.5844 18.5481 20.0121 16.9759 18.0723 16.9759Z" fill="#7C33FF"/>
</svg>